solid OpenSCAD_Model
  facet normal -1 0 0
    outer loop
      vertex -40 -30 0
      vertex -40 -15 5
      vertex -40 -15 0
    endloop
  endfacet
  facet normal -1 -0 0
    outer loop
      vertex -40 -15 5
      vertex -40 -30 0
      vertex -40 -30 5
    endloop
  endfacet
  facet normal -1 0 0
    outer loop
      vertex -40 15 0
      vertex -40 30 5
      vertex -40 30 0
    endloop
  endfacet
  facet normal -1 -0 0
    outer loop
      vertex -40 30 5
      vertex -40 15 0
      vertex -40 15 5
    endloop
  endfacet
  facet normal -0 0 1
    outer loop
      vertex -42 -4 5
      vertex -29 -30 5
      vertex -42 4 5
    endloop
  endfacet
  facet normal -0 0 1
    outer loop
      vertex -70 15 5
      vertex -42 4 5
      vertex -40 15 5
    endloop
  endfacet
  facet normal 0 0 1
    outer loop
      vertex -42 4 5
      vertex -70 15 5
      vertex -70 4 5
    endloop
  endfacet
  facet normal 0 0 1
    outer loop
      vertex -40 15 5
      vertex -29 30 5
      vertex -40 30 5
    endloop
  endfacet
  facet normal 0 0 1
    outer loop
      vertex -42 4 5
      vertex -29 30 5
      vertex -40 15 5
    endloop
  endfacet
  facet normal 0 0 1
    outer loop
      vertex -29 30 5
      vertex -42 4 5
      vertex -29 -30 5
    endloop
  endfacet
  facet normal 0 0 1
    outer loop
      vertex -29 -30 5
      vertex -40 -15 5
      vertex -40 -30 5
    endloop
  endfacet
  facet normal 0 0 1
    outer loop
      vertex -29 -30 5
      vertex -42 -4 5
      vertex -40 -15 5
    endloop
  endfacet
  facet normal 0 0 1
    outer loop
      vertex -70 -15 5
      vertex -42 -4 5
      vertex -70 -4 5
    endloop
  endfacet
  facet normal 0 0 1
    outer loop
      vertex -42 -4 5
      vertex -70 -15 5
      vertex -40 -15 5
    endloop
  endfacet
  facet normal -0 0 1
    outer loop
      vertex 9.7 30 5
      vertex 21 -30 5
      vertex 21 30 5
    endloop
  endfacet
  facet normal 0 0 1
    outer loop
      vertex 21 -30 5
      vertex 9.7 30 5
      vertex 9.7 -30 5
    endloop
  endfacet
  facet normal -0 0 1
    outer loop
      vertex -21 30 5
      vertex -9.7 -30 5
      vertex -9.7 30 5
    endloop
  endfacet
  facet normal 0 0 1
    outer loop
      vertex -9.7 -30 5
      vertex -21 30 5
      vertex -21 -30 5
    endloop
  endfacet
  facet normal -0 0 1
    outer loop
      vertex 29 30 5
      vertex 40 -30 5
      vertex 40 30 5
    endloop
  endfacet
  facet normal 0 0 1
    outer loop
      vertex 40 -30 5
      vertex 29 30 5
      vertex 29 -30 5
    endloop
  endfacet
  facet normal 1 -0 0
    outer loop
      vertex 40 -30 5
      vertex 40 30 0
      vertex 40 30 5
    endloop
  endfacet
  facet normal 1 0 0
    outer loop
      vertex 40 30 0
      vertex 40 -30 5
      vertex 40 -30 0
    endloop
  endfacet
  facet normal 0 1 -0
    outer loop
      vertex 40 30 0
      vertex 29 30 5
      vertex 40 30 5
    endloop
  endfacet
  facet normal 0 1 0
    outer loop
      vertex 29 30 5
      vertex 40 30 0
      vertex 21 30 5
    endloop
  endfacet
  facet normal 0 1 0
    outer loop
      vertex 21 30 5
      vertex 40 30 0
      vertex 9.7 30 5
    endloop
  endfacet
  facet normal 0 1 0
    outer loop
      vertex 9.7 30 5
      vertex 40 30 0
      vertex -9.7 30 5
    endloop
  endfacet
  facet normal 0 1 0
    outer loop
      vertex -40 30 0
      vertex -9.7 30 5
      vertex 40 30 0
    endloop
  endfacet
  facet normal 0 1 0
    outer loop
      vertex -9.7 30 5
      vertex -40 30 0
      vertex -21 30 5
    endloop
  endfacet
  facet normal 0 1 0
    outer loop
      vertex -21 30 5
      vertex -40 30 0
      vertex -29 30 5
    endloop
  endfacet
  facet normal 0 1 0
    outer loop
      vertex -29 30 5
      vertex -40 30 0
      vertex -40 30 5
    endloop
  endfacet
  facet normal 0 1 -0
    outer loop
      vertex 29 30 5
      vertex 21 30 7
      vertex 29 30 7
    endloop
  endfacet
  facet normal 0 1 0
    outer loop
      vertex 21 30 7
      vertex 29 30 5
      vertex 21 30 5
    endloop
  endfacet
  facet normal 0 1 -0
    outer loop
      vertex -21 30 5
      vertex -29 30 7
      vertex -21 30 7
    endloop
  endfacet
  facet normal 0 1 0
    outer loop
      vertex -29 30 7
      vertex -21 30 5
      vertex -29 30 5
    endloop
  endfacet
  facet normal -0 0 -1
    outer loop
      vertex -27.292 12.3549 0
      vertex -51.5 0 0
      vertex -40 15 0
    endloop
  endfacet
  facet normal 0 0 -1
    outer loop
      vertex -40 -15 0
      vertex -52.0556 -1.89224 0
      vertex -51.5 0 0
    endloop
  endfacet
  facet normal 0 0 -1
    outer loop
      vertex -40 -15 0
      vertex -53.546 -3.18371 0
      vertex -52.0556 -1.89224 0
    endloop
  endfacet
  facet normal 0 0 -1
    outer loop
      vertex -40 -15 0
      vertex -55.4981 -3.46437 0
      vertex -53.546 -3.18371 0
    endloop
  endfacet
  facet normal 0 0 -1
    outer loop
      vertex -70 -15 0
      vertex -55.4981 -3.46437 0
      vertex -40 -15 0
    endloop
  endfacet
  facet normal -0 0 -1
    outer loop
      vertex -58.3582 -0.986063 0
      vertex -70 -15 0
      vertex -58.3582 0.986063 0
    endloop
  endfacet
  facet normal -0 0 -1
    outer loop
      vertex -57.292 -2.64512 0
      vertex -70 -15 0
      vertex -58.3582 -0.986063 0
    endloop
  endfacet
  facet normal -0 0 -1
    outer loop
      vertex -55.4981 -3.46437 0
      vertex -70 -15 0
      vertex -57.292 -2.64512 0
    endloop
  endfacet
  facet normal 0 0 -1
    outer loop
      vertex -52.0556 1.89224 0
      vertex -40 15 0
      vertex -51.5 0 0
    endloop
  endfacet
  facet normal 0 0 -1
    outer loop
      vertex -53.546 3.18371 0
      vertex -40 15 0
      vertex -52.0556 1.89224 0
    endloop
  endfacet
  facet normal 0 0 -1
    outer loop
      vertex -55.4981 3.46437 0
      vertex -40 15 0
      vertex -53.546 3.18371 0
    endloop
  endfacet
  facet normal 0 0 -1
    outer loop
      vertex -70 15 0
      vertex -55.4981 3.46437 0
      vertex -57.292 2.64512 0
    endloop
  endfacet
  facet normal 0 0 -1
    outer loop
      vertex -70 15 0
      vertex -58.3582 0.986063 0
      vertex -70 -15 0
    endloop
  endfacet
  facet normal 0 0 -1
    outer loop
      vertex -55.4981 3.46437 0
      vertex -70 15 0
      vertex -40 15 0
    endloop
  endfacet
  facet normal 0 0 -1
    outer loop
      vertex -58.3582 0.986063 0
      vertex -70 15 0
      vertex -57.292 2.64512 0
    endloop
  endfacet
  facet normal -0 0 -1
    outer loop
      vertex -5.30805 -0.992247 0
      vertex -23.546 -11.8163 0
      vertex -5.30805 0.992247 0
    endloop
  endfacet
  facet normal 0 0 -1
    outer loop
      vertex -5.30805 0.992247 0
      vertex -22.0556 13.1078 0
      vertex -21.5 15 0
    endloop
  endfacet
  facet normal 0 0 -1
    outer loop
      vertex -23.546 11.8163 0
      vertex -5.30805 0.992247 0
      vertex -23.546 -11.8163 0
    endloop
  endfacet
  facet normal 0 0 -1
    outer loop
      vertex -5.30805 0.992247 0
      vertex -23.546 11.8163 0
      vertex -22.0556 13.1078 0
    endloop
  endfacet
  facet normal 0 0 -1
    outer loop
      vertex -25.4981 -11.5356 0
      vertex -23.546 11.8163 0
      vertex -23.546 -11.8163 0
    endloop
  endfacet
  facet normal 0 0 -1
    outer loop
      vertex -25.4981 -11.5356 0
      vertex -25.4981 11.5356 0
      vertex -23.546 11.8163 0
    endloop
  endfacet
  facet normal 0 0 -1
    outer loop
      vertex -27.292 -12.3549 0
      vertex -25.4981 11.5356 0
      vertex -25.4981 -11.5356 0
    endloop
  endfacet
  facet normal 0 0 -1
    outer loop
      vertex -27.292 -12.3549 0
      vertex -27.292 12.3549 0
      vertex -25.4981 11.5356 0
    endloop
  endfacet
  facet normal 0 0 -1
    outer loop
      vertex -40 -15 0
      vertex -27.292 -12.3549 0
      vertex -28.3582 -14.0139 0
    endloop
  endfacet
  facet normal 0 0 -1
    outer loop
      vertex -51.5 0 0
      vertex -27.292 -12.3549 0
      vertex -40 -15 0
    endloop
  endfacet
  facet normal 0 0 -1
    outer loop
      vertex 27.9444 13.1078 0
      vertex 40 30 0
      vertex 27.9444 -13.1078 0
    endloop
  endfacet
  facet normal 0 0 -1
    outer loop
      vertex 40 30 0
      vertex 27.9444 13.1078 0
      vertex 28.5 15 0
    endloop
  endfacet
  facet normal 0 0 -1
    outer loop
      vertex 26.454 -11.8163 0
      vertex 27.9444 13.1078 0
      vertex 27.9444 -13.1078 0
    endloop
  endfacet
  facet normal 0 0 -1
    outer loop
      vertex 26.454 -11.8163 0
      vertex 26.454 11.8163 0
      vertex 27.9444 13.1078 0
    endloop
  endfacet
  facet normal 0 0 -1
    outer loop
      vertex 24.5019 -11.5356 0
      vertex 26.454 11.8163 0
      vertex 26.454 -11.8163 0
    endloop
  endfacet
  facet normal 0 0 -1
    outer loop
      vertex 24.5019 -11.5356 0
      vertex 24.5019 11.5356 0
      vertex 26.454 11.8163 0
    endloop
  endfacet
  facet normal 0 0 -1
    outer loop
      vertex 5.4 0 0
      vertex 24.5019 -11.5356 0
      vertex 22.708 -12.3549 0
    endloop
  endfacet
  facet normal 0 0 -1
    outer loop
      vertex 24.5019 -11.5356 0
      vertex 5.4 0 0
      vertex 24.5019 11.5356 0
    endloop
  endfacet
  facet normal 0 0 -1
    outer loop
      vertex 5.03535 -1.9507 0
      vertex 22.708 -12.3549 0
      vertex 21.6418 -14.0139 0
    endloop
  endfacet
  facet normal -0 0 -1
    outer loop
      vertex 24.5019 11.5356 0
      vertex 5.4 0 0
      vertex 22.708 12.3549 0
    endloop
  endfacet
  facet normal 0 0 -1
    outer loop
      vertex 27.9444 -13.1078 0
      vertex 40 -30 0
      vertex 28.5 -15 0
    endloop
  endfacet
  facet normal 0 0 -1
    outer loop
      vertex 40 -30 0
      vertex 27.9444 -16.8922 0
      vertex 28.5 -15 0
    endloop
  endfacet
  facet normal 0 0 -1
    outer loop
      vertex 40 -30 0
      vertex 26.454 -18.1837 0
      vertex 27.9444 -16.8922 0
    endloop
  endfacet
  facet normal 0 0 -1
    outer loop
      vertex 40 -30 0
      vertex 24.5019 -18.4644 0
      vertex 26.454 -18.1837 0
    endloop
  endfacet
  facet normal 0 0 -1
    outer loop
      vertex 40 -30 0
      vertex 22.708 -17.6451 0
      vertex 24.5019 -18.4644 0
    endloop
  endfacet
  facet normal 0 0 -1
    outer loop
      vertex 2.40699 -4.83388 0
      vertex 21.6418 -14.0139 0
      vertex 21.6418 -15.9861 0
    endloop
  endfacet
  facet normal 0 0 -1
    outer loop
      vertex 5.03535 1.9507 0
      vertex 22.708 12.3549 0
      vertex 5.4 0 0
    endloop
  endfacet
  facet normal -0 0 -1
    outer loop
      vertex 22.708 12.3549 0
      vertex 5.03535 1.9507 0
      vertex 21.6418 14.0139 0
    endloop
  endfacet
  facet normal 0 0 -1
    outer loop
      vertex 0.498249 -5.37696 0
      vertex 21.6418 -15.9861 0
      vertex 22.708 -17.6451 0
    endloop
  endfacet
  facet normal 0 0 -1
    outer loop
      vertex 22.708 -12.3549 0
      vertex 5.03535 -1.9507 0
      vertex 5.4 0 0
    endloop
  endfacet
  facet normal 0 0 -1
    outer loop
      vertex 21.6418 -14.0139 0
      vertex 3.99065 -3.63796 0
      vertex 5.03535 -1.9507 0
    endloop
  endfacet
  facet normal 0 0 -1
    outer loop
      vertex 21.6418 -14.0139 0
      vertex 2.40699 -4.83388 0
      vertex 3.99065 -3.63796 0
    endloop
  endfacet
  facet normal 0 0 -1
    outer loop
      vertex -23.546 -18.1837 0
      vertex 22.708 -17.6451 0
      vertex 40 -30 0
    endloop
  endfacet
  facet normal 0 0 -1
    outer loop
      vertex 21.6418 -15.9861 0
      vertex 0.498249 -5.37696 0
      vertex 2.40699 -4.83388 0
    endloop
  endfacet
  facet normal 0 0 -1
    outer loop
      vertex 22.708 -17.6451 0
      vertex -22.0556 -16.8922 0
      vertex 0.498249 -5.37696 0
    endloop
  endfacet
  facet normal -0 0 -1
    outer loop
      vertex 0.498249 -5.37696 0
      vertex -22.0556 -16.8922 0
      vertex -1.47778 -5.19386 0
    endloop
  endfacet
  facet normal -0 0 -1
    outer loop
      vertex -4.59117 -2.84273 0
      vertex -22.0556 -13.1078 0
      vertex -5.30805 -0.992247 0
    endloop
  endfacet
  facet normal -0 0 -1
    outer loop
      vertex -3.25423 -4.30929 0
      vertex -22.0556 -13.1078 0
      vertex -4.59117 -2.84273 0
    endloop
  endfacet
  facet normal 0 0 -1
    outer loop
      vertex -22.0556 -13.1078 0
      vertex -3.25423 -4.30929 0
      vertex -21.5 -15 0
    endloop
  endfacet
  facet normal 0 -0 -1
    outer loop
      vertex -21.5 -15 0
      vertex -1.47778 -5.19386 0
      vertex -22.0556 -16.8922 0
    endloop
  endfacet
  facet normal -0 0 -1
    outer loop
      vertex -1.47778 -5.19386 0
      vertex -21.5 -15 0
      vertex -3.25423 -4.30929 0
    endloop
  endfacet
  facet normal -0 0 -1
    outer loop
      vertex 22.708 -17.6451 0
      vertex -23.546 -18.1837 0
      vertex -22.0556 -16.8922 0
    endloop
  endfacet
  facet normal 0 0 -1
    outer loop
      vertex -40 -30 0
      vertex -23.546 -18.1837 0
      vertex 40 -30 0
    endloop
  endfacet
  facet normal 0 0 -1
    outer loop
      vertex -40 -15 0
      vertex -28.3582 -14.0139 0
      vertex -28.3582 -15.9861 0
    endloop
  endfacet
  facet normal 0 0 -1
    outer loop
      vertex -27.292 -12.3549 0
      vertex -51.5 0 0
      vertex -27.292 12.3549 0
    endloop
  endfacet
  facet normal 0 0 -1
    outer loop
      vertex -27.292 -17.6451 0
      vertex -40 -15 0
      vertex -28.3582 -15.9861 0
    endloop
  endfacet
  facet normal 0 0 -1
    outer loop
      vertex -40 -15 0
      vertex -27.292 -17.6451 0
      vertex -40 -30 0
    endloop
  endfacet
  facet normal -0 0 -1
    outer loop
      vertex -25.4981 -18.4644 0
      vertex -40 -30 0
      vertex -27.292 -17.6451 0
    endloop
  endfacet
  facet normal 0 0 -1
    outer loop
      vertex -23.546 -18.1837 0
      vertex -40 -30 0
      vertex -25.4981 -18.4644 0
    endloop
  endfacet
  facet normal 0 0 -1
    outer loop
      vertex 40 -30 0
      vertex 27.9444 -13.1078 0
      vertex 40 30 0
    endloop
  endfacet
  facet normal 0 0 -1
    outer loop
      vertex 27.9444 16.8922 0
      vertex 40 30 0
      vertex 28.5 15 0
    endloop
  endfacet
  facet normal 0 0 -1
    outer loop
      vertex 26.454 18.1837 0
      vertex 40 30 0
      vertex 27.9444 16.8922 0
    endloop
  endfacet
  facet normal 0 0 -1
    outer loop
      vertex 24.5019 18.4644 0
      vertex 40 30 0
      vertex 26.454 18.1837 0
    endloop
  endfacet
  facet normal 0 0 -1
    outer loop
      vertex 22.708 17.6451 0
      vertex 40 30 0
      vertex 24.5019 18.4644 0
    endloop
  endfacet
  facet normal 0 0 -1
    outer loop
      vertex 3.99065 3.63796 0
      vertex 21.6418 14.0139 0
      vertex 5.03535 1.9507 0
    endloop
  endfacet
  facet normal 0 0 -1
    outer loop
      vertex 2.40699 4.83388 0
      vertex 21.6418 14.0139 0
      vertex 3.99065 3.63796 0
    endloop
  endfacet
  facet normal -0 0 -1
    outer loop
      vertex 21.6418 14.0139 0
      vertex 2.40699 4.83388 0
      vertex 21.6418 15.9861 0
    endloop
  endfacet
  facet normal 0 0 -1
    outer loop
      vertex 0.498249 5.37696 0
      vertex 21.6418 15.9861 0
      vertex 2.40699 4.83388 0
    endloop
  endfacet
  facet normal -0 0 -1
    outer loop
      vertex 21.6418 15.9861 0
      vertex 0.498249 5.37696 0
      vertex 22.708 17.6451 0
    endloop
  endfacet
  facet normal 0 0 -1
    outer loop
      vertex -22.0556 16.8922 0
      vertex 22.708 17.6451 0
      vertex 0.498249 5.37696 0
    endloop
  endfacet
  facet normal 0 0 -1
    outer loop
      vertex -22.0556 16.8922 0
      vertex 0.498249 5.37696 0
      vertex -1.47778 5.19386 0
    endloop
  endfacet
  facet normal 0 0 -1
    outer loop
      vertex -21.5 15 0
      vertex -1.47778 5.19386 0
      vertex -3.25423 4.30929 0
    endloop
  endfacet
  facet normal 0 0 -1
    outer loop
      vertex -23.546 -11.8163 0
      vertex -5.30805 -0.992247 0
      vertex -22.0556 -13.1078 0
    endloop
  endfacet
  facet normal 0 0 -1
    outer loop
      vertex -5.30805 0.992247 0
      vertex -21.5 15 0
      vertex -4.59117 2.84273 0
    endloop
  endfacet
  facet normal 0 0 -1
    outer loop
      vertex -4.59117 2.84273 0
      vertex -21.5 15 0
      vertex -3.25423 4.30929 0
    endloop
  endfacet
  facet normal 0 0 -1
    outer loop
      vertex -1.47778 5.19386 0
      vertex -21.5 15 0
      vertex -22.0556 16.8922 0
    endloop
  endfacet
  facet normal 0 0 -1
    outer loop
      vertex -23.546 18.1837 0
      vertex 22.708 17.6451 0
      vertex -22.0556 16.8922 0
    endloop
  endfacet
  facet normal 0 0 -1
    outer loop
      vertex 22.708 17.6451 0
      vertex -23.546 18.1837 0
      vertex 40 30 0
    endloop
  endfacet
  facet normal 0 0 -1
    outer loop
      vertex -40 30 0
      vertex -23.546 18.1837 0
      vertex -25.4981 18.4644 0
    endloop
  endfacet
  facet normal 0 0 -1
    outer loop
      vertex -27.292 12.3549 0
      vertex -40 15 0
      vertex -28.3582 14.0139 0
    endloop
  endfacet
  facet normal 0 0 -1
    outer loop
      vertex -28.3582 14.0139 0
      vertex -40 15 0
      vertex -28.3582 15.9861 0
    endloop
  endfacet
  facet normal 0 0 -1
    outer loop
      vertex -40 15 0
      vertex -27.292 17.6451 0
      vertex -28.3582 15.9861 0
    endloop
  endfacet
  facet normal 0 0 -1
    outer loop
      vertex -40 30 0
      vertex -27.292 17.6451 0
      vertex -40 15 0
    endloop
  endfacet
  facet normal 0 0 -1
    outer loop
      vertex -23.546 18.1837 0
      vertex -40 30 0
      vertex 40 30 0
    endloop
  endfacet
  facet normal 0 0 -1
    outer loop
      vertex -27.292 17.6451 0
      vertex -40 30 0
      vertex -25.4981 18.4644 0
    endloop
  endfacet
  facet normal 0 -1 0
    outer loop
      vertex -40 -30 0
      vertex -29 -30 5
      vertex -40 -30 5
    endloop
  endfacet
  facet normal 0 -1 -0
    outer loop
      vertex -29 -30 5
      vertex -40 -30 0
      vertex -21 -30 5
    endloop
  endfacet
  facet normal 0 -1 -0
    outer loop
      vertex -21 -30 5
      vertex -40 -30 0
      vertex -9.7 -30 5
    endloop
  endfacet
  facet normal 0 -1 -0
    outer loop
      vertex -9.7 -30 5
      vertex -40 -30 0
      vertex 9.7 -30 5
    endloop
  endfacet
  facet normal 0 -1 0
    outer loop
      vertex 40 -30 0
      vertex 9.7 -30 5
      vertex -40 -30 0
    endloop
  endfacet
  facet normal 0 -1 0
    outer loop
      vertex 9.7 -30 5
      vertex 40 -30 0
      vertex 21 -30 5
    endloop
  endfacet
  facet normal 0 -1 0
    outer loop
      vertex 21 -30 5
      vertex 40 -30 0
      vertex 29 -30 5
    endloop
  endfacet
  facet normal 0 -1 0
    outer loop
      vertex 29 -30 5
      vertex 40 -30 0
      vertex 40 -30 5
    endloop
  endfacet
  facet normal 0 -1 0
    outer loop
      vertex -29 -30 5
      vertex -21 -30 7
      vertex -29 -30 7
    endloop
  endfacet
  facet normal 0 -1 -0
    outer loop
      vertex -21 -30 7
      vertex -29 -30 5
      vertex -21 -30 5
    endloop
  endfacet
  facet normal 0 -1 0
    outer loop
      vertex 21 -30 5
      vertex 29 -30 7
      vertex 21 -30 7
    endloop
  endfacet
  facet normal 0 -1 -0
    outer loop
      vertex 29 -30 7
      vertex 21 -30 5
      vertex 29 -30 5
    endloop
  endfacet
  facet normal -1 0 0
    outer loop
      vertex -29 -30 5
      vertex -29 30 7
      vertex -29 30 5
    endloop
  endfacet
  facet normal -1 -0 0
    outer loop
      vertex -29 30 7
      vertex -29 -30 5
      vertex -29 -30 7
    endloop
  endfacet
  facet normal -0 0 1
    outer loop
      vertex -22.0556 13.1078 7
      vertex -21.5 -15 7
      vertex -21.5 15 7
    endloop
  endfacet
  facet normal 0 0 1
    outer loop
      vertex -22.0556 13.1078 7
      vertex -22.0556 -13.1078 7
      vertex -21.5 -15 7
    endloop
  endfacet
  facet normal -0 0 1
    outer loop
      vertex -23.546 11.8163 7
      vertex -22.0556 -13.1078 7
      vertex -22.0556 13.1078 7
    endloop
  endfacet
  facet normal 0 0 1
    outer loop
      vertex -23.546 11.8163 7
      vertex -23.546 -11.8163 7
      vertex -22.0556 -13.1078 7
    endloop
  endfacet
  facet normal -0 0 1
    outer loop
      vertex -25.4981 11.5356 7
      vertex -23.546 -11.8163 7
      vertex -23.546 11.8163 7
    endloop
  endfacet
  facet normal 0 0 1
    outer loop
      vertex -25.4981 11.5356 7
      vertex -25.4981 -11.5356 7
      vertex -23.546 -11.8163 7
    endloop
  endfacet
  facet normal 0 0 1
    outer loop
      vertex -27.292 12.3549 7
      vertex -25.4981 -11.5356 7
      vertex -25.4981 11.5356 7
    endloop
  endfacet
  facet normal 0 0 1
    outer loop
      vertex -27.292 12.3549 7
      vertex -27.292 -12.3549 7
      vertex -25.4981 -11.5356 7
    endloop
  endfacet
  facet normal 0 0 1
    outer loop
      vertex -28.3582 14.0139 7
      vertex -27.292 -12.3549 7
      vertex -27.292 12.3549 7
    endloop
  endfacet
  facet normal 0 0 1
    outer loop
      vertex -27.292 -12.3549 7
      vertex -28.3582 14.0139 7
      vertex -28.3582 -14.0139 7
    endloop
  endfacet
  facet normal 0 0 1
    outer loop
      vertex -21 30 7
      vertex -21.5 15 7
      vertex -21 -30 7
    endloop
  endfacet
  facet normal 0 0 1
    outer loop
      vertex -21 30 7
      vertex -22.0556 16.8922 7
      vertex -21.5 15 7
    endloop
  endfacet
  facet normal 0 0 1
    outer loop
      vertex -21 30 7
      vertex -23.546 18.1837 7
      vertex -22.0556 16.8922 7
    endloop
  endfacet
  facet normal 0 0 1
    outer loop
      vertex -21 30 7
      vertex -25.4981 18.4644 7
      vertex -23.546 18.1837 7
    endloop
  endfacet
  facet normal -0 0 1
    outer loop
      vertex -29 30 7
      vertex -25.4981 18.4644 7
      vertex -21 30 7
    endloop
  endfacet
  facet normal 0 0 1
    outer loop
      vertex -25.4981 18.4644 7
      vertex -29 30 7
      vertex -27.292 17.6451 7
    endloop
  endfacet
  facet normal 0 0 1
    outer loop
      vertex -29 30 7
      vertex -28.3582 14.0139 7
      vertex -28.3582 15.9861 7
    endloop
  endfacet
  facet normal 0 0 1
    outer loop
      vertex -28.3582 14.0139 7
      vertex -29 30 7
      vertex -28.3582 -14.0139 7
    endloop
  endfacet
  facet normal 0 0 1
    outer loop
      vertex -29 -30 7
      vertex -28.3582 -14.0139 7
      vertex -29 30 7
    endloop
  endfacet
  facet normal 0 0 1
    outer loop
      vertex -27.292 17.6451 7
      vertex -29 30 7
      vertex -28.3582 15.9861 7
    endloop
  endfacet
  facet normal -0 0 1
    outer loop
      vertex -21.5 -15 7
      vertex -21 -30 7
      vertex -21.5 15 7
    endloop
  endfacet
  facet normal -0 0 1
    outer loop
      vertex -22.0556 -16.8922 7
      vertex -21 -30 7
      vertex -21.5 -15 7
    endloop
  endfacet
  facet normal -0 0 1
    outer loop
      vertex -23.546 -18.1837 7
      vertex -21 -30 7
      vertex -22.0556 -16.8922 7
    endloop
  endfacet
  facet normal -0 0 1
    outer loop
      vertex -25.4981 -18.4644 7
      vertex -21 -30 7
      vertex -23.546 -18.1837 7
    endloop
  endfacet
  facet normal 0 0 1
    outer loop
      vertex -29 -30 7
      vertex -25.4981 -18.4644 7
      vertex -27.292 -17.6451 7
    endloop
  endfacet
  facet normal 0 0 1
    outer loop
      vertex -29 -30 7
      vertex -27.292 -17.6451 7
      vertex -28.3582 -15.9861 7
    endloop
  endfacet
  facet normal 0 0 1
    outer loop
      vertex -25.4981 -18.4644 7
      vertex -29 -30 7
      vertex -21 -30 7
    endloop
  endfacet
  facet normal 0 0 1
    outer loop
      vertex -28.3582 -14.0139 7
      vertex -29 -30 7
      vertex -28.3582 -15.9861 7
    endloop
  endfacet
  facet normal 1 -0 0
    outer loop
      vertex -21 -30 7
      vertex -21 30 5
      vertex -21 30 7
    endloop
  endfacet
  facet normal 1 0 0
    outer loop
      vertex -21 30 5
      vertex -21 -30 7
      vertex -21 -30 5
    endloop
  endfacet
  facet normal -1 0 0
    outer loop
      vertex 21 -30 5
      vertex 21 30 7
      vertex 21 30 5
    endloop
  endfacet
  facet normal -1 -0 0
    outer loop
      vertex 21 30 7
      vertex 21 -30 5
      vertex 21 -30 7
    endloop
  endfacet
  facet normal -0 0 1
    outer loop
      vertex 27.9444 13.1078 7
      vertex 28.5 -15 7
      vertex 28.5 15 7
    endloop
  endfacet
  facet normal 0 0 1
    outer loop
      vertex 27.9444 13.1078 7
      vertex 27.9444 -13.1078 7
      vertex 28.5 -15 7
    endloop
  endfacet
  facet normal -0 0 1
    outer loop
      vertex 26.454 11.8163 7
      vertex 27.9444 -13.1078 7
      vertex 27.9444 13.1078 7
    endloop
  endfacet
  facet normal 0 0 1
    outer loop
      vertex 26.454 11.8163 7
      vertex 26.454 -11.8163 7
      vertex 27.9444 -13.1078 7
    endloop
  endfacet
  facet normal -0 0 1
    outer loop
      vertex 24.5019 11.5356 7
      vertex 26.454 -11.8163 7
      vertex 26.454 11.8163 7
    endloop
  endfacet
  facet normal 0 0 1
    outer loop
      vertex 24.5019 11.5356 7
      vertex 24.5019 -11.5356 7
      vertex 26.454 -11.8163 7
    endloop
  endfacet
  facet normal 0 0 1
    outer loop
      vertex 22.708 12.3549 7
      vertex 24.5019 -11.5356 7
      vertex 24.5019 11.5356 7
    endloop
  endfacet
  facet normal 0 0 1
    outer loop
      vertex 22.708 12.3549 7
      vertex 22.708 -12.3549 7
      vertex 24.5019 -11.5356 7
    endloop
  endfacet
  facet normal 0 0 1
    outer loop
      vertex 21.6418 14.0139 7
      vertex 22.708 -12.3549 7
      vertex 22.708 12.3549 7
    endloop
  endfacet
  facet normal 0 0 1
    outer loop
      vertex 22.708 -12.3549 7
      vertex 21.6418 14.0139 7
      vertex 21.6418 -14.0139 7
    endloop
  endfacet
  facet normal 0 0 1
    outer loop
      vertex 29 30 7
      vertex 28.5 15 7
      vertex 29 -30 7
    endloop
  endfacet
  facet normal 0 0 1
    outer loop
      vertex 29 30 7
      vertex 27.9444 16.8922 7
      vertex 28.5 15 7
    endloop
  endfacet
  facet normal 0 0 1
    outer loop
      vertex 29 30 7
      vertex 26.454 18.1837 7
      vertex 27.9444 16.8922 7
    endloop
  endfacet
  facet normal 0 0 1
    outer loop
      vertex 29 30 7
      vertex 24.5019 18.4644 7
      vertex 26.454 18.1837 7
    endloop
  endfacet
  facet normal -0 0 1
    outer loop
      vertex 21 30 7
      vertex 24.5019 18.4644 7
      vertex 29 30 7
    endloop
  endfacet
  facet normal 0 0 1
    outer loop
      vertex 24.5019 18.4644 7
      vertex 21 30 7
      vertex 22.708 17.6451 7
    endloop
  endfacet
  facet normal 0 0 1
    outer loop
      vertex 21 30 7
      vertex 21.6418 14.0139 7
      vertex 21.6418 15.9861 7
    endloop
  endfacet
  facet normal 0 0 1
    outer loop
      vertex 21.6418 14.0139 7
      vertex 21 30 7
      vertex 21.6418 -14.0139 7
    endloop
  endfacet
  facet normal 0 0 1
    outer loop
      vertex 21 -30 7
      vertex 21.6418 -14.0139 7
      vertex 21 30 7
    endloop
  endfacet
  facet normal 0 0 1
    outer loop
      vertex 22.708 17.6451 7
      vertex 21 30 7
      vertex 21.6418 15.9861 7
    endloop
  endfacet
  facet normal -0 0 1
    outer loop
      vertex 28.5 -15 7
      vertex 29 -30 7
      vertex 28.5 15 7
    endloop
  endfacet
  facet normal -0 0 1
    outer loop
      vertex 27.9444 -16.8922 7
      vertex 29 -30 7
      vertex 28.5 -15 7
    endloop
  endfacet
  facet normal -0 0 1
    outer loop
      vertex 26.454 -18.1837 7
      vertex 29 -30 7
      vertex 27.9444 -16.8922 7
    endloop
  endfacet
  facet normal -0 0 1
    outer loop
      vertex 24.5019 -18.4644 7
      vertex 29 -30 7
      vertex 26.454 -18.1837 7
    endloop
  endfacet
  facet normal 0 0 1
    outer loop
      vertex 21 -30 7
      vertex 24.5019 -18.4644 7
      vertex 22.708 -17.6451 7
    endloop
  endfacet
  facet normal 0 0 1
    outer loop
      vertex 21 -30 7
      vertex 22.708 -17.6451 7
      vertex 21.6418 -15.9861 7
    endloop
  endfacet
  facet normal 0 0 1
    outer loop
      vertex 24.5019 -18.4644 7
      vertex 21 -30 7
      vertex 29 -30 7
    endloop
  endfacet
  facet normal 0 0 1
    outer loop
      vertex 21.6418 -14.0139 7
      vertex 21 -30 7
      vertex 21.6418 -15.9861 7
    endloop
  endfacet
  facet normal 1 -0 0
    outer loop
      vertex 29 -30 7
      vertex 29 30 5
      vertex 29 30 7
    endloop
  endfacet
  facet normal 1 0 0
    outer loop
      vertex 29 30 5
      vertex 29 -30 7
      vertex 29 -30 5
    endloop
  endfacet
  facet normal 0 -0.83205 0.5547
    outer loop
      vertex -9.7 -30 5
      vertex 9.7 -10 35
      vertex -9.7 -10 35
    endloop
  endfacet
  facet normal 0 -0.83205 0.5547
    outer loop
      vertex 9.7 -10 35
      vertex -9.7 -30 5
      vertex 9.7 -30 5
    endloop
  endfacet
  facet normal 0 0 1
    outer loop
      vertex 9.7 10 35
      vertex 5.4 0 35
      vertex 9.7 -10 35
    endloop
  endfacet
  facet normal 0 0 1
    outer loop
      vertex 9.7 10 35
      vertex 5.03535 1.9507 35
      vertex 5.4 0 35
    endloop
  endfacet
  facet normal 0 0 1
    outer loop
      vertex 9.7 10 35
      vertex 3.99065 3.63796 35
      vertex 5.03535 1.9507 35
    endloop
  endfacet
  facet normal 0 0 1
    outer loop
      vertex 9.7 10 35
      vertex 2.40699 4.83388 35
      vertex 3.99065 3.63796 35
    endloop
  endfacet
  facet normal 0 0 1
    outer loop
      vertex 9.7 10 35
      vertex 0.498249 5.37696 35
      vertex 2.40699 4.83388 35
    endloop
  endfacet
  facet normal -0 0 1
    outer loop
      vertex -9.7 10 35
      vertex 0.498249 5.37696 35
      vertex 9.7 10 35
    endloop
  endfacet
  facet normal 0 0 1
    outer loop
      vertex -5.30805 0.992247 35
      vertex -9.7 10 35
      vertex -5.30805 -0.992247 35
    endloop
  endfacet
  facet normal 0 0 1
    outer loop
      vertex -4.59117 2.84273 35
      vertex -9.7 10 35
      vertex -5.30805 0.992247 35
    endloop
  endfacet
  facet normal 0 0 1
    outer loop
      vertex -3.25423 4.30929 35
      vertex -9.7 10 35
      vertex -4.59117 2.84273 35
    endloop
  endfacet
  facet normal 0 0 1
    outer loop
      vertex -1.47778 5.19386 35
      vertex -9.7 10 35
      vertex -3.25423 4.30929 35
    endloop
  endfacet
  facet normal 0 0 1
    outer loop
      vertex 0.498249 5.37696 35
      vertex -9.7 10 35
      vertex -1.47778 5.19386 35
    endloop
  endfacet
  facet normal -0 0 1
    outer loop
      vertex 5.03535 -1.9507 35
      vertex 9.7 -10 35
      vertex 5.4 0 35
    endloop
  endfacet
  facet normal -0 0 1
    outer loop
      vertex 3.99065 -3.63796 35
      vertex 9.7 -10 35
      vertex 5.03535 -1.9507 35
    endloop
  endfacet
  facet normal -0 0 1
    outer loop
      vertex 2.40699 -4.83388 35
      vertex 9.7 -10 35
      vertex 3.99065 -3.63796 35
    endloop
  endfacet
  facet normal -0 0 1
    outer loop
      vertex 0.498249 -5.37696 35
      vertex 9.7 -10 35
      vertex 2.40699 -4.83388 35
    endloop
  endfacet
  facet normal 0 0 1
    outer loop
      vertex -9.7 -10 35
      vertex 0.498249 -5.37696 35
      vertex -1.47778 -5.19386 35
    endloop
  endfacet
  facet normal 0 0 1
    outer loop
      vertex -9.7 -10 35
      vertex -5.30805 -0.992247 35
      vertex -9.7 10 35
    endloop
  endfacet
  facet normal 0 0 1
    outer loop
      vertex 0.498249 -5.37696 35
      vertex -9.7 -10 35
      vertex 9.7 -10 35
    endloop
  endfacet
  facet normal 0 0 1
    outer loop
      vertex -3.25423 -4.30929 35
      vertex -9.7 -10 35
      vertex -1.47778 -5.19386 35
    endloop
  endfacet
  facet normal 0 0 1
    outer loop
      vertex -4.59117 -2.84273 35
      vertex -9.7 -10 35
      vertex -3.25423 -4.30929 35
    endloop
  endfacet
  facet normal 0 0 1
    outer loop
      vertex -5.30805 -0.992247 35
      vertex -9.7 -10 35
      vertex -4.59117 -2.84273 35
    endloop
  endfacet
  facet normal -1 0 0
    outer loop
      vertex -9.7 30 5
      vertex -9.7 -10 35
      vertex -9.7 10 35
    endloop
  endfacet
  facet normal -1 0 -0
    outer loop
      vertex -9.7 -10 35
      vertex -9.7 30 5
      vertex -9.7 -30 5
    endloop
  endfacet
  facet normal 1 -0 0
    outer loop
      vertex 9.7 -10 35
      vertex 9.7 30 5
      vertex 9.7 10 35
    endloop
  endfacet
  facet normal 1 0 0
    outer loop
      vertex 9.7 30 5
      vertex 9.7 -10 35
      vertex 9.7 -30 5
    endloop
  endfacet
  facet normal 0 0.83205 0.5547
    outer loop
      vertex 9.7 30 5
      vertex -9.7 10 35
      vertex 9.7 10 35
    endloop
  endfacet
  facet normal 0 0.83205 0.5547
    outer loop
      vertex -9.7 10 35
      vertex 9.7 30 5
      vertex -9.7 30 5
    endloop
  endfacet
  facet normal -1 0 0
    outer loop
      vertex -70 15 0
      vertex -70 4 5
      vertex -70 15 5
    endloop
  endfacet
  facet normal -1 0 0
    outer loop
      vertex -70 4 5
      vertex -70 -4 5
      vertex -70 4 7
    endloop
  endfacet
  facet normal -1 0 0
    outer loop
      vertex -70 15 0
      vertex -70 -4 5
      vertex -70 4 5
    endloop
  endfacet
  facet normal -1 0 0
    outer loop
      vertex -70 -15 0
      vertex -70 -4 5
      vertex -70 15 0
    endloop
  endfacet
  facet normal -1 -0 0
    outer loop
      vertex -70 -4 5
      vertex -70 -15 0
      vertex -70 -15 5
    endloop
  endfacet
  facet normal -1 -0 0
    outer loop
      vertex -70 4 7
      vertex -70 -4 5
      vertex -70 -4 7
    endloop
  endfacet
  facet normal 0 1 -0
    outer loop
      vertex -40 15 0
      vertex -70 15 5
      vertex -40 15 5
    endloop
  endfacet
  facet normal 0 1 0
    outer loop
      vertex -70 15 5
      vertex -40 15 0
      vertex -70 15 0
    endloop
  endfacet
  facet normal 0 -1 0
    outer loop
      vertex -70 -15 0
      vertex -40 -15 5
      vertex -70 -15 5
    endloop
  endfacet
  facet normal 0 -1 -0
    outer loop
      vertex -40 -15 5
      vertex -70 -15 0
      vertex -40 -15 0
    endloop
  endfacet
  facet normal 0 0 1
    outer loop
      vertex -42 4 7
      vertex -51.5 0 7
      vertex -42 -4 7
    endloop
  endfacet
  facet normal 0 0 1
    outer loop
      vertex -42 4 7
      vertex -52.0556 1.89224 7
      vertex -51.5 0 7
    endloop
  endfacet
  facet normal 0 0 1
    outer loop
      vertex -42 4 7
      vertex -53.546 3.18371 7
      vertex -52.0556 1.89224 7
    endloop
  endfacet
  facet normal 0 0 1
    outer loop
      vertex -42 4 7
      vertex -55.4981 3.46437 7
      vertex -53.546 3.18371 7
    endloop
  endfacet
  facet normal 0 0 1
    outer loop
      vertex -58.3582 0.986063 7
      vertex -70 4 7
      vertex -58.3582 -0.986063 7
    endloop
  endfacet
  facet normal 0 0 1
    outer loop
      vertex -57.292 2.64512 7
      vertex -70 4 7
      vertex -58.3582 0.986063 7
    endloop
  endfacet
  facet normal 0 0 1
    outer loop
      vertex -55.4981 3.46437 7
      vertex -70 4 7
      vertex -57.292 2.64512 7
    endloop
  endfacet
  facet normal -0 0 1
    outer loop
      vertex -70 4 7
      vertex -55.4981 3.46437 7
      vertex -42 4 7
    endloop
  endfacet
  facet normal -0 0 1
    outer loop
      vertex -52.0556 -1.89224 7
      vertex -42 -4 7
      vertex -51.5 0 7
    endloop
  endfacet
  facet normal -0 0 1
    outer loop
      vertex -53.546 -3.18371 7
      vertex -42 -4 7
      vertex -52.0556 -1.89224 7
    endloop
  endfacet
  facet normal -0 0 1
    outer loop
      vertex -55.4981 -3.46437 7
      vertex -42 -4 7
      vertex -53.546 -3.18371 7
    endloop
  endfacet
  facet normal 0 0 1
    outer loop
      vertex -70 -4 7
      vertex -58.3582 -0.986063 7
      vertex -70 4 7
    endloop
  endfacet
  facet normal 0 0 1
    outer loop
      vertex -55.4981 -3.46437 7
      vertex -70 -4 7
      vertex -42 -4 7
    endloop
  endfacet
  facet normal 0 0 1
    outer loop
      vertex -57.292 -2.64512 7
      vertex -70 -4 7
      vertex -55.4981 -3.46437 7
    endloop
  endfacet
  facet normal 0 0 1
    outer loop
      vertex -58.3582 -0.986063 7
      vertex -70 -4 7
      vertex -57.292 -2.64512 7
    endloop
  endfacet
  facet normal 1 -0 0
    outer loop
      vertex -42 -4 7
      vertex -42 4 5
      vertex -42 4 7
    endloop
  endfacet
  facet normal 1 0 0
    outer loop
      vertex -42 4 5
      vertex -42 -4 7
      vertex -42 -4 5
    endloop
  endfacet
  facet normal 0 1 -0
    outer loop
      vertex -42 4 5
      vertex -70 4 7
      vertex -42 4 7
    endloop
  endfacet
  facet normal 0 1 0
    outer loop
      vertex -70 4 7
      vertex -42 4 5
      vertex -70 4 5
    endloop
  endfacet
  facet normal 0 -1 0
    outer loop
      vertex -70 -4 5
      vertex -42 -4 7
      vertex -70 -4 7
    endloop
  endfacet
  facet normal 0 -1 -0
    outer loop
      vertex -42 -4 7
      vertex -70 -4 5
      vertex -42 -4 5
    endloop
  endfacet
  facet normal -0.959493 -0.281732 0
    outer loop
      vertex -21.5 -15 0
      vertex -22.0556 -13.1078 7
      vertex -22.0556 -13.1078 0
    endloop
  endfacet
  facet normal -0.959493 -0.281732 0
    outer loop
      vertex -22.0556 -13.1078 7
      vertex -21.5 -15 0
      vertex -21.5 -15 7
    endloop
  endfacet
  facet normal 1 -0 0
    outer loop
      vertex -28.3582 -15.9861 7
      vertex -28.3582 -14.0139 0
      vertex -28.3582 -14.0139 7
    endloop
  endfacet
  facet normal 1 0 0
    outer loop
      vertex -28.3582 -14.0139 0
      vertex -28.3582 -15.9861 7
      vertex -28.3582 -15.9861 0
    endloop
  endfacet
  facet normal 0.415415 -0.909632 0
    outer loop
      vertex -27.292 -12.3549 0
      vertex -25.4981 -11.5356 7
      vertex -27.292 -12.3549 7
    endloop
  endfacet
  facet normal 0.415415 -0.909632 0
    outer loop
      vertex -25.4981 -11.5356 7
      vertex -27.292 -12.3549 0
      vertex -25.4981 -11.5356 0
    endloop
  endfacet
  facet normal 0.841253 -0.540641 0
    outer loop
      vertex -28.3582 -14.0139 7
      vertex -27.292 -12.3549 0
      vertex -27.292 -12.3549 7
    endloop
  endfacet
  facet normal 0.841253 -0.540641 0
    outer loop
      vertex -27.292 -12.3549 0
      vertex -28.3582 -14.0139 7
      vertex -28.3582 -14.0139 0
    endloop
  endfacet
  facet normal -0.142315 0.989821 0
    outer loop
      vertex -23.546 -18.1837 0
      vertex -25.4981 -18.4644 7
      vertex -23.546 -18.1837 7
    endloop
  endfacet
  facet normal -0.142315 0.989821 0
    outer loop
      vertex -25.4981 -18.4644 7
      vertex -23.546 -18.1837 0
      vertex -25.4981 -18.4644 0
    endloop
  endfacet
  facet normal -0.654861 0.755749 0
    outer loop
      vertex -22.0556 -16.8922 0
      vertex -23.546 -18.1837 7
      vertex -22.0556 -16.8922 7
    endloop
  endfacet
  facet normal -0.654861 0.755749 0
    outer loop
      vertex -23.546 -18.1837 7
      vertex -22.0556 -16.8922 0
      vertex -23.546 -18.1837 0
    endloop
  endfacet
  facet normal -0.142315 -0.989821 0
    outer loop
      vertex -25.4981 -11.5356 0
      vertex -23.546 -11.8163 7
      vertex -25.4981 -11.5356 7
    endloop
  endfacet
  facet normal -0.142315 -0.989821 -0
    outer loop
      vertex -23.546 -11.8163 7
      vertex -25.4981 -11.5356 0
      vertex -23.546 -11.8163 0
    endloop
  endfacet
  facet normal -0.654861 -0.75575 0
    outer loop
      vertex -23.546 -11.8163 0
      vertex -22.0556 -13.1078 7
      vertex -23.546 -11.8163 7
    endloop
  endfacet
  facet normal -0.654861 -0.75575 -0
    outer loop
      vertex -22.0556 -13.1078 7
      vertex -23.546 -11.8163 0
      vertex -22.0556 -13.1078 0
    endloop
  endfacet
  facet normal 0.841253 0.540641 0
    outer loop
      vertex -27.292 -17.6451 7
      vertex -28.3582 -15.9861 0
      vertex -28.3582 -15.9861 7
    endloop
  endfacet
  facet normal 0.841253 0.540641 0
    outer loop
      vertex -28.3582 -15.9861 0
      vertex -27.292 -17.6451 7
      vertex -27.292 -17.6451 0
    endloop
  endfacet
  facet normal -0.959493 0.281733 0
    outer loop
      vertex -22.0556 -16.8922 0
      vertex -21.5 -15 7
      vertex -21.5 -15 0
    endloop
  endfacet
  facet normal -0.959493 0.281733 0
    outer loop
      vertex -21.5 -15 7
      vertex -22.0556 -16.8922 0
      vertex -22.0556 -16.8922 7
    endloop
  endfacet
  facet normal 0.415415 0.909632 -0
    outer loop
      vertex -25.4981 -18.4644 0
      vertex -27.292 -17.6451 7
      vertex -25.4981 -18.4644 7
    endloop
  endfacet
  facet normal 0.415415 0.909632 0
    outer loop
      vertex -27.292 -17.6451 7
      vertex -25.4981 -18.4644 0
      vertex -27.292 -17.6451 0
    endloop
  endfacet
  facet normal -0.959493 -0.281733 0
    outer loop
      vertex 28.5 -15 0
      vertex 27.9444 -13.1078 7
      vertex 27.9444 -13.1078 0
    endloop
  endfacet
  facet normal -0.959493 -0.281733 0
    outer loop
      vertex 27.9444 -13.1078 7
      vertex 28.5 -15 0
      vertex 28.5 -15 7
    endloop
  endfacet
  facet normal 1 -0 0
    outer loop
      vertex 21.6418 -15.9861 7
      vertex 21.6418 -14.0139 0
      vertex 21.6418 -14.0139 7
    endloop
  endfacet
  facet normal 1 0 0
    outer loop
      vertex 21.6418 -14.0139 0
      vertex 21.6418 -15.9861 7
      vertex 21.6418 -15.9861 0
    endloop
  endfacet
  facet normal 0.415415 -0.909632 0
    outer loop
      vertex 22.708 -12.3549 0
      vertex 24.5019 -11.5356 7
      vertex 22.708 -12.3549 7
    endloop
  endfacet
  facet normal 0.415415 -0.909632 0
    outer loop
      vertex 24.5019 -11.5356 7
      vertex 22.708 -12.3549 0
      vertex 24.5019 -11.5356 0
    endloop
  endfacet
  facet normal 0.841253 -0.540641 0
    outer loop
      vertex 21.6418 -14.0139 7
      vertex 22.708 -12.3549 0
      vertex 22.708 -12.3549 7
    endloop
  endfacet
  facet normal 0.841253 -0.540641 0
    outer loop
      vertex 22.708 -12.3549 0
      vertex 21.6418 -14.0139 7
      vertex 21.6418 -14.0139 0
    endloop
  endfacet
  facet normal -0.142315 0.989821 0
    outer loop
      vertex 26.454 -18.1837 0
      vertex 24.5019 -18.4644 7
      vertex 26.454 -18.1837 7
    endloop
  endfacet
  facet normal -0.142315 0.989821 0
    outer loop
      vertex 24.5019 -18.4644 7
      vertex 26.454 -18.1837 0
      vertex 24.5019 -18.4644 0
    endloop
  endfacet
  facet normal -0.654861 0.755749 0
    outer loop
      vertex 27.9444 -16.8922 0
      vertex 26.454 -18.1837 7
      vertex 27.9444 -16.8922 7
    endloop
  endfacet
  facet normal -0.654861 0.755749 0
    outer loop
      vertex 26.454 -18.1837 7
      vertex 27.9444 -16.8922 0
      vertex 26.454 -18.1837 0
    endloop
  endfacet
  facet normal -0.142315 -0.989821 0
    outer loop
      vertex 24.5019 -11.5356 0
      vertex 26.454 -11.8163 7
      vertex 24.5019 -11.5356 7
    endloop
  endfacet
  facet normal -0.142315 -0.989821 -0
    outer loop
      vertex 26.454 -11.8163 7
      vertex 24.5019 -11.5356 0
      vertex 26.454 -11.8163 0
    endloop
  endfacet
  facet normal -0.654861 -0.755749 0
    outer loop
      vertex 26.454 -11.8163 0
      vertex 27.9444 -13.1078 7
      vertex 26.454 -11.8163 7
    endloop
  endfacet
  facet normal -0.654861 -0.755749 -0
    outer loop
      vertex 27.9444 -13.1078 7
      vertex 26.454 -11.8163 0
      vertex 27.9444 -13.1078 0
    endloop
  endfacet
  facet normal 0.841253 0.540641 0
    outer loop
      vertex 22.708 -17.6451 7
      vertex 21.6418 -15.9861 0
      vertex 21.6418 -15.9861 7
    endloop
  endfacet
  facet normal 0.841253 0.540641 0
    outer loop
      vertex 21.6418 -15.9861 0
      vertex 22.708 -17.6451 7
      vertex 22.708 -17.6451 0
    endloop
  endfacet
  facet normal -0.959493 0.281733 0
    outer loop
      vertex 27.9444 -16.8922 0
      vertex 28.5 -15 7
      vertex 28.5 -15 0
    endloop
  endfacet
  facet normal -0.959493 0.281733 0
    outer loop
      vertex 28.5 -15 7
      vertex 27.9444 -16.8922 0
      vertex 27.9444 -16.8922 7
    endloop
  endfacet
  facet normal 0.415415 0.909632 -0
    outer loop
      vertex 24.5019 -18.4644 0
      vertex 22.708 -17.6451 7
      vertex 24.5019 -18.4644 7
    endloop
  endfacet
  facet normal 0.415415 0.909632 0
    outer loop
      vertex 22.708 -17.6451 7
      vertex 24.5019 -18.4644 0
      vertex 22.708 -17.6451 0
    endloop
  endfacet
  facet normal -0.959493 -0.281733 0
    outer loop
      vertex -21.5 15 0
      vertex -22.0556 16.8922 7
      vertex -22.0556 16.8922 0
    endloop
  endfacet
  facet normal -0.959493 -0.281733 0
    outer loop
      vertex -22.0556 16.8922 7
      vertex -21.5 15 0
      vertex -21.5 15 7
    endloop
  endfacet
  facet normal 1 -0 0
    outer loop
      vertex -28.3582 14.0139 7
      vertex -28.3582 15.9861 0
      vertex -28.3582 15.9861 7
    endloop
  endfacet
  facet normal 1 0 0
    outer loop
      vertex -28.3582 15.9861 0
      vertex -28.3582 14.0139 7
      vertex -28.3582 14.0139 0
    endloop
  endfacet
  facet normal 0.415415 -0.909632 0
    outer loop
      vertex -27.292 17.6451 0
      vertex -25.4981 18.4644 7
      vertex -27.292 17.6451 7
    endloop
  endfacet
  facet normal 0.415415 -0.909632 0
    outer loop
      vertex -25.4981 18.4644 7
      vertex -27.292 17.6451 0
      vertex -25.4981 18.4644 0
    endloop
  endfacet
  facet normal 0.841253 -0.540641 0
    outer loop
      vertex -28.3582 15.9861 7
      vertex -27.292 17.6451 0
      vertex -27.292 17.6451 7
    endloop
  endfacet
  facet normal 0.841253 -0.540641 0
    outer loop
      vertex -27.292 17.6451 0
      vertex -28.3582 15.9861 7
      vertex -28.3582 15.9861 0
    endloop
  endfacet
  facet normal -0.142315 0.989821 0
    outer loop
      vertex -23.546 11.8163 0
      vertex -25.4981 11.5356 7
      vertex -23.546 11.8163 7
    endloop
  endfacet
  facet normal -0.142315 0.989821 0
    outer loop
      vertex -25.4981 11.5356 7
      vertex -23.546 11.8163 0
      vertex -25.4981 11.5356 0
    endloop
  endfacet
  facet normal -0.142315 -0.989821 0
    outer loop
      vertex -25.4981 18.4644 0
      vertex -23.546 18.1837 7
      vertex -25.4981 18.4644 7
    endloop
  endfacet
  facet normal -0.142315 -0.989821 -0
    outer loop
      vertex -23.546 18.1837 7
      vertex -25.4981 18.4644 0
      vertex -23.546 18.1837 0
    endloop
  endfacet
  facet normal -0.654861 -0.755749 0
    outer loop
      vertex -23.546 18.1837 0
      vertex -22.0556 16.8922 7
      vertex -23.546 18.1837 7
    endloop
  endfacet
  facet normal -0.654861 -0.755749 -0
    outer loop
      vertex -22.0556 16.8922 7
      vertex -23.546 18.1837 0
      vertex -22.0556 16.8922 0
    endloop
  endfacet
  facet normal -0.959493 0.281732 0
    outer loop
      vertex -22.0556 13.1078 0
      vertex -21.5 15 7
      vertex -21.5 15 0
    endloop
  endfacet
  facet normal -0.959493 0.281732 0
    outer loop
      vertex -21.5 15 7
      vertex -22.0556 13.1078 0
      vertex -22.0556 13.1078 7
    endloop
  endfacet
  facet normal 0.841253 0.540641 0
    outer loop
      vertex -27.292 12.3549 7
      vertex -28.3582 14.0139 0
      vertex -28.3582 14.0139 7
    endloop
  endfacet
  facet normal 0.841253 0.540641 0
    outer loop
      vertex -28.3582 14.0139 0
      vertex -27.292 12.3549 7
      vertex -27.292 12.3549 0
    endloop
  endfacet
  facet normal -0.654861 0.75575 0
    outer loop
      vertex -22.0556 13.1078 0
      vertex -23.546 11.8163 7
      vertex -22.0556 13.1078 7
    endloop
  endfacet
  facet normal -0.654861 0.75575 0
    outer loop
      vertex -23.546 11.8163 7
      vertex -22.0556 13.1078 0
      vertex -23.546 11.8163 0
    endloop
  endfacet
  facet normal 0.415415 0.909632 -0
    outer loop
      vertex -25.4981 11.5356 0
      vertex -27.292 12.3549 7
      vertex -25.4981 11.5356 7
    endloop
  endfacet
  facet normal 0.415415 0.909632 0
    outer loop
      vertex -27.292 12.3549 7
      vertex -25.4981 11.5356 0
      vertex -27.292 12.3549 0
    endloop
  endfacet
  facet normal -0.959493 -0.281733 0
    outer loop
      vertex 28.5 15 0
      vertex 27.9444 16.8922 7
      vertex 27.9444 16.8922 0
    endloop
  endfacet
  facet normal -0.959493 -0.281733 0
    outer loop
      vertex 27.9444 16.8922 7
      vertex 28.5 15 0
      vertex 28.5 15 7
    endloop
  endfacet
  facet normal 1 -0 0
    outer loop
      vertex 21.6418 14.0139 7
      vertex 21.6418 15.9861 0
      vertex 21.6418 15.9861 7
    endloop
  endfacet
  facet normal 1 0 0
    outer loop
      vertex 21.6418 15.9861 0
      vertex 21.6418 14.0139 7
      vertex 21.6418 14.0139 0
    endloop
  endfacet
  facet normal 0.415415 -0.909632 0
    outer loop
      vertex 22.708 17.6451 0
      vertex 24.5019 18.4644 7
      vertex 22.708 17.6451 7
    endloop
  endfacet
  facet normal 0.415415 -0.909632 0
    outer loop
      vertex 24.5019 18.4644 7
      vertex 22.708 17.6451 0
      vertex 24.5019 18.4644 0
    endloop
  endfacet
  facet normal 0.841253 -0.540641 0
    outer loop
      vertex 21.6418 15.9861 7
      vertex 22.708 17.6451 0
      vertex 22.708 17.6451 7
    endloop
  endfacet
  facet normal 0.841253 -0.540641 0
    outer loop
      vertex 22.708 17.6451 0
      vertex 21.6418 15.9861 7
      vertex 21.6418 15.9861 0
    endloop
  endfacet
  facet normal -0.142315 0.989821 0
    outer loop
      vertex 26.454 11.8163 0
      vertex 24.5019 11.5356 7
      vertex 26.454 11.8163 7
    endloop
  endfacet
  facet normal -0.142315 0.989821 0
    outer loop
      vertex 24.5019 11.5356 7
      vertex 26.454 11.8163 0
      vertex 24.5019 11.5356 0
    endloop
  endfacet
  facet normal -0.654861 0.755749 0
    outer loop
      vertex 27.9444 13.1078 0
      vertex 26.454 11.8163 7
      vertex 27.9444 13.1078 7
    endloop
  endfacet
  facet normal -0.654861 0.755749 0
    outer loop
      vertex 26.454 11.8163 7
      vertex 27.9444 13.1078 0
      vertex 26.454 11.8163 0
    endloop
  endfacet
  facet normal -0.142315 -0.989821 0
    outer loop
      vertex 24.5019 18.4644 0
      vertex 26.454 18.1837 7
      vertex 24.5019 18.4644 7
    endloop
  endfacet
  facet normal -0.142315 -0.989821 -0
    outer loop
      vertex 26.454 18.1837 7
      vertex 24.5019 18.4644 0
      vertex 26.454 18.1837 0
    endloop
  endfacet
  facet normal -0.654861 -0.755749 0
    outer loop
      vertex 26.454 18.1837 0
      vertex 27.9444 16.8922 7
      vertex 26.454 18.1837 7
    endloop
  endfacet
  facet normal -0.654861 -0.755749 -0
    outer loop
      vertex 27.9444 16.8922 7
      vertex 26.454 18.1837 0
      vertex 27.9444 16.8922 0
    endloop
  endfacet
  facet normal 0.841253 0.540641 0
    outer loop
      vertex 22.708 12.3549 7
      vertex 21.6418 14.0139 0
      vertex 21.6418 14.0139 7
    endloop
  endfacet
  facet normal 0.841253 0.540641 0
    outer loop
      vertex 21.6418 14.0139 0
      vertex 22.708 12.3549 7
      vertex 22.708 12.3549 0
    endloop
  endfacet
  facet normal -0.959493 0.281733 0
    outer loop
      vertex 27.9444 13.1078 0
      vertex 28.5 15 7
      vertex 28.5 15 0
    endloop
  endfacet
  facet normal -0.959493 0.281733 0
    outer loop
      vertex 28.5 15 7
      vertex 27.9444 13.1078 0
      vertex 27.9444 13.1078 7
    endloop
  endfacet
  facet normal 0.415415 0.909632 -0
    outer loop
      vertex 24.5019 11.5356 0
      vertex 22.708 12.3549 7
      vertex 24.5019 11.5356 7
    endloop
  endfacet
  facet normal 0.415415 0.909632 0
    outer loop
      vertex 22.708 12.3549 7
      vertex 24.5019 11.5356 0
      vertex 22.708 12.3549 0
    endloop
  endfacet
  facet normal -0.982973 -0.183749 0
    outer loop
      vertex 5.4 0 0
      vertex 5.03535 1.9507 35
      vertex 5.03535 1.9507 0
    endloop
  endfacet
  facet normal -0.982973 -0.183749 0
    outer loop
      vertex 5.03535 1.9507 35
      vertex 5.4 0 0
      vertex 5.4 0 35
    endloop
  endfacet
  facet normal 1 -0 0
    outer loop
      vertex -5.30805 -0.992247 35
      vertex -5.30805 0.992247 0
      vertex -5.30805 0.992247 35
    endloop
  endfacet
  facet normal 1 0 0
    outer loop
      vertex -5.30805 0.992247 0
      vertex -5.30805 -0.992247 35
      vertex -5.30805 -0.992247 0
    endloop
  endfacet
  facet normal 0.0922681 -0.995734 0
    outer loop
      vertex -1.47778 5.19386 0
      vertex 0.498249 5.37696 35
      vertex -1.47778 5.19386 35
    endloop
  endfacet
  facet normal 0.0922681 -0.995734 0
    outer loop
      vertex 0.498249 5.37696 35
      vertex -1.47778 5.19386 0
      vertex 0.498249 5.37696 0
    endloop
  endfacet
  facet normal -0.273663 0.961826 0
    outer loop
      vertex 2.40699 -4.83388 0
      vertex 0.498249 -5.37696 35
      vertex 2.40699 -4.83388 35
    endloop
  endfacet
  facet normal -0.273663 0.961826 0
    outer loop
      vertex 0.498249 -5.37696 35
      vertex 2.40699 -4.83388 0
      vertex 0.498249 -5.37696 0
    endloop
  endfacet
  facet normal -0.602635 0.798017 0
    outer loop
      vertex 3.99065 -3.63796 0
      vertex 2.40699 -4.83388 35
      vertex 3.99065 -3.63796 35
    endloop
  endfacet
  facet normal -0.602635 0.798017 0
    outer loop
      vertex 2.40699 -4.83388 35
      vertex 3.99065 -3.63796 0
      vertex 2.40699 -4.83388 0
    endloop
  endfacet
  facet normal -0.602635 -0.798017 0
    outer loop
      vertex 2.40699 4.83388 0
      vertex 3.99065 3.63796 35
      vertex 2.40699 4.83388 35
    endloop
  endfacet
  facet normal -0.602635 -0.798017 -0
    outer loop
      vertex 3.99065 3.63796 35
      vertex 2.40699 4.83388 0
      vertex 3.99065 3.63796 0
    endloop
  endfacet
  facet normal -0.850217 -0.526432 0
    outer loop
      vertex 5.03535 1.9507 0
      vertex 3.99065 3.63796 35
      vertex 3.99065 3.63796 0
    endloop
  endfacet
  facet normal -0.850217 -0.526432 0
    outer loop
      vertex 3.99065 3.63796 35
      vertex 5.03535 1.9507 0
      vertex 5.03535 1.9507 35
    endloop
  endfacet
  facet normal -0.273663 -0.961826 0
    outer loop
      vertex 0.498249 5.37696 0
      vertex 2.40699 4.83388 35
      vertex 0.498249 5.37696 35
    endloop
  endfacet
  facet normal -0.273663 -0.961826 -0
    outer loop
      vertex 2.40699 4.83388 35
      vertex 0.498249 5.37696 0
      vertex 2.40699 4.83388 0
    endloop
  endfacet
  facet normal 0.739009 -0.673696 0
    outer loop
      vertex -4.59117 2.84273 35
      vertex -3.25423 4.30929 0
      vertex -3.25423 4.30929 35
    endloop
  endfacet
  facet normal 0.739009 -0.673696 0
    outer loop
      vertex -3.25423 4.30929 0
      vertex -4.59117 2.84273 35
      vertex -4.59117 2.84273 0
    endloop
  endfacet
  facet normal 0.932472 -0.361241 0
    outer loop
      vertex -5.30805 0.992247 35
      vertex -4.59117 2.84273 0
      vertex -4.59117 2.84273 35
    endloop
  endfacet
  facet normal 0.932472 -0.361241 0
    outer loop
      vertex -4.59117 2.84273 0
      vertex -5.30805 0.992247 35
      vertex -5.30805 0.992247 0
    endloop
  endfacet
  facet normal 0.445738 -0.895163 0
    outer loop
      vertex -3.25423 4.30929 0
      vertex -1.47778 5.19386 35
      vertex -3.25423 4.30929 35
    endloop
  endfacet
  facet normal 0.445738 -0.895163 0
    outer loop
      vertex -1.47778 5.19386 35
      vertex -3.25423 4.30929 0
      vertex -1.47778 5.19386 0
    endloop
  endfacet
  facet normal -0.982973 0.183749 0
    outer loop
      vertex 5.03535 -1.9507 0
      vertex 5.4 0 35
      vertex 5.4 0 0
    endloop
  endfacet
  facet normal -0.982973 0.183749 0
    outer loop
      vertex 5.4 0 35
      vertex 5.03535 -1.9507 0
      vertex 5.03535 -1.9507 35
    endloop
  endfacet
  facet normal -0.850217 0.526432 0
    outer loop
      vertex 3.99065 -3.63796 0
      vertex 5.03535 -1.9507 35
      vertex 5.03535 -1.9507 0
    endloop
  endfacet
  facet normal -0.850217 0.526432 0
    outer loop
      vertex 5.03535 -1.9507 35
      vertex 3.99065 -3.63796 0
      vertex 3.99065 -3.63796 35
    endloop
  endfacet
  facet normal 0.445738 0.895163 -0
    outer loop
      vertex -1.47778 -5.19386 0
      vertex -3.25423 -4.30929 35
      vertex -1.47778 -5.19386 35
    endloop
  endfacet
  facet normal 0.445738 0.895163 0
    outer loop
      vertex -3.25423 -4.30929 35
      vertex -1.47778 -5.19386 0
      vertex -3.25423 -4.30929 0
    endloop
  endfacet
  facet normal 0.739009 0.673696 0
    outer loop
      vertex -3.25423 -4.30929 35
      vertex -4.59117 -2.84273 0
      vertex -4.59117 -2.84273 35
    endloop
  endfacet
  facet normal 0.739009 0.673696 0
    outer loop
      vertex -4.59117 -2.84273 0
      vertex -3.25423 -4.30929 35
      vertex -3.25423 -4.30929 0
    endloop
  endfacet
  facet normal 0.932472 0.361241 0
    outer loop
      vertex -4.59117 -2.84273 35
      vertex -5.30805 -0.992247 0
      vertex -5.30805 -0.992247 35
    endloop
  endfacet
  facet normal 0.932472 0.361241 0
    outer loop
      vertex -5.30805 -0.992247 0
      vertex -4.59117 -2.84273 35
      vertex -4.59117 -2.84273 0
    endloop
  endfacet
  facet normal 0.0922681 0.995734 -0
    outer loop
      vertex 0.498249 -5.37696 0
      vertex -1.47778 -5.19386 35
      vertex 0.498249 -5.37696 35
    endloop
  endfacet
  facet normal 0.0922681 0.995734 0
    outer loop
      vertex -1.47778 -5.19386 35
      vertex 0.498249 -5.37696 0
      vertex -1.47778 -5.19386 0
    endloop
  endfacet
  facet normal -0.959493 -0.281732 0
    outer loop
      vertex -51.5 0 0
      vertex -52.0556 1.89224 7
      vertex -52.0556 1.89224 0
    endloop
  endfacet
  facet normal -0.959493 -0.281732 0
    outer loop
      vertex -52.0556 1.89224 7
      vertex -51.5 0 0
      vertex -51.5 0 7
    endloop
  endfacet
  facet normal 1 -0 0
    outer loop
      vertex -58.3582 -0.986063 7
      vertex -58.3582 0.986063 0
      vertex -58.3582 0.986063 7
    endloop
  endfacet
  facet normal 1 0 0
    outer loop
      vertex -58.3582 0.986063 0
      vertex -58.3582 -0.986063 7
      vertex -58.3582 -0.986063 0
    endloop
  endfacet
  facet normal 0.415415 -0.909632 0
    outer loop
      vertex -57.292 2.64512 0
      vertex -55.4981 3.46437 7
      vertex -57.292 2.64512 7
    endloop
  endfacet
  facet normal 0.415415 -0.909632 0
    outer loop
      vertex -55.4981 3.46437 7
      vertex -57.292 2.64512 0
      vertex -55.4981 3.46437 0
    endloop
  endfacet
  facet normal 0.841254 -0.54064 0
    outer loop
      vertex -58.3582 0.986063 7
      vertex -57.292 2.64512 0
      vertex -57.292 2.64512 7
    endloop
  endfacet
  facet normal 0.841254 -0.54064 0
    outer loop
      vertex -57.292 2.64512 0
      vertex -58.3582 0.986063 7
      vertex -58.3582 0.986063 0
    endloop
  endfacet
  facet normal -0.142315 0.989821 0
    outer loop
      vertex -53.546 -3.18371 0
      vertex -55.4981 -3.46437 7
      vertex -53.546 -3.18371 7
    endloop
  endfacet
  facet normal -0.142315 0.989821 0
    outer loop
      vertex -55.4981 -3.46437 7
      vertex -53.546 -3.18371 0
      vertex -55.4981 -3.46437 0
    endloop
  endfacet
  facet normal -0.142315 -0.989821 0
    outer loop
      vertex -55.4981 3.46437 0
      vertex -53.546 3.18371 7
      vertex -55.4981 3.46437 7
    endloop
  endfacet
  facet normal -0.142315 -0.989821 -0
    outer loop
      vertex -53.546 3.18371 7
      vertex -55.4981 3.46437 0
      vertex -53.546 3.18371 0
    endloop
  endfacet
  facet normal -0.65486 -0.75575 0
    outer loop
      vertex -53.546 3.18371 0
      vertex -52.0556 1.89224 7
      vertex -53.546 3.18371 7
    endloop
  endfacet
  facet normal -0.65486 -0.75575 -0
    outer loop
      vertex -52.0556 1.89224 7
      vertex -53.546 3.18371 0
      vertex -52.0556 1.89224 0
    endloop
  endfacet
  facet normal -0.959493 0.281732 0
    outer loop
      vertex -52.0556 -1.89224 0
      vertex -51.5 0 7
      vertex -51.5 0 0
    endloop
  endfacet
  facet normal -0.959493 0.281732 0
    outer loop
      vertex -51.5 0 7
      vertex -52.0556 -1.89224 0
      vertex -52.0556 -1.89224 7
    endloop
  endfacet
  facet normal -0.65486 0.75575 0
    outer loop
      vertex -52.0556 -1.89224 0
      vertex -53.546 -3.18371 7
      vertex -52.0556 -1.89224 7
    endloop
  endfacet
  facet normal -0.65486 0.75575 0
    outer loop
      vertex -53.546 -3.18371 7
      vertex -52.0556 -1.89224 0
      vertex -53.546 -3.18371 0
    endloop
  endfacet
  facet normal 0.415415 0.909632 -0
    outer loop
      vertex -55.4981 -3.46437 0
      vertex -57.292 -2.64512 7
      vertex -55.4981 -3.46437 7
    endloop
  endfacet
  facet normal 0.415415 0.909632 0
    outer loop
      vertex -57.292 -2.64512 7
      vertex -55.4981 -3.46437 0
      vertex -57.292 -2.64512 0
    endloop
  endfacet
  facet normal 0.841254 0.54064 0
    outer loop
      vertex -57.292 -2.64512 7
      vertex -58.3582 -0.986063 0
      vertex -58.3582 -0.986063 7
    endloop
  endfacet
  facet normal 0.841254 0.54064 0
    outer loop
      vertex -58.3582 -0.986063 0
      vertex -57.292 -2.64512 7
      vertex -57.292 -2.64512 0
    endloop
  endfacet
endsolid OpenSCAD_Model
