G04 #@! TF.GenerationSoftware,KiCad,Pcbnew,5.0.2-bee76a0~70~ubuntu18.04.1*
G04 #@! TF.CreationDate,2019-01-24T16:52:24+01:00*
G04 #@! TF.ProjectId,MotorDriver,4d6f746f-7244-4726-9976-65722e6b6963,rev?*
G04 #@! TF.SameCoordinates,Original*
G04 #@! TF.FileFunction,Legend,Top*
G04 #@! TF.FilePolarity,Positive*
%FSLAX46Y46*%
G04 Gerber Fmt 4.6, Leading zero omitted, Abs format (unit mm)*
G04 Created by KiCad (PCBNEW 5.0.2-bee76a0~70~ubuntu18.04.1) date Čt 24. ledna 2019, 16:52:24 CET*
%MOMM*%
%LPD*%
G01*
G04 APERTURE LIST*
%ADD10C,0.300000*%
%ADD11C,0.120000*%
%ADD12C,0.150000*%
G04 APERTURE END LIST*
D10*
X194945142Y-89197571D02*
X194945142Y-87697571D01*
X195516571Y-87697571D01*
X195659428Y-87769000D01*
X195730857Y-87840428D01*
X195802285Y-87983285D01*
X195802285Y-88197571D01*
X195730857Y-88340428D01*
X195659428Y-88411857D01*
X195516571Y-88483285D01*
X194945142Y-88483285D01*
X197302285Y-89054714D02*
X197230857Y-89126142D01*
X197016571Y-89197571D01*
X196873714Y-89197571D01*
X196659428Y-89126142D01*
X196516571Y-88983285D01*
X196445142Y-88840428D01*
X196373714Y-88554714D01*
X196373714Y-88340428D01*
X196445142Y-88054714D01*
X196516571Y-87911857D01*
X196659428Y-87769000D01*
X196873714Y-87697571D01*
X197016571Y-87697571D01*
X197230857Y-87769000D01*
X197302285Y-87840428D01*
X194945142Y-98722571D02*
X194945142Y-97222571D01*
X195516571Y-97222571D01*
X195659428Y-97294000D01*
X195730857Y-97365428D01*
X195802285Y-97508285D01*
X195802285Y-97722571D01*
X195730857Y-97865428D01*
X195659428Y-97936857D01*
X195516571Y-98008285D01*
X194945142Y-98008285D01*
X196945142Y-97936857D02*
X197159428Y-98008285D01*
X197230857Y-98079714D01*
X197302285Y-98222571D01*
X197302285Y-98436857D01*
X197230857Y-98579714D01*
X197159428Y-98651142D01*
X197016571Y-98722571D01*
X196445142Y-98722571D01*
X196445142Y-97222571D01*
X196945142Y-97222571D01*
X197088000Y-97294000D01*
X197159428Y-97365428D01*
X197230857Y-97508285D01*
X197230857Y-97651142D01*
X197159428Y-97794000D01*
X197088000Y-97865428D01*
X196945142Y-97936857D01*
X196445142Y-97936857D01*
X195052285Y-108247571D02*
X195052285Y-106747571D01*
X195623714Y-106747571D01*
X195766571Y-106819000D01*
X195838000Y-106890428D01*
X195909428Y-107033285D01*
X195909428Y-107247571D01*
X195838000Y-107390428D01*
X195766571Y-107461857D01*
X195623714Y-107533285D01*
X195052285Y-107533285D01*
X196480857Y-107819000D02*
X197195142Y-107819000D01*
X196338000Y-108247571D02*
X196838000Y-106747571D01*
X197338000Y-108247571D01*
X144061571Y-106207571D02*
X142561571Y-106207571D01*
X143275857Y-106207571D02*
X143275857Y-105350428D01*
X144061571Y-105350428D02*
X142561571Y-105350428D01*
X143918714Y-103779000D02*
X143990142Y-103850428D01*
X144061571Y-104064714D01*
X144061571Y-104207571D01*
X143990142Y-104421857D01*
X143847285Y-104564714D01*
X143704428Y-104636142D01*
X143418714Y-104707571D01*
X143204428Y-104707571D01*
X142918714Y-104636142D01*
X142775857Y-104564714D01*
X142633000Y-104421857D01*
X142561571Y-104207571D01*
X142561571Y-104064714D01*
X142633000Y-103850428D01*
X142704428Y-103779000D01*
X141521571Y-106207571D02*
X140021571Y-106207571D01*
X140735857Y-106207571D02*
X140735857Y-105350428D01*
X141521571Y-105350428D02*
X140021571Y-105350428D01*
X140735857Y-104136142D02*
X140807285Y-103921857D01*
X140878714Y-103850428D01*
X141021571Y-103779000D01*
X141235857Y-103779000D01*
X141378714Y-103850428D01*
X141450142Y-103921857D01*
X141521571Y-104064714D01*
X141521571Y-104636142D01*
X140021571Y-104636142D01*
X140021571Y-104136142D01*
X140093000Y-103993285D01*
X140164428Y-103921857D01*
X140307285Y-103850428D01*
X140450142Y-103850428D01*
X140593000Y-103921857D01*
X140664428Y-103993285D01*
X140735857Y-104136142D01*
X140735857Y-104636142D01*
X138981571Y-106100428D02*
X137481571Y-106100428D01*
X138195857Y-106100428D02*
X138195857Y-105243285D01*
X138981571Y-105243285D02*
X137481571Y-105243285D01*
X138553000Y-104600428D02*
X138553000Y-103886142D01*
X138981571Y-104743285D02*
X137481571Y-104243285D01*
X138981571Y-103743285D01*
X134941571Y-105314714D02*
X134941571Y-106029000D01*
X135655857Y-106100428D01*
X135584428Y-106029000D01*
X135513000Y-105886142D01*
X135513000Y-105529000D01*
X135584428Y-105386142D01*
X135655857Y-105314714D01*
X135798714Y-105243285D01*
X136155857Y-105243285D01*
X136298714Y-105314714D01*
X136370142Y-105386142D01*
X136441571Y-105529000D01*
X136441571Y-105886142D01*
X136370142Y-106029000D01*
X136298714Y-106100428D01*
X134941571Y-104814714D02*
X136441571Y-104314714D01*
X134941571Y-103814714D01*
X145173000Y-106171857D02*
X145101571Y-106314714D01*
X145101571Y-106529000D01*
X145173000Y-106743285D01*
X145315857Y-106886142D01*
X145458714Y-106957571D01*
X145744428Y-107029000D01*
X145958714Y-107029000D01*
X146244428Y-106957571D01*
X146387285Y-106886142D01*
X146530142Y-106743285D01*
X146601571Y-106529000D01*
X146601571Y-106386142D01*
X146530142Y-106171857D01*
X146458714Y-106100428D01*
X145958714Y-106100428D01*
X145958714Y-106386142D01*
X146601571Y-105457571D02*
X145101571Y-105457571D01*
X146601571Y-104600428D01*
X145101571Y-104600428D01*
X146601571Y-103886142D02*
X145101571Y-103886142D01*
X145101571Y-103529000D01*
X145173000Y-103314714D01*
X145315857Y-103171857D01*
X145458714Y-103100428D01*
X145744428Y-103029000D01*
X145958714Y-103029000D01*
X146244428Y-103100428D01*
X146387285Y-103171857D01*
X146530142Y-103314714D01*
X146601571Y-103529000D01*
X146601571Y-103886142D01*
X105985857Y-96659000D02*
X105843000Y-96587571D01*
X105628714Y-96587571D01*
X105414428Y-96659000D01*
X105271571Y-96801857D01*
X105200142Y-96944714D01*
X105128714Y-97230428D01*
X105128714Y-97444714D01*
X105200142Y-97730428D01*
X105271571Y-97873285D01*
X105414428Y-98016142D01*
X105628714Y-98087571D01*
X105771571Y-98087571D01*
X105985857Y-98016142D01*
X106057285Y-97944714D01*
X106057285Y-97444714D01*
X105771571Y-97444714D01*
X106700142Y-98087571D02*
X106700142Y-96587571D01*
X107557285Y-98087571D01*
X107557285Y-96587571D01*
X108271571Y-98087571D02*
X108271571Y-96587571D01*
X108628714Y-96587571D01*
X108843000Y-96659000D01*
X108985857Y-96801857D01*
X109057285Y-96944714D01*
X109128714Y-97230428D01*
X109128714Y-97444714D01*
X109057285Y-97730428D01*
X108985857Y-97873285D01*
X108843000Y-98016142D01*
X108628714Y-98087571D01*
X108271571Y-98087571D01*
X105200142Y-100056142D02*
X106343000Y-100056142D01*
X105771571Y-100627571D02*
X105771571Y-99484714D01*
X105489428Y-85387571D02*
X105489428Y-83887571D01*
X105489428Y-84601857D02*
X106346571Y-84601857D01*
X106346571Y-85387571D02*
X106346571Y-83887571D01*
X106382285Y-87927571D02*
X105668000Y-87927571D01*
X105668000Y-86427571D01*
X106382285Y-90467571D02*
X105668000Y-90467571D01*
X105668000Y-88967571D01*
X105489428Y-93007571D02*
X105489428Y-91507571D01*
X105489428Y-92221857D02*
X106346571Y-92221857D01*
X106346571Y-93007571D02*
X106346571Y-91507571D01*
X141998000Y-94277571D02*
X141998000Y-92777571D01*
X142712285Y-94277571D02*
X142712285Y-92777571D01*
X143069428Y-92777571D01*
X143283714Y-92849000D01*
X143426571Y-92991857D01*
X143498000Y-93134714D01*
X143569428Y-93420428D01*
X143569428Y-93634714D01*
X143498000Y-93920428D01*
X143426571Y-94063285D01*
X143283714Y-94206142D01*
X143069428Y-94277571D01*
X142712285Y-94277571D01*
X147891571Y-80371142D02*
X149034428Y-80371142D01*
X137731571Y-80371142D02*
X138874428Y-80371142D01*
X138303000Y-80942571D02*
X138303000Y-79799714D01*
X134632285Y-82847571D02*
X134132285Y-82133285D01*
X133775142Y-82847571D02*
X133775142Y-81347571D01*
X134346571Y-81347571D01*
X134489428Y-81419000D01*
X134560857Y-81490428D01*
X134632285Y-81633285D01*
X134632285Y-81847571D01*
X134560857Y-81990428D01*
X134489428Y-82061857D01*
X134346571Y-82133285D01*
X133775142Y-82133285D01*
X135132285Y-81347571D02*
X136132285Y-82847571D01*
X136132285Y-81347571D02*
X135132285Y-82847571D01*
X133560857Y-78807571D02*
X134418000Y-78807571D01*
X133989428Y-80307571D02*
X133989428Y-78807571D01*
X134775142Y-78807571D02*
X135775142Y-80307571D01*
X135775142Y-78807571D02*
X134775142Y-80307571D01*
X134560857Y-76339000D02*
X134418000Y-76267571D01*
X134203714Y-76267571D01*
X133989428Y-76339000D01*
X133846571Y-76481857D01*
X133775142Y-76624714D01*
X133703714Y-76910428D01*
X133703714Y-77124714D01*
X133775142Y-77410428D01*
X133846571Y-77553285D01*
X133989428Y-77696142D01*
X134203714Y-77767571D01*
X134346571Y-77767571D01*
X134560857Y-77696142D01*
X134632285Y-77624714D01*
X134632285Y-77124714D01*
X134346571Y-77124714D01*
X110319428Y-80403285D02*
X111033714Y-79903285D01*
X110319428Y-79546142D02*
X111819428Y-79546142D01*
X111819428Y-80117571D01*
X111748000Y-80260428D01*
X111676571Y-80331857D01*
X111533714Y-80403285D01*
X111319428Y-80403285D01*
X111176571Y-80331857D01*
X111105142Y-80260428D01*
X111033714Y-80117571D01*
X111033714Y-79546142D01*
X110390857Y-80974714D02*
X110319428Y-81189000D01*
X110319428Y-81546142D01*
X110390857Y-81689000D01*
X110462285Y-81760428D01*
X110605142Y-81831857D01*
X110748000Y-81831857D01*
X110890857Y-81760428D01*
X110962285Y-81689000D01*
X111033714Y-81546142D01*
X111105142Y-81260428D01*
X111176571Y-81117571D01*
X111248000Y-81046142D01*
X111390857Y-80974714D01*
X111533714Y-80974714D01*
X111676571Y-81046142D01*
X111748000Y-81117571D01*
X111819428Y-81260428D01*
X111819428Y-81617571D01*
X111748000Y-81831857D01*
X111819428Y-82260428D02*
X111819428Y-83117571D01*
X110319428Y-82689000D02*
X111819428Y-82689000D01*
X114359428Y-79331857D02*
X114359428Y-80189000D01*
X112859428Y-79760428D02*
X114359428Y-79760428D01*
X112859428Y-81546142D02*
X113573714Y-81046142D01*
X112859428Y-80689000D02*
X114359428Y-80689000D01*
X114359428Y-81260428D01*
X114288000Y-81403285D01*
X114216571Y-81474714D01*
X114073714Y-81546142D01*
X113859428Y-81546142D01*
X113716571Y-81474714D01*
X113645142Y-81403285D01*
X113573714Y-81260428D01*
X113573714Y-80689000D01*
X123090857Y-79474714D02*
X123019428Y-79689000D01*
X123019428Y-80046142D01*
X123090857Y-80189000D01*
X123162285Y-80260428D01*
X123305142Y-80331857D01*
X123448000Y-80331857D01*
X123590857Y-80260428D01*
X123662285Y-80189000D01*
X123733714Y-80046142D01*
X123805142Y-79760428D01*
X123876571Y-79617571D01*
X123948000Y-79546142D01*
X124090857Y-79474714D01*
X124233714Y-79474714D01*
X124376571Y-79546142D01*
X124448000Y-79617571D01*
X124519428Y-79760428D01*
X124519428Y-80117571D01*
X124448000Y-80331857D01*
X124519428Y-80831857D02*
X123019428Y-81189000D01*
X124090857Y-81474714D01*
X123019428Y-81760428D01*
X124519428Y-82117571D01*
X123162285Y-83546142D02*
X123090857Y-83474714D01*
X123019428Y-83260428D01*
X123019428Y-83117571D01*
X123090857Y-82903285D01*
X123233714Y-82760428D01*
X123376571Y-82689000D01*
X123662285Y-82617571D01*
X123876571Y-82617571D01*
X124162285Y-82689000D01*
X124305142Y-82760428D01*
X124448000Y-82903285D01*
X124519428Y-83117571D01*
X124519428Y-83260428D01*
X124448000Y-83474714D01*
X124376571Y-83546142D01*
X123019428Y-84903285D02*
X123019428Y-84189000D01*
X124519428Y-84189000D01*
X120550857Y-79474714D02*
X120479428Y-79689000D01*
X120479428Y-80046142D01*
X120550857Y-80189000D01*
X120622285Y-80260428D01*
X120765142Y-80331857D01*
X120908000Y-80331857D01*
X121050857Y-80260428D01*
X121122285Y-80189000D01*
X121193714Y-80046142D01*
X121265142Y-79760428D01*
X121336571Y-79617571D01*
X121408000Y-79546142D01*
X121550857Y-79474714D01*
X121693714Y-79474714D01*
X121836571Y-79546142D01*
X121908000Y-79617571D01*
X121979428Y-79760428D01*
X121979428Y-80117571D01*
X121908000Y-80331857D01*
X121979428Y-80831857D02*
X120479428Y-81189000D01*
X121550857Y-81474714D01*
X120479428Y-81760428D01*
X121979428Y-82117571D01*
X120479428Y-82689000D02*
X121979428Y-82689000D01*
X121979428Y-83689000D02*
X121979428Y-83974714D01*
X121908000Y-84117571D01*
X121765142Y-84260428D01*
X121479428Y-84331857D01*
X120979428Y-84331857D01*
X120693714Y-84260428D01*
X120550857Y-84117571D01*
X120479428Y-83974714D01*
X120479428Y-83689000D01*
X120550857Y-83546142D01*
X120693714Y-83403285D01*
X120979428Y-83331857D01*
X121479428Y-83331857D01*
X121765142Y-83403285D01*
X121908000Y-83546142D01*
X121979428Y-83689000D01*
X119439428Y-79403285D02*
X119439428Y-80331857D01*
X118868000Y-79831857D01*
X118868000Y-80046142D01*
X118796571Y-80189000D01*
X118725142Y-80260428D01*
X118582285Y-80331857D01*
X118225142Y-80331857D01*
X118082285Y-80260428D01*
X118010857Y-80189000D01*
X117939428Y-80046142D01*
X117939428Y-79617571D01*
X118010857Y-79474714D01*
X118082285Y-79403285D01*
X118082285Y-80974714D02*
X118010857Y-81046142D01*
X117939428Y-80974714D01*
X118010857Y-80903285D01*
X118082285Y-80974714D01*
X117939428Y-80974714D01*
X119439428Y-81546142D02*
X119439428Y-82474714D01*
X118868000Y-81974714D01*
X118868000Y-82189000D01*
X118796571Y-82331857D01*
X118725142Y-82403285D01*
X118582285Y-82474714D01*
X118225142Y-82474714D01*
X118082285Y-82403285D01*
X118010857Y-82331857D01*
X117939428Y-82189000D01*
X117939428Y-81760428D01*
X118010857Y-81617571D01*
X118082285Y-81546142D01*
X119439428Y-82903285D02*
X117939428Y-83403285D01*
X119439428Y-83903285D01*
X126988000Y-80331857D02*
X127059428Y-80189000D01*
X127059428Y-79974714D01*
X126988000Y-79760428D01*
X126845142Y-79617571D01*
X126702285Y-79546142D01*
X126416571Y-79474714D01*
X126202285Y-79474714D01*
X125916571Y-79546142D01*
X125773714Y-79617571D01*
X125630857Y-79760428D01*
X125559428Y-79974714D01*
X125559428Y-80117571D01*
X125630857Y-80331857D01*
X125702285Y-80403285D01*
X126202285Y-80403285D01*
X126202285Y-80117571D01*
D11*
G04 #@! TO.C,J7*
X147176000Y-113266000D02*
X147176000Y-107246000D01*
X147176000Y-107246000D02*
X134256000Y-107246000D01*
X134256000Y-107246000D02*
X134256000Y-113266000D01*
X134256000Y-113266000D02*
X147176000Y-113266000D01*
X147466000Y-112236000D02*
X147466000Y-108236000D01*
X145796000Y-107246000D02*
X145796000Y-108246000D01*
X145796000Y-108246000D02*
X135636000Y-108246000D01*
X135636000Y-108246000D02*
X135636000Y-107246000D01*
X145796000Y-108246000D02*
X145546000Y-108776000D01*
X145546000Y-108776000D02*
X135886000Y-108776000D01*
X135886000Y-108776000D02*
X135636000Y-108246000D01*
X145546000Y-107246000D02*
X145546000Y-108246000D01*
X135886000Y-107246000D02*
X135886000Y-108246000D01*
X146596000Y-113266000D02*
X146596000Y-112666000D01*
X146596000Y-112666000D02*
X144996000Y-112666000D01*
X144996000Y-112666000D02*
X144996000Y-113266000D01*
X144056000Y-113266000D02*
X144056000Y-112666000D01*
X144056000Y-112666000D02*
X142456000Y-112666000D01*
X142456000Y-112666000D02*
X142456000Y-113266000D01*
X141516000Y-113266000D02*
X141516000Y-112666000D01*
X141516000Y-112666000D02*
X139916000Y-112666000D01*
X139916000Y-112666000D02*
X139916000Y-113266000D01*
X138976000Y-113266000D02*
X138976000Y-112666000D01*
X138976000Y-112666000D02*
X137376000Y-112666000D01*
X137376000Y-112666000D02*
X137376000Y-113266000D01*
X136436000Y-113266000D02*
X136436000Y-112666000D01*
X136436000Y-112666000D02*
X134836000Y-112666000D01*
X134836000Y-112666000D02*
X134836000Y-113266000D01*
D12*
G04 #@! TO.C,U4*
X113073000Y-90459000D02*
X113073000Y-90409000D01*
X108923000Y-90459000D02*
X108923000Y-90314000D01*
X108923000Y-85309000D02*
X108923000Y-85454000D01*
X113073000Y-85309000D02*
X113073000Y-85454000D01*
X113073000Y-90459000D02*
X108923000Y-90459000D01*
X113073000Y-85309000D02*
X108923000Y-85309000D01*
X113073000Y-90409000D02*
X114473000Y-90409000D01*
D11*
G04 #@! TO.C,F1*
X135403000Y-82304000D02*
X135403000Y-89244000D01*
X135403000Y-89244000D02*
X151603000Y-89244000D01*
X151603000Y-89244000D02*
X151603000Y-82304000D01*
X151603000Y-82304000D02*
X135403000Y-82304000D01*
X142753000Y-85774000D02*
X144253000Y-85774000D01*
X145103000Y-87774000D02*
X141903000Y-87774000D01*
X141903000Y-83774000D02*
X145103000Y-83774000D01*
G04 #@! TO.C,J1*
X194688000Y-105259000D02*
X194688000Y-102259000D01*
X194688000Y-102259000D02*
X197538000Y-102259000D01*
X194688000Y-105259000D02*
X197538000Y-105259000D01*
X197538000Y-105259000D02*
X197538000Y-102259000D01*
G04 #@! TO.C,J2*
X197538000Y-95734000D02*
X197538000Y-92734000D01*
X194688000Y-95734000D02*
X197538000Y-95734000D01*
X194688000Y-92734000D02*
X197538000Y-92734000D01*
X194688000Y-95734000D02*
X194688000Y-92734000D01*
G04 #@! TO.C,J3*
X194688000Y-86209000D02*
X194688000Y-83209000D01*
X194688000Y-83209000D02*
X197538000Y-83209000D01*
X194688000Y-86209000D02*
X197538000Y-86209000D01*
X197538000Y-86209000D02*
X197538000Y-83209000D01*
G04 #@! TO.C,Q2*
X179083000Y-112079000D02*
X177983000Y-112079000D01*
X179083000Y-112769000D02*
X179083000Y-112079000D01*
X180583000Y-112769000D02*
X179083000Y-112769000D01*
X179083000Y-103059000D02*
X173958000Y-103059000D01*
X179083000Y-102369000D02*
X179083000Y-103059000D01*
X180583000Y-102369000D02*
X179083000Y-102369000D01*
G04 #@! TO.C,Q3*
X180595000Y-89034000D02*
X179095000Y-89034000D01*
X179095000Y-89034000D02*
X179095000Y-89724000D01*
X179095000Y-89724000D02*
X173970000Y-89724000D01*
X180595000Y-99434000D02*
X179095000Y-99434000D01*
X179095000Y-99434000D02*
X179095000Y-98744000D01*
X179095000Y-98744000D02*
X177995000Y-98744000D01*
G04 #@! TO.C,Q4*
X180595000Y-75572000D02*
X179095000Y-75572000D01*
X179095000Y-75572000D02*
X179095000Y-76262000D01*
X179095000Y-76262000D02*
X173970000Y-76262000D01*
X180595000Y-85972000D02*
X179095000Y-85972000D01*
X179095000Y-85972000D02*
X179095000Y-85282000D01*
X179095000Y-85282000D02*
X177995000Y-85282000D01*
G04 #@! TO.C,U1*
X111703000Y-110682500D02*
X110503000Y-110682500D01*
X110503000Y-110682500D02*
X110503000Y-107982500D01*
X115303000Y-106682500D02*
X115303000Y-110682500D01*
X115303000Y-110682500D02*
X114103000Y-110682500D01*
G04 #@! TO.C,U2*
X120637000Y-110682500D02*
X119437000Y-110682500D01*
X120637000Y-106682500D02*
X120637000Y-110682500D01*
X115837000Y-110682500D02*
X115837000Y-107982500D01*
X117037000Y-110682500D02*
X115837000Y-110682500D01*
G04 #@! TO.C,U3*
X125853000Y-100969000D02*
X126273000Y-100969000D01*
X125853000Y-93849000D02*
X125853000Y-94269000D01*
X125853000Y-94269000D02*
X124473000Y-94269000D01*
X132973000Y-93849000D02*
X132553000Y-93849000D01*
X132973000Y-100969000D02*
X132553000Y-100969000D01*
X125853000Y-93849000D02*
X126273000Y-93849000D01*
X125853000Y-100969000D02*
X125853000Y-100549000D01*
X132973000Y-100969000D02*
X132973000Y-100549000D01*
X132973000Y-93849000D02*
X132973000Y-94269000D01*
G04 #@! TO.C,Y1*
X119432000Y-96568500D02*
X113032000Y-96568500D01*
X119432000Y-91518500D02*
X113032000Y-91518500D01*
X119432000Y-91518500D02*
G75*
G02X119432000Y-96568500I0J-2525000D01*
G01*
X113032000Y-91518500D02*
G75*
G03X113032000Y-96568500I0J-2525000D01*
G01*
G04 #@! TO.C,C5*
X129538000Y-108364233D02*
X129538000Y-108706767D01*
X130558000Y-108364233D02*
X130558000Y-108706767D01*
G04 #@! TO.C,C11*
X116809733Y-87374000D02*
X117152267Y-87374000D01*
X116809733Y-88394000D02*
X117152267Y-88394000D01*
G04 #@! TO.C,R1*
X116795733Y-89279000D02*
X117138267Y-89279000D01*
X116795733Y-90299000D02*
X117138267Y-90299000D01*
G04 #@! TO.C,R2*
X116781733Y-86489000D02*
X117124267Y-86489000D01*
X116781733Y-85469000D02*
X117124267Y-85469000D01*
G04 #@! TO.C,R3*
X132145500Y-108364233D02*
X132145500Y-108706767D01*
X131125500Y-108364233D02*
X131125500Y-108706767D01*
G04 #@! TO.C,R4*
X139504267Y-101979000D02*
X139161733Y-101979000D01*
X139504267Y-102999000D02*
X139161733Y-102999000D01*
G04 #@! TO.C,R5*
X143592733Y-101979000D02*
X143935267Y-101979000D01*
X143592733Y-102999000D02*
X143935267Y-102999000D01*
G04 #@! TO.C,R6*
X143949267Y-99189000D02*
X143606733Y-99189000D01*
X143949267Y-98169000D02*
X143606733Y-98169000D01*
G04 #@! TO.C,R7*
X139133733Y-101094000D02*
X139476267Y-101094000D01*
X139133733Y-100074000D02*
X139476267Y-100074000D01*
G04 #@! TO.C,R8*
X143921267Y-100074000D02*
X143578733Y-100074000D01*
X143921267Y-101094000D02*
X143578733Y-101094000D01*
G04 #@! TO.C,R9*
X139161733Y-98169000D02*
X139504267Y-98169000D01*
X139161733Y-99189000D02*
X139504267Y-99189000D01*
G04 #@! TO.C,R13*
X107440000Y-92284733D02*
X107440000Y-92627267D01*
X108460000Y-92284733D02*
X108460000Y-92627267D01*
G04 #@! TO.C,C1*
X110718000Y-100334000D02*
X109518000Y-100334000D01*
X106198000Y-100334000D02*
X107398000Y-100334000D01*
X106198000Y-103789563D02*
X106198000Y-100334000D01*
X110718000Y-103789563D02*
X110718000Y-100334000D01*
X109653563Y-104854000D02*
X109518000Y-104854000D01*
X107262437Y-104854000D02*
X107398000Y-104854000D01*
X107262437Y-104854000D02*
X106198000Y-103789563D01*
X109653563Y-104854000D02*
X110718000Y-103789563D01*
X106898000Y-105594000D02*
X106898000Y-105094000D01*
X106648000Y-105344000D02*
X107148000Y-105344000D01*
G04 #@! TO.C,C2*
X115798000Y-100229000D02*
X114598000Y-100229000D01*
X111278000Y-100229000D02*
X112478000Y-100229000D01*
X111278000Y-103684563D02*
X111278000Y-100229000D01*
X115798000Y-103684563D02*
X115798000Y-100229000D01*
X114733563Y-104749000D02*
X114598000Y-104749000D01*
X112342437Y-104749000D02*
X112478000Y-104749000D01*
X112342437Y-104749000D02*
X111278000Y-103684563D01*
X114733563Y-104749000D02*
X115798000Y-103684563D01*
X111978000Y-105489000D02*
X111978000Y-104989000D01*
X111728000Y-105239000D02*
X112228000Y-105239000D01*
G04 #@! TO.C,C4*
X116808000Y-105344000D02*
X117308000Y-105344000D01*
X117058000Y-105594000D02*
X117058000Y-105094000D01*
X119813563Y-104854000D02*
X120878000Y-103789563D01*
X117422437Y-104854000D02*
X116358000Y-103789563D01*
X117422437Y-104854000D02*
X117558000Y-104854000D01*
X119813563Y-104854000D02*
X119678000Y-104854000D01*
X120878000Y-103789563D02*
X120878000Y-100334000D01*
X116358000Y-103789563D02*
X116358000Y-100334000D01*
X116358000Y-100334000D02*
X117558000Y-100334000D01*
X120878000Y-100334000D02*
X119678000Y-100334000D01*
G04 #@! TO.C,J6*
X109668000Y-75759000D02*
X109668000Y-78419000D01*
X124968000Y-75759000D02*
X109668000Y-75759000D01*
X124968000Y-78419000D02*
X109668000Y-78419000D01*
X124968000Y-75759000D02*
X124968000Y-78419000D01*
X126238000Y-75759000D02*
X127568000Y-75759000D01*
X127568000Y-75759000D02*
X127568000Y-77089000D01*
G04 #@! TO.C,J5*
X140903000Y-95945000D02*
X140903000Y-90745000D01*
X138303000Y-95945000D02*
X140903000Y-95945000D01*
X135703000Y-90745000D02*
X140903000Y-90745000D01*
X138303000Y-95945000D02*
X138303000Y-93345000D01*
X138303000Y-93345000D02*
X135703000Y-93345000D01*
X135703000Y-93345000D02*
X135703000Y-90745000D01*
X137033000Y-95945000D02*
X135703000Y-95945000D01*
X135703000Y-95945000D02*
X135703000Y-94615000D01*
G04 #@! TO.C,J8*
X137057000Y-78539000D02*
X140057000Y-78539000D01*
X137057000Y-75689000D02*
X137057000Y-78539000D01*
X140057000Y-75689000D02*
X140057000Y-78539000D01*
X137057000Y-75689000D02*
X140057000Y-75689000D01*
G04 #@! TO.C,J9*
X146963000Y-75689000D02*
X149963000Y-75689000D01*
X149963000Y-75689000D02*
X149963000Y-78539000D01*
X146963000Y-75689000D02*
X146963000Y-78539000D01*
X146963000Y-78539000D02*
X149963000Y-78539000D01*
G04 #@! TO.C,C18*
X166263000Y-107629000D02*
G75*
G03X166263000Y-107629000I-6370000J0D01*
G01*
X153563000Y-107629000D02*
X166223000Y-107629000D01*
X153563000Y-107589000D02*
X166223000Y-107589000D01*
X153563000Y-107549000D02*
X166223000Y-107549000D01*
X153564000Y-107509000D02*
X166222000Y-107509000D01*
X153565000Y-107469000D02*
X166221000Y-107469000D01*
X153566000Y-107429000D02*
X166220000Y-107429000D01*
X153567000Y-107389000D02*
X166219000Y-107389000D01*
X153569000Y-107349000D02*
X166217000Y-107349000D01*
X153571000Y-107309000D02*
X166215000Y-107309000D01*
X153573000Y-107269000D02*
X166213000Y-107269000D01*
X153575000Y-107229000D02*
X166211000Y-107229000D01*
X153578000Y-107189000D02*
X166208000Y-107189000D01*
X153581000Y-107149000D02*
X166205000Y-107149000D01*
X153584000Y-107109000D02*
X166202000Y-107109000D01*
X153587000Y-107069000D02*
X166199000Y-107069000D01*
X153591000Y-107029000D02*
X166195000Y-107029000D01*
X153595000Y-106989000D02*
X166191000Y-106989000D01*
X153599000Y-106949000D02*
X166187000Y-106949000D01*
X153603000Y-106908000D02*
X166183000Y-106908000D01*
X153608000Y-106868000D02*
X166178000Y-106868000D01*
X153613000Y-106828000D02*
X166173000Y-106828000D01*
X153618000Y-106788000D02*
X166168000Y-106788000D01*
X153624000Y-106748000D02*
X166162000Y-106748000D01*
X153629000Y-106708000D02*
X166157000Y-106708000D01*
X153635000Y-106668000D02*
X166151000Y-106668000D01*
X153641000Y-106628000D02*
X166145000Y-106628000D01*
X153648000Y-106588000D02*
X166138000Y-106588000D01*
X153655000Y-106548000D02*
X166131000Y-106548000D01*
X153662000Y-106508000D02*
X166124000Y-106508000D01*
X153669000Y-106468000D02*
X166117000Y-106468000D01*
X153677000Y-106428000D02*
X166109000Y-106428000D01*
X153684000Y-106388000D02*
X166102000Y-106388000D01*
X153692000Y-106348000D02*
X166094000Y-106348000D01*
X153701000Y-106308000D02*
X166085000Y-106308000D01*
X153709000Y-106268000D02*
X166077000Y-106268000D01*
X153718000Y-106228000D02*
X166068000Y-106228000D01*
X153727000Y-106188000D02*
X166059000Y-106188000D01*
X153737000Y-106148000D02*
X166049000Y-106148000D01*
X153747000Y-106108000D02*
X166039000Y-106108000D01*
X153756000Y-106068000D02*
X166030000Y-106068000D01*
X153767000Y-106028000D02*
X166019000Y-106028000D01*
X153777000Y-105988000D02*
X166009000Y-105988000D01*
X153788000Y-105948000D02*
X165998000Y-105948000D01*
X153799000Y-105908000D02*
X165987000Y-105908000D01*
X153810000Y-105868000D02*
X165976000Y-105868000D01*
X153822000Y-105828000D02*
X165964000Y-105828000D01*
X153834000Y-105788000D02*
X165952000Y-105788000D01*
X153846000Y-105748000D02*
X165940000Y-105748000D01*
X153859000Y-105708000D02*
X165927000Y-105708000D01*
X153872000Y-105668000D02*
X165914000Y-105668000D01*
X153885000Y-105628000D02*
X165901000Y-105628000D01*
X153898000Y-105588000D02*
X165888000Y-105588000D01*
X153912000Y-105548000D02*
X165874000Y-105548000D01*
X153926000Y-105508000D02*
X165860000Y-105508000D01*
X153940000Y-105468000D02*
X165846000Y-105468000D01*
X153954000Y-105428000D02*
X165832000Y-105428000D01*
X153969000Y-105388000D02*
X165817000Y-105388000D01*
X153985000Y-105348000D02*
X165801000Y-105348000D01*
X154000000Y-105308000D02*
X158453000Y-105308000D01*
X161333000Y-105308000D02*
X165786000Y-105308000D01*
X154016000Y-105268000D02*
X158453000Y-105268000D01*
X161333000Y-105268000D02*
X165770000Y-105268000D01*
X154032000Y-105228000D02*
X158453000Y-105228000D01*
X161333000Y-105228000D02*
X165754000Y-105228000D01*
X154048000Y-105188000D02*
X158453000Y-105188000D01*
X161333000Y-105188000D02*
X165738000Y-105188000D01*
X154065000Y-105148000D02*
X158453000Y-105148000D01*
X161333000Y-105148000D02*
X165721000Y-105148000D01*
X154082000Y-105108000D02*
X158453000Y-105108000D01*
X161333000Y-105108000D02*
X165704000Y-105108000D01*
X154100000Y-105068000D02*
X158453000Y-105068000D01*
X161333000Y-105068000D02*
X165686000Y-105068000D01*
X154117000Y-105028000D02*
X158453000Y-105028000D01*
X161333000Y-105028000D02*
X165669000Y-105028000D01*
X154135000Y-104988000D02*
X158453000Y-104988000D01*
X161333000Y-104988000D02*
X165651000Y-104988000D01*
X154154000Y-104948000D02*
X158453000Y-104948000D01*
X161333000Y-104948000D02*
X165632000Y-104948000D01*
X154172000Y-104908000D02*
X158453000Y-104908000D01*
X161333000Y-104908000D02*
X165614000Y-104908000D01*
X154191000Y-104868000D02*
X158453000Y-104868000D01*
X161333000Y-104868000D02*
X165595000Y-104868000D01*
X154211000Y-104828000D02*
X158453000Y-104828000D01*
X161333000Y-104828000D02*
X165575000Y-104828000D01*
X154231000Y-104788000D02*
X158453000Y-104788000D01*
X161333000Y-104788000D02*
X165555000Y-104788000D01*
X154251000Y-104748000D02*
X158453000Y-104748000D01*
X161333000Y-104748000D02*
X165535000Y-104748000D01*
X154271000Y-104708000D02*
X158453000Y-104708000D01*
X161333000Y-104708000D02*
X165515000Y-104708000D01*
X154292000Y-104668000D02*
X158453000Y-104668000D01*
X161333000Y-104668000D02*
X165494000Y-104668000D01*
X154313000Y-104628000D02*
X158453000Y-104628000D01*
X161333000Y-104628000D02*
X165473000Y-104628000D01*
X154335000Y-104588000D02*
X158453000Y-104588000D01*
X161333000Y-104588000D02*
X165451000Y-104588000D01*
X154357000Y-104548000D02*
X158453000Y-104548000D01*
X161333000Y-104548000D02*
X165429000Y-104548000D01*
X154379000Y-104508000D02*
X158453000Y-104508000D01*
X161333000Y-104508000D02*
X165407000Y-104508000D01*
X154402000Y-104468000D02*
X158453000Y-104468000D01*
X161333000Y-104468000D02*
X165384000Y-104468000D01*
X154425000Y-104428000D02*
X158453000Y-104428000D01*
X161333000Y-104428000D02*
X165361000Y-104428000D01*
X154448000Y-104388000D02*
X158453000Y-104388000D01*
X161333000Y-104388000D02*
X165338000Y-104388000D01*
X154472000Y-104348000D02*
X158453000Y-104348000D01*
X161333000Y-104348000D02*
X165314000Y-104348000D01*
X154496000Y-104308000D02*
X158453000Y-104308000D01*
X161333000Y-104308000D02*
X165290000Y-104308000D01*
X154521000Y-104268000D02*
X158453000Y-104268000D01*
X161333000Y-104268000D02*
X165265000Y-104268000D01*
X154546000Y-104228000D02*
X158453000Y-104228000D01*
X161333000Y-104228000D02*
X165240000Y-104228000D01*
X154571000Y-104188000D02*
X158453000Y-104188000D01*
X161333000Y-104188000D02*
X165215000Y-104188000D01*
X154597000Y-104148000D02*
X158453000Y-104148000D01*
X161333000Y-104148000D02*
X165189000Y-104148000D01*
X154623000Y-104108000D02*
X158453000Y-104108000D01*
X161333000Y-104108000D02*
X165163000Y-104108000D01*
X154650000Y-104068000D02*
X158453000Y-104068000D01*
X161333000Y-104068000D02*
X165136000Y-104068000D01*
X154677000Y-104028000D02*
X158453000Y-104028000D01*
X161333000Y-104028000D02*
X165109000Y-104028000D01*
X154705000Y-103988000D02*
X158453000Y-103988000D01*
X161333000Y-103988000D02*
X165081000Y-103988000D01*
X154733000Y-103948000D02*
X158453000Y-103948000D01*
X161333000Y-103948000D02*
X165053000Y-103948000D01*
X154762000Y-103908000D02*
X158453000Y-103908000D01*
X161333000Y-103908000D02*
X165024000Y-103908000D01*
X154791000Y-103868000D02*
X158453000Y-103868000D01*
X161333000Y-103868000D02*
X164995000Y-103868000D01*
X154820000Y-103828000D02*
X158453000Y-103828000D01*
X161333000Y-103828000D02*
X164966000Y-103828000D01*
X154850000Y-103788000D02*
X158453000Y-103788000D01*
X161333000Y-103788000D02*
X164936000Y-103788000D01*
X154881000Y-103748000D02*
X158453000Y-103748000D01*
X161333000Y-103748000D02*
X164905000Y-103748000D01*
X154911000Y-103708000D02*
X158453000Y-103708000D01*
X161333000Y-103708000D02*
X164875000Y-103708000D01*
X154943000Y-103668000D02*
X158453000Y-103668000D01*
X161333000Y-103668000D02*
X164843000Y-103668000D01*
X154975000Y-103628000D02*
X158453000Y-103628000D01*
X161333000Y-103628000D02*
X164811000Y-103628000D01*
X155008000Y-103588000D02*
X158453000Y-103588000D01*
X161333000Y-103588000D02*
X164778000Y-103588000D01*
X155041000Y-103548000D02*
X158453000Y-103548000D01*
X161333000Y-103548000D02*
X164745000Y-103548000D01*
X155074000Y-103508000D02*
X158453000Y-103508000D01*
X161333000Y-103508000D02*
X164712000Y-103508000D01*
X155108000Y-103468000D02*
X158453000Y-103468000D01*
X161333000Y-103468000D02*
X164678000Y-103468000D01*
X155143000Y-103428000D02*
X158453000Y-103428000D01*
X161333000Y-103428000D02*
X164643000Y-103428000D01*
X155179000Y-103388000D02*
X158453000Y-103388000D01*
X161333000Y-103388000D02*
X164607000Y-103388000D01*
X155215000Y-103348000D02*
X158453000Y-103348000D01*
X161333000Y-103348000D02*
X164571000Y-103348000D01*
X155251000Y-103308000D02*
X158453000Y-103308000D01*
X161333000Y-103308000D02*
X164535000Y-103308000D01*
X155288000Y-103268000D02*
X158453000Y-103268000D01*
X161333000Y-103268000D02*
X164498000Y-103268000D01*
X155326000Y-103228000D02*
X158453000Y-103228000D01*
X161333000Y-103228000D02*
X164460000Y-103228000D01*
X155365000Y-103188000D02*
X158453000Y-103188000D01*
X161333000Y-103188000D02*
X164421000Y-103188000D01*
X155404000Y-103148000D02*
X158453000Y-103148000D01*
X161333000Y-103148000D02*
X164382000Y-103148000D01*
X155444000Y-103108000D02*
X158453000Y-103108000D01*
X161333000Y-103108000D02*
X164342000Y-103108000D01*
X155485000Y-103068000D02*
X158453000Y-103068000D01*
X161333000Y-103068000D02*
X164301000Y-103068000D01*
X155526000Y-103028000D02*
X158453000Y-103028000D01*
X161333000Y-103028000D02*
X164260000Y-103028000D01*
X155568000Y-102988000D02*
X158453000Y-102988000D01*
X161333000Y-102988000D02*
X164218000Y-102988000D01*
X155611000Y-102948000D02*
X158453000Y-102948000D01*
X161333000Y-102948000D02*
X164175000Y-102948000D01*
X155655000Y-102908000D02*
X158453000Y-102908000D01*
X161333000Y-102908000D02*
X164131000Y-102908000D01*
X155699000Y-102868000D02*
X158453000Y-102868000D01*
X161333000Y-102868000D02*
X164087000Y-102868000D01*
X155745000Y-102828000D02*
X158453000Y-102828000D01*
X161333000Y-102828000D02*
X164041000Y-102828000D01*
X155791000Y-102788000D02*
X158453000Y-102788000D01*
X161333000Y-102788000D02*
X163995000Y-102788000D01*
X155838000Y-102748000D02*
X158453000Y-102748000D01*
X161333000Y-102748000D02*
X163948000Y-102748000D01*
X155886000Y-102708000D02*
X158453000Y-102708000D01*
X161333000Y-102708000D02*
X163900000Y-102708000D01*
X155936000Y-102668000D02*
X158453000Y-102668000D01*
X161333000Y-102668000D02*
X163850000Y-102668000D01*
X155986000Y-102628000D02*
X158453000Y-102628000D01*
X161333000Y-102628000D02*
X163800000Y-102628000D01*
X156037000Y-102588000D02*
X158453000Y-102588000D01*
X161333000Y-102588000D02*
X163749000Y-102588000D01*
X156089000Y-102548000D02*
X158453000Y-102548000D01*
X161333000Y-102548000D02*
X163697000Y-102548000D01*
X156143000Y-102508000D02*
X158453000Y-102508000D01*
X161333000Y-102508000D02*
X163643000Y-102508000D01*
X156197000Y-102468000D02*
X158453000Y-102468000D01*
X161333000Y-102468000D02*
X163589000Y-102468000D01*
X156253000Y-102428000D02*
X163533000Y-102428000D01*
X156310000Y-102388000D02*
X163476000Y-102388000D01*
X156369000Y-102348000D02*
X163417000Y-102348000D01*
X156429000Y-102308000D02*
X163357000Y-102308000D01*
X156491000Y-102268000D02*
X163295000Y-102268000D01*
X156554000Y-102228000D02*
X163232000Y-102228000D01*
X156618000Y-102188000D02*
X163168000Y-102188000D01*
X156685000Y-102148000D02*
X163101000Y-102148000D01*
X156753000Y-102108000D02*
X163033000Y-102108000D01*
X156824000Y-102068000D02*
X162962000Y-102068000D01*
X156897000Y-102028000D02*
X162889000Y-102028000D01*
X156972000Y-101988000D02*
X162814000Y-101988000D01*
X157049000Y-101948000D02*
X162737000Y-101948000D01*
X157129000Y-101908000D02*
X162657000Y-101908000D01*
X157212000Y-101868000D02*
X162574000Y-101868000D01*
X157299000Y-101828000D02*
X162487000Y-101828000D01*
X157389000Y-101788000D02*
X162397000Y-101788000D01*
X157483000Y-101748000D02*
X162303000Y-101748000D01*
X157581000Y-101708000D02*
X162205000Y-101708000D01*
X157684000Y-101668000D02*
X162102000Y-101668000D01*
X157793000Y-101628000D02*
X161993000Y-101628000D01*
X157909000Y-101588000D02*
X161877000Y-101588000D01*
X158032000Y-101548000D02*
X161754000Y-101548000D01*
X158165000Y-101508000D02*
X161621000Y-101508000D01*
X158310000Y-101468000D02*
X161476000Y-101468000D01*
X158471000Y-101428000D02*
X161315000Y-101428000D01*
X158652000Y-101388000D02*
X161134000Y-101388000D01*
X158865000Y-101348000D02*
X160921000Y-101348000D01*
X159136000Y-101308000D02*
X160650000Y-101308000D01*
X159576000Y-101268000D02*
X160210000Y-101268000D01*
X156318000Y-114446082D02*
X156318000Y-113196082D01*
X155693000Y-113821082D02*
X156943000Y-113821082D01*
G04 #@! TO.C,C3*
X155693000Y-100386082D02*
X156943000Y-100386082D01*
X156318000Y-101011082D02*
X156318000Y-99761082D01*
X159576000Y-87833000D02*
X160210000Y-87833000D01*
X159136000Y-87873000D02*
X160650000Y-87873000D01*
X158865000Y-87913000D02*
X160921000Y-87913000D01*
X158652000Y-87953000D02*
X161134000Y-87953000D01*
X158471000Y-87993000D02*
X161315000Y-87993000D01*
X158310000Y-88033000D02*
X161476000Y-88033000D01*
X158165000Y-88073000D02*
X161621000Y-88073000D01*
X158032000Y-88113000D02*
X161754000Y-88113000D01*
X157909000Y-88153000D02*
X161877000Y-88153000D01*
X157793000Y-88193000D02*
X161993000Y-88193000D01*
X157684000Y-88233000D02*
X162102000Y-88233000D01*
X157581000Y-88273000D02*
X162205000Y-88273000D01*
X157483000Y-88313000D02*
X162303000Y-88313000D01*
X157389000Y-88353000D02*
X162397000Y-88353000D01*
X157299000Y-88393000D02*
X162487000Y-88393000D01*
X157212000Y-88433000D02*
X162574000Y-88433000D01*
X157129000Y-88473000D02*
X162657000Y-88473000D01*
X157049000Y-88513000D02*
X162737000Y-88513000D01*
X156972000Y-88553000D02*
X162814000Y-88553000D01*
X156897000Y-88593000D02*
X162889000Y-88593000D01*
X156824000Y-88633000D02*
X162962000Y-88633000D01*
X156753000Y-88673000D02*
X163033000Y-88673000D01*
X156685000Y-88713000D02*
X163101000Y-88713000D01*
X156618000Y-88753000D02*
X163168000Y-88753000D01*
X156554000Y-88793000D02*
X163232000Y-88793000D01*
X156491000Y-88833000D02*
X163295000Y-88833000D01*
X156429000Y-88873000D02*
X163357000Y-88873000D01*
X156369000Y-88913000D02*
X163417000Y-88913000D01*
X156310000Y-88953000D02*
X163476000Y-88953000D01*
X156253000Y-88993000D02*
X163533000Y-88993000D01*
X156197000Y-89033000D02*
X163589000Y-89033000D01*
X156143000Y-89073000D02*
X163643000Y-89073000D01*
X156089000Y-89113000D02*
X163697000Y-89113000D01*
X156037000Y-89153000D02*
X163749000Y-89153000D01*
X155986000Y-89193000D02*
X163800000Y-89193000D01*
X155936000Y-89233000D02*
X163850000Y-89233000D01*
X155886000Y-89273000D02*
X163900000Y-89273000D01*
X155838000Y-89313000D02*
X163948000Y-89313000D01*
X155791000Y-89353000D02*
X163995000Y-89353000D01*
X155745000Y-89393000D02*
X164041000Y-89393000D01*
X155699000Y-89433000D02*
X164087000Y-89433000D01*
X155655000Y-89473000D02*
X164131000Y-89473000D01*
X155611000Y-89513000D02*
X164175000Y-89513000D01*
X155568000Y-89553000D02*
X164218000Y-89553000D01*
X155526000Y-89593000D02*
X164260000Y-89593000D01*
X155485000Y-89633000D02*
X164301000Y-89633000D01*
X155444000Y-89673000D02*
X164342000Y-89673000D01*
X155404000Y-89713000D02*
X164382000Y-89713000D01*
X155365000Y-89753000D02*
X164421000Y-89753000D01*
X155326000Y-89793000D02*
X164460000Y-89793000D01*
X155288000Y-89833000D02*
X164498000Y-89833000D01*
X155251000Y-89873000D02*
X164535000Y-89873000D01*
X155215000Y-89913000D02*
X164571000Y-89913000D01*
X155179000Y-89953000D02*
X164607000Y-89953000D01*
X155143000Y-89993000D02*
X164643000Y-89993000D01*
X155108000Y-90033000D02*
X164678000Y-90033000D01*
X155074000Y-90073000D02*
X164712000Y-90073000D01*
X155041000Y-90113000D02*
X164745000Y-90113000D01*
X155008000Y-90153000D02*
X164778000Y-90153000D01*
X154975000Y-90193000D02*
X164811000Y-90193000D01*
X154943000Y-90233000D02*
X164843000Y-90233000D01*
X161333000Y-90273000D02*
X164875000Y-90273000D01*
X154911000Y-90273000D02*
X158453000Y-90273000D01*
X161333000Y-90313000D02*
X164905000Y-90313000D01*
X154881000Y-90313000D02*
X158453000Y-90313000D01*
X161333000Y-90353000D02*
X164936000Y-90353000D01*
X154850000Y-90353000D02*
X158453000Y-90353000D01*
X161333000Y-90393000D02*
X164966000Y-90393000D01*
X154820000Y-90393000D02*
X158453000Y-90393000D01*
X161333000Y-90433000D02*
X164995000Y-90433000D01*
X154791000Y-90433000D02*
X158453000Y-90433000D01*
X161333000Y-90473000D02*
X165024000Y-90473000D01*
X154762000Y-90473000D02*
X158453000Y-90473000D01*
X161333000Y-90513000D02*
X165053000Y-90513000D01*
X154733000Y-90513000D02*
X158453000Y-90513000D01*
X161333000Y-90553000D02*
X165081000Y-90553000D01*
X154705000Y-90553000D02*
X158453000Y-90553000D01*
X161333000Y-90593000D02*
X165109000Y-90593000D01*
X154677000Y-90593000D02*
X158453000Y-90593000D01*
X161333000Y-90633000D02*
X165136000Y-90633000D01*
X154650000Y-90633000D02*
X158453000Y-90633000D01*
X161333000Y-90673000D02*
X165163000Y-90673000D01*
X154623000Y-90673000D02*
X158453000Y-90673000D01*
X161333000Y-90713000D02*
X165189000Y-90713000D01*
X154597000Y-90713000D02*
X158453000Y-90713000D01*
X161333000Y-90753000D02*
X165215000Y-90753000D01*
X154571000Y-90753000D02*
X158453000Y-90753000D01*
X161333000Y-90793000D02*
X165240000Y-90793000D01*
X154546000Y-90793000D02*
X158453000Y-90793000D01*
X161333000Y-90833000D02*
X165265000Y-90833000D01*
X154521000Y-90833000D02*
X158453000Y-90833000D01*
X161333000Y-90873000D02*
X165290000Y-90873000D01*
X154496000Y-90873000D02*
X158453000Y-90873000D01*
X161333000Y-90913000D02*
X165314000Y-90913000D01*
X154472000Y-90913000D02*
X158453000Y-90913000D01*
X161333000Y-90953000D02*
X165338000Y-90953000D01*
X154448000Y-90953000D02*
X158453000Y-90953000D01*
X161333000Y-90993000D02*
X165361000Y-90993000D01*
X154425000Y-90993000D02*
X158453000Y-90993000D01*
X161333000Y-91033000D02*
X165384000Y-91033000D01*
X154402000Y-91033000D02*
X158453000Y-91033000D01*
X161333000Y-91073000D02*
X165407000Y-91073000D01*
X154379000Y-91073000D02*
X158453000Y-91073000D01*
X161333000Y-91113000D02*
X165429000Y-91113000D01*
X154357000Y-91113000D02*
X158453000Y-91113000D01*
X161333000Y-91153000D02*
X165451000Y-91153000D01*
X154335000Y-91153000D02*
X158453000Y-91153000D01*
X161333000Y-91193000D02*
X165473000Y-91193000D01*
X154313000Y-91193000D02*
X158453000Y-91193000D01*
X161333000Y-91233000D02*
X165494000Y-91233000D01*
X154292000Y-91233000D02*
X158453000Y-91233000D01*
X161333000Y-91273000D02*
X165515000Y-91273000D01*
X154271000Y-91273000D02*
X158453000Y-91273000D01*
X161333000Y-91313000D02*
X165535000Y-91313000D01*
X154251000Y-91313000D02*
X158453000Y-91313000D01*
X161333000Y-91353000D02*
X165555000Y-91353000D01*
X154231000Y-91353000D02*
X158453000Y-91353000D01*
X161333000Y-91393000D02*
X165575000Y-91393000D01*
X154211000Y-91393000D02*
X158453000Y-91393000D01*
X161333000Y-91433000D02*
X165595000Y-91433000D01*
X154191000Y-91433000D02*
X158453000Y-91433000D01*
X161333000Y-91473000D02*
X165614000Y-91473000D01*
X154172000Y-91473000D02*
X158453000Y-91473000D01*
X161333000Y-91513000D02*
X165632000Y-91513000D01*
X154154000Y-91513000D02*
X158453000Y-91513000D01*
X161333000Y-91553000D02*
X165651000Y-91553000D01*
X154135000Y-91553000D02*
X158453000Y-91553000D01*
X161333000Y-91593000D02*
X165669000Y-91593000D01*
X154117000Y-91593000D02*
X158453000Y-91593000D01*
X161333000Y-91633000D02*
X165686000Y-91633000D01*
X154100000Y-91633000D02*
X158453000Y-91633000D01*
X161333000Y-91673000D02*
X165704000Y-91673000D01*
X154082000Y-91673000D02*
X158453000Y-91673000D01*
X161333000Y-91713000D02*
X165721000Y-91713000D01*
X154065000Y-91713000D02*
X158453000Y-91713000D01*
X161333000Y-91753000D02*
X165738000Y-91753000D01*
X154048000Y-91753000D02*
X158453000Y-91753000D01*
X161333000Y-91793000D02*
X165754000Y-91793000D01*
X154032000Y-91793000D02*
X158453000Y-91793000D01*
X161333000Y-91833000D02*
X165770000Y-91833000D01*
X154016000Y-91833000D02*
X158453000Y-91833000D01*
X161333000Y-91873000D02*
X165786000Y-91873000D01*
X154000000Y-91873000D02*
X158453000Y-91873000D01*
X161333000Y-91913000D02*
X165801000Y-91913000D01*
X153985000Y-91913000D02*
X158453000Y-91913000D01*
X161333000Y-91953000D02*
X165817000Y-91953000D01*
X153969000Y-91953000D02*
X158453000Y-91953000D01*
X161333000Y-91993000D02*
X165832000Y-91993000D01*
X153954000Y-91993000D02*
X158453000Y-91993000D01*
X161333000Y-92033000D02*
X165846000Y-92033000D01*
X153940000Y-92033000D02*
X158453000Y-92033000D01*
X161333000Y-92073000D02*
X165860000Y-92073000D01*
X153926000Y-92073000D02*
X158453000Y-92073000D01*
X161333000Y-92113000D02*
X165874000Y-92113000D01*
X153912000Y-92113000D02*
X158453000Y-92113000D01*
X161333000Y-92153000D02*
X165888000Y-92153000D01*
X153898000Y-92153000D02*
X158453000Y-92153000D01*
X161333000Y-92193000D02*
X165901000Y-92193000D01*
X153885000Y-92193000D02*
X158453000Y-92193000D01*
X161333000Y-92233000D02*
X165914000Y-92233000D01*
X153872000Y-92233000D02*
X158453000Y-92233000D01*
X161333000Y-92273000D02*
X165927000Y-92273000D01*
X153859000Y-92273000D02*
X158453000Y-92273000D01*
X161333000Y-92313000D02*
X165940000Y-92313000D01*
X153846000Y-92313000D02*
X158453000Y-92313000D01*
X161333000Y-92353000D02*
X165952000Y-92353000D01*
X153834000Y-92353000D02*
X158453000Y-92353000D01*
X161333000Y-92393000D02*
X165964000Y-92393000D01*
X153822000Y-92393000D02*
X158453000Y-92393000D01*
X161333000Y-92433000D02*
X165976000Y-92433000D01*
X153810000Y-92433000D02*
X158453000Y-92433000D01*
X161333000Y-92473000D02*
X165987000Y-92473000D01*
X153799000Y-92473000D02*
X158453000Y-92473000D01*
X161333000Y-92513000D02*
X165998000Y-92513000D01*
X153788000Y-92513000D02*
X158453000Y-92513000D01*
X161333000Y-92553000D02*
X166009000Y-92553000D01*
X153777000Y-92553000D02*
X158453000Y-92553000D01*
X161333000Y-92593000D02*
X166019000Y-92593000D01*
X153767000Y-92593000D02*
X158453000Y-92593000D01*
X161333000Y-92633000D02*
X166030000Y-92633000D01*
X153756000Y-92633000D02*
X158453000Y-92633000D01*
X161333000Y-92673000D02*
X166039000Y-92673000D01*
X153747000Y-92673000D02*
X158453000Y-92673000D01*
X161333000Y-92713000D02*
X166049000Y-92713000D01*
X153737000Y-92713000D02*
X158453000Y-92713000D01*
X161333000Y-92753000D02*
X166059000Y-92753000D01*
X153727000Y-92753000D02*
X158453000Y-92753000D01*
X161333000Y-92793000D02*
X166068000Y-92793000D01*
X153718000Y-92793000D02*
X158453000Y-92793000D01*
X161333000Y-92833000D02*
X166077000Y-92833000D01*
X153709000Y-92833000D02*
X158453000Y-92833000D01*
X161333000Y-92873000D02*
X166085000Y-92873000D01*
X153701000Y-92873000D02*
X158453000Y-92873000D01*
X161333000Y-92913000D02*
X166094000Y-92913000D01*
X153692000Y-92913000D02*
X158453000Y-92913000D01*
X161333000Y-92953000D02*
X166102000Y-92953000D01*
X153684000Y-92953000D02*
X158453000Y-92953000D01*
X161333000Y-92993000D02*
X166109000Y-92993000D01*
X153677000Y-92993000D02*
X158453000Y-92993000D01*
X161333000Y-93033000D02*
X166117000Y-93033000D01*
X153669000Y-93033000D02*
X158453000Y-93033000D01*
X161333000Y-93073000D02*
X166124000Y-93073000D01*
X153662000Y-93073000D02*
X158453000Y-93073000D01*
X161333000Y-93113000D02*
X166131000Y-93113000D01*
X153655000Y-93113000D02*
X158453000Y-93113000D01*
X153648000Y-93153000D02*
X166138000Y-93153000D01*
X153641000Y-93193000D02*
X166145000Y-93193000D01*
X153635000Y-93233000D02*
X166151000Y-93233000D01*
X153629000Y-93273000D02*
X166157000Y-93273000D01*
X153624000Y-93313000D02*
X166162000Y-93313000D01*
X153618000Y-93353000D02*
X166168000Y-93353000D01*
X153613000Y-93393000D02*
X166173000Y-93393000D01*
X153608000Y-93433000D02*
X166178000Y-93433000D01*
X153603000Y-93473000D02*
X166183000Y-93473000D01*
X153599000Y-93514000D02*
X166187000Y-93514000D01*
X153595000Y-93554000D02*
X166191000Y-93554000D01*
X153591000Y-93594000D02*
X166195000Y-93594000D01*
X153587000Y-93634000D02*
X166199000Y-93634000D01*
X153584000Y-93674000D02*
X166202000Y-93674000D01*
X153581000Y-93714000D02*
X166205000Y-93714000D01*
X153578000Y-93754000D02*
X166208000Y-93754000D01*
X153575000Y-93794000D02*
X166211000Y-93794000D01*
X153573000Y-93834000D02*
X166213000Y-93834000D01*
X153571000Y-93874000D02*
X166215000Y-93874000D01*
X153569000Y-93914000D02*
X166217000Y-93914000D01*
X153567000Y-93954000D02*
X166219000Y-93954000D01*
X153566000Y-93994000D02*
X166220000Y-93994000D01*
X153565000Y-94034000D02*
X166221000Y-94034000D01*
X153564000Y-94074000D02*
X166222000Y-94074000D01*
X153563000Y-94114000D02*
X166223000Y-94114000D01*
X153563000Y-94154000D02*
X166223000Y-94154000D01*
X153563000Y-94194000D02*
X166223000Y-94194000D01*
X166263000Y-94194000D02*
G75*
G03X166263000Y-94194000I-6370000J0D01*
G01*
G04 #@! TO.C,C9*
X166263000Y-80939000D02*
G75*
G03X166263000Y-80939000I-6370000J0D01*
G01*
X153563000Y-80939000D02*
X166223000Y-80939000D01*
X153563000Y-80899000D02*
X166223000Y-80899000D01*
X153563000Y-80859000D02*
X166223000Y-80859000D01*
X153564000Y-80819000D02*
X166222000Y-80819000D01*
X153565000Y-80779000D02*
X166221000Y-80779000D01*
X153566000Y-80739000D02*
X166220000Y-80739000D01*
X153567000Y-80699000D02*
X166219000Y-80699000D01*
X153569000Y-80659000D02*
X166217000Y-80659000D01*
X153571000Y-80619000D02*
X166215000Y-80619000D01*
X153573000Y-80579000D02*
X166213000Y-80579000D01*
X153575000Y-80539000D02*
X166211000Y-80539000D01*
X153578000Y-80499000D02*
X166208000Y-80499000D01*
X153581000Y-80459000D02*
X166205000Y-80459000D01*
X153584000Y-80419000D02*
X166202000Y-80419000D01*
X153587000Y-80379000D02*
X166199000Y-80379000D01*
X153591000Y-80339000D02*
X166195000Y-80339000D01*
X153595000Y-80299000D02*
X166191000Y-80299000D01*
X153599000Y-80259000D02*
X166187000Y-80259000D01*
X153603000Y-80218000D02*
X166183000Y-80218000D01*
X153608000Y-80178000D02*
X166178000Y-80178000D01*
X153613000Y-80138000D02*
X166173000Y-80138000D01*
X153618000Y-80098000D02*
X166168000Y-80098000D01*
X153624000Y-80058000D02*
X166162000Y-80058000D01*
X153629000Y-80018000D02*
X166157000Y-80018000D01*
X153635000Y-79978000D02*
X166151000Y-79978000D01*
X153641000Y-79938000D02*
X166145000Y-79938000D01*
X153648000Y-79898000D02*
X166138000Y-79898000D01*
X153655000Y-79858000D02*
X158453000Y-79858000D01*
X161333000Y-79858000D02*
X166131000Y-79858000D01*
X153662000Y-79818000D02*
X158453000Y-79818000D01*
X161333000Y-79818000D02*
X166124000Y-79818000D01*
X153669000Y-79778000D02*
X158453000Y-79778000D01*
X161333000Y-79778000D02*
X166117000Y-79778000D01*
X153677000Y-79738000D02*
X158453000Y-79738000D01*
X161333000Y-79738000D02*
X166109000Y-79738000D01*
X153684000Y-79698000D02*
X158453000Y-79698000D01*
X161333000Y-79698000D02*
X166102000Y-79698000D01*
X153692000Y-79658000D02*
X158453000Y-79658000D01*
X161333000Y-79658000D02*
X166094000Y-79658000D01*
X153701000Y-79618000D02*
X158453000Y-79618000D01*
X161333000Y-79618000D02*
X166085000Y-79618000D01*
X153709000Y-79578000D02*
X158453000Y-79578000D01*
X161333000Y-79578000D02*
X166077000Y-79578000D01*
X153718000Y-79538000D02*
X158453000Y-79538000D01*
X161333000Y-79538000D02*
X166068000Y-79538000D01*
X153727000Y-79498000D02*
X158453000Y-79498000D01*
X161333000Y-79498000D02*
X166059000Y-79498000D01*
X153737000Y-79458000D02*
X158453000Y-79458000D01*
X161333000Y-79458000D02*
X166049000Y-79458000D01*
X153747000Y-79418000D02*
X158453000Y-79418000D01*
X161333000Y-79418000D02*
X166039000Y-79418000D01*
X153756000Y-79378000D02*
X158453000Y-79378000D01*
X161333000Y-79378000D02*
X166030000Y-79378000D01*
X153767000Y-79338000D02*
X158453000Y-79338000D01*
X161333000Y-79338000D02*
X166019000Y-79338000D01*
X153777000Y-79298000D02*
X158453000Y-79298000D01*
X161333000Y-79298000D02*
X166009000Y-79298000D01*
X153788000Y-79258000D02*
X158453000Y-79258000D01*
X161333000Y-79258000D02*
X165998000Y-79258000D01*
X153799000Y-79218000D02*
X158453000Y-79218000D01*
X161333000Y-79218000D02*
X165987000Y-79218000D01*
X153810000Y-79178000D02*
X158453000Y-79178000D01*
X161333000Y-79178000D02*
X165976000Y-79178000D01*
X153822000Y-79138000D02*
X158453000Y-79138000D01*
X161333000Y-79138000D02*
X165964000Y-79138000D01*
X153834000Y-79098000D02*
X158453000Y-79098000D01*
X161333000Y-79098000D02*
X165952000Y-79098000D01*
X153846000Y-79058000D02*
X158453000Y-79058000D01*
X161333000Y-79058000D02*
X165940000Y-79058000D01*
X153859000Y-79018000D02*
X158453000Y-79018000D01*
X161333000Y-79018000D02*
X165927000Y-79018000D01*
X153872000Y-78978000D02*
X158453000Y-78978000D01*
X161333000Y-78978000D02*
X165914000Y-78978000D01*
X153885000Y-78938000D02*
X158453000Y-78938000D01*
X161333000Y-78938000D02*
X165901000Y-78938000D01*
X153898000Y-78898000D02*
X158453000Y-78898000D01*
X161333000Y-78898000D02*
X165888000Y-78898000D01*
X153912000Y-78858000D02*
X158453000Y-78858000D01*
X161333000Y-78858000D02*
X165874000Y-78858000D01*
X153926000Y-78818000D02*
X158453000Y-78818000D01*
X161333000Y-78818000D02*
X165860000Y-78818000D01*
X153940000Y-78778000D02*
X158453000Y-78778000D01*
X161333000Y-78778000D02*
X165846000Y-78778000D01*
X153954000Y-78738000D02*
X158453000Y-78738000D01*
X161333000Y-78738000D02*
X165832000Y-78738000D01*
X153969000Y-78698000D02*
X158453000Y-78698000D01*
X161333000Y-78698000D02*
X165817000Y-78698000D01*
X153985000Y-78658000D02*
X158453000Y-78658000D01*
X161333000Y-78658000D02*
X165801000Y-78658000D01*
X154000000Y-78618000D02*
X158453000Y-78618000D01*
X161333000Y-78618000D02*
X165786000Y-78618000D01*
X154016000Y-78578000D02*
X158453000Y-78578000D01*
X161333000Y-78578000D02*
X165770000Y-78578000D01*
X154032000Y-78538000D02*
X158453000Y-78538000D01*
X161333000Y-78538000D02*
X165754000Y-78538000D01*
X154048000Y-78498000D02*
X158453000Y-78498000D01*
X161333000Y-78498000D02*
X165738000Y-78498000D01*
X154065000Y-78458000D02*
X158453000Y-78458000D01*
X161333000Y-78458000D02*
X165721000Y-78458000D01*
X154082000Y-78418000D02*
X158453000Y-78418000D01*
X161333000Y-78418000D02*
X165704000Y-78418000D01*
X154100000Y-78378000D02*
X158453000Y-78378000D01*
X161333000Y-78378000D02*
X165686000Y-78378000D01*
X154117000Y-78338000D02*
X158453000Y-78338000D01*
X161333000Y-78338000D02*
X165669000Y-78338000D01*
X154135000Y-78298000D02*
X158453000Y-78298000D01*
X161333000Y-78298000D02*
X165651000Y-78298000D01*
X154154000Y-78258000D02*
X158453000Y-78258000D01*
X161333000Y-78258000D02*
X165632000Y-78258000D01*
X154172000Y-78218000D02*
X158453000Y-78218000D01*
X161333000Y-78218000D02*
X165614000Y-78218000D01*
X154191000Y-78178000D02*
X158453000Y-78178000D01*
X161333000Y-78178000D02*
X165595000Y-78178000D01*
X154211000Y-78138000D02*
X158453000Y-78138000D01*
X161333000Y-78138000D02*
X165575000Y-78138000D01*
X154231000Y-78098000D02*
X158453000Y-78098000D01*
X161333000Y-78098000D02*
X165555000Y-78098000D01*
X154251000Y-78058000D02*
X158453000Y-78058000D01*
X161333000Y-78058000D02*
X165535000Y-78058000D01*
X154271000Y-78018000D02*
X158453000Y-78018000D01*
X161333000Y-78018000D02*
X165515000Y-78018000D01*
X154292000Y-77978000D02*
X158453000Y-77978000D01*
X161333000Y-77978000D02*
X165494000Y-77978000D01*
X154313000Y-77938000D02*
X158453000Y-77938000D01*
X161333000Y-77938000D02*
X165473000Y-77938000D01*
X154335000Y-77898000D02*
X158453000Y-77898000D01*
X161333000Y-77898000D02*
X165451000Y-77898000D01*
X154357000Y-77858000D02*
X158453000Y-77858000D01*
X161333000Y-77858000D02*
X165429000Y-77858000D01*
X154379000Y-77818000D02*
X158453000Y-77818000D01*
X161333000Y-77818000D02*
X165407000Y-77818000D01*
X154402000Y-77778000D02*
X158453000Y-77778000D01*
X161333000Y-77778000D02*
X165384000Y-77778000D01*
X154425000Y-77738000D02*
X158453000Y-77738000D01*
X161333000Y-77738000D02*
X165361000Y-77738000D01*
X154448000Y-77698000D02*
X158453000Y-77698000D01*
X161333000Y-77698000D02*
X165338000Y-77698000D01*
X154472000Y-77658000D02*
X158453000Y-77658000D01*
X161333000Y-77658000D02*
X165314000Y-77658000D01*
X154496000Y-77618000D02*
X158453000Y-77618000D01*
X161333000Y-77618000D02*
X165290000Y-77618000D01*
X154521000Y-77578000D02*
X158453000Y-77578000D01*
X161333000Y-77578000D02*
X165265000Y-77578000D01*
X154546000Y-77538000D02*
X158453000Y-77538000D01*
X161333000Y-77538000D02*
X165240000Y-77538000D01*
X154571000Y-77498000D02*
X158453000Y-77498000D01*
X161333000Y-77498000D02*
X165215000Y-77498000D01*
X154597000Y-77458000D02*
X158453000Y-77458000D01*
X161333000Y-77458000D02*
X165189000Y-77458000D01*
X154623000Y-77418000D02*
X158453000Y-77418000D01*
X161333000Y-77418000D02*
X165163000Y-77418000D01*
X154650000Y-77378000D02*
X158453000Y-77378000D01*
X161333000Y-77378000D02*
X165136000Y-77378000D01*
X154677000Y-77338000D02*
X158453000Y-77338000D01*
X161333000Y-77338000D02*
X165109000Y-77338000D01*
X154705000Y-77298000D02*
X158453000Y-77298000D01*
X161333000Y-77298000D02*
X165081000Y-77298000D01*
X154733000Y-77258000D02*
X158453000Y-77258000D01*
X161333000Y-77258000D02*
X165053000Y-77258000D01*
X154762000Y-77218000D02*
X158453000Y-77218000D01*
X161333000Y-77218000D02*
X165024000Y-77218000D01*
X154791000Y-77178000D02*
X158453000Y-77178000D01*
X161333000Y-77178000D02*
X164995000Y-77178000D01*
X154820000Y-77138000D02*
X158453000Y-77138000D01*
X161333000Y-77138000D02*
X164966000Y-77138000D01*
X154850000Y-77098000D02*
X158453000Y-77098000D01*
X161333000Y-77098000D02*
X164936000Y-77098000D01*
X154881000Y-77058000D02*
X158453000Y-77058000D01*
X161333000Y-77058000D02*
X164905000Y-77058000D01*
X154911000Y-77018000D02*
X158453000Y-77018000D01*
X161333000Y-77018000D02*
X164875000Y-77018000D01*
X154943000Y-76978000D02*
X164843000Y-76978000D01*
X154975000Y-76938000D02*
X164811000Y-76938000D01*
X155008000Y-76898000D02*
X164778000Y-76898000D01*
X155041000Y-76858000D02*
X164745000Y-76858000D01*
X155074000Y-76818000D02*
X164712000Y-76818000D01*
X155108000Y-76778000D02*
X164678000Y-76778000D01*
X155143000Y-76738000D02*
X164643000Y-76738000D01*
X155179000Y-76698000D02*
X164607000Y-76698000D01*
X155215000Y-76658000D02*
X164571000Y-76658000D01*
X155251000Y-76618000D02*
X164535000Y-76618000D01*
X155288000Y-76578000D02*
X164498000Y-76578000D01*
X155326000Y-76538000D02*
X164460000Y-76538000D01*
X155365000Y-76498000D02*
X164421000Y-76498000D01*
X155404000Y-76458000D02*
X164382000Y-76458000D01*
X155444000Y-76418000D02*
X164342000Y-76418000D01*
X155485000Y-76378000D02*
X164301000Y-76378000D01*
X155526000Y-76338000D02*
X164260000Y-76338000D01*
X155568000Y-76298000D02*
X164218000Y-76298000D01*
X155611000Y-76258000D02*
X164175000Y-76258000D01*
X155655000Y-76218000D02*
X164131000Y-76218000D01*
X155699000Y-76178000D02*
X164087000Y-76178000D01*
X155745000Y-76138000D02*
X164041000Y-76138000D01*
X155791000Y-76098000D02*
X163995000Y-76098000D01*
X155838000Y-76058000D02*
X163948000Y-76058000D01*
X155886000Y-76018000D02*
X163900000Y-76018000D01*
X155936000Y-75978000D02*
X163850000Y-75978000D01*
X155986000Y-75938000D02*
X163800000Y-75938000D01*
X156037000Y-75898000D02*
X163749000Y-75898000D01*
X156089000Y-75858000D02*
X163697000Y-75858000D01*
X156143000Y-75818000D02*
X163643000Y-75818000D01*
X156197000Y-75778000D02*
X163589000Y-75778000D01*
X156253000Y-75738000D02*
X163533000Y-75738000D01*
X156310000Y-75698000D02*
X163476000Y-75698000D01*
X156369000Y-75658000D02*
X163417000Y-75658000D01*
X156429000Y-75618000D02*
X163357000Y-75618000D01*
X156491000Y-75578000D02*
X163295000Y-75578000D01*
X156554000Y-75538000D02*
X163232000Y-75538000D01*
X156618000Y-75498000D02*
X163168000Y-75498000D01*
X156685000Y-75458000D02*
X163101000Y-75458000D01*
X156753000Y-75418000D02*
X163033000Y-75418000D01*
X156824000Y-75378000D02*
X162962000Y-75378000D01*
X156897000Y-75338000D02*
X162889000Y-75338000D01*
X156972000Y-75298000D02*
X162814000Y-75298000D01*
X157049000Y-75258000D02*
X162737000Y-75258000D01*
X157129000Y-75218000D02*
X162657000Y-75218000D01*
X157212000Y-75178000D02*
X162574000Y-75178000D01*
X157299000Y-75138000D02*
X162487000Y-75138000D01*
X157389000Y-75098000D02*
X162397000Y-75098000D01*
X157483000Y-75058000D02*
X162303000Y-75058000D01*
X157581000Y-75018000D02*
X162205000Y-75018000D01*
X157684000Y-74978000D02*
X162102000Y-74978000D01*
X157793000Y-74938000D02*
X161993000Y-74938000D01*
X157909000Y-74898000D02*
X161877000Y-74898000D01*
X158032000Y-74858000D02*
X161754000Y-74858000D01*
X158165000Y-74818000D02*
X161621000Y-74818000D01*
X158310000Y-74778000D02*
X161476000Y-74778000D01*
X158471000Y-74738000D02*
X161315000Y-74738000D01*
X158652000Y-74698000D02*
X161134000Y-74698000D01*
X158865000Y-74658000D02*
X160921000Y-74658000D01*
X159136000Y-74618000D02*
X160650000Y-74618000D01*
X159576000Y-74578000D02*
X160210000Y-74578000D01*
X156318000Y-87756082D02*
X156318000Y-86506082D01*
X155693000Y-87131082D02*
X156943000Y-87131082D01*
G04 #@! TO.C,C6*
X170492267Y-81155000D02*
X170149733Y-81155000D01*
X170492267Y-80135000D02*
X170149733Y-80135000D01*
G04 #@! TO.C,C7*
X170492267Y-93597000D02*
X170149733Y-93597000D01*
X170492267Y-94617000D02*
X170149733Y-94617000D01*
G04 #@! TO.C,C8*
X170492267Y-107952000D02*
X170149733Y-107952000D01*
X170492267Y-106932000D02*
X170149733Y-106932000D01*
G04 #@! TO.C,R10*
X170492267Y-82679000D02*
X170149733Y-82679000D01*
X170492267Y-81659000D02*
X170149733Y-81659000D01*
G04 #@! TO.C,R11*
X170492267Y-95121000D02*
X170149733Y-95121000D01*
X170492267Y-96141000D02*
X170149733Y-96141000D01*
G04 #@! TO.C,R12*
X170492267Y-109476000D02*
X170149733Y-109476000D01*
X170492267Y-108456000D02*
X170149733Y-108456000D01*
G04 #@! TO.C,J4*
X104630000Y-83329000D02*
X98610000Y-83329000D01*
X98610000Y-83329000D02*
X98610000Y-93709000D01*
X98610000Y-93709000D02*
X104630000Y-93709000D01*
X104630000Y-93709000D02*
X104630000Y-83329000D01*
X103600000Y-83039000D02*
X99600000Y-83039000D01*
X98610000Y-84709000D02*
X99610000Y-84709000D01*
X99610000Y-84709000D02*
X99610000Y-92329000D01*
X99610000Y-92329000D02*
X98610000Y-92329000D01*
X99610000Y-84709000D02*
X100140000Y-84959000D01*
X100140000Y-84959000D02*
X100140000Y-92079000D01*
X100140000Y-92079000D02*
X99610000Y-92329000D01*
X98610000Y-84959000D02*
X99610000Y-84959000D01*
X98610000Y-92079000D02*
X99610000Y-92079000D01*
X104630000Y-83909000D02*
X104030000Y-83909000D01*
X104030000Y-83909000D02*
X104030000Y-85509000D01*
X104030000Y-85509000D02*
X104630000Y-85509000D01*
X104630000Y-86449000D02*
X104030000Y-86449000D01*
X104030000Y-86449000D02*
X104030000Y-88049000D01*
X104030000Y-88049000D02*
X104630000Y-88049000D01*
X104630000Y-88989000D02*
X104030000Y-88989000D01*
X104030000Y-88989000D02*
X104030000Y-90589000D01*
X104030000Y-90589000D02*
X104630000Y-90589000D01*
X104630000Y-91529000D02*
X104030000Y-91529000D01*
X104030000Y-91529000D02*
X104030000Y-93129000D01*
X104030000Y-93129000D02*
X104630000Y-93129000D01*
G04 #@! TO.C,J10*
X104503000Y-95902000D02*
X98483000Y-95902000D01*
X98483000Y-95902000D02*
X98483000Y-103742000D01*
X98483000Y-103742000D02*
X104503000Y-103742000D01*
X104503000Y-103742000D02*
X104503000Y-95902000D01*
X103473000Y-95612000D02*
X99473000Y-95612000D01*
X98483000Y-97282000D02*
X99483000Y-97282000D01*
X99483000Y-97282000D02*
X99483000Y-102362000D01*
X99483000Y-102362000D02*
X98483000Y-102362000D01*
X99483000Y-97282000D02*
X100013000Y-97532000D01*
X100013000Y-97532000D02*
X100013000Y-102112000D01*
X100013000Y-102112000D02*
X99483000Y-102362000D01*
X98483000Y-97532000D02*
X99483000Y-97532000D01*
X98483000Y-102112000D02*
X99483000Y-102112000D01*
X104503000Y-96482000D02*
X103903000Y-96482000D01*
X103903000Y-96482000D02*
X103903000Y-98082000D01*
X103903000Y-98082000D02*
X104503000Y-98082000D01*
X104503000Y-99022000D02*
X103903000Y-99022000D01*
X103903000Y-99022000D02*
X103903000Y-100622000D01*
X103903000Y-100622000D02*
X104503000Y-100622000D01*
X104503000Y-101562000D02*
X103903000Y-101562000D01*
X103903000Y-101562000D02*
X103903000Y-103162000D01*
X103903000Y-103162000D02*
X104503000Y-103162000D01*
G04 #@! TO.C,R14*
X122176000Y-108234267D02*
X122176000Y-107891733D01*
X121156000Y-108234267D02*
X121156000Y-107891733D01*
G04 #@! TO.C,R15*
X151490467Y-109857000D02*
X151147933Y-109857000D01*
X151490467Y-108837000D02*
X151147933Y-108837000D01*
G04 #@! TO.C,R16*
X152228733Y-103837200D02*
X152571267Y-103837200D01*
X152228733Y-102817200D02*
X152571267Y-102817200D01*
G04 #@! TO.C,R17*
X127044267Y-85854000D02*
X126701733Y-85854000D01*
X127044267Y-84834000D02*
X126701733Y-84834000D01*
G04 #@! TO.C,D3*
X123863370Y-106298663D02*
G75*
G02X125945461Y-106298500I1041130J-1079837D01*
G01*
X123863370Y-108458337D02*
G75*
G03X125945461Y-108458500I1041130J1079837D01*
G01*
X123232165Y-106299892D02*
G75*
G02X126464500Y-106142984I1672335J-1078608D01*
G01*
X123232165Y-108457108D02*
G75*
G03X126464500Y-108614016I1672335J1078608D01*
G01*
X126464500Y-106298500D02*
X126464500Y-106142500D01*
X126464500Y-108614500D02*
X126464500Y-108458500D01*
G04 #@! TO.C,D4*
X128052000Y-83405000D02*
X128052000Y-83249000D01*
X128052000Y-81089000D02*
X128052000Y-80933000D01*
X124819665Y-83247608D02*
G75*
G03X128052000Y-83404516I1672335J1078608D01*
G01*
X124819665Y-81090392D02*
G75*
G02X128052000Y-80933484I1672335J-1078608D01*
G01*
X125450870Y-83248837D02*
G75*
G03X127532961Y-83249000I1041130J1079837D01*
G01*
X125450870Y-81089163D02*
G75*
G02X127532961Y-81089000I1041130J-1079837D01*
G01*
G04 #@! TO.C,C10*
X128653000Y-108350233D02*
X128653000Y-108692767D01*
X127633000Y-108350233D02*
X127633000Y-108692767D01*
G04 #@! TO.C,J11*
X129988000Y-83499000D02*
X132648000Y-83499000D01*
X129988000Y-78359000D02*
X129988000Y-83499000D01*
X132648000Y-78359000D02*
X132648000Y-83499000D01*
X129988000Y-78359000D02*
X132648000Y-78359000D01*
X129988000Y-77089000D02*
X129988000Y-75759000D01*
X129988000Y-75759000D02*
X131318000Y-75759000D01*
G04 #@! TO.C,C19*
X122684000Y-102141233D02*
X122684000Y-102483767D01*
X121664000Y-102141233D02*
X121664000Y-102483767D01*
G04 #@! TO.C,R18*
X116249267Y-98236500D02*
X115906733Y-98236500D01*
X116249267Y-97216500D02*
X115906733Y-97216500D01*
G04 #@! TO.C,C23*
X133606000Y-110456767D02*
X133606000Y-110114233D01*
X132586000Y-110456767D02*
X132586000Y-110114233D01*
G04 #@! TO.C,R19*
X131732233Y-88517000D02*
X132074767Y-88517000D01*
X131732233Y-89537000D02*
X132074767Y-89537000D01*
G04 #@! TO.C,R20*
X131767733Y-87695500D02*
X132110267Y-87695500D01*
X131767733Y-86675500D02*
X132110267Y-86675500D01*
G04 #@! TO.C,R21*
X137666000Y-106649733D02*
X137666000Y-106992267D01*
X138686000Y-106649733D02*
X138686000Y-106992267D01*
G04 #@! TO.C,R22*
X140206000Y-106649733D02*
X140206000Y-106992267D01*
X141226000Y-106649733D02*
X141226000Y-106992267D01*
G04 #@! TO.C,R23*
X143766000Y-106649733D02*
X143766000Y-106992267D01*
X142746000Y-106649733D02*
X142746000Y-106992267D01*
G04 #@! TO.C,J7*
D12*
X148764666Y-112101380D02*
X148764666Y-112815666D01*
X148717047Y-112958523D01*
X148621809Y-113053761D01*
X148478952Y-113101380D01*
X148383714Y-113101380D01*
X149145619Y-112101380D02*
X149812285Y-112101380D01*
X149383714Y-113101380D01*
G04 #@! TO.C,U4*
X110236095Y-83653380D02*
X110236095Y-84462904D01*
X110283714Y-84558142D01*
X110331333Y-84605761D01*
X110426571Y-84653380D01*
X110617047Y-84653380D01*
X110712285Y-84605761D01*
X110759904Y-84558142D01*
X110807523Y-84462904D01*
X110807523Y-83653380D01*
X111712285Y-83986714D02*
X111712285Y-84653380D01*
X111474190Y-83605761D02*
X111236095Y-84320047D01*
X111855142Y-84320047D01*
G04 #@! TO.C,F1*
X143169666Y-81332571D02*
X142836333Y-81332571D01*
X142836333Y-81856380D02*
X142836333Y-80856380D01*
X143312523Y-80856380D01*
X144217285Y-81856380D02*
X143645857Y-81856380D01*
X143931571Y-81856380D02*
X143931571Y-80856380D01*
X143836333Y-80999238D01*
X143741095Y-81094476D01*
X143645857Y-81142095D01*
G04 #@! TO.C,J1*
X197790380Y-104092333D02*
X198504666Y-104092333D01*
X198647523Y-104139952D01*
X198742761Y-104235190D01*
X198790380Y-104378047D01*
X198790380Y-104473285D01*
X198790380Y-103092333D02*
X198790380Y-103663761D01*
X198790380Y-103378047D02*
X197790380Y-103378047D01*
X197933238Y-103473285D01*
X198028476Y-103568523D01*
X198076095Y-103663761D01*
G04 #@! TO.C,J2*
X197790380Y-94567333D02*
X198504666Y-94567333D01*
X198647523Y-94614952D01*
X198742761Y-94710190D01*
X198790380Y-94853047D01*
X198790380Y-94948285D01*
X197885619Y-94138761D02*
X197838000Y-94091142D01*
X197790380Y-93995904D01*
X197790380Y-93757809D01*
X197838000Y-93662571D01*
X197885619Y-93614952D01*
X197980857Y-93567333D01*
X198076095Y-93567333D01*
X198218952Y-93614952D01*
X198790380Y-94186380D01*
X198790380Y-93567333D01*
G04 #@! TO.C,J3*
X197790380Y-85042333D02*
X198504666Y-85042333D01*
X198647523Y-85089952D01*
X198742761Y-85185190D01*
X198790380Y-85328047D01*
X198790380Y-85423285D01*
X197790380Y-84661380D02*
X197790380Y-84042333D01*
X198171333Y-84375666D01*
X198171333Y-84232809D01*
X198218952Y-84137571D01*
X198266571Y-84089952D01*
X198361809Y-84042333D01*
X198599904Y-84042333D01*
X198695142Y-84089952D01*
X198742761Y-84137571D01*
X198790380Y-84232809D01*
X198790380Y-84518523D01*
X198742761Y-84613761D01*
X198695142Y-84661380D01*
G04 #@! TO.C,Q2*
X191535761Y-108116619D02*
X191440523Y-108069000D01*
X191345285Y-107973761D01*
X191202428Y-107830904D01*
X191107190Y-107783285D01*
X191011952Y-107783285D01*
X191059571Y-108021380D02*
X190964333Y-107973761D01*
X190869095Y-107878523D01*
X190821476Y-107688047D01*
X190821476Y-107354714D01*
X190869095Y-107164238D01*
X190964333Y-107069000D01*
X191059571Y-107021380D01*
X191250047Y-107021380D01*
X191345285Y-107069000D01*
X191440523Y-107164238D01*
X191488142Y-107354714D01*
X191488142Y-107688047D01*
X191440523Y-107878523D01*
X191345285Y-107973761D01*
X191250047Y-108021380D01*
X191059571Y-108021380D01*
X191869095Y-107116619D02*
X191916714Y-107069000D01*
X192011952Y-107021380D01*
X192250047Y-107021380D01*
X192345285Y-107069000D01*
X192392904Y-107116619D01*
X192440523Y-107211857D01*
X192440523Y-107307095D01*
X192392904Y-107449952D01*
X191821476Y-108021380D01*
X192440523Y-108021380D01*
G04 #@! TO.C,Q3*
X191547761Y-94781619D02*
X191452523Y-94734000D01*
X191357285Y-94638761D01*
X191214428Y-94495904D01*
X191119190Y-94448285D01*
X191023952Y-94448285D01*
X191071571Y-94686380D02*
X190976333Y-94638761D01*
X190881095Y-94543523D01*
X190833476Y-94353047D01*
X190833476Y-94019714D01*
X190881095Y-93829238D01*
X190976333Y-93734000D01*
X191071571Y-93686380D01*
X191262047Y-93686380D01*
X191357285Y-93734000D01*
X191452523Y-93829238D01*
X191500142Y-94019714D01*
X191500142Y-94353047D01*
X191452523Y-94543523D01*
X191357285Y-94638761D01*
X191262047Y-94686380D01*
X191071571Y-94686380D01*
X191833476Y-93686380D02*
X192452523Y-93686380D01*
X192119190Y-94067333D01*
X192262047Y-94067333D01*
X192357285Y-94114952D01*
X192404904Y-94162571D01*
X192452523Y-94257809D01*
X192452523Y-94495904D01*
X192404904Y-94591142D01*
X192357285Y-94638761D01*
X192262047Y-94686380D01*
X191976333Y-94686380D01*
X191881095Y-94638761D01*
X191833476Y-94591142D01*
G04 #@! TO.C,Q4*
X191420761Y-81319619D02*
X191325523Y-81272000D01*
X191230285Y-81176761D01*
X191087428Y-81033904D01*
X190992190Y-80986285D01*
X190896952Y-80986285D01*
X190944571Y-81224380D02*
X190849333Y-81176761D01*
X190754095Y-81081523D01*
X190706476Y-80891047D01*
X190706476Y-80557714D01*
X190754095Y-80367238D01*
X190849333Y-80272000D01*
X190944571Y-80224380D01*
X191135047Y-80224380D01*
X191230285Y-80272000D01*
X191325523Y-80367238D01*
X191373142Y-80557714D01*
X191373142Y-80891047D01*
X191325523Y-81081523D01*
X191230285Y-81176761D01*
X191135047Y-81224380D01*
X190944571Y-81224380D01*
X192230285Y-80557714D02*
X192230285Y-81224380D01*
X191992190Y-80176761D02*
X191754095Y-80891047D01*
X192373142Y-80891047D01*
G04 #@! TO.C,U1*
X112268095Y-112101380D02*
X112268095Y-112910904D01*
X112315714Y-113006142D01*
X112363333Y-113053761D01*
X112458571Y-113101380D01*
X112649047Y-113101380D01*
X112744285Y-113053761D01*
X112791904Y-113006142D01*
X112839523Y-112910904D01*
X112839523Y-112101380D01*
X113839523Y-113101380D02*
X113268095Y-113101380D01*
X113553809Y-113101380D02*
X113553809Y-112101380D01*
X113458571Y-112244238D01*
X113363333Y-112339476D01*
X113268095Y-112387095D01*
G04 #@! TO.C,U2*
X117602095Y-112101380D02*
X117602095Y-112910904D01*
X117649714Y-113006142D01*
X117697333Y-113053761D01*
X117792571Y-113101380D01*
X117983047Y-113101380D01*
X118078285Y-113053761D01*
X118125904Y-113006142D01*
X118173523Y-112910904D01*
X118173523Y-112101380D01*
X118602095Y-112196619D02*
X118649714Y-112149000D01*
X118744952Y-112101380D01*
X118983047Y-112101380D01*
X119078285Y-112149000D01*
X119125904Y-112196619D01*
X119173523Y-112291857D01*
X119173523Y-112387095D01*
X119125904Y-112529952D01*
X118554476Y-113101380D01*
X119173523Y-113101380D01*
G04 #@! TO.C,U3*
X128651095Y-90861380D02*
X128651095Y-91670904D01*
X128698714Y-91766142D01*
X128746333Y-91813761D01*
X128841571Y-91861380D01*
X129032047Y-91861380D01*
X129127285Y-91813761D01*
X129174904Y-91766142D01*
X129222523Y-91670904D01*
X129222523Y-90861380D01*
X129603476Y-90861380D02*
X130222523Y-90861380D01*
X129889190Y-91242333D01*
X130032047Y-91242333D01*
X130127285Y-91289952D01*
X130174904Y-91337571D01*
X130222523Y-91432809D01*
X130222523Y-91670904D01*
X130174904Y-91766142D01*
X130127285Y-91813761D01*
X130032047Y-91861380D01*
X129746333Y-91861380D01*
X129651095Y-91813761D01*
X129603476Y-91766142D01*
G04 #@! TO.C,Y1*
X123221809Y-91670190D02*
X123221809Y-92146380D01*
X122888476Y-91146380D02*
X123221809Y-91670190D01*
X123555142Y-91146380D01*
X124412285Y-92146380D02*
X123840857Y-92146380D01*
X124126571Y-92146380D02*
X124126571Y-91146380D01*
X124031333Y-91289238D01*
X123936095Y-91384476D01*
X123840857Y-91432095D01*
G04 #@! TO.C,C5*
X130405142Y-105830666D02*
X130452761Y-105878285D01*
X130500380Y-106021142D01*
X130500380Y-106116380D01*
X130452761Y-106259238D01*
X130357523Y-106354476D01*
X130262285Y-106402095D01*
X130071809Y-106449714D01*
X129928952Y-106449714D01*
X129738476Y-106402095D01*
X129643238Y-106354476D01*
X129548000Y-106259238D01*
X129500380Y-106116380D01*
X129500380Y-106021142D01*
X129548000Y-105878285D01*
X129595619Y-105830666D01*
X129500380Y-104925904D02*
X129500380Y-105402095D01*
X129976571Y-105449714D01*
X129928952Y-105402095D01*
X129881333Y-105306857D01*
X129881333Y-105068761D01*
X129928952Y-104973523D01*
X129976571Y-104925904D01*
X130071809Y-104878285D01*
X130309904Y-104878285D01*
X130405142Y-104925904D01*
X130452761Y-104973523D01*
X130500380Y-105068761D01*
X130500380Y-105306857D01*
X130452761Y-105402095D01*
X130405142Y-105449714D01*
G04 #@! TO.C,C11*
X119626142Y-88241142D02*
X119578523Y-88288761D01*
X119435666Y-88336380D01*
X119340428Y-88336380D01*
X119197571Y-88288761D01*
X119102333Y-88193523D01*
X119054714Y-88098285D01*
X119007095Y-87907809D01*
X119007095Y-87764952D01*
X119054714Y-87574476D01*
X119102333Y-87479238D01*
X119197571Y-87384000D01*
X119340428Y-87336380D01*
X119435666Y-87336380D01*
X119578523Y-87384000D01*
X119626142Y-87431619D01*
X120578523Y-88336380D02*
X120007095Y-88336380D01*
X120292809Y-88336380D02*
X120292809Y-87336380D01*
X120197571Y-87479238D01*
X120102333Y-87574476D01*
X120007095Y-87622095D01*
X121530904Y-88336380D02*
X120959476Y-88336380D01*
X121245190Y-88336380D02*
X121245190Y-87336380D01*
X121149952Y-87479238D01*
X121054714Y-87574476D01*
X120959476Y-87622095D01*
G04 #@! TO.C,R1*
X119594333Y-90368380D02*
X119261000Y-89892190D01*
X119022904Y-90368380D02*
X119022904Y-89368380D01*
X119403857Y-89368380D01*
X119499095Y-89416000D01*
X119546714Y-89463619D01*
X119594333Y-89558857D01*
X119594333Y-89701714D01*
X119546714Y-89796952D01*
X119499095Y-89844571D01*
X119403857Y-89892190D01*
X119022904Y-89892190D01*
X120546714Y-90368380D02*
X119975285Y-90368380D01*
X120261000Y-90368380D02*
X120261000Y-89368380D01*
X120165761Y-89511238D01*
X120070523Y-89606476D01*
X119975285Y-89654095D01*
G04 #@! TO.C,R2*
X119721333Y-86431380D02*
X119388000Y-85955190D01*
X119149904Y-86431380D02*
X119149904Y-85431380D01*
X119530857Y-85431380D01*
X119626095Y-85479000D01*
X119673714Y-85526619D01*
X119721333Y-85621857D01*
X119721333Y-85764714D01*
X119673714Y-85859952D01*
X119626095Y-85907571D01*
X119530857Y-85955190D01*
X119149904Y-85955190D01*
X120102285Y-85526619D02*
X120149904Y-85479000D01*
X120245142Y-85431380D01*
X120483238Y-85431380D01*
X120578476Y-85479000D01*
X120626095Y-85526619D01*
X120673714Y-85621857D01*
X120673714Y-85717095D01*
X120626095Y-85859952D01*
X120054666Y-86431380D01*
X120673714Y-86431380D01*
G04 #@! TO.C,R3*
X132087880Y-105830666D02*
X131611690Y-106164000D01*
X132087880Y-106402095D02*
X131087880Y-106402095D01*
X131087880Y-106021142D01*
X131135500Y-105925904D01*
X131183119Y-105878285D01*
X131278357Y-105830666D01*
X131421214Y-105830666D01*
X131516452Y-105878285D01*
X131564071Y-105925904D01*
X131611690Y-106021142D01*
X131611690Y-106402095D01*
X131087880Y-105497333D02*
X131087880Y-104878285D01*
X131468833Y-105211619D01*
X131468833Y-105068761D01*
X131516452Y-104973523D01*
X131564071Y-104925904D01*
X131659309Y-104878285D01*
X131897404Y-104878285D01*
X131992642Y-104925904D01*
X132040261Y-104973523D01*
X132087880Y-105068761D01*
X132087880Y-105354476D01*
X132040261Y-105449714D01*
X131992642Y-105497333D01*
G04 #@! TO.C,R4*
X142120880Y-102592166D02*
X141644690Y-102925500D01*
X142120880Y-103163595D02*
X141120880Y-103163595D01*
X141120880Y-102782642D01*
X141168500Y-102687404D01*
X141216119Y-102639785D01*
X141311357Y-102592166D01*
X141454214Y-102592166D01*
X141549452Y-102639785D01*
X141597071Y-102687404D01*
X141644690Y-102782642D01*
X141644690Y-103163595D01*
X141454214Y-101735023D02*
X142120880Y-101735023D01*
X141073261Y-101973119D02*
X141787547Y-102211214D01*
X141787547Y-101592166D01*
G04 #@! TO.C,R5*
X146772333Y-102941380D02*
X146439000Y-102465190D01*
X146200904Y-102941380D02*
X146200904Y-101941380D01*
X146581857Y-101941380D01*
X146677095Y-101989000D01*
X146724714Y-102036619D01*
X146772333Y-102131857D01*
X146772333Y-102274714D01*
X146724714Y-102369952D01*
X146677095Y-102417571D01*
X146581857Y-102465190D01*
X146200904Y-102465190D01*
X147677095Y-101941380D02*
X147200904Y-101941380D01*
X147153285Y-102417571D01*
X147200904Y-102369952D01*
X147296142Y-102322333D01*
X147534238Y-102322333D01*
X147629476Y-102369952D01*
X147677095Y-102417571D01*
X147724714Y-102512809D01*
X147724714Y-102750904D01*
X147677095Y-102846142D01*
X147629476Y-102893761D01*
X147534238Y-102941380D01*
X147296142Y-102941380D01*
X147200904Y-102893761D01*
X147153285Y-102846142D01*
G04 #@! TO.C,R6*
X146772333Y-99131380D02*
X146439000Y-98655190D01*
X146200904Y-99131380D02*
X146200904Y-98131380D01*
X146581857Y-98131380D01*
X146677095Y-98179000D01*
X146724714Y-98226619D01*
X146772333Y-98321857D01*
X146772333Y-98464714D01*
X146724714Y-98559952D01*
X146677095Y-98607571D01*
X146581857Y-98655190D01*
X146200904Y-98655190D01*
X147629476Y-98131380D02*
X147439000Y-98131380D01*
X147343761Y-98179000D01*
X147296142Y-98226619D01*
X147200904Y-98369476D01*
X147153285Y-98559952D01*
X147153285Y-98940904D01*
X147200904Y-99036142D01*
X147248523Y-99083761D01*
X147343761Y-99131380D01*
X147534238Y-99131380D01*
X147629476Y-99083761D01*
X147677095Y-99036142D01*
X147724714Y-98940904D01*
X147724714Y-98702809D01*
X147677095Y-98607571D01*
X147629476Y-98559952D01*
X147534238Y-98512333D01*
X147343761Y-98512333D01*
X147248523Y-98559952D01*
X147200904Y-98607571D01*
X147153285Y-98702809D01*
G04 #@! TO.C,R7*
X136358333Y-101036380D02*
X136025000Y-100560190D01*
X135786904Y-101036380D02*
X135786904Y-100036380D01*
X136167857Y-100036380D01*
X136263095Y-100084000D01*
X136310714Y-100131619D01*
X136358333Y-100226857D01*
X136358333Y-100369714D01*
X136310714Y-100464952D01*
X136263095Y-100512571D01*
X136167857Y-100560190D01*
X135786904Y-100560190D01*
X136691666Y-100036380D02*
X137358333Y-100036380D01*
X136929761Y-101036380D01*
G04 #@! TO.C,R8*
X146758333Y-101036380D02*
X146425000Y-100560190D01*
X146186904Y-101036380D02*
X146186904Y-100036380D01*
X146567857Y-100036380D01*
X146663095Y-100084000D01*
X146710714Y-100131619D01*
X146758333Y-100226857D01*
X146758333Y-100369714D01*
X146710714Y-100464952D01*
X146663095Y-100512571D01*
X146567857Y-100560190D01*
X146186904Y-100560190D01*
X147329761Y-100464952D02*
X147234523Y-100417333D01*
X147186904Y-100369714D01*
X147139285Y-100274476D01*
X147139285Y-100226857D01*
X147186904Y-100131619D01*
X147234523Y-100084000D01*
X147329761Y-100036380D01*
X147520238Y-100036380D01*
X147615476Y-100084000D01*
X147663095Y-100131619D01*
X147710714Y-100226857D01*
X147710714Y-100274476D01*
X147663095Y-100369714D01*
X147615476Y-100417333D01*
X147520238Y-100464952D01*
X147329761Y-100464952D01*
X147234523Y-100512571D01*
X147186904Y-100560190D01*
X147139285Y-100655428D01*
X147139285Y-100845904D01*
X147186904Y-100941142D01*
X147234523Y-100988761D01*
X147329761Y-101036380D01*
X147520238Y-101036380D01*
X147615476Y-100988761D01*
X147663095Y-100941142D01*
X147710714Y-100845904D01*
X147710714Y-100655428D01*
X147663095Y-100560190D01*
X147615476Y-100512571D01*
X147520238Y-100464952D01*
G04 #@! TO.C,R9*
X136358333Y-99131380D02*
X136025000Y-98655190D01*
X135786904Y-99131380D02*
X135786904Y-98131380D01*
X136167857Y-98131380D01*
X136263095Y-98179000D01*
X136310714Y-98226619D01*
X136358333Y-98321857D01*
X136358333Y-98464714D01*
X136310714Y-98559952D01*
X136263095Y-98607571D01*
X136167857Y-98655190D01*
X135786904Y-98655190D01*
X136834523Y-99131380D02*
X137025000Y-99131380D01*
X137120238Y-99083761D01*
X137167857Y-99036142D01*
X137263095Y-98893285D01*
X137310714Y-98702809D01*
X137310714Y-98321857D01*
X137263095Y-98226619D01*
X137215476Y-98179000D01*
X137120238Y-98131380D01*
X136929761Y-98131380D01*
X136834523Y-98179000D01*
X136786904Y-98226619D01*
X136739285Y-98321857D01*
X136739285Y-98559952D01*
X136786904Y-98655190D01*
X136834523Y-98702809D01*
X136929761Y-98750428D01*
X137120238Y-98750428D01*
X137215476Y-98702809D01*
X137263095Y-98655190D01*
X137310714Y-98559952D01*
G04 #@! TO.C,R13*
X107307142Y-95638880D02*
X106973809Y-95162690D01*
X106735714Y-95638880D02*
X106735714Y-94638880D01*
X107116666Y-94638880D01*
X107211904Y-94686500D01*
X107259523Y-94734119D01*
X107307142Y-94829357D01*
X107307142Y-94972214D01*
X107259523Y-95067452D01*
X107211904Y-95115071D01*
X107116666Y-95162690D01*
X106735714Y-95162690D01*
X108259523Y-95638880D02*
X107688095Y-95638880D01*
X107973809Y-95638880D02*
X107973809Y-94638880D01*
X107878571Y-94781738D01*
X107783333Y-94876976D01*
X107688095Y-94924595D01*
X108592857Y-94638880D02*
X109211904Y-94638880D01*
X108878571Y-95019833D01*
X109021428Y-95019833D01*
X109116666Y-95067452D01*
X109164285Y-95115071D01*
X109211904Y-95210309D01*
X109211904Y-95448404D01*
X109164285Y-95543642D01*
X109116666Y-95591261D01*
X109021428Y-95638880D01*
X108735714Y-95638880D01*
X108640476Y-95591261D01*
X108592857Y-95543642D01*
G04 #@! TO.C,C1*
X106275142Y-105576666D02*
X106322761Y-105624285D01*
X106370380Y-105767142D01*
X106370380Y-105862380D01*
X106322761Y-106005238D01*
X106227523Y-106100476D01*
X106132285Y-106148095D01*
X105941809Y-106195714D01*
X105798952Y-106195714D01*
X105608476Y-106148095D01*
X105513238Y-106100476D01*
X105418000Y-106005238D01*
X105370380Y-105862380D01*
X105370380Y-105767142D01*
X105418000Y-105624285D01*
X105465619Y-105576666D01*
X106370380Y-104624285D02*
X106370380Y-105195714D01*
X106370380Y-104910000D02*
X105370380Y-104910000D01*
X105513238Y-105005238D01*
X105608476Y-105100476D01*
X105656095Y-105195714D01*
G04 #@! TO.C,C2*
X111482142Y-105322666D02*
X111529761Y-105370285D01*
X111577380Y-105513142D01*
X111577380Y-105608380D01*
X111529761Y-105751238D01*
X111434523Y-105846476D01*
X111339285Y-105894095D01*
X111148809Y-105941714D01*
X111005952Y-105941714D01*
X110815476Y-105894095D01*
X110720238Y-105846476D01*
X110625000Y-105751238D01*
X110577380Y-105608380D01*
X110577380Y-105513142D01*
X110625000Y-105370285D01*
X110672619Y-105322666D01*
X110672619Y-104941714D02*
X110625000Y-104894095D01*
X110577380Y-104798857D01*
X110577380Y-104560761D01*
X110625000Y-104465523D01*
X110672619Y-104417904D01*
X110767857Y-104370285D01*
X110863095Y-104370285D01*
X111005952Y-104417904D01*
X111577380Y-104989333D01*
X111577380Y-104370285D01*
G04 #@! TO.C,C4*
X116435142Y-105322666D02*
X116482761Y-105370285D01*
X116530380Y-105513142D01*
X116530380Y-105608380D01*
X116482761Y-105751238D01*
X116387523Y-105846476D01*
X116292285Y-105894095D01*
X116101809Y-105941714D01*
X115958952Y-105941714D01*
X115768476Y-105894095D01*
X115673238Y-105846476D01*
X115578000Y-105751238D01*
X115530380Y-105608380D01*
X115530380Y-105513142D01*
X115578000Y-105370285D01*
X115625619Y-105322666D01*
X115863714Y-104465523D02*
X116530380Y-104465523D01*
X115482761Y-104703619D02*
X116197047Y-104941714D01*
X116197047Y-104322666D01*
G04 #@! TO.C,J6*
X107275380Y-77422333D02*
X107989666Y-77422333D01*
X108132523Y-77469952D01*
X108227761Y-77565190D01*
X108275380Y-77708047D01*
X108275380Y-77803285D01*
X107275380Y-76517571D02*
X107275380Y-76708047D01*
X107323000Y-76803285D01*
X107370619Y-76850904D01*
X107513476Y-76946142D01*
X107703952Y-76993761D01*
X108084904Y-76993761D01*
X108180142Y-76946142D01*
X108227761Y-76898523D01*
X108275380Y-76803285D01*
X108275380Y-76612809D01*
X108227761Y-76517571D01*
X108180142Y-76469952D01*
X108084904Y-76422333D01*
X107846809Y-76422333D01*
X107751571Y-76469952D01*
X107703952Y-76517571D01*
X107656333Y-76612809D01*
X107656333Y-76803285D01*
X107703952Y-76898523D01*
X107751571Y-76946142D01*
X107846809Y-76993761D01*
G04 #@! TO.C,J5*
X142414666Y-94956380D02*
X142414666Y-95670666D01*
X142367047Y-95813523D01*
X142271809Y-95908761D01*
X142128952Y-95956380D01*
X142033714Y-95956380D01*
X143367047Y-94956380D02*
X142890857Y-94956380D01*
X142843238Y-95432571D01*
X142890857Y-95384952D01*
X142986095Y-95337333D01*
X143224190Y-95337333D01*
X143319428Y-95384952D01*
X143367047Y-95432571D01*
X143414666Y-95527809D01*
X143414666Y-95765904D01*
X143367047Y-95861142D01*
X143319428Y-95908761D01*
X143224190Y-95956380D01*
X142986095Y-95956380D01*
X142890857Y-95908761D01*
X142843238Y-95861142D01*
G04 #@! TO.C,J8*
X141144666Y-76541380D02*
X141144666Y-77255666D01*
X141097047Y-77398523D01*
X141001809Y-77493761D01*
X140858952Y-77541380D01*
X140763714Y-77541380D01*
X141763714Y-76969952D02*
X141668476Y-76922333D01*
X141620857Y-76874714D01*
X141573238Y-76779476D01*
X141573238Y-76731857D01*
X141620857Y-76636619D01*
X141668476Y-76589000D01*
X141763714Y-76541380D01*
X141954190Y-76541380D01*
X142049428Y-76589000D01*
X142097047Y-76636619D01*
X142144666Y-76731857D01*
X142144666Y-76779476D01*
X142097047Y-76874714D01*
X142049428Y-76922333D01*
X141954190Y-76969952D01*
X141763714Y-76969952D01*
X141668476Y-77017571D01*
X141620857Y-77065190D01*
X141573238Y-77160428D01*
X141573238Y-77350904D01*
X141620857Y-77446142D01*
X141668476Y-77493761D01*
X141763714Y-77541380D01*
X141954190Y-77541380D01*
X142049428Y-77493761D01*
X142097047Y-77446142D01*
X142144666Y-77350904D01*
X142144666Y-77160428D01*
X142097047Y-77065190D01*
X142049428Y-77017571D01*
X141954190Y-76969952D01*
G04 #@! TO.C,J9*
X151304666Y-76541380D02*
X151304666Y-77255666D01*
X151257047Y-77398523D01*
X151161809Y-77493761D01*
X151018952Y-77541380D01*
X150923714Y-77541380D01*
X151828476Y-77541380D02*
X152018952Y-77541380D01*
X152114190Y-77493761D01*
X152161809Y-77446142D01*
X152257047Y-77303285D01*
X152304666Y-77112809D01*
X152304666Y-76731857D01*
X152257047Y-76636619D01*
X152209428Y-76589000D01*
X152114190Y-76541380D01*
X151923714Y-76541380D01*
X151828476Y-76589000D01*
X151780857Y-76636619D01*
X151733238Y-76731857D01*
X151733238Y-76969952D01*
X151780857Y-77065190D01*
X151828476Y-77112809D01*
X151923714Y-77160428D01*
X152114190Y-77160428D01*
X152209428Y-77112809D01*
X152257047Y-77065190D01*
X152304666Y-76969952D01*
G04 #@! TO.C,C18*
X164965142Y-102211142D02*
X164917523Y-102258761D01*
X164774666Y-102306380D01*
X164679428Y-102306380D01*
X164536571Y-102258761D01*
X164441333Y-102163523D01*
X164393714Y-102068285D01*
X164346095Y-101877809D01*
X164346095Y-101734952D01*
X164393714Y-101544476D01*
X164441333Y-101449238D01*
X164536571Y-101354000D01*
X164679428Y-101306380D01*
X164774666Y-101306380D01*
X164917523Y-101354000D01*
X164965142Y-101401619D01*
X165917523Y-102306380D02*
X165346095Y-102306380D01*
X165631809Y-102306380D02*
X165631809Y-101306380D01*
X165536571Y-101449238D01*
X165441333Y-101544476D01*
X165346095Y-101592095D01*
X166488952Y-101734952D02*
X166393714Y-101687333D01*
X166346095Y-101639714D01*
X166298476Y-101544476D01*
X166298476Y-101496857D01*
X166346095Y-101401619D01*
X166393714Y-101354000D01*
X166488952Y-101306380D01*
X166679428Y-101306380D01*
X166774666Y-101354000D01*
X166822285Y-101401619D01*
X166869904Y-101496857D01*
X166869904Y-101544476D01*
X166822285Y-101639714D01*
X166774666Y-101687333D01*
X166679428Y-101734952D01*
X166488952Y-101734952D01*
X166393714Y-101782571D01*
X166346095Y-101830190D01*
X166298476Y-101925428D01*
X166298476Y-102115904D01*
X166346095Y-102211142D01*
X166393714Y-102258761D01*
X166488952Y-102306380D01*
X166679428Y-102306380D01*
X166774666Y-102258761D01*
X166822285Y-102211142D01*
X166869904Y-102115904D01*
X166869904Y-101925428D01*
X166822285Y-101830190D01*
X166774666Y-101782571D01*
X166679428Y-101734952D01*
G04 #@! TO.C,C3*
X166076333Y-88876142D02*
X166028714Y-88923761D01*
X165885857Y-88971380D01*
X165790619Y-88971380D01*
X165647761Y-88923761D01*
X165552523Y-88828523D01*
X165504904Y-88733285D01*
X165457285Y-88542809D01*
X165457285Y-88399952D01*
X165504904Y-88209476D01*
X165552523Y-88114238D01*
X165647761Y-88019000D01*
X165790619Y-87971380D01*
X165885857Y-87971380D01*
X166028714Y-88019000D01*
X166076333Y-88066619D01*
X166409666Y-87971380D02*
X167028714Y-87971380D01*
X166695380Y-88352333D01*
X166838238Y-88352333D01*
X166933476Y-88399952D01*
X166981095Y-88447571D01*
X167028714Y-88542809D01*
X167028714Y-88780904D01*
X166981095Y-88876142D01*
X166933476Y-88923761D01*
X166838238Y-88971380D01*
X166552523Y-88971380D01*
X166457285Y-88923761D01*
X166409666Y-88876142D01*
G04 #@! TO.C,C9*
X166711333Y-76176142D02*
X166663714Y-76223761D01*
X166520857Y-76271380D01*
X166425619Y-76271380D01*
X166282761Y-76223761D01*
X166187523Y-76128523D01*
X166139904Y-76033285D01*
X166092285Y-75842809D01*
X166092285Y-75699952D01*
X166139904Y-75509476D01*
X166187523Y-75414238D01*
X166282761Y-75319000D01*
X166425619Y-75271380D01*
X166520857Y-75271380D01*
X166663714Y-75319000D01*
X166711333Y-75366619D01*
X167187523Y-76271380D02*
X167378000Y-76271380D01*
X167473238Y-76223761D01*
X167520857Y-76176142D01*
X167616095Y-76033285D01*
X167663714Y-75842809D01*
X167663714Y-75461857D01*
X167616095Y-75366619D01*
X167568476Y-75319000D01*
X167473238Y-75271380D01*
X167282761Y-75271380D01*
X167187523Y-75319000D01*
X167139904Y-75366619D01*
X167092285Y-75461857D01*
X167092285Y-75699952D01*
X167139904Y-75795190D01*
X167187523Y-75842809D01*
X167282761Y-75890428D01*
X167473238Y-75890428D01*
X167568476Y-75842809D01*
X167616095Y-75795190D01*
X167663714Y-75699952D01*
G04 #@! TO.C,C6*
X170154333Y-79224142D02*
X170106714Y-79271761D01*
X169963857Y-79319380D01*
X169868619Y-79319380D01*
X169725761Y-79271761D01*
X169630523Y-79176523D01*
X169582904Y-79081285D01*
X169535285Y-78890809D01*
X169535285Y-78747952D01*
X169582904Y-78557476D01*
X169630523Y-78462238D01*
X169725761Y-78367000D01*
X169868619Y-78319380D01*
X169963857Y-78319380D01*
X170106714Y-78367000D01*
X170154333Y-78414619D01*
X171011476Y-78319380D02*
X170821000Y-78319380D01*
X170725761Y-78367000D01*
X170678142Y-78414619D01*
X170582904Y-78557476D01*
X170535285Y-78747952D01*
X170535285Y-79128904D01*
X170582904Y-79224142D01*
X170630523Y-79271761D01*
X170725761Y-79319380D01*
X170916238Y-79319380D01*
X171011476Y-79271761D01*
X171059095Y-79224142D01*
X171106714Y-79128904D01*
X171106714Y-78890809D01*
X171059095Y-78795571D01*
X171011476Y-78747952D01*
X170916238Y-78700333D01*
X170725761Y-78700333D01*
X170630523Y-78747952D01*
X170582904Y-78795571D01*
X170535285Y-78890809D01*
G04 #@! TO.C,C7*
X170154333Y-92813142D02*
X170106714Y-92860761D01*
X169963857Y-92908380D01*
X169868619Y-92908380D01*
X169725761Y-92860761D01*
X169630523Y-92765523D01*
X169582904Y-92670285D01*
X169535285Y-92479809D01*
X169535285Y-92336952D01*
X169582904Y-92146476D01*
X169630523Y-92051238D01*
X169725761Y-91956000D01*
X169868619Y-91908380D01*
X169963857Y-91908380D01*
X170106714Y-91956000D01*
X170154333Y-92003619D01*
X170487666Y-91908380D02*
X171154333Y-91908380D01*
X170725761Y-92908380D01*
G04 #@! TO.C,C8*
X169914333Y-105894142D02*
X169866714Y-105941761D01*
X169723857Y-105989380D01*
X169628619Y-105989380D01*
X169485761Y-105941761D01*
X169390523Y-105846523D01*
X169342904Y-105751285D01*
X169295285Y-105560809D01*
X169295285Y-105417952D01*
X169342904Y-105227476D01*
X169390523Y-105132238D01*
X169485761Y-105037000D01*
X169628619Y-104989380D01*
X169723857Y-104989380D01*
X169866714Y-105037000D01*
X169914333Y-105084619D01*
X170485761Y-105417952D02*
X170390523Y-105370333D01*
X170342904Y-105322714D01*
X170295285Y-105227476D01*
X170295285Y-105179857D01*
X170342904Y-105084619D01*
X170390523Y-105037000D01*
X170485761Y-104989380D01*
X170676238Y-104989380D01*
X170771476Y-105037000D01*
X170819095Y-105084619D01*
X170866714Y-105179857D01*
X170866714Y-105227476D01*
X170819095Y-105322714D01*
X170771476Y-105370333D01*
X170676238Y-105417952D01*
X170485761Y-105417952D01*
X170390523Y-105465571D01*
X170342904Y-105513190D01*
X170295285Y-105608428D01*
X170295285Y-105798904D01*
X170342904Y-105894142D01*
X170390523Y-105941761D01*
X170485761Y-105989380D01*
X170676238Y-105989380D01*
X170771476Y-105941761D01*
X170819095Y-105894142D01*
X170866714Y-105798904D01*
X170866714Y-105608428D01*
X170819095Y-105513190D01*
X170771476Y-105465571D01*
X170676238Y-105417952D01*
G04 #@! TO.C,R10*
X169678142Y-84051380D02*
X169344809Y-83575190D01*
X169106714Y-84051380D02*
X169106714Y-83051380D01*
X169487666Y-83051380D01*
X169582904Y-83099000D01*
X169630523Y-83146619D01*
X169678142Y-83241857D01*
X169678142Y-83384714D01*
X169630523Y-83479952D01*
X169582904Y-83527571D01*
X169487666Y-83575190D01*
X169106714Y-83575190D01*
X170630523Y-84051380D02*
X170059095Y-84051380D01*
X170344809Y-84051380D02*
X170344809Y-83051380D01*
X170249571Y-83194238D01*
X170154333Y-83289476D01*
X170059095Y-83337095D01*
X171249571Y-83051380D02*
X171344809Y-83051380D01*
X171440047Y-83099000D01*
X171487666Y-83146619D01*
X171535285Y-83241857D01*
X171582904Y-83432333D01*
X171582904Y-83670428D01*
X171535285Y-83860904D01*
X171487666Y-83956142D01*
X171440047Y-84003761D01*
X171344809Y-84051380D01*
X171249571Y-84051380D01*
X171154333Y-84003761D01*
X171106714Y-83956142D01*
X171059095Y-83860904D01*
X171011476Y-83670428D01*
X171011476Y-83432333D01*
X171059095Y-83241857D01*
X171106714Y-83146619D01*
X171154333Y-83099000D01*
X171249571Y-83051380D01*
G04 #@! TO.C,R11*
X169678142Y-97513380D02*
X169344809Y-97037190D01*
X169106714Y-97513380D02*
X169106714Y-96513380D01*
X169487666Y-96513380D01*
X169582904Y-96561000D01*
X169630523Y-96608619D01*
X169678142Y-96703857D01*
X169678142Y-96846714D01*
X169630523Y-96941952D01*
X169582904Y-96989571D01*
X169487666Y-97037190D01*
X169106714Y-97037190D01*
X170630523Y-97513380D02*
X170059095Y-97513380D01*
X170344809Y-97513380D02*
X170344809Y-96513380D01*
X170249571Y-96656238D01*
X170154333Y-96751476D01*
X170059095Y-96799095D01*
X171582904Y-97513380D02*
X171011476Y-97513380D01*
X171297190Y-97513380D02*
X171297190Y-96513380D01*
X171201952Y-96656238D01*
X171106714Y-96751476D01*
X171011476Y-96799095D01*
G04 #@! TO.C,R12*
X169678142Y-110848380D02*
X169344809Y-110372190D01*
X169106714Y-110848380D02*
X169106714Y-109848380D01*
X169487666Y-109848380D01*
X169582904Y-109896000D01*
X169630523Y-109943619D01*
X169678142Y-110038857D01*
X169678142Y-110181714D01*
X169630523Y-110276952D01*
X169582904Y-110324571D01*
X169487666Y-110372190D01*
X169106714Y-110372190D01*
X170630523Y-110848380D02*
X170059095Y-110848380D01*
X170344809Y-110848380D02*
X170344809Y-109848380D01*
X170249571Y-109991238D01*
X170154333Y-110086476D01*
X170059095Y-110134095D01*
X171011476Y-109943619D02*
X171059095Y-109896000D01*
X171154333Y-109848380D01*
X171392428Y-109848380D01*
X171487666Y-109896000D01*
X171535285Y-109943619D01*
X171582904Y-110038857D01*
X171582904Y-110134095D01*
X171535285Y-110276952D01*
X170963857Y-110848380D01*
X171582904Y-110848380D01*
G04 #@! TO.C,J4*
X104735380Y-82502333D02*
X105449666Y-82502333D01*
X105592523Y-82549952D01*
X105687761Y-82645190D01*
X105735380Y-82788047D01*
X105735380Y-82883285D01*
X105068714Y-81597571D02*
X105735380Y-81597571D01*
X104687761Y-81835666D02*
X105402047Y-82073761D01*
X105402047Y-81454714D01*
G04 #@! TO.C,J10*
X98385380Y-107108523D02*
X99099666Y-107108523D01*
X99242523Y-107156142D01*
X99337761Y-107251380D01*
X99385380Y-107394238D01*
X99385380Y-107489476D01*
X99385380Y-106108523D02*
X99385380Y-106679952D01*
X99385380Y-106394238D02*
X98385380Y-106394238D01*
X98528238Y-106489476D01*
X98623476Y-106584714D01*
X98671095Y-106679952D01*
X98385380Y-105489476D02*
X98385380Y-105394238D01*
X98433000Y-105299000D01*
X98480619Y-105251380D01*
X98575857Y-105203761D01*
X98766333Y-105156142D01*
X99004428Y-105156142D01*
X99194904Y-105203761D01*
X99290142Y-105251380D01*
X99337761Y-105299000D01*
X99385380Y-105394238D01*
X99385380Y-105489476D01*
X99337761Y-105584714D01*
X99290142Y-105632333D01*
X99194904Y-105679952D01*
X99004428Y-105727571D01*
X98766333Y-105727571D01*
X98575857Y-105679952D01*
X98480619Y-105632333D01*
X98433000Y-105584714D01*
X98385380Y-105489476D01*
G04 #@! TO.C,R14*
X122245380Y-112021857D02*
X121769190Y-112355190D01*
X122245380Y-112593285D02*
X121245380Y-112593285D01*
X121245380Y-112212333D01*
X121293000Y-112117095D01*
X121340619Y-112069476D01*
X121435857Y-112021857D01*
X121578714Y-112021857D01*
X121673952Y-112069476D01*
X121721571Y-112117095D01*
X121769190Y-112212333D01*
X121769190Y-112593285D01*
X122245380Y-111069476D02*
X122245380Y-111640904D01*
X122245380Y-111355190D02*
X121245380Y-111355190D01*
X121388238Y-111450428D01*
X121483476Y-111545666D01*
X121531095Y-111640904D01*
X121578714Y-110212333D02*
X122245380Y-110212333D01*
X121197761Y-110450428D02*
X121912047Y-110688523D01*
X121912047Y-110069476D01*
G04 #@! TO.C,R15*
X150549342Y-111323380D02*
X150216009Y-110847190D01*
X149977914Y-111323380D02*
X149977914Y-110323380D01*
X150358866Y-110323380D01*
X150454104Y-110371000D01*
X150501723Y-110418619D01*
X150549342Y-110513857D01*
X150549342Y-110656714D01*
X150501723Y-110751952D01*
X150454104Y-110799571D01*
X150358866Y-110847190D01*
X149977914Y-110847190D01*
X151501723Y-111323380D02*
X150930295Y-111323380D01*
X151216009Y-111323380D02*
X151216009Y-110323380D01*
X151120771Y-110466238D01*
X151025533Y-110561476D01*
X150930295Y-110609095D01*
X152406485Y-110323380D02*
X151930295Y-110323380D01*
X151882676Y-110799571D01*
X151930295Y-110751952D01*
X152025533Y-110704333D01*
X152263628Y-110704333D01*
X152358866Y-110751952D01*
X152406485Y-110799571D01*
X152454104Y-110894809D01*
X152454104Y-111132904D01*
X152406485Y-111228142D01*
X152358866Y-111275761D01*
X152263628Y-111323380D01*
X152025533Y-111323380D01*
X151930295Y-111275761D01*
X151882676Y-111228142D01*
G04 #@! TO.C,R16*
X151489142Y-102128580D02*
X151155809Y-101652390D01*
X150917714Y-102128580D02*
X150917714Y-101128580D01*
X151298666Y-101128580D01*
X151393904Y-101176200D01*
X151441523Y-101223819D01*
X151489142Y-101319057D01*
X151489142Y-101461914D01*
X151441523Y-101557152D01*
X151393904Y-101604771D01*
X151298666Y-101652390D01*
X150917714Y-101652390D01*
X152441523Y-102128580D02*
X151870095Y-102128580D01*
X152155809Y-102128580D02*
X152155809Y-101128580D01*
X152060571Y-101271438D01*
X151965333Y-101366676D01*
X151870095Y-101414295D01*
X153298666Y-101128580D02*
X153108190Y-101128580D01*
X153012952Y-101176200D01*
X152965333Y-101223819D01*
X152870095Y-101366676D01*
X152822476Y-101557152D01*
X152822476Y-101938104D01*
X152870095Y-102033342D01*
X152917714Y-102080961D01*
X153012952Y-102128580D01*
X153203428Y-102128580D01*
X153298666Y-102080961D01*
X153346285Y-102033342D01*
X153393904Y-101938104D01*
X153393904Y-101700009D01*
X153346285Y-101604771D01*
X153298666Y-101557152D01*
X153203428Y-101509533D01*
X153012952Y-101509533D01*
X152917714Y-101557152D01*
X152870095Y-101604771D01*
X152822476Y-101700009D01*
G04 #@! TO.C,R17*
X126230142Y-87226380D02*
X125896809Y-86750190D01*
X125658714Y-87226380D02*
X125658714Y-86226380D01*
X126039666Y-86226380D01*
X126134904Y-86274000D01*
X126182523Y-86321619D01*
X126230142Y-86416857D01*
X126230142Y-86559714D01*
X126182523Y-86654952D01*
X126134904Y-86702571D01*
X126039666Y-86750190D01*
X125658714Y-86750190D01*
X127182523Y-87226380D02*
X126611095Y-87226380D01*
X126896809Y-87226380D02*
X126896809Y-86226380D01*
X126801571Y-86369238D01*
X126706333Y-86464476D01*
X126611095Y-86512095D01*
X127515857Y-86226380D02*
X128182523Y-86226380D01*
X127753952Y-87226380D01*
G04 #@! TO.C,D3*
X124420404Y-104528880D02*
X124420404Y-103528880D01*
X124658500Y-103528880D01*
X124801357Y-103576500D01*
X124896595Y-103671738D01*
X124944214Y-103766976D01*
X124991833Y-103957452D01*
X124991833Y-104100309D01*
X124944214Y-104290785D01*
X124896595Y-104386023D01*
X124801357Y-104481261D01*
X124658500Y-104528880D01*
X124420404Y-104528880D01*
X125325166Y-103528880D02*
X125944214Y-103528880D01*
X125610880Y-103909833D01*
X125753738Y-103909833D01*
X125848976Y-103957452D01*
X125896595Y-104005071D01*
X125944214Y-104100309D01*
X125944214Y-104338404D01*
X125896595Y-104433642D01*
X125848976Y-104481261D01*
X125753738Y-104528880D01*
X125468023Y-104528880D01*
X125372785Y-104481261D01*
X125325166Y-104433642D01*
G04 #@! TO.C,D4*
X128039904Y-80716380D02*
X128039904Y-79716380D01*
X128278000Y-79716380D01*
X128420857Y-79764000D01*
X128516095Y-79859238D01*
X128563714Y-79954476D01*
X128611333Y-80144952D01*
X128611333Y-80287809D01*
X128563714Y-80478285D01*
X128516095Y-80573523D01*
X128420857Y-80668761D01*
X128278000Y-80716380D01*
X128039904Y-80716380D01*
X129468476Y-80049714D02*
X129468476Y-80716380D01*
X129230380Y-79668761D02*
X128992285Y-80383047D01*
X129611333Y-80383047D01*
G04 #@! TO.C,C10*
X128627142Y-105671857D02*
X128674761Y-105719476D01*
X128722380Y-105862333D01*
X128722380Y-105957571D01*
X128674761Y-106100428D01*
X128579523Y-106195666D01*
X128484285Y-106243285D01*
X128293809Y-106290904D01*
X128150952Y-106290904D01*
X127960476Y-106243285D01*
X127865238Y-106195666D01*
X127770000Y-106100428D01*
X127722380Y-105957571D01*
X127722380Y-105862333D01*
X127770000Y-105719476D01*
X127817619Y-105671857D01*
X128722380Y-104719476D02*
X128722380Y-105290904D01*
X128722380Y-105005190D02*
X127722380Y-105005190D01*
X127865238Y-105100428D01*
X127960476Y-105195666D01*
X128008095Y-105290904D01*
X127722380Y-104100428D02*
X127722380Y-104005190D01*
X127770000Y-103909952D01*
X127817619Y-103862333D01*
X127912857Y-103814714D01*
X128103333Y-103767095D01*
X128341428Y-103767095D01*
X128531904Y-103814714D01*
X128627142Y-103862333D01*
X128674761Y-103909952D01*
X128722380Y-104005190D01*
X128722380Y-104100428D01*
X128674761Y-104195666D01*
X128627142Y-104243285D01*
X128531904Y-104290904D01*
X128341428Y-104338523D01*
X128103333Y-104338523D01*
X127912857Y-104290904D01*
X127817619Y-104243285D01*
X127770000Y-104195666D01*
X127722380Y-104100428D01*
G04 #@! TO.C,J11*
X130825976Y-83970880D02*
X130825976Y-84685166D01*
X130778357Y-84828023D01*
X130683119Y-84923261D01*
X130540261Y-84970880D01*
X130445023Y-84970880D01*
X131825976Y-84970880D02*
X131254547Y-84970880D01*
X131540261Y-84970880D02*
X131540261Y-83970880D01*
X131445023Y-84113738D01*
X131349785Y-84208976D01*
X131254547Y-84256595D01*
X132778357Y-84970880D02*
X132206928Y-84970880D01*
X132492642Y-84970880D02*
X132492642Y-83970880D01*
X132397404Y-84113738D01*
X132302166Y-84208976D01*
X132206928Y-84256595D01*
G04 #@! TO.C,C19*
X123961142Y-102955357D02*
X124008761Y-103002976D01*
X124056380Y-103145833D01*
X124056380Y-103241071D01*
X124008761Y-103383928D01*
X123913523Y-103479166D01*
X123818285Y-103526785D01*
X123627809Y-103574404D01*
X123484952Y-103574404D01*
X123294476Y-103526785D01*
X123199238Y-103479166D01*
X123104000Y-103383928D01*
X123056380Y-103241071D01*
X123056380Y-103145833D01*
X123104000Y-103002976D01*
X123151619Y-102955357D01*
X124056380Y-102002976D02*
X124056380Y-102574404D01*
X124056380Y-102288690D02*
X123056380Y-102288690D01*
X123199238Y-102383928D01*
X123294476Y-102479166D01*
X123342095Y-102574404D01*
X124056380Y-101526785D02*
X124056380Y-101336309D01*
X124008761Y-101241071D01*
X123961142Y-101193452D01*
X123818285Y-101098214D01*
X123627809Y-101050595D01*
X123246857Y-101050595D01*
X123151619Y-101098214D01*
X123104000Y-101145833D01*
X123056380Y-101241071D01*
X123056380Y-101431547D01*
X123104000Y-101526785D01*
X123151619Y-101574404D01*
X123246857Y-101622023D01*
X123484952Y-101622023D01*
X123580190Y-101574404D01*
X123627809Y-101526785D01*
X123675428Y-101431547D01*
X123675428Y-101241071D01*
X123627809Y-101145833D01*
X123580190Y-101098214D01*
X123484952Y-101050595D01*
G04 #@! TO.C,R18*
X115435142Y-99608880D02*
X115101809Y-99132690D01*
X114863714Y-99608880D02*
X114863714Y-98608880D01*
X115244666Y-98608880D01*
X115339904Y-98656500D01*
X115387523Y-98704119D01*
X115435142Y-98799357D01*
X115435142Y-98942214D01*
X115387523Y-99037452D01*
X115339904Y-99085071D01*
X115244666Y-99132690D01*
X114863714Y-99132690D01*
X116387523Y-99608880D02*
X115816095Y-99608880D01*
X116101809Y-99608880D02*
X116101809Y-98608880D01*
X116006571Y-98751738D01*
X115911333Y-98846976D01*
X115816095Y-98894595D01*
X116958952Y-99037452D02*
X116863714Y-98989833D01*
X116816095Y-98942214D01*
X116768476Y-98846976D01*
X116768476Y-98799357D01*
X116816095Y-98704119D01*
X116863714Y-98656500D01*
X116958952Y-98608880D01*
X117149428Y-98608880D01*
X117244666Y-98656500D01*
X117292285Y-98704119D01*
X117339904Y-98799357D01*
X117339904Y-98846976D01*
X117292285Y-98942214D01*
X117244666Y-98989833D01*
X117149428Y-99037452D01*
X116958952Y-99037452D01*
X116863714Y-99085071D01*
X116816095Y-99132690D01*
X116768476Y-99227928D01*
X116768476Y-99418404D01*
X116816095Y-99513642D01*
X116863714Y-99561261D01*
X116958952Y-99608880D01*
X117149428Y-99608880D01*
X117244666Y-99561261D01*
X117292285Y-99513642D01*
X117339904Y-99418404D01*
X117339904Y-99227928D01*
X117292285Y-99132690D01*
X117244666Y-99085071D01*
X117149428Y-99037452D01*
G04 #@! TO.C,C23*
X133580142Y-107576857D02*
X133627761Y-107624476D01*
X133675380Y-107767333D01*
X133675380Y-107862571D01*
X133627761Y-108005428D01*
X133532523Y-108100666D01*
X133437285Y-108148285D01*
X133246809Y-108195904D01*
X133103952Y-108195904D01*
X132913476Y-108148285D01*
X132818238Y-108100666D01*
X132723000Y-108005428D01*
X132675380Y-107862571D01*
X132675380Y-107767333D01*
X132723000Y-107624476D01*
X132770619Y-107576857D01*
X132770619Y-107195904D02*
X132723000Y-107148285D01*
X132675380Y-107053047D01*
X132675380Y-106814952D01*
X132723000Y-106719714D01*
X132770619Y-106672095D01*
X132865857Y-106624476D01*
X132961095Y-106624476D01*
X133103952Y-106672095D01*
X133675380Y-107243523D01*
X133675380Y-106624476D01*
X132675380Y-106291142D02*
X132675380Y-105672095D01*
X133056333Y-106005428D01*
X133056333Y-105862571D01*
X133103952Y-105767333D01*
X133151571Y-105719714D01*
X133246809Y-105672095D01*
X133484904Y-105672095D01*
X133580142Y-105719714D01*
X133627761Y-105767333D01*
X133675380Y-105862571D01*
X133675380Y-106148285D01*
X133627761Y-106243523D01*
X133580142Y-106291142D01*
G04 #@! TO.C,R19*
X131246642Y-91003380D02*
X130913309Y-90527190D01*
X130675214Y-91003380D02*
X130675214Y-90003380D01*
X131056166Y-90003380D01*
X131151404Y-90051000D01*
X131199023Y-90098619D01*
X131246642Y-90193857D01*
X131246642Y-90336714D01*
X131199023Y-90431952D01*
X131151404Y-90479571D01*
X131056166Y-90527190D01*
X130675214Y-90527190D01*
X132199023Y-91003380D02*
X131627595Y-91003380D01*
X131913309Y-91003380D02*
X131913309Y-90003380D01*
X131818071Y-90146238D01*
X131722833Y-90241476D01*
X131627595Y-90289095D01*
X132675214Y-91003380D02*
X132865690Y-91003380D01*
X132960928Y-90955761D01*
X133008547Y-90908142D01*
X133103785Y-90765285D01*
X133151404Y-90574809D01*
X133151404Y-90193857D01*
X133103785Y-90098619D01*
X133056166Y-90051000D01*
X132960928Y-90003380D01*
X132770452Y-90003380D01*
X132675214Y-90051000D01*
X132627595Y-90098619D01*
X132579976Y-90193857D01*
X132579976Y-90431952D01*
X132627595Y-90527190D01*
X132675214Y-90574809D01*
X132770452Y-90622428D01*
X132960928Y-90622428D01*
X133056166Y-90574809D01*
X133103785Y-90527190D01*
X133151404Y-90431952D01*
G04 #@! TO.C,R20*
X131296142Y-86207880D02*
X130962809Y-85731690D01*
X130724714Y-86207880D02*
X130724714Y-85207880D01*
X131105666Y-85207880D01*
X131200904Y-85255500D01*
X131248523Y-85303119D01*
X131296142Y-85398357D01*
X131296142Y-85541214D01*
X131248523Y-85636452D01*
X131200904Y-85684071D01*
X131105666Y-85731690D01*
X130724714Y-85731690D01*
X131677095Y-85303119D02*
X131724714Y-85255500D01*
X131819952Y-85207880D01*
X132058047Y-85207880D01*
X132153285Y-85255500D01*
X132200904Y-85303119D01*
X132248523Y-85398357D01*
X132248523Y-85493595D01*
X132200904Y-85636452D01*
X131629476Y-86207880D01*
X132248523Y-86207880D01*
X132867571Y-85207880D02*
X132962809Y-85207880D01*
X133058047Y-85255500D01*
X133105666Y-85303119D01*
X133153285Y-85398357D01*
X133200904Y-85588833D01*
X133200904Y-85826928D01*
X133153285Y-86017404D01*
X133105666Y-86112642D01*
X133058047Y-86160261D01*
X132962809Y-86207880D01*
X132867571Y-86207880D01*
X132772333Y-86160261D01*
X132724714Y-86112642D01*
X132677095Y-86017404D01*
X132629476Y-85826928D01*
X132629476Y-85588833D01*
X132677095Y-85398357D01*
X132724714Y-85303119D01*
X132772333Y-85255500D01*
X132867571Y-85207880D01*
G04 #@! TO.C,R21*
X138628380Y-104175857D02*
X138152190Y-104509190D01*
X138628380Y-104747285D02*
X137628380Y-104747285D01*
X137628380Y-104366333D01*
X137676000Y-104271095D01*
X137723619Y-104223476D01*
X137818857Y-104175857D01*
X137961714Y-104175857D01*
X138056952Y-104223476D01*
X138104571Y-104271095D01*
X138152190Y-104366333D01*
X138152190Y-104747285D01*
X137723619Y-103794904D02*
X137676000Y-103747285D01*
X137628380Y-103652047D01*
X137628380Y-103413952D01*
X137676000Y-103318714D01*
X137723619Y-103271095D01*
X137818857Y-103223476D01*
X137914095Y-103223476D01*
X138056952Y-103271095D01*
X138628380Y-103842523D01*
X138628380Y-103223476D01*
X138628380Y-102271095D02*
X138628380Y-102842523D01*
X138628380Y-102556809D02*
X137628380Y-102556809D01*
X137771238Y-102652047D01*
X137866476Y-102747285D01*
X137914095Y-102842523D01*
G04 #@! TO.C,R22*
X142598380Y-107463857D02*
X142122190Y-107797190D01*
X142598380Y-108035285D02*
X141598380Y-108035285D01*
X141598380Y-107654333D01*
X141646000Y-107559095D01*
X141693619Y-107511476D01*
X141788857Y-107463857D01*
X141931714Y-107463857D01*
X142026952Y-107511476D01*
X142074571Y-107559095D01*
X142122190Y-107654333D01*
X142122190Y-108035285D01*
X141693619Y-107082904D02*
X141646000Y-107035285D01*
X141598380Y-106940047D01*
X141598380Y-106701952D01*
X141646000Y-106606714D01*
X141693619Y-106559095D01*
X141788857Y-106511476D01*
X141884095Y-106511476D01*
X142026952Y-106559095D01*
X142598380Y-107130523D01*
X142598380Y-106511476D01*
X141693619Y-106130523D02*
X141646000Y-106082904D01*
X141598380Y-105987666D01*
X141598380Y-105749571D01*
X141646000Y-105654333D01*
X141693619Y-105606714D01*
X141788857Y-105559095D01*
X141884095Y-105559095D01*
X142026952Y-105606714D01*
X142598380Y-106178142D01*
X142598380Y-105559095D01*
G04 #@! TO.C,R23*
X143644880Y-104225357D02*
X143168690Y-104558690D01*
X143644880Y-104796785D02*
X142644880Y-104796785D01*
X142644880Y-104415833D01*
X142692500Y-104320595D01*
X142740119Y-104272976D01*
X142835357Y-104225357D01*
X142978214Y-104225357D01*
X143073452Y-104272976D01*
X143121071Y-104320595D01*
X143168690Y-104415833D01*
X143168690Y-104796785D01*
X142740119Y-103844404D02*
X142692500Y-103796785D01*
X142644880Y-103701547D01*
X142644880Y-103463452D01*
X142692500Y-103368214D01*
X142740119Y-103320595D01*
X142835357Y-103272976D01*
X142930595Y-103272976D01*
X143073452Y-103320595D01*
X143644880Y-103892023D01*
X143644880Y-103272976D01*
X142644880Y-102939642D02*
X142644880Y-102320595D01*
X143025833Y-102653928D01*
X143025833Y-102511071D01*
X143073452Y-102415833D01*
X143121071Y-102368214D01*
X143216309Y-102320595D01*
X143454404Y-102320595D01*
X143549642Y-102368214D01*
X143597261Y-102415833D01*
X143644880Y-102511071D01*
X143644880Y-102796785D01*
X143597261Y-102892023D01*
X143549642Y-102939642D01*
G04 #@! TD*
M02*
