M48
;DRILL file {KiCad 5.0.2-bee76a0~70~ubuntu18.04.1} date Čt 24. ledna 2019, 16:52:45 CET
;FORMAT={-:-/ absolute / inch / decimal}
FMAT,2
INCH,TZ
T1C0.0157
T2C0.0315
T3C0.0354
T4C0.0394
T5C0.0472
T6C0.0512
T7C0.0701
%
G90
G05
T1
X4.205Y-3.675
X4.212Y-3.5
X4.2125Y-3.435
X4.27Y-3.895
X4.27Y-4.2363
X4.425Y-3.485
X4.425Y-4.3095
X4.425Y-4.3595
X4.47Y-3.895
X4.475Y-4.3095
X4.475Y-4.3595
X4.605Y-3.285
X4.63Y-4.3095
X4.63Y-4.3595
X4.67Y-3.895
X4.68Y-4.3095
X4.68Y-4.3595
X4.685Y-3.46
X4.7325Y-3.4225
X4.7325Y-3.535
X4.763Y-4.035
X4.765Y-4.395
X4.81Y-3.886
X4.81Y-4.1025
X4.818Y-3.392
X4.819Y-3.318
X4.833Y-3.771
X4.865Y-3.877
X4.87Y-3.356
X4.9856Y-3.7256
X4.99Y-3.535
X5.Y-3.905
X5.043Y-3.483
X5.045Y-4.1975
X5.059Y-3.724
X5.085Y-3.945
X5.104Y-4.174
X5.13Y-3.943
X5.14Y-4.39
X5.17Y-4.1597
X5.174Y-3.944
X5.176Y-3.606
X5.2044Y-3.7406
X5.205Y-3.865
X5.218Y-3.604
X5.225Y-3.9993
X5.2275Y-4.0625
X5.23Y-4.115
X5.23Y-4.1775
X5.245Y-4.265
X5.33Y-3.78
X5.368Y-3.85
X5.383Y-3.897
X5.407Y-4.035
X5.5844Y-3.976
X5.591Y-3.885
X5.87Y-3.61
X5.87Y-3.96
X5.875Y-4.068
X5.875Y-4.305
X5.92Y-3.61
X5.92Y-3.61
X5.92Y-3.753
X5.92Y-4.229
X6.145Y-4.335
X6.145Y-4.385
X6.145Y-4.435
X6.195Y-4.335
X6.195Y-4.385
X6.195Y-4.435
X6.22Y-3.385
X6.22Y-3.91
X6.27Y-3.385
X6.27Y-3.91
X6.32Y-3.385
X6.32Y-3.91
X6.37Y-3.385
X6.37Y-3.91
X6.62Y-3.21
X6.62Y-3.735
X6.62Y-4.26
X6.845Y-2.96
X6.845Y-3.485
X6.845Y-4.01
X6.895Y-2.96
X6.895Y-3.485
X6.895Y-4.01
X6.945Y-2.96
X6.945Y-3.485
X6.945Y-4.01
X6.995Y-2.96
X6.995Y-3.485
X6.995Y-4.01
X7.045Y-2.96
X7.045Y-3.485
X7.045Y-4.01
X7.19Y-3.07
X7.19Y-3.18
X7.19Y-3.3
X7.19Y-3.6
X7.19Y-3.71
X7.19Y-3.82
X7.19Y-4.12
X7.19Y-4.235
X7.19Y-4.35
X7.245Y-3.01
X7.245Y-3.11
X7.245Y-3.235
X7.245Y-3.36
X7.245Y-3.535
X7.245Y-3.66
X7.245Y-3.76
X7.245Y-3.885
X7.245Y-4.06
X7.245Y-4.16
X7.245Y-4.31
X7.245Y-4.41
X7.295Y-4.12
X7.295Y-4.235
X7.295Y-4.35
X7.31Y-3.07
X7.31Y-3.18
X7.31Y-3.3
X7.31Y-3.6
X7.31Y-3.71
X7.31Y-3.82
X7.37Y-3.01
X7.37Y-3.11
X7.37Y-3.235
X7.37Y-3.36
X7.37Y-3.535
X7.37Y-3.66
X7.37Y-3.76
X7.37Y-3.885
X7.37Y-4.06
X7.37Y-4.16
X7.37Y-4.31
X7.37Y-4.41
X7.42Y-3.07
X7.42Y-3.18
X7.42Y-3.3
X7.42Y-3.6
X7.42Y-3.71
X7.42Y-3.82
X7.42Y-4.12
X7.42Y-4.235
X7.42Y-4.35
T2
X4.48Y-3.7025
X4.6721Y-3.7025
T3
X4.93Y-3.235
X5.03Y-3.235
X4.8675Y-4.2275
X4.9675Y-4.2275
T4
X5.17Y-3.035
X5.17Y-3.135
X5.17Y-3.235
X4.37Y-3.035
X4.47Y-3.035
X4.57Y-3.035
X4.67Y-3.035
X4.77Y-3.035
X4.87Y-3.035
X4.97Y-3.035
X5.395Y-3.625
X5.395Y-3.725
X5.495Y-3.625
X5.495Y-3.725
T5
X4.Y-3.335
X4.Y-3.435
X4.Y-3.535
X4.Y-3.635
X6.295Y-3.0881
X6.295Y-3.285
X3.995Y-3.83
X3.995Y-3.93
X3.995Y-4.03
X5.34Y-4.34
X5.44Y-4.34
X5.54Y-4.34
X5.64Y-4.34
X5.74Y-4.34
X6.295Y-4.0897
X6.295Y-4.385
X6.295Y-3.61
X6.295Y-3.8069
T6
X7.72Y-4.085
X5.845Y-3.035
X7.72Y-3.335
X5.455Y-3.035
X7.72Y-3.71
T7
X5.4544Y-3.31
X5.4544Y-3.4439
X5.845Y-3.31
X5.845Y-3.4439
T0
M30
