G04 #@! TF.GenerationSoftware,KiCad,Pcbnew,5.0.2-bee76a0~70~ubuntu18.04.1*
G04 #@! TF.CreationDate,2019-01-24T16:52:24+01:00*
G04 #@! TF.ProjectId,MotorDriver,4d6f746f-7244-4726-9976-65722e6b6963,rev?*
G04 #@! TF.SameCoordinates,Original*
G04 #@! TF.FileFunction,Legend,Bot*
G04 #@! TF.FilePolarity,Positive*
%FSLAX46Y46*%
G04 Gerber Fmt 4.6, Leading zero omitted, Abs format (unit mm)*
G04 Created by KiCad (PCBNEW 5.0.2-bee76a0~70~ubuntu18.04.1) date Čt 24. ledna 2019, 16:52:24 CET*
%MOMM*%
%LPD*%
G01*
G04 APERTURE LIST*
%ADD10C,0.120000*%
%ADD11C,0.150000*%
G04 APERTURE END LIST*
D10*
G04 #@! TO.C,JP1*
X144433800Y-87448400D02*
G75*
G03X143733800Y-86748400I-700000J0D01*
G01*
X143133800Y-86748400D02*
G75*
G03X142433800Y-87448400I0J-700000D01*
G01*
X142433800Y-88848400D02*
G75*
G03X143133800Y-89548400I700000J0D01*
G01*
X143733800Y-89548400D02*
G75*
G03X144433800Y-88848400I0J700000D01*
G01*
X143133800Y-89548400D02*
X143733800Y-89548400D01*
X142433800Y-87448400D02*
X142433800Y-88848400D01*
X143733800Y-86748400D02*
X143133800Y-86748400D01*
X144433800Y-88848400D02*
X144433800Y-87448400D01*
G04 #@! TO.C,D2*
X108197000Y-87699000D02*
X108197000Y-86649000D01*
X108197000Y-86649000D02*
X106347000Y-86649000D01*
X108197000Y-89699000D02*
X108197000Y-88699000D01*
X108177000Y-89709000D02*
X105747000Y-89709000D01*
G04 #@! TO.C,C12*
X119335733Y-91501500D02*
X119678267Y-91501500D01*
X119335733Y-92521500D02*
X119678267Y-92521500D01*
G04 #@! TO.C,C13*
X127336733Y-97534000D02*
X127679267Y-97534000D01*
X127336733Y-98554000D02*
X127679267Y-98554000D01*
G04 #@! TO.C,C14*
X131489267Y-95629000D02*
X131146733Y-95629000D01*
X131489267Y-96649000D02*
X131146733Y-96649000D01*
G04 #@! TO.C,C15*
X127336733Y-96649000D02*
X127679267Y-96649000D01*
X127336733Y-95629000D02*
X127679267Y-95629000D01*
G04 #@! TO.C,C16*
X134448733Y-102046500D02*
X134791267Y-102046500D01*
X134448733Y-101026500D02*
X134791267Y-101026500D01*
G04 #@! TO.C,C17*
X113074267Y-92521500D02*
X112731733Y-92521500D01*
X113074267Y-91501500D02*
X112731733Y-91501500D01*
G04 #@! TO.C,C20*
X134448733Y-105598500D02*
X134791267Y-105598500D01*
X134448733Y-106618500D02*
X134791267Y-106618500D01*
G04 #@! TO.C,C21*
X134448733Y-105031000D02*
X134791267Y-105031000D01*
X134448733Y-104011000D02*
X134791267Y-104011000D01*
G04 #@! TO.C,C22*
X134448733Y-103570500D02*
X134791267Y-103570500D01*
X134448733Y-102550500D02*
X134791267Y-102550500D01*
G04 #@! TO.C,D1*
X110404800Y-112342800D02*
X110404800Y-104792800D01*
X106104800Y-112342800D02*
X106104800Y-104792800D01*
X110404800Y-112342800D02*
X106104800Y-112342800D01*
G04 #@! TO.C,D5*
X130749500Y-109356000D02*
X130749500Y-113656000D01*
X130749500Y-113656000D02*
X123199500Y-113656000D01*
X130749500Y-109356000D02*
X123199500Y-109356000D01*
G04 #@! TO.C,R24*
X137666000Y-106649733D02*
X137666000Y-106992267D01*
X138686000Y-106649733D02*
X138686000Y-106992267D01*
G04 #@! TO.C,R25*
X140206000Y-106649733D02*
X140206000Y-106992267D01*
X141226000Y-106649733D02*
X141226000Y-106992267D01*
G04 #@! TO.C,R26*
X143766000Y-106649733D02*
X143766000Y-106992267D01*
X142746000Y-106649733D02*
X142746000Y-106992267D01*
G04 #@! TO.C,JP1*
D11*
X144686180Y-87315066D02*
X145400466Y-87315066D01*
X145543323Y-87267447D01*
X145638561Y-87172209D01*
X145686180Y-87029352D01*
X145686180Y-86934114D01*
X145686180Y-87791257D02*
X144686180Y-87791257D01*
X144686180Y-88172209D01*
X144733800Y-88267447D01*
X144781419Y-88315066D01*
X144876657Y-88362685D01*
X145019514Y-88362685D01*
X145114752Y-88315066D01*
X145162371Y-88267447D01*
X145209990Y-88172209D01*
X145209990Y-87791257D01*
X145686180Y-89315066D02*
X145686180Y-88743638D01*
X145686180Y-89029352D02*
X144686180Y-89029352D01*
X144829038Y-88934114D01*
X144924276Y-88838876D01*
X144971895Y-88743638D01*
G04 #@! TO.C,D2*
X107985095Y-91101380D02*
X107985095Y-90101380D01*
X107747000Y-90101380D01*
X107604142Y-90149000D01*
X107508904Y-90244238D01*
X107461285Y-90339476D01*
X107413666Y-90529952D01*
X107413666Y-90672809D01*
X107461285Y-90863285D01*
X107508904Y-90958523D01*
X107604142Y-91053761D01*
X107747000Y-91101380D01*
X107985095Y-91101380D01*
X107032714Y-90196619D02*
X106985095Y-90149000D01*
X106889857Y-90101380D01*
X106651761Y-90101380D01*
X106556523Y-90149000D01*
X106508904Y-90196619D01*
X106461285Y-90291857D01*
X106461285Y-90387095D01*
X106508904Y-90529952D01*
X107080333Y-91101380D01*
X106461285Y-91101380D01*
G04 #@! TO.C,C12*
X120175257Y-90781142D02*
X120222876Y-90828761D01*
X120365733Y-90876380D01*
X120460971Y-90876380D01*
X120603828Y-90828761D01*
X120699066Y-90733523D01*
X120746685Y-90638285D01*
X120794304Y-90447809D01*
X120794304Y-90304952D01*
X120746685Y-90114476D01*
X120699066Y-90019238D01*
X120603828Y-89924000D01*
X120460971Y-89876380D01*
X120365733Y-89876380D01*
X120222876Y-89924000D01*
X120175257Y-89971619D01*
X119222876Y-90876380D02*
X119794304Y-90876380D01*
X119508590Y-90876380D02*
X119508590Y-89876380D01*
X119603828Y-90019238D01*
X119699066Y-90114476D01*
X119794304Y-90162095D01*
X118841923Y-89971619D02*
X118794304Y-89924000D01*
X118699066Y-89876380D01*
X118460971Y-89876380D01*
X118365733Y-89924000D01*
X118318114Y-89971619D01*
X118270495Y-90066857D01*
X118270495Y-90162095D01*
X118318114Y-90304952D01*
X118889542Y-90876380D01*
X118270495Y-90876380D01*
G04 #@! TO.C,C13*
X128150857Y-99831142D02*
X128198476Y-99878761D01*
X128341333Y-99926380D01*
X128436571Y-99926380D01*
X128579428Y-99878761D01*
X128674666Y-99783523D01*
X128722285Y-99688285D01*
X128769904Y-99497809D01*
X128769904Y-99354952D01*
X128722285Y-99164476D01*
X128674666Y-99069238D01*
X128579428Y-98974000D01*
X128436571Y-98926380D01*
X128341333Y-98926380D01*
X128198476Y-98974000D01*
X128150857Y-99021619D01*
X127198476Y-99926380D02*
X127769904Y-99926380D01*
X127484190Y-99926380D02*
X127484190Y-98926380D01*
X127579428Y-99069238D01*
X127674666Y-99164476D01*
X127769904Y-99212095D01*
X126865142Y-98926380D02*
X126246095Y-98926380D01*
X126579428Y-99307333D01*
X126436571Y-99307333D01*
X126341333Y-99354952D01*
X126293714Y-99402571D01*
X126246095Y-99497809D01*
X126246095Y-99735904D01*
X126293714Y-99831142D01*
X126341333Y-99878761D01*
X126436571Y-99926380D01*
X126722285Y-99926380D01*
X126817523Y-99878761D01*
X126865142Y-99831142D01*
G04 #@! TO.C,C14*
X131960857Y-95226142D02*
X132008476Y-95273761D01*
X132151333Y-95321380D01*
X132246571Y-95321380D01*
X132389428Y-95273761D01*
X132484666Y-95178523D01*
X132532285Y-95083285D01*
X132579904Y-94892809D01*
X132579904Y-94749952D01*
X132532285Y-94559476D01*
X132484666Y-94464238D01*
X132389428Y-94369000D01*
X132246571Y-94321380D01*
X132151333Y-94321380D01*
X132008476Y-94369000D01*
X131960857Y-94416619D01*
X131008476Y-95321380D02*
X131579904Y-95321380D01*
X131294190Y-95321380D02*
X131294190Y-94321380D01*
X131389428Y-94464238D01*
X131484666Y-94559476D01*
X131579904Y-94607095D01*
X130151333Y-94654714D02*
X130151333Y-95321380D01*
X130389428Y-94273761D02*
X130627523Y-94988047D01*
X130008476Y-94988047D01*
G04 #@! TO.C,C15*
X128150857Y-95226142D02*
X128198476Y-95273761D01*
X128341333Y-95321380D01*
X128436571Y-95321380D01*
X128579428Y-95273761D01*
X128674666Y-95178523D01*
X128722285Y-95083285D01*
X128769904Y-94892809D01*
X128769904Y-94749952D01*
X128722285Y-94559476D01*
X128674666Y-94464238D01*
X128579428Y-94369000D01*
X128436571Y-94321380D01*
X128341333Y-94321380D01*
X128198476Y-94369000D01*
X128150857Y-94416619D01*
X127198476Y-95321380D02*
X127769904Y-95321380D01*
X127484190Y-95321380D02*
X127484190Y-94321380D01*
X127579428Y-94464238D01*
X127674666Y-94559476D01*
X127769904Y-94607095D01*
X126293714Y-94321380D02*
X126769904Y-94321380D01*
X126817523Y-94797571D01*
X126769904Y-94749952D01*
X126674666Y-94702333D01*
X126436571Y-94702333D01*
X126341333Y-94749952D01*
X126293714Y-94797571D01*
X126246095Y-94892809D01*
X126246095Y-95130904D01*
X126293714Y-95226142D01*
X126341333Y-95273761D01*
X126436571Y-95321380D01*
X126674666Y-95321380D01*
X126769904Y-95273761D01*
X126817523Y-95226142D01*
G04 #@! TO.C,C16*
X131960857Y-101957142D02*
X132008476Y-102004761D01*
X132151333Y-102052380D01*
X132246571Y-102052380D01*
X132389428Y-102004761D01*
X132484666Y-101909523D01*
X132532285Y-101814285D01*
X132579904Y-101623809D01*
X132579904Y-101480952D01*
X132532285Y-101290476D01*
X132484666Y-101195238D01*
X132389428Y-101100000D01*
X132246571Y-101052380D01*
X132151333Y-101052380D01*
X132008476Y-101100000D01*
X131960857Y-101147619D01*
X131008476Y-102052380D02*
X131579904Y-102052380D01*
X131294190Y-102052380D02*
X131294190Y-101052380D01*
X131389428Y-101195238D01*
X131484666Y-101290476D01*
X131579904Y-101338095D01*
X130151333Y-101052380D02*
X130341809Y-101052380D01*
X130437047Y-101100000D01*
X130484666Y-101147619D01*
X130579904Y-101290476D01*
X130627523Y-101480952D01*
X130627523Y-101861904D01*
X130579904Y-101957142D01*
X130532285Y-102004761D01*
X130437047Y-102052380D01*
X130246571Y-102052380D01*
X130151333Y-102004761D01*
X130103714Y-101957142D01*
X130056095Y-101861904D01*
X130056095Y-101623809D01*
X130103714Y-101528571D01*
X130151333Y-101480952D01*
X130246571Y-101433333D01*
X130437047Y-101433333D01*
X130532285Y-101480952D01*
X130579904Y-101528571D01*
X130627523Y-101623809D01*
G04 #@! TO.C,C17*
X113545857Y-90679542D02*
X113593476Y-90727161D01*
X113736333Y-90774780D01*
X113831571Y-90774780D01*
X113974428Y-90727161D01*
X114069666Y-90631923D01*
X114117285Y-90536685D01*
X114164904Y-90346209D01*
X114164904Y-90203352D01*
X114117285Y-90012876D01*
X114069666Y-89917638D01*
X113974428Y-89822400D01*
X113831571Y-89774780D01*
X113736333Y-89774780D01*
X113593476Y-89822400D01*
X113545857Y-89870019D01*
X112593476Y-90774780D02*
X113164904Y-90774780D01*
X112879190Y-90774780D02*
X112879190Y-89774780D01*
X112974428Y-89917638D01*
X113069666Y-90012876D01*
X113164904Y-90060495D01*
X112260142Y-89774780D02*
X111593476Y-89774780D01*
X112022047Y-90774780D01*
G04 #@! TO.C,C20*
X132151357Y-106465642D02*
X132198976Y-106513261D01*
X132341833Y-106560880D01*
X132437071Y-106560880D01*
X132579928Y-106513261D01*
X132675166Y-106418023D01*
X132722785Y-106322785D01*
X132770404Y-106132309D01*
X132770404Y-105989452D01*
X132722785Y-105798976D01*
X132675166Y-105703738D01*
X132579928Y-105608500D01*
X132437071Y-105560880D01*
X132341833Y-105560880D01*
X132198976Y-105608500D01*
X132151357Y-105656119D01*
X131770404Y-105656119D02*
X131722785Y-105608500D01*
X131627547Y-105560880D01*
X131389452Y-105560880D01*
X131294214Y-105608500D01*
X131246595Y-105656119D01*
X131198976Y-105751357D01*
X131198976Y-105846595D01*
X131246595Y-105989452D01*
X131818023Y-106560880D01*
X131198976Y-106560880D01*
X130579928Y-105560880D02*
X130484690Y-105560880D01*
X130389452Y-105608500D01*
X130341833Y-105656119D01*
X130294214Y-105751357D01*
X130246595Y-105941833D01*
X130246595Y-106179928D01*
X130294214Y-106370404D01*
X130341833Y-106465642D01*
X130389452Y-106513261D01*
X130484690Y-106560880D01*
X130579928Y-106560880D01*
X130675166Y-106513261D01*
X130722785Y-106465642D01*
X130770404Y-106370404D01*
X130818023Y-106179928D01*
X130818023Y-105941833D01*
X130770404Y-105751357D01*
X130722785Y-105656119D01*
X130675166Y-105608500D01*
X130579928Y-105560880D01*
G04 #@! TO.C,C21*
X132087857Y-104814642D02*
X132135476Y-104862261D01*
X132278333Y-104909880D01*
X132373571Y-104909880D01*
X132516428Y-104862261D01*
X132611666Y-104767023D01*
X132659285Y-104671785D01*
X132706904Y-104481309D01*
X132706904Y-104338452D01*
X132659285Y-104147976D01*
X132611666Y-104052738D01*
X132516428Y-103957500D01*
X132373571Y-103909880D01*
X132278333Y-103909880D01*
X132135476Y-103957500D01*
X132087857Y-104005119D01*
X131706904Y-104005119D02*
X131659285Y-103957500D01*
X131564047Y-103909880D01*
X131325952Y-103909880D01*
X131230714Y-103957500D01*
X131183095Y-104005119D01*
X131135476Y-104100357D01*
X131135476Y-104195595D01*
X131183095Y-104338452D01*
X131754523Y-104909880D01*
X131135476Y-104909880D01*
X130183095Y-104909880D02*
X130754523Y-104909880D01*
X130468809Y-104909880D02*
X130468809Y-103909880D01*
X130564047Y-104052738D01*
X130659285Y-104147976D01*
X130754523Y-104195595D01*
G04 #@! TO.C,C22*
X132024357Y-103417642D02*
X132071976Y-103465261D01*
X132214833Y-103512880D01*
X132310071Y-103512880D01*
X132452928Y-103465261D01*
X132548166Y-103370023D01*
X132595785Y-103274785D01*
X132643404Y-103084309D01*
X132643404Y-102941452D01*
X132595785Y-102750976D01*
X132548166Y-102655738D01*
X132452928Y-102560500D01*
X132310071Y-102512880D01*
X132214833Y-102512880D01*
X132071976Y-102560500D01*
X132024357Y-102608119D01*
X131643404Y-102608119D02*
X131595785Y-102560500D01*
X131500547Y-102512880D01*
X131262452Y-102512880D01*
X131167214Y-102560500D01*
X131119595Y-102608119D01*
X131071976Y-102703357D01*
X131071976Y-102798595D01*
X131119595Y-102941452D01*
X131691023Y-103512880D01*
X131071976Y-103512880D01*
X130691023Y-102608119D02*
X130643404Y-102560500D01*
X130548166Y-102512880D01*
X130310071Y-102512880D01*
X130214833Y-102560500D01*
X130167214Y-102608119D01*
X130119595Y-102703357D01*
X130119595Y-102798595D01*
X130167214Y-102941452D01*
X130738642Y-103512880D01*
X130119595Y-103512880D01*
G04 #@! TO.C,D1*
X111707180Y-106754704D02*
X110707180Y-106754704D01*
X110707180Y-106992800D01*
X110754800Y-107135657D01*
X110850038Y-107230895D01*
X110945276Y-107278514D01*
X111135752Y-107326133D01*
X111278609Y-107326133D01*
X111469085Y-107278514D01*
X111564323Y-107230895D01*
X111659561Y-107135657D01*
X111707180Y-106992800D01*
X111707180Y-106754704D01*
X111707180Y-108278514D02*
X111707180Y-107707085D01*
X111707180Y-107992800D02*
X110707180Y-107992800D01*
X110850038Y-107897561D01*
X110945276Y-107802323D01*
X110992895Y-107707085D01*
G04 #@! TO.C,D5*
X133072095Y-111958380D02*
X133072095Y-110958380D01*
X132834000Y-110958380D01*
X132691142Y-111006000D01*
X132595904Y-111101238D01*
X132548285Y-111196476D01*
X132500666Y-111386952D01*
X132500666Y-111529809D01*
X132548285Y-111720285D01*
X132595904Y-111815523D01*
X132691142Y-111910761D01*
X132834000Y-111958380D01*
X133072095Y-111958380D01*
X131595904Y-110958380D02*
X132072095Y-110958380D01*
X132119714Y-111434571D01*
X132072095Y-111386952D01*
X131976857Y-111339333D01*
X131738761Y-111339333D01*
X131643523Y-111386952D01*
X131595904Y-111434571D01*
X131548285Y-111529809D01*
X131548285Y-111767904D01*
X131595904Y-111863142D01*
X131643523Y-111910761D01*
X131738761Y-111958380D01*
X131976857Y-111958380D01*
X132072095Y-111910761D01*
X132119714Y-111863142D01*
G04 #@! TO.C,R24*
X138628380Y-102925642D02*
X138152190Y-102592309D01*
X138628380Y-102354214D02*
X137628380Y-102354214D01*
X137628380Y-102735166D01*
X137676000Y-102830404D01*
X137723619Y-102878023D01*
X137818857Y-102925642D01*
X137961714Y-102925642D01*
X138056952Y-102878023D01*
X138104571Y-102830404D01*
X138152190Y-102735166D01*
X138152190Y-102354214D01*
X137723619Y-103306595D02*
X137676000Y-103354214D01*
X137628380Y-103449452D01*
X137628380Y-103687547D01*
X137676000Y-103782785D01*
X137723619Y-103830404D01*
X137818857Y-103878023D01*
X137914095Y-103878023D01*
X138056952Y-103830404D01*
X138628380Y-103258976D01*
X138628380Y-103878023D01*
X137961714Y-104735166D02*
X138628380Y-104735166D01*
X137580761Y-104497071D02*
X138295047Y-104258976D01*
X138295047Y-104878023D01*
G04 #@! TO.C,R25*
X141168380Y-103017142D02*
X140692190Y-102683809D01*
X141168380Y-102445714D02*
X140168380Y-102445714D01*
X140168380Y-102826666D01*
X140216000Y-102921904D01*
X140263619Y-102969523D01*
X140358857Y-103017142D01*
X140501714Y-103017142D01*
X140596952Y-102969523D01*
X140644571Y-102921904D01*
X140692190Y-102826666D01*
X140692190Y-102445714D01*
X140263619Y-103398095D02*
X140216000Y-103445714D01*
X140168380Y-103540952D01*
X140168380Y-103779047D01*
X140216000Y-103874285D01*
X140263619Y-103921904D01*
X140358857Y-103969523D01*
X140454095Y-103969523D01*
X140596952Y-103921904D01*
X141168380Y-103350476D01*
X141168380Y-103969523D01*
X140168380Y-104874285D02*
X140168380Y-104398095D01*
X140644571Y-104350476D01*
X140596952Y-104398095D01*
X140549333Y-104493333D01*
X140549333Y-104731428D01*
X140596952Y-104826666D01*
X140644571Y-104874285D01*
X140739809Y-104921904D01*
X140977904Y-104921904D01*
X141073142Y-104874285D01*
X141120761Y-104826666D01*
X141168380Y-104731428D01*
X141168380Y-104493333D01*
X141120761Y-104398095D01*
X141073142Y-104350476D01*
G04 #@! TO.C,R26*
X143708380Y-103080642D02*
X143232190Y-102747309D01*
X143708380Y-102509214D02*
X142708380Y-102509214D01*
X142708380Y-102890166D01*
X142756000Y-102985404D01*
X142803619Y-103033023D01*
X142898857Y-103080642D01*
X143041714Y-103080642D01*
X143136952Y-103033023D01*
X143184571Y-102985404D01*
X143232190Y-102890166D01*
X143232190Y-102509214D01*
X142803619Y-103461595D02*
X142756000Y-103509214D01*
X142708380Y-103604452D01*
X142708380Y-103842547D01*
X142756000Y-103937785D01*
X142803619Y-103985404D01*
X142898857Y-104033023D01*
X142994095Y-104033023D01*
X143136952Y-103985404D01*
X143708380Y-103413976D01*
X143708380Y-104033023D01*
X142708380Y-104890166D02*
X142708380Y-104699690D01*
X142756000Y-104604452D01*
X142803619Y-104556833D01*
X142946476Y-104461595D01*
X143136952Y-104413976D01*
X143517904Y-104413976D01*
X143613142Y-104461595D01*
X143660761Y-104509214D01*
X143708380Y-104604452D01*
X143708380Y-104794928D01*
X143660761Y-104890166D01*
X143613142Y-104937785D01*
X143517904Y-104985404D01*
X143279809Y-104985404D01*
X143184571Y-104937785D01*
X143136952Y-104890166D01*
X143089333Y-104794928D01*
X143089333Y-104604452D01*
X143136952Y-104509214D01*
X143184571Y-104461595D01*
X143279809Y-104413976D01*
G04 #@! TD*
M02*
