M48
;DRILL file {KiCad 5.0.2-bee76a0~70~ubuntu18.04.1} date So 26. ledna 2019, 12:58:37 CET
;FORMAT={-:-/ absolute / inch / decimal}
FMAT,2
INCH,TZ
T1C0.0157
T2C0.0276
T3C0.0315
T4C0.0354
T5C0.0394
T6C0.0472
T7C0.0701
T8C0.0866
T9C0.1260
%
G90
G05
T1
X4.205Y-3.675
X4.212Y-3.5
X4.2125Y-3.435
X4.27Y-3.895
X4.27Y-4.2363
X4.425Y-3.485
X4.425Y-4.3095
X4.425Y-4.3595
X4.47Y-3.895
X4.475Y-4.3095
X4.475Y-4.3595
X4.613Y-3.257
X4.63Y-4.3095
X4.63Y-4.3595
X4.67Y-3.895
X4.68Y-4.3095
X4.68Y-4.3595
X4.685Y-3.46
X4.763Y-4.035
X4.765Y-4.395
X4.783Y-3.42
X4.784Y-3.535
X4.81Y-3.868
X4.81Y-4.1025
X4.819Y-3.318
X4.833Y-3.771
X4.841Y-3.383
X4.865Y-3.877
X4.8707Y-3.3535
X4.916Y-3.534
X4.9856Y-3.7256
X4.9867Y-3.611
X5.Y-3.905
X5.043Y-3.483
X5.066Y-3.713
X5.067Y-4.166
X5.085Y-3.945
X5.1081Y-4.1596
X5.13Y-3.943
X5.14Y-4.39
X5.174Y-3.944
X5.176Y-3.606
X5.187Y-4.1895
X5.205Y-3.865
X5.218Y-3.604
X5.222Y-4.16
X5.225Y-3.9993
X5.2275Y-4.0625
X5.23Y-4.115
X5.245Y-4.265
X5.2663Y-3.6403
X5.3282Y-3.8438
X5.33Y-3.763
X5.383Y-3.897
X5.422Y-4.035
X5.588Y-3.955
X5.591Y-3.885
X5.87Y-3.61
X5.87Y-3.96
X5.875Y-4.068
X5.875Y-4.305
X5.92Y-3.61
X5.92Y-3.61
X5.92Y-3.753
X5.92Y-4.204
X6.62Y-3.735
X6.625Y-3.21
X6.625Y-4.26
X5.78Y-3.035
X5.7991Y-2.9891
X5.7991Y-3.0809
X5.845Y-2.97
X5.845Y-3.1
X5.8909Y-2.9891
X5.8909Y-3.0809
X5.91Y-3.035
X7.655Y-4.085
X7.6741Y-4.0391
X7.6741Y-4.1309
X7.72Y-4.02
X7.72Y-4.15
X7.7659Y-4.0391
X7.7659Y-4.1309
X7.785Y-4.085
X7.655Y-3.71
X7.6741Y-3.6641
X7.6741Y-3.7559
X7.72Y-3.645
X7.72Y-3.775
X7.7659Y-3.6641
X7.7659Y-3.7559
X7.785Y-3.71
X7.655Y-3.335
X7.6741Y-3.2891
X7.6741Y-3.3809
X7.72Y-3.27
X7.72Y-3.4
X7.7659Y-3.2891
X7.7659Y-3.3809
X7.785Y-3.335
X5.39Y-3.035
X5.4091Y-2.9891
X5.4091Y-3.0809
X5.455Y-2.97
X5.455Y-3.1
X5.5009Y-2.9891
X5.5009Y-3.0809
X5.52Y-3.035
T2
X6.17Y-4.3
X6.17Y-4.35
X6.17Y-4.4
X6.17Y-4.45
X6.22Y-3.38
X6.22Y-3.9
X6.27Y-3.38
X6.27Y-3.9
X6.32Y-3.38
X6.32Y-3.9
X6.37Y-3.38
X6.37Y-3.9
X6.845Y-2.97
X6.845Y-3.495
X6.845Y-4.02
X6.895Y-2.97
X6.895Y-3.495
X6.895Y-4.02
X6.945Y-2.97
X6.945Y-3.495
X6.945Y-4.02
X6.995Y-2.97
X6.995Y-3.495
X6.995Y-4.02
X7.045Y-2.97
X7.045Y-3.495
X7.045Y-4.02
X7.15Y-3.
X7.15Y-3.075
X7.15Y-3.18
X7.15Y-3.275
X7.15Y-3.35
X7.15Y-3.55
X7.15Y-3.625
X7.15Y-3.71
X7.15Y-3.8
X7.15Y-3.875
X7.15Y-4.05
X7.15Y-4.125
X7.15Y-4.225
X7.15Y-4.325
X7.15Y-4.4
X7.225Y-3.
X7.225Y-3.075
X7.225Y-3.175
X7.225Y-3.275
X7.225Y-3.35
X7.225Y-3.55
X7.225Y-3.625
X7.225Y-3.71
X7.225Y-3.8
X7.225Y-3.875
X7.225Y-4.05
X7.225Y-4.125
X7.225Y-4.225
X7.225Y-4.325
X7.225Y-4.4
X7.3Y-3.
X7.3Y-3.075
X7.3Y-3.175
X7.3Y-3.275
X7.3Y-3.35
X7.3Y-3.55
X7.3Y-3.625
X7.3Y-3.71
X7.3Y-3.8
X7.3Y-3.875
X7.3Y-4.05
X7.3Y-4.125
X7.3Y-4.225
X7.3Y-4.325
X7.3Y-4.4
X7.375Y-3.
X7.375Y-3.075
X7.375Y-3.175
X7.375Y-3.275
X7.375Y-3.35
X7.375Y-3.55
X7.375Y-3.625
X7.375Y-3.71
X7.375Y-3.8
X7.375Y-3.875
X7.375Y-4.05
X7.375Y-4.125
X7.375Y-4.225
X7.375Y-4.325
X7.375Y-4.4
X7.45Y-3.
X7.45Y-3.075
X7.45Y-3.175
X7.45Y-3.275
X7.45Y-3.35
X7.45Y-3.55
X7.45Y-3.625
X7.45Y-3.71
X7.45Y-3.8
X7.45Y-3.875
X7.45Y-4.05
X7.45Y-4.125
X7.45Y-4.225
X7.45Y-4.325
X7.45Y-4.4
T3
X4.48Y-3.7025
X4.6721Y-3.7025
T4
X4.93Y-3.235
X5.03Y-3.235
X4.8675Y-4.2275
X4.9675Y-4.2275
T5
X4.37Y-3.035
X4.47Y-3.035
X4.57Y-3.035
X4.67Y-3.035
X4.77Y-3.035
X4.87Y-3.035
X4.97Y-3.035
X5.395Y-3.625
X5.395Y-3.725
X5.495Y-3.625
X5.495Y-3.725
X5.17Y-3.035
X5.17Y-3.135
X5.17Y-3.235
T6
X4.Y-3.335
X4.Y-3.435
X4.Y-3.535
X4.Y-3.635
X3.995Y-3.83
X3.995Y-3.93
X3.995Y-4.03
X6.295Y-3.61
X6.295Y-3.8069
X5.34Y-4.34
X5.44Y-4.34
X5.54Y-4.34
X5.64Y-4.34
X5.74Y-4.34
X6.295Y-4.0897
X6.295Y-4.385
X6.295Y-3.0881
X6.295Y-3.285
T7
X5.4544Y-3.31
X5.4544Y-3.4439
X5.845Y-3.31
X5.845Y-3.4439
T8
X5.845Y-3.035
X7.72Y-4.085
X7.72Y-3.71
X7.72Y-3.335
X5.455Y-3.035
T9
X7.97Y-4.31
X7.97Y-3.11
X4.02Y-4.31
X4.02Y-3.11
T0
M30
