G04 #@! TF.GenerationSoftware,KiCad,Pcbnew,5.0.2-bee76a0~70~ubuntu18.04.1*
G04 #@! TF.CreationDate,2019-01-26T12:58:11+01:00*
G04 #@! TF.ProjectId,MotorDriver,4d6f746f-7244-4726-9976-65722e6b6963,rev?*
G04 #@! TF.SameCoordinates,Original*
G04 #@! TF.FileFunction,Copper,L1,Top*
G04 #@! TF.FilePolarity,Positive*
%FSLAX46Y46*%
G04 Gerber Fmt 4.6, Leading zero omitted, Abs format (unit mm)*
G04 Created by KiCad (PCBNEW 5.0.2-bee76a0~70~ubuntu18.04.1) date So 26. ledna 2019, 12:58:11 CET*
%MOMM*%
%LPD*%
G01*
G04 APERTURE LIST*
G04 #@! TA.AperFunction,SMDPad,CuDef*
%ADD10R,4.600000X0.800000*%
G04 #@! TD*
G04 #@! TA.AperFunction,SMDPad,CuDef*
%ADD11R,9.400000X10.800000*%
G04 #@! TD*
G04 #@! TA.AperFunction,Conductor*
%ADD12C,0.100000*%
G04 #@! TD*
G04 #@! TA.AperFunction,ComponentPad*
%ADD13C,1.740000*%
G04 #@! TD*
G04 #@! TA.AperFunction,ComponentPad*
%ADD14O,1.740000X2.200000*%
G04 #@! TD*
G04 #@! TA.AperFunction,SMDPad,CuDef*
%ADD15R,1.550000X0.600000*%
G04 #@! TD*
G04 #@! TA.AperFunction,ComponentPad*
%ADD16C,2.780000*%
G04 #@! TD*
G04 #@! TA.AperFunction,SMDPad,CuDef*
%ADD17C,0.850000*%
G04 #@! TD*
G04 #@! TA.AperFunction,SMDPad,CuDef*
%ADD18R,1.000000X1.500000*%
G04 #@! TD*
G04 #@! TA.AperFunction,SMDPad,CuDef*
%ADD19R,1.000000X1.800000*%
G04 #@! TD*
G04 #@! TA.AperFunction,SMDPad,CuDef*
%ADD20R,2.200000X1.840000*%
G04 #@! TD*
G04 #@! TA.AperFunction,SMDPad,CuDef*
%ADD21C,1.000000*%
G04 #@! TD*
G04 #@! TA.AperFunction,SMDPad,CuDef*
%ADD22R,0.250000X1.300000*%
G04 #@! TD*
G04 #@! TA.AperFunction,SMDPad,CuDef*
%ADD23R,1.300000X0.250000*%
G04 #@! TD*
G04 #@! TA.AperFunction,ComponentPad*
%ADD24C,1.500000*%
G04 #@! TD*
G04 #@! TA.AperFunction,SMDPad,CuDef*
%ADD25C,0.950000*%
G04 #@! TD*
G04 #@! TA.AperFunction,SMDPad,CuDef*
%ADD26C,1.600000*%
G04 #@! TD*
G04 #@! TA.AperFunction,ComponentPad*
%ADD27R,1.700000X1.700000*%
G04 #@! TD*
G04 #@! TA.AperFunction,ComponentPad*
%ADD28O,1.700000X1.700000*%
G04 #@! TD*
G04 #@! TA.AperFunction,ComponentPad*
%ADD29R,2.400000X2.400000*%
G04 #@! TD*
G04 #@! TA.AperFunction,ComponentPad*
%ADD30C,2.400000*%
G04 #@! TD*
G04 #@! TA.AperFunction,ComponentPad*
%ADD31O,2.200000X1.740000*%
G04 #@! TD*
G04 #@! TA.AperFunction,ComponentPad*
%ADD32C,1.800000*%
G04 #@! TD*
G04 #@! TA.AperFunction,ComponentPad*
%ADD33R,1.800000X1.800000*%
G04 #@! TD*
G04 #@! TA.AperFunction,ComponentPad*
%ADD34C,4.400000*%
G04 #@! TD*
G04 #@! TA.AperFunction,ComponentPad*
%ADD35C,0.700000*%
G04 #@! TD*
G04 #@! TA.AperFunction,ComponentPad*
%ADD36C,6.400000*%
G04 #@! TD*
G04 #@! TA.AperFunction,ViaPad*
%ADD37C,0.800000*%
G04 #@! TD*
G04 #@! TA.AperFunction,ViaPad*
%ADD38C,1.000000*%
G04 #@! TD*
G04 #@! TA.AperFunction,Conductor*
%ADD39C,0.300000*%
G04 #@! TD*
G04 #@! TA.AperFunction,Conductor*
%ADD40C,0.500000*%
G04 #@! TD*
G04 #@! TA.AperFunction,Conductor*
%ADD41C,0.250000*%
G04 #@! TD*
G04 #@! TA.AperFunction,Conductor*
%ADD42C,0.800000*%
G04 #@! TD*
G04 #@! TA.AperFunction,Conductor*
%ADD43C,0.254000*%
G04 #@! TD*
G04 APERTURE END LIST*
D10*
G04 #@! TO.P,Q4,1*
G04 #@! TO.N,GNDPWR*
X176270000Y-76962000D03*
G04 #@! TO.P,Q4,2*
G04 #@! TO.N,Net-(Q4-Pad2)*
X176270000Y-78232000D03*
G04 #@! TO.P,Q4,3*
G04 #@! TO.N,Net-(Q4-Pad3)*
X176270000Y-79502000D03*
G04 #@! TO.P,Q4,4*
G04 #@! TO.N,/H m\016Fstky/OUT_C*
X176270000Y-80772000D03*
G04 #@! TO.P,Q4,5*
G04 #@! TO.N,Net-(C6-Pad1)*
X176270000Y-82042000D03*
G04 #@! TO.P,Q4,6*
G04 #@! TO.N,/H m\016Fstky/I_SENSE*
X176270000Y-83312000D03*
G04 #@! TO.P,Q4,7*
G04 #@! TO.N,+36V*
X176270000Y-84582000D03*
D11*
G04 #@! TO.P,Q4,8*
G04 #@! TO.N,/H m\016Fstky/OUT_C*
X185420000Y-80772000D03*
G04 #@! TD*
D12*
G04 #@! TO.N,GNDS*
G04 #@! TO.C,J7*
G36*
X146440505Y-109137204D02*
X146464773Y-109140804D01*
X146488572Y-109146765D01*
X146511671Y-109155030D01*
X146533850Y-109165520D01*
X146554893Y-109178132D01*
X146574599Y-109192747D01*
X146592777Y-109209223D01*
X146609253Y-109227401D01*
X146623868Y-109247107D01*
X146636480Y-109268150D01*
X146646970Y-109290329D01*
X146655235Y-109313428D01*
X146661196Y-109337227D01*
X146664796Y-109361495D01*
X146666000Y-109385999D01*
X146666000Y-111086001D01*
X146664796Y-111110505D01*
X146661196Y-111134773D01*
X146655235Y-111158572D01*
X146646970Y-111181671D01*
X146636480Y-111203850D01*
X146623868Y-111224893D01*
X146609253Y-111244599D01*
X146592777Y-111262777D01*
X146574599Y-111279253D01*
X146554893Y-111293868D01*
X146533850Y-111306480D01*
X146511671Y-111316970D01*
X146488572Y-111325235D01*
X146464773Y-111331196D01*
X146440505Y-111334796D01*
X146416001Y-111336000D01*
X145175999Y-111336000D01*
X145151495Y-111334796D01*
X145127227Y-111331196D01*
X145103428Y-111325235D01*
X145080329Y-111316970D01*
X145058150Y-111306480D01*
X145037107Y-111293868D01*
X145017401Y-111279253D01*
X144999223Y-111262777D01*
X144982747Y-111244599D01*
X144968132Y-111224893D01*
X144955520Y-111203850D01*
X144945030Y-111181671D01*
X144936765Y-111158572D01*
X144930804Y-111134773D01*
X144927204Y-111110505D01*
X144926000Y-111086001D01*
X144926000Y-109385999D01*
X144927204Y-109361495D01*
X144930804Y-109337227D01*
X144936765Y-109313428D01*
X144945030Y-109290329D01*
X144955520Y-109268150D01*
X144968132Y-109247107D01*
X144982747Y-109227401D01*
X144999223Y-109209223D01*
X145017401Y-109192747D01*
X145037107Y-109178132D01*
X145058150Y-109165520D01*
X145080329Y-109155030D01*
X145103428Y-109146765D01*
X145127227Y-109140804D01*
X145151495Y-109137204D01*
X145175999Y-109136000D01*
X146416001Y-109136000D01*
X146440505Y-109137204D01*
X146440505Y-109137204D01*
G37*
D13*
G04 #@! TD*
G04 #@! TO.P,J7,1*
G04 #@! TO.N,GNDS*
X145796000Y-110236000D03*
D14*
G04 #@! TO.P,J7,2*
G04 #@! TO.N,Net-(J7-Pad2)*
X143256000Y-110236000D03*
G04 #@! TO.P,J7,3*
G04 #@! TO.N,Net-(J7-Pad3)*
X140716000Y-110236000D03*
G04 #@! TO.P,J7,4*
G04 #@! TO.N,Net-(J7-Pad4)*
X138176000Y-110236000D03*
G04 #@! TO.P,J7,5*
G04 #@! TO.N,Net-(C23-Pad1)*
X135636000Y-110236000D03*
G04 #@! TD*
D15*
G04 #@! TO.P,U4,1*
G04 #@! TO.N,Net-(R1-Pad1)*
X113698000Y-89789000D03*
G04 #@! TO.P,U4,2*
G04 #@! TO.N,GNDS*
X113698000Y-88519000D03*
G04 #@! TO.P,U4,3*
G04 #@! TO.N,+5V*
X113698000Y-87249000D03*
G04 #@! TO.P,U4,4*
G04 #@! TO.N,Net-(R2-Pad1)*
X113698000Y-85979000D03*
G04 #@! TO.P,U4,5*
G04 #@! TO.N,N/C*
X108298000Y-85979000D03*
G04 #@! TO.P,U4,6*
G04 #@! TO.N,Net-(D2-Pad2)*
X108298000Y-87249000D03*
G04 #@! TO.P,U4,7*
G04 #@! TO.N,Net-(D2-Pad1)*
X108298000Y-88519000D03*
G04 #@! TO.P,U4,8*
G04 #@! TO.N,Net-(R13-Pad1)*
X108298000Y-89789000D03*
G04 #@! TD*
D16*
G04 #@! TO.P,F1,1*
G04 #@! TO.N,+BATT*
X138543000Y-84074000D03*
X138543000Y-87474000D03*
G04 #@! TO.P,F1,2*
G04 #@! TO.N,+36V*
X148463000Y-84074000D03*
X148463000Y-87474000D03*
G04 #@! TD*
D11*
G04 #@! TO.P,Q2,8*
G04 #@! TO.N,/H m\016Fstky/OUT_A*
X185408000Y-107569000D03*
D10*
G04 #@! TO.P,Q2,7*
G04 #@! TO.N,+36V*
X176258000Y-111379000D03*
G04 #@! TO.P,Q2,6*
G04 #@! TO.N,/H m\016Fstky/I_SENSE*
X176258000Y-110109000D03*
G04 #@! TO.P,Q2,5*
G04 #@! TO.N,Net-(C8-Pad1)*
X176258000Y-108839000D03*
G04 #@! TO.P,Q2,4*
G04 #@! TO.N,/H m\016Fstky/OUT_A*
X176258000Y-107569000D03*
G04 #@! TO.P,Q2,3*
G04 #@! TO.N,Net-(Q2-Pad3)*
X176258000Y-106299000D03*
G04 #@! TO.P,Q2,2*
G04 #@! TO.N,Net-(Q2-Pad2)*
X176258000Y-105029000D03*
G04 #@! TO.P,Q2,1*
G04 #@! TO.N,GNDPWR*
X176258000Y-103759000D03*
G04 #@! TD*
G04 #@! TO.P,Q3,1*
G04 #@! TO.N,GNDPWR*
X176270000Y-90424000D03*
G04 #@! TO.P,Q3,2*
G04 #@! TO.N,Net-(Q3-Pad2)*
X176270000Y-91694000D03*
G04 #@! TO.P,Q3,3*
G04 #@! TO.N,Net-(Q3-Pad3)*
X176270000Y-92964000D03*
G04 #@! TO.P,Q3,4*
G04 #@! TO.N,/H m\016Fstky/OUT_B*
X176270000Y-94234000D03*
G04 #@! TO.P,Q3,5*
G04 #@! TO.N,Net-(C7-Pad1)*
X176270000Y-95504000D03*
G04 #@! TO.P,Q3,6*
G04 #@! TO.N,/H m\016Fstky/I_SENSE*
X176270000Y-96774000D03*
G04 #@! TO.P,Q3,7*
G04 #@! TO.N,+36V*
X176270000Y-98044000D03*
D11*
G04 #@! TO.P,Q3,8*
G04 #@! TO.N,/H m\016Fstky/OUT_B*
X185420000Y-94234000D03*
G04 #@! TD*
D17*
G04 #@! TO.P,U1,2*
G04 #@! TO.N,GNDS*
X112903000Y-111569500D03*
D12*
G04 #@! TD*
G04 #@! TO.N,GNDS*
G04 #@! TO.C,U1*
G36*
X114003000Y-111144500D02*
X113403000Y-111994500D01*
X112403000Y-111994500D01*
X111803000Y-111144500D01*
X114003000Y-111144500D01*
X114003000Y-111144500D01*
G37*
D18*
G04 #@! TO.P,U1,1*
G04 #@! TO.N,+5V*
X114403000Y-107422500D03*
D19*
G04 #@! TO.P,U1,2*
G04 #@! TO.N,GNDS*
X112903000Y-107569000D03*
D18*
G04 #@! TO.P,U1,3*
G04 #@! TO.N,/power/pwrs_in*
X111403000Y-107422500D03*
D20*
G04 #@! TO.P,U1,2*
G04 #@! TO.N,GNDS*
X112903000Y-110236000D03*
D21*
X112903000Y-108826300D03*
D12*
G04 #@! TD*
G04 #@! TO.N,GNDS*
G04 #@! TO.C,U1*
G36*
X111803000Y-109326300D02*
X112503000Y-108326300D01*
X113303000Y-108326300D01*
X114003000Y-109326300D01*
X111803000Y-109326300D01*
X111803000Y-109326300D01*
G37*
D21*
G04 #@! TO.P,U2,2*
G04 #@! TO.N,GNDS*
X118237000Y-108826300D03*
D12*
G04 #@! TD*
G04 #@! TO.N,GNDS*
G04 #@! TO.C,U2*
G36*
X117137000Y-109326300D02*
X117837000Y-108326300D01*
X118637000Y-108326300D01*
X119337000Y-109326300D01*
X117137000Y-109326300D01*
X117137000Y-109326300D01*
G37*
D20*
G04 #@! TO.P,U2,2*
G04 #@! TO.N,GNDS*
X118237000Y-110236000D03*
D18*
G04 #@! TO.P,U2,3*
G04 #@! TO.N,+5V*
X116737000Y-107422500D03*
D19*
G04 #@! TO.P,U2,2*
G04 #@! TO.N,GNDS*
X118237000Y-107569000D03*
D18*
G04 #@! TO.P,U2,1*
G04 #@! TO.N,+3V3*
X119737000Y-107422500D03*
D17*
G04 #@! TO.P,U2,2*
G04 #@! TO.N,GNDS*
X118237000Y-111569500D03*
D12*
G04 #@! TD*
G04 #@! TO.N,GNDS*
G04 #@! TO.C,U2*
G36*
X119337000Y-111144500D02*
X118737000Y-111994500D01*
X117737000Y-111994500D01*
X117137000Y-111144500D01*
X119337000Y-111144500D01*
X119337000Y-111144500D01*
G37*
D22*
G04 #@! TO.P,U3,48*
G04 #@! TO.N,+3V3*
X126663000Y-93059000D03*
G04 #@! TO.P,U3,47*
G04 #@! TO.N,GNDS*
X127163000Y-93059000D03*
G04 #@! TO.P,U3,46*
G04 #@! TO.N,/interface/CANtx*
X127663000Y-93059000D03*
G04 #@! TO.P,U3,45*
G04 #@! TO.N,/interface/CANrx*
X128163000Y-93059000D03*
G04 #@! TO.P,U3,44*
G04 #@! TO.N,GNDS*
X128663000Y-93059000D03*
G04 #@! TO.P,U3,43*
G04 #@! TO.N,/procesorov\00E1 jednotka/USART_RX*
X129163000Y-93059000D03*
G04 #@! TO.P,U3,42*
G04 #@! TO.N,/procesorov\00E1 jednotka/USART_TX*
X129663000Y-93059000D03*
G04 #@! TO.P,U3,41*
G04 #@! TO.N,/procesorov\00E1 jednotka/CONF_2*
X130163000Y-93059000D03*
G04 #@! TO.P,U3,40*
G04 #@! TO.N,/procesorov\00E1 jednotka/CONF_1*
X130663000Y-93059000D03*
G04 #@! TO.P,U3,39*
G04 #@! TO.N,/procesorov\00E1 jednotka/SYS_TRA*
X131163000Y-93059000D03*
G04 #@! TO.P,U3,38*
G04 #@! TO.N,N/C*
X131663000Y-93059000D03*
G04 #@! TO.P,U3,37*
G04 #@! TO.N,/procesorov\00E1 jednotka/SYS_SWC*
X132163000Y-93059000D03*
D23*
G04 #@! TO.P,U3,36*
G04 #@! TO.N,+3V3*
X133763000Y-94659000D03*
G04 #@! TO.P,U3,35*
G04 #@! TO.N,GNDS*
X133763000Y-95159000D03*
G04 #@! TO.P,U3,34*
G04 #@! TO.N,/procesorov\00E1 jednotka/SYS_SWDIO*
X133763000Y-95659000D03*
G04 #@! TO.P,U3,33*
G04 #@! TO.N,N/C*
X133763000Y-96159000D03*
G04 #@! TO.P,U3,32*
X133763000Y-96659000D03*
G04 #@! TO.P,U3,31*
G04 #@! TO.N,/procesorov\00E1 jednotka/INH_C*
X133763000Y-97159000D03*
G04 #@! TO.P,U3,30*
G04 #@! TO.N,/H m\016Fstky/INH_B*
X133763000Y-97659000D03*
G04 #@! TO.P,U3,29*
G04 #@! TO.N,/H m\016Fstky/INH_A*
X133763000Y-98159000D03*
G04 #@! TO.P,U3,28*
G04 #@! TO.N,/H m\016Fstky/INH_C*
X133763000Y-98659000D03*
G04 #@! TO.P,U3,27*
G04 #@! TO.N,/H m\016Fstky/IN_B*
X133763000Y-99159000D03*
G04 #@! TO.P,U3,26*
G04 #@! TO.N,/H m\016Fstky/IN_A*
X133763000Y-99659000D03*
G04 #@! TO.P,U3,25*
G04 #@! TO.N,N/C*
X133763000Y-100159000D03*
D22*
G04 #@! TO.P,U3,24*
G04 #@! TO.N,+3V3*
X132163000Y-101759000D03*
G04 #@! TO.P,U3,23*
G04 #@! TO.N,GNDS*
X131663000Y-101759000D03*
G04 #@! TO.P,U3,22*
G04 #@! TO.N,N/C*
X131163000Y-101759000D03*
G04 #@! TO.P,U3,21*
X130663000Y-101759000D03*
G04 #@! TO.P,U3,20*
X130163000Y-101759000D03*
G04 #@! TO.P,U3,19*
G04 #@! TO.N,/H m\016Fstky/I_SENSE*
X129663000Y-101759000D03*
G04 #@! TO.P,U3,18*
G04 #@! TO.N,/power/PWR_SENSE*
X129163000Y-101759000D03*
G04 #@! TO.P,U3,17*
G04 #@! TO.N,N/C*
X128663000Y-101759000D03*
G04 #@! TO.P,U3,16*
X128163000Y-101759000D03*
G04 #@! TO.P,U3,15*
X127663000Y-101759000D03*
G04 #@! TO.P,U3,14*
X127163000Y-101759000D03*
G04 #@! TO.P,U3,13*
X126663000Y-101759000D03*
D23*
G04 #@! TO.P,U3,12*
G04 #@! TO.N,/procesorov\00E1 jednotka/HAL_C*
X125063000Y-100159000D03*
G04 #@! TO.P,U3,11*
G04 #@! TO.N,/procesorov\00E1 jednotka/HAL_B*
X125063000Y-99659000D03*
G04 #@! TO.P,U3,10*
G04 #@! TO.N,/procesorov\00E1 jednotka/HAL_A*
X125063000Y-99159000D03*
G04 #@! TO.P,U3,9*
G04 #@! TO.N,+3V3*
X125063000Y-98659000D03*
G04 #@! TO.P,U3,8*
G04 #@! TO.N,GNDS*
X125063000Y-98159000D03*
G04 #@! TO.P,U3,7*
G04 #@! TO.N,/procesorov\00E1 jednotka/SYS_NRST*
X125063000Y-97659000D03*
G04 #@! TO.P,U3,6*
G04 #@! TO.N,Net-(R18-Pad1)*
X125063000Y-97159000D03*
G04 #@! TO.P,U3,5*
G04 #@! TO.N,Net-(C12-Pad1)*
X125063000Y-96659000D03*
G04 #@! TO.P,U3,4*
G04 #@! TO.N,N/C*
X125063000Y-96159000D03*
G04 #@! TO.P,U3,3*
G04 #@! TO.N,LED_2*
X125063000Y-95659000D03*
G04 #@! TO.P,U3,2*
G04 #@! TO.N,LED_1*
X125063000Y-95159000D03*
G04 #@! TO.P,U3,1*
G04 #@! TO.N,+3V3*
X125063000Y-94659000D03*
G04 #@! TD*
D24*
G04 #@! TO.P,Y1,1*
G04 #@! TO.N,Net-(C12-Pad1)*
X118672000Y-94043500D03*
G04 #@! TO.P,Y1,2*
G04 #@! TO.N,Net-(C17-Pad1)*
X113792000Y-94043500D03*
G04 #@! TD*
D12*
G04 #@! TO.N,GNDS*
G04 #@! TO.C,C5*
G36*
X130308779Y-108886644D02*
X130331834Y-108890063D01*
X130354443Y-108895727D01*
X130376387Y-108903579D01*
X130397457Y-108913544D01*
X130417448Y-108925526D01*
X130436168Y-108939410D01*
X130453438Y-108955062D01*
X130469090Y-108972332D01*
X130482974Y-108991052D01*
X130494956Y-109011043D01*
X130504921Y-109032113D01*
X130512773Y-109054057D01*
X130518437Y-109076666D01*
X130521856Y-109099721D01*
X130523000Y-109123000D01*
X130523000Y-109698000D01*
X130521856Y-109721279D01*
X130518437Y-109744334D01*
X130512773Y-109766943D01*
X130504921Y-109788887D01*
X130494956Y-109809957D01*
X130482974Y-109829948D01*
X130469090Y-109848668D01*
X130453438Y-109865938D01*
X130436168Y-109881590D01*
X130417448Y-109895474D01*
X130397457Y-109907456D01*
X130376387Y-109917421D01*
X130354443Y-109925273D01*
X130331834Y-109930937D01*
X130308779Y-109934356D01*
X130285500Y-109935500D01*
X129810500Y-109935500D01*
X129787221Y-109934356D01*
X129764166Y-109930937D01*
X129741557Y-109925273D01*
X129719613Y-109917421D01*
X129698543Y-109907456D01*
X129678552Y-109895474D01*
X129659832Y-109881590D01*
X129642562Y-109865938D01*
X129626910Y-109848668D01*
X129613026Y-109829948D01*
X129601044Y-109809957D01*
X129591079Y-109788887D01*
X129583227Y-109766943D01*
X129577563Y-109744334D01*
X129574144Y-109721279D01*
X129573000Y-109698000D01*
X129573000Y-109123000D01*
X129574144Y-109099721D01*
X129577563Y-109076666D01*
X129583227Y-109054057D01*
X129591079Y-109032113D01*
X129601044Y-109011043D01*
X129613026Y-108991052D01*
X129626910Y-108972332D01*
X129642562Y-108955062D01*
X129659832Y-108939410D01*
X129678552Y-108925526D01*
X129698543Y-108913544D01*
X129719613Y-108903579D01*
X129741557Y-108895727D01*
X129764166Y-108890063D01*
X129787221Y-108886644D01*
X129810500Y-108885500D01*
X130285500Y-108885500D01*
X130308779Y-108886644D01*
X130308779Y-108886644D01*
G37*
D25*
G04 #@! TD*
G04 #@! TO.P,C5,2*
G04 #@! TO.N,GNDS*
X130048000Y-109410500D03*
D12*
G04 #@! TO.N,/H m\016Fstky/I_SENSE*
G04 #@! TO.C,C5*
G36*
X130308779Y-107136644D02*
X130331834Y-107140063D01*
X130354443Y-107145727D01*
X130376387Y-107153579D01*
X130397457Y-107163544D01*
X130417448Y-107175526D01*
X130436168Y-107189410D01*
X130453438Y-107205062D01*
X130469090Y-107222332D01*
X130482974Y-107241052D01*
X130494956Y-107261043D01*
X130504921Y-107282113D01*
X130512773Y-107304057D01*
X130518437Y-107326666D01*
X130521856Y-107349721D01*
X130523000Y-107373000D01*
X130523000Y-107948000D01*
X130521856Y-107971279D01*
X130518437Y-107994334D01*
X130512773Y-108016943D01*
X130504921Y-108038887D01*
X130494956Y-108059957D01*
X130482974Y-108079948D01*
X130469090Y-108098668D01*
X130453438Y-108115938D01*
X130436168Y-108131590D01*
X130417448Y-108145474D01*
X130397457Y-108157456D01*
X130376387Y-108167421D01*
X130354443Y-108175273D01*
X130331834Y-108180937D01*
X130308779Y-108184356D01*
X130285500Y-108185500D01*
X129810500Y-108185500D01*
X129787221Y-108184356D01*
X129764166Y-108180937D01*
X129741557Y-108175273D01*
X129719613Y-108167421D01*
X129698543Y-108157456D01*
X129678552Y-108145474D01*
X129659832Y-108131590D01*
X129642562Y-108115938D01*
X129626910Y-108098668D01*
X129613026Y-108079948D01*
X129601044Y-108059957D01*
X129591079Y-108038887D01*
X129583227Y-108016943D01*
X129577563Y-107994334D01*
X129574144Y-107971279D01*
X129573000Y-107948000D01*
X129573000Y-107373000D01*
X129574144Y-107349721D01*
X129577563Y-107326666D01*
X129583227Y-107304057D01*
X129591079Y-107282113D01*
X129601044Y-107261043D01*
X129613026Y-107241052D01*
X129626910Y-107222332D01*
X129642562Y-107205062D01*
X129659832Y-107189410D01*
X129678552Y-107175526D01*
X129698543Y-107163544D01*
X129719613Y-107153579D01*
X129741557Y-107145727D01*
X129764166Y-107140063D01*
X129787221Y-107136644D01*
X129810500Y-107135500D01*
X130285500Y-107135500D01*
X130308779Y-107136644D01*
X130308779Y-107136644D01*
G37*
D25*
G04 #@! TD*
G04 #@! TO.P,C5,1*
G04 #@! TO.N,/H m\016Fstky/I_SENSE*
X130048000Y-107660500D03*
D12*
G04 #@! TO.N,+5V*
G04 #@! TO.C,C11*
G36*
X116416779Y-87410144D02*
X116439834Y-87413563D01*
X116462443Y-87419227D01*
X116484387Y-87427079D01*
X116505457Y-87437044D01*
X116525448Y-87449026D01*
X116544168Y-87462910D01*
X116561438Y-87478562D01*
X116577090Y-87495832D01*
X116590974Y-87514552D01*
X116602956Y-87534543D01*
X116612921Y-87555613D01*
X116620773Y-87577557D01*
X116626437Y-87600166D01*
X116629856Y-87623221D01*
X116631000Y-87646500D01*
X116631000Y-88121500D01*
X116629856Y-88144779D01*
X116626437Y-88167834D01*
X116620773Y-88190443D01*
X116612921Y-88212387D01*
X116602956Y-88233457D01*
X116590974Y-88253448D01*
X116577090Y-88272168D01*
X116561438Y-88289438D01*
X116544168Y-88305090D01*
X116525448Y-88318974D01*
X116505457Y-88330956D01*
X116484387Y-88340921D01*
X116462443Y-88348773D01*
X116439834Y-88354437D01*
X116416779Y-88357856D01*
X116393500Y-88359000D01*
X115818500Y-88359000D01*
X115795221Y-88357856D01*
X115772166Y-88354437D01*
X115749557Y-88348773D01*
X115727613Y-88340921D01*
X115706543Y-88330956D01*
X115686552Y-88318974D01*
X115667832Y-88305090D01*
X115650562Y-88289438D01*
X115634910Y-88272168D01*
X115621026Y-88253448D01*
X115609044Y-88233457D01*
X115599079Y-88212387D01*
X115591227Y-88190443D01*
X115585563Y-88167834D01*
X115582144Y-88144779D01*
X115581000Y-88121500D01*
X115581000Y-87646500D01*
X115582144Y-87623221D01*
X115585563Y-87600166D01*
X115591227Y-87577557D01*
X115599079Y-87555613D01*
X115609044Y-87534543D01*
X115621026Y-87514552D01*
X115634910Y-87495832D01*
X115650562Y-87478562D01*
X115667832Y-87462910D01*
X115686552Y-87449026D01*
X115706543Y-87437044D01*
X115727613Y-87427079D01*
X115749557Y-87419227D01*
X115772166Y-87413563D01*
X115795221Y-87410144D01*
X115818500Y-87409000D01*
X116393500Y-87409000D01*
X116416779Y-87410144D01*
X116416779Y-87410144D01*
G37*
D25*
G04 #@! TD*
G04 #@! TO.P,C11,1*
G04 #@! TO.N,+5V*
X116106000Y-87884000D03*
D12*
G04 #@! TO.N,GNDS*
G04 #@! TO.C,C11*
G36*
X118166779Y-87410144D02*
X118189834Y-87413563D01*
X118212443Y-87419227D01*
X118234387Y-87427079D01*
X118255457Y-87437044D01*
X118275448Y-87449026D01*
X118294168Y-87462910D01*
X118311438Y-87478562D01*
X118327090Y-87495832D01*
X118340974Y-87514552D01*
X118352956Y-87534543D01*
X118362921Y-87555613D01*
X118370773Y-87577557D01*
X118376437Y-87600166D01*
X118379856Y-87623221D01*
X118381000Y-87646500D01*
X118381000Y-88121500D01*
X118379856Y-88144779D01*
X118376437Y-88167834D01*
X118370773Y-88190443D01*
X118362921Y-88212387D01*
X118352956Y-88233457D01*
X118340974Y-88253448D01*
X118327090Y-88272168D01*
X118311438Y-88289438D01*
X118294168Y-88305090D01*
X118275448Y-88318974D01*
X118255457Y-88330956D01*
X118234387Y-88340921D01*
X118212443Y-88348773D01*
X118189834Y-88354437D01*
X118166779Y-88357856D01*
X118143500Y-88359000D01*
X117568500Y-88359000D01*
X117545221Y-88357856D01*
X117522166Y-88354437D01*
X117499557Y-88348773D01*
X117477613Y-88340921D01*
X117456543Y-88330956D01*
X117436552Y-88318974D01*
X117417832Y-88305090D01*
X117400562Y-88289438D01*
X117384910Y-88272168D01*
X117371026Y-88253448D01*
X117359044Y-88233457D01*
X117349079Y-88212387D01*
X117341227Y-88190443D01*
X117335563Y-88167834D01*
X117332144Y-88144779D01*
X117331000Y-88121500D01*
X117331000Y-87646500D01*
X117332144Y-87623221D01*
X117335563Y-87600166D01*
X117341227Y-87577557D01*
X117349079Y-87555613D01*
X117359044Y-87534543D01*
X117371026Y-87514552D01*
X117384910Y-87495832D01*
X117400562Y-87478562D01*
X117417832Y-87462910D01*
X117436552Y-87449026D01*
X117456543Y-87437044D01*
X117477613Y-87427079D01*
X117499557Y-87419227D01*
X117522166Y-87413563D01*
X117545221Y-87410144D01*
X117568500Y-87409000D01*
X118143500Y-87409000D01*
X118166779Y-87410144D01*
X118166779Y-87410144D01*
G37*
D25*
G04 #@! TD*
G04 #@! TO.P,C11,2*
G04 #@! TO.N,GNDS*
X117856000Y-87884000D03*
D12*
G04 #@! TO.N,Net-(R1-Pad1)*
G04 #@! TO.C,R1*
G36*
X116402779Y-89315144D02*
X116425834Y-89318563D01*
X116448443Y-89324227D01*
X116470387Y-89332079D01*
X116491457Y-89342044D01*
X116511448Y-89354026D01*
X116530168Y-89367910D01*
X116547438Y-89383562D01*
X116563090Y-89400832D01*
X116576974Y-89419552D01*
X116588956Y-89439543D01*
X116598921Y-89460613D01*
X116606773Y-89482557D01*
X116612437Y-89505166D01*
X116615856Y-89528221D01*
X116617000Y-89551500D01*
X116617000Y-90026500D01*
X116615856Y-90049779D01*
X116612437Y-90072834D01*
X116606773Y-90095443D01*
X116598921Y-90117387D01*
X116588956Y-90138457D01*
X116576974Y-90158448D01*
X116563090Y-90177168D01*
X116547438Y-90194438D01*
X116530168Y-90210090D01*
X116511448Y-90223974D01*
X116491457Y-90235956D01*
X116470387Y-90245921D01*
X116448443Y-90253773D01*
X116425834Y-90259437D01*
X116402779Y-90262856D01*
X116379500Y-90264000D01*
X115804500Y-90264000D01*
X115781221Y-90262856D01*
X115758166Y-90259437D01*
X115735557Y-90253773D01*
X115713613Y-90245921D01*
X115692543Y-90235956D01*
X115672552Y-90223974D01*
X115653832Y-90210090D01*
X115636562Y-90194438D01*
X115620910Y-90177168D01*
X115607026Y-90158448D01*
X115595044Y-90138457D01*
X115585079Y-90117387D01*
X115577227Y-90095443D01*
X115571563Y-90072834D01*
X115568144Y-90049779D01*
X115567000Y-90026500D01*
X115567000Y-89551500D01*
X115568144Y-89528221D01*
X115571563Y-89505166D01*
X115577227Y-89482557D01*
X115585079Y-89460613D01*
X115595044Y-89439543D01*
X115607026Y-89419552D01*
X115620910Y-89400832D01*
X115636562Y-89383562D01*
X115653832Y-89367910D01*
X115672552Y-89354026D01*
X115692543Y-89342044D01*
X115713613Y-89332079D01*
X115735557Y-89324227D01*
X115758166Y-89318563D01*
X115781221Y-89315144D01*
X115804500Y-89314000D01*
X116379500Y-89314000D01*
X116402779Y-89315144D01*
X116402779Y-89315144D01*
G37*
D25*
G04 #@! TD*
G04 #@! TO.P,R1,1*
G04 #@! TO.N,Net-(R1-Pad1)*
X116092000Y-89789000D03*
D12*
G04 #@! TO.N,/interface/CANtx*
G04 #@! TO.C,R1*
G36*
X118152779Y-89315144D02*
X118175834Y-89318563D01*
X118198443Y-89324227D01*
X118220387Y-89332079D01*
X118241457Y-89342044D01*
X118261448Y-89354026D01*
X118280168Y-89367910D01*
X118297438Y-89383562D01*
X118313090Y-89400832D01*
X118326974Y-89419552D01*
X118338956Y-89439543D01*
X118348921Y-89460613D01*
X118356773Y-89482557D01*
X118362437Y-89505166D01*
X118365856Y-89528221D01*
X118367000Y-89551500D01*
X118367000Y-90026500D01*
X118365856Y-90049779D01*
X118362437Y-90072834D01*
X118356773Y-90095443D01*
X118348921Y-90117387D01*
X118338956Y-90138457D01*
X118326974Y-90158448D01*
X118313090Y-90177168D01*
X118297438Y-90194438D01*
X118280168Y-90210090D01*
X118261448Y-90223974D01*
X118241457Y-90235956D01*
X118220387Y-90245921D01*
X118198443Y-90253773D01*
X118175834Y-90259437D01*
X118152779Y-90262856D01*
X118129500Y-90264000D01*
X117554500Y-90264000D01*
X117531221Y-90262856D01*
X117508166Y-90259437D01*
X117485557Y-90253773D01*
X117463613Y-90245921D01*
X117442543Y-90235956D01*
X117422552Y-90223974D01*
X117403832Y-90210090D01*
X117386562Y-90194438D01*
X117370910Y-90177168D01*
X117357026Y-90158448D01*
X117345044Y-90138457D01*
X117335079Y-90117387D01*
X117327227Y-90095443D01*
X117321563Y-90072834D01*
X117318144Y-90049779D01*
X117317000Y-90026500D01*
X117317000Y-89551500D01*
X117318144Y-89528221D01*
X117321563Y-89505166D01*
X117327227Y-89482557D01*
X117335079Y-89460613D01*
X117345044Y-89439543D01*
X117357026Y-89419552D01*
X117370910Y-89400832D01*
X117386562Y-89383562D01*
X117403832Y-89367910D01*
X117422552Y-89354026D01*
X117442543Y-89342044D01*
X117463613Y-89332079D01*
X117485557Y-89324227D01*
X117508166Y-89318563D01*
X117531221Y-89315144D01*
X117554500Y-89314000D01*
X118129500Y-89314000D01*
X118152779Y-89315144D01*
X118152779Y-89315144D01*
G37*
D25*
G04 #@! TD*
G04 #@! TO.P,R1,2*
G04 #@! TO.N,/interface/CANtx*
X117842000Y-89789000D03*
D12*
G04 #@! TO.N,/interface/CANrx*
G04 #@! TO.C,R2*
G36*
X118138779Y-85505144D02*
X118161834Y-85508563D01*
X118184443Y-85514227D01*
X118206387Y-85522079D01*
X118227457Y-85532044D01*
X118247448Y-85544026D01*
X118266168Y-85557910D01*
X118283438Y-85573562D01*
X118299090Y-85590832D01*
X118312974Y-85609552D01*
X118324956Y-85629543D01*
X118334921Y-85650613D01*
X118342773Y-85672557D01*
X118348437Y-85695166D01*
X118351856Y-85718221D01*
X118353000Y-85741500D01*
X118353000Y-86216500D01*
X118351856Y-86239779D01*
X118348437Y-86262834D01*
X118342773Y-86285443D01*
X118334921Y-86307387D01*
X118324956Y-86328457D01*
X118312974Y-86348448D01*
X118299090Y-86367168D01*
X118283438Y-86384438D01*
X118266168Y-86400090D01*
X118247448Y-86413974D01*
X118227457Y-86425956D01*
X118206387Y-86435921D01*
X118184443Y-86443773D01*
X118161834Y-86449437D01*
X118138779Y-86452856D01*
X118115500Y-86454000D01*
X117540500Y-86454000D01*
X117517221Y-86452856D01*
X117494166Y-86449437D01*
X117471557Y-86443773D01*
X117449613Y-86435921D01*
X117428543Y-86425956D01*
X117408552Y-86413974D01*
X117389832Y-86400090D01*
X117372562Y-86384438D01*
X117356910Y-86367168D01*
X117343026Y-86348448D01*
X117331044Y-86328457D01*
X117321079Y-86307387D01*
X117313227Y-86285443D01*
X117307563Y-86262834D01*
X117304144Y-86239779D01*
X117303000Y-86216500D01*
X117303000Y-85741500D01*
X117304144Y-85718221D01*
X117307563Y-85695166D01*
X117313227Y-85672557D01*
X117321079Y-85650613D01*
X117331044Y-85629543D01*
X117343026Y-85609552D01*
X117356910Y-85590832D01*
X117372562Y-85573562D01*
X117389832Y-85557910D01*
X117408552Y-85544026D01*
X117428543Y-85532044D01*
X117449613Y-85522079D01*
X117471557Y-85514227D01*
X117494166Y-85508563D01*
X117517221Y-85505144D01*
X117540500Y-85504000D01*
X118115500Y-85504000D01*
X118138779Y-85505144D01*
X118138779Y-85505144D01*
G37*
D25*
G04 #@! TD*
G04 #@! TO.P,R2,2*
G04 #@! TO.N,/interface/CANrx*
X117828000Y-85979000D03*
D12*
G04 #@! TO.N,Net-(R2-Pad1)*
G04 #@! TO.C,R2*
G36*
X116388779Y-85505144D02*
X116411834Y-85508563D01*
X116434443Y-85514227D01*
X116456387Y-85522079D01*
X116477457Y-85532044D01*
X116497448Y-85544026D01*
X116516168Y-85557910D01*
X116533438Y-85573562D01*
X116549090Y-85590832D01*
X116562974Y-85609552D01*
X116574956Y-85629543D01*
X116584921Y-85650613D01*
X116592773Y-85672557D01*
X116598437Y-85695166D01*
X116601856Y-85718221D01*
X116603000Y-85741500D01*
X116603000Y-86216500D01*
X116601856Y-86239779D01*
X116598437Y-86262834D01*
X116592773Y-86285443D01*
X116584921Y-86307387D01*
X116574956Y-86328457D01*
X116562974Y-86348448D01*
X116549090Y-86367168D01*
X116533438Y-86384438D01*
X116516168Y-86400090D01*
X116497448Y-86413974D01*
X116477457Y-86425956D01*
X116456387Y-86435921D01*
X116434443Y-86443773D01*
X116411834Y-86449437D01*
X116388779Y-86452856D01*
X116365500Y-86454000D01*
X115790500Y-86454000D01*
X115767221Y-86452856D01*
X115744166Y-86449437D01*
X115721557Y-86443773D01*
X115699613Y-86435921D01*
X115678543Y-86425956D01*
X115658552Y-86413974D01*
X115639832Y-86400090D01*
X115622562Y-86384438D01*
X115606910Y-86367168D01*
X115593026Y-86348448D01*
X115581044Y-86328457D01*
X115571079Y-86307387D01*
X115563227Y-86285443D01*
X115557563Y-86262834D01*
X115554144Y-86239779D01*
X115553000Y-86216500D01*
X115553000Y-85741500D01*
X115554144Y-85718221D01*
X115557563Y-85695166D01*
X115563227Y-85672557D01*
X115571079Y-85650613D01*
X115581044Y-85629543D01*
X115593026Y-85609552D01*
X115606910Y-85590832D01*
X115622562Y-85573562D01*
X115639832Y-85557910D01*
X115658552Y-85544026D01*
X115678543Y-85532044D01*
X115699613Y-85522079D01*
X115721557Y-85514227D01*
X115744166Y-85508563D01*
X115767221Y-85505144D01*
X115790500Y-85504000D01*
X116365500Y-85504000D01*
X116388779Y-85505144D01*
X116388779Y-85505144D01*
G37*
D25*
G04 #@! TD*
G04 #@! TO.P,R2,1*
G04 #@! TO.N,Net-(R2-Pad1)*
X116078000Y-85979000D03*
D12*
G04 #@! TO.N,/H m\016Fstky/I_SENSE*
G04 #@! TO.C,R3*
G36*
X131896279Y-107136644D02*
X131919334Y-107140063D01*
X131941943Y-107145727D01*
X131963887Y-107153579D01*
X131984957Y-107163544D01*
X132004948Y-107175526D01*
X132023668Y-107189410D01*
X132040938Y-107205062D01*
X132056590Y-107222332D01*
X132070474Y-107241052D01*
X132082456Y-107261043D01*
X132092421Y-107282113D01*
X132100273Y-107304057D01*
X132105937Y-107326666D01*
X132109356Y-107349721D01*
X132110500Y-107373000D01*
X132110500Y-107948000D01*
X132109356Y-107971279D01*
X132105937Y-107994334D01*
X132100273Y-108016943D01*
X132092421Y-108038887D01*
X132082456Y-108059957D01*
X132070474Y-108079948D01*
X132056590Y-108098668D01*
X132040938Y-108115938D01*
X132023668Y-108131590D01*
X132004948Y-108145474D01*
X131984957Y-108157456D01*
X131963887Y-108167421D01*
X131941943Y-108175273D01*
X131919334Y-108180937D01*
X131896279Y-108184356D01*
X131873000Y-108185500D01*
X131398000Y-108185500D01*
X131374721Y-108184356D01*
X131351666Y-108180937D01*
X131329057Y-108175273D01*
X131307113Y-108167421D01*
X131286043Y-108157456D01*
X131266052Y-108145474D01*
X131247332Y-108131590D01*
X131230062Y-108115938D01*
X131214410Y-108098668D01*
X131200526Y-108079948D01*
X131188544Y-108059957D01*
X131178579Y-108038887D01*
X131170727Y-108016943D01*
X131165063Y-107994334D01*
X131161644Y-107971279D01*
X131160500Y-107948000D01*
X131160500Y-107373000D01*
X131161644Y-107349721D01*
X131165063Y-107326666D01*
X131170727Y-107304057D01*
X131178579Y-107282113D01*
X131188544Y-107261043D01*
X131200526Y-107241052D01*
X131214410Y-107222332D01*
X131230062Y-107205062D01*
X131247332Y-107189410D01*
X131266052Y-107175526D01*
X131286043Y-107163544D01*
X131307113Y-107153579D01*
X131329057Y-107145727D01*
X131351666Y-107140063D01*
X131374721Y-107136644D01*
X131398000Y-107135500D01*
X131873000Y-107135500D01*
X131896279Y-107136644D01*
X131896279Y-107136644D01*
G37*
D25*
G04 #@! TD*
G04 #@! TO.P,R3,1*
G04 #@! TO.N,/H m\016Fstky/I_SENSE*
X131635500Y-107660500D03*
D12*
G04 #@! TO.N,GNDS*
G04 #@! TO.C,R3*
G36*
X131896279Y-108886644D02*
X131919334Y-108890063D01*
X131941943Y-108895727D01*
X131963887Y-108903579D01*
X131984957Y-108913544D01*
X132004948Y-108925526D01*
X132023668Y-108939410D01*
X132040938Y-108955062D01*
X132056590Y-108972332D01*
X132070474Y-108991052D01*
X132082456Y-109011043D01*
X132092421Y-109032113D01*
X132100273Y-109054057D01*
X132105937Y-109076666D01*
X132109356Y-109099721D01*
X132110500Y-109123000D01*
X132110500Y-109698000D01*
X132109356Y-109721279D01*
X132105937Y-109744334D01*
X132100273Y-109766943D01*
X132092421Y-109788887D01*
X132082456Y-109809957D01*
X132070474Y-109829948D01*
X132056590Y-109848668D01*
X132040938Y-109865938D01*
X132023668Y-109881590D01*
X132004948Y-109895474D01*
X131984957Y-109907456D01*
X131963887Y-109917421D01*
X131941943Y-109925273D01*
X131919334Y-109930937D01*
X131896279Y-109934356D01*
X131873000Y-109935500D01*
X131398000Y-109935500D01*
X131374721Y-109934356D01*
X131351666Y-109930937D01*
X131329057Y-109925273D01*
X131307113Y-109917421D01*
X131286043Y-109907456D01*
X131266052Y-109895474D01*
X131247332Y-109881590D01*
X131230062Y-109865938D01*
X131214410Y-109848668D01*
X131200526Y-109829948D01*
X131188544Y-109809957D01*
X131178579Y-109788887D01*
X131170727Y-109766943D01*
X131165063Y-109744334D01*
X131161644Y-109721279D01*
X131160500Y-109698000D01*
X131160500Y-109123000D01*
X131161644Y-109099721D01*
X131165063Y-109076666D01*
X131170727Y-109054057D01*
X131178579Y-109032113D01*
X131188544Y-109011043D01*
X131200526Y-108991052D01*
X131214410Y-108972332D01*
X131230062Y-108955062D01*
X131247332Y-108939410D01*
X131266052Y-108925526D01*
X131286043Y-108913544D01*
X131307113Y-108903579D01*
X131329057Y-108895727D01*
X131351666Y-108890063D01*
X131374721Y-108886644D01*
X131398000Y-108885500D01*
X131873000Y-108885500D01*
X131896279Y-108886644D01*
X131896279Y-108886644D01*
G37*
D25*
G04 #@! TD*
G04 #@! TO.P,R3,2*
G04 #@! TO.N,GNDS*
X131635500Y-109410500D03*
D12*
G04 #@! TO.N,/H m\016Fstky/INH_A*
G04 #@! TO.C,R4*
G36*
X138768779Y-102015144D02*
X138791834Y-102018563D01*
X138814443Y-102024227D01*
X138836387Y-102032079D01*
X138857457Y-102042044D01*
X138877448Y-102054026D01*
X138896168Y-102067910D01*
X138913438Y-102083562D01*
X138929090Y-102100832D01*
X138942974Y-102119552D01*
X138954956Y-102139543D01*
X138964921Y-102160613D01*
X138972773Y-102182557D01*
X138978437Y-102205166D01*
X138981856Y-102228221D01*
X138983000Y-102251500D01*
X138983000Y-102726500D01*
X138981856Y-102749779D01*
X138978437Y-102772834D01*
X138972773Y-102795443D01*
X138964921Y-102817387D01*
X138954956Y-102838457D01*
X138942974Y-102858448D01*
X138929090Y-102877168D01*
X138913438Y-102894438D01*
X138896168Y-102910090D01*
X138877448Y-102923974D01*
X138857457Y-102935956D01*
X138836387Y-102945921D01*
X138814443Y-102953773D01*
X138791834Y-102959437D01*
X138768779Y-102962856D01*
X138745500Y-102964000D01*
X138170500Y-102964000D01*
X138147221Y-102962856D01*
X138124166Y-102959437D01*
X138101557Y-102953773D01*
X138079613Y-102945921D01*
X138058543Y-102935956D01*
X138038552Y-102923974D01*
X138019832Y-102910090D01*
X138002562Y-102894438D01*
X137986910Y-102877168D01*
X137973026Y-102858448D01*
X137961044Y-102838457D01*
X137951079Y-102817387D01*
X137943227Y-102795443D01*
X137937563Y-102772834D01*
X137934144Y-102749779D01*
X137933000Y-102726500D01*
X137933000Y-102251500D01*
X137934144Y-102228221D01*
X137937563Y-102205166D01*
X137943227Y-102182557D01*
X137951079Y-102160613D01*
X137961044Y-102139543D01*
X137973026Y-102119552D01*
X137986910Y-102100832D01*
X138002562Y-102083562D01*
X138019832Y-102067910D01*
X138038552Y-102054026D01*
X138058543Y-102042044D01*
X138079613Y-102032079D01*
X138101557Y-102024227D01*
X138124166Y-102018563D01*
X138147221Y-102015144D01*
X138170500Y-102014000D01*
X138745500Y-102014000D01*
X138768779Y-102015144D01*
X138768779Y-102015144D01*
G37*
D25*
G04 #@! TD*
G04 #@! TO.P,R4,2*
G04 #@! TO.N,/H m\016Fstky/INH_A*
X138458000Y-102489000D03*
D12*
G04 #@! TO.N,Net-(Q2-Pad3)*
G04 #@! TO.C,R4*
G36*
X140518779Y-102015144D02*
X140541834Y-102018563D01*
X140564443Y-102024227D01*
X140586387Y-102032079D01*
X140607457Y-102042044D01*
X140627448Y-102054026D01*
X140646168Y-102067910D01*
X140663438Y-102083562D01*
X140679090Y-102100832D01*
X140692974Y-102119552D01*
X140704956Y-102139543D01*
X140714921Y-102160613D01*
X140722773Y-102182557D01*
X140728437Y-102205166D01*
X140731856Y-102228221D01*
X140733000Y-102251500D01*
X140733000Y-102726500D01*
X140731856Y-102749779D01*
X140728437Y-102772834D01*
X140722773Y-102795443D01*
X140714921Y-102817387D01*
X140704956Y-102838457D01*
X140692974Y-102858448D01*
X140679090Y-102877168D01*
X140663438Y-102894438D01*
X140646168Y-102910090D01*
X140627448Y-102923974D01*
X140607457Y-102935956D01*
X140586387Y-102945921D01*
X140564443Y-102953773D01*
X140541834Y-102959437D01*
X140518779Y-102962856D01*
X140495500Y-102964000D01*
X139920500Y-102964000D01*
X139897221Y-102962856D01*
X139874166Y-102959437D01*
X139851557Y-102953773D01*
X139829613Y-102945921D01*
X139808543Y-102935956D01*
X139788552Y-102923974D01*
X139769832Y-102910090D01*
X139752562Y-102894438D01*
X139736910Y-102877168D01*
X139723026Y-102858448D01*
X139711044Y-102838457D01*
X139701079Y-102817387D01*
X139693227Y-102795443D01*
X139687563Y-102772834D01*
X139684144Y-102749779D01*
X139683000Y-102726500D01*
X139683000Y-102251500D01*
X139684144Y-102228221D01*
X139687563Y-102205166D01*
X139693227Y-102182557D01*
X139701079Y-102160613D01*
X139711044Y-102139543D01*
X139723026Y-102119552D01*
X139736910Y-102100832D01*
X139752562Y-102083562D01*
X139769832Y-102067910D01*
X139788552Y-102054026D01*
X139808543Y-102042044D01*
X139829613Y-102032079D01*
X139851557Y-102024227D01*
X139874166Y-102018563D01*
X139897221Y-102015144D01*
X139920500Y-102014000D01*
X140495500Y-102014000D01*
X140518779Y-102015144D01*
X140518779Y-102015144D01*
G37*
D25*
G04 #@! TD*
G04 #@! TO.P,R4,1*
G04 #@! TO.N,Net-(Q2-Pad3)*
X140208000Y-102489000D03*
D12*
G04 #@! TO.N,/H m\016Fstky/IN_A*
G04 #@! TO.C,R5*
G36*
X143199779Y-102015144D02*
X143222834Y-102018563D01*
X143245443Y-102024227D01*
X143267387Y-102032079D01*
X143288457Y-102042044D01*
X143308448Y-102054026D01*
X143327168Y-102067910D01*
X143344438Y-102083562D01*
X143360090Y-102100832D01*
X143373974Y-102119552D01*
X143385956Y-102139543D01*
X143395921Y-102160613D01*
X143403773Y-102182557D01*
X143409437Y-102205166D01*
X143412856Y-102228221D01*
X143414000Y-102251500D01*
X143414000Y-102726500D01*
X143412856Y-102749779D01*
X143409437Y-102772834D01*
X143403773Y-102795443D01*
X143395921Y-102817387D01*
X143385956Y-102838457D01*
X143373974Y-102858448D01*
X143360090Y-102877168D01*
X143344438Y-102894438D01*
X143327168Y-102910090D01*
X143308448Y-102923974D01*
X143288457Y-102935956D01*
X143267387Y-102945921D01*
X143245443Y-102953773D01*
X143222834Y-102959437D01*
X143199779Y-102962856D01*
X143176500Y-102964000D01*
X142601500Y-102964000D01*
X142578221Y-102962856D01*
X142555166Y-102959437D01*
X142532557Y-102953773D01*
X142510613Y-102945921D01*
X142489543Y-102935956D01*
X142469552Y-102923974D01*
X142450832Y-102910090D01*
X142433562Y-102894438D01*
X142417910Y-102877168D01*
X142404026Y-102858448D01*
X142392044Y-102838457D01*
X142382079Y-102817387D01*
X142374227Y-102795443D01*
X142368563Y-102772834D01*
X142365144Y-102749779D01*
X142364000Y-102726500D01*
X142364000Y-102251500D01*
X142365144Y-102228221D01*
X142368563Y-102205166D01*
X142374227Y-102182557D01*
X142382079Y-102160613D01*
X142392044Y-102139543D01*
X142404026Y-102119552D01*
X142417910Y-102100832D01*
X142433562Y-102083562D01*
X142450832Y-102067910D01*
X142469552Y-102054026D01*
X142489543Y-102042044D01*
X142510613Y-102032079D01*
X142532557Y-102024227D01*
X142555166Y-102018563D01*
X142578221Y-102015144D01*
X142601500Y-102014000D01*
X143176500Y-102014000D01*
X143199779Y-102015144D01*
X143199779Y-102015144D01*
G37*
D25*
G04 #@! TD*
G04 #@! TO.P,R5,1*
G04 #@! TO.N,/H m\016Fstky/IN_A*
X142889000Y-102489000D03*
D12*
G04 #@! TO.N,Net-(Q2-Pad2)*
G04 #@! TO.C,R5*
G36*
X144949779Y-102015144D02*
X144972834Y-102018563D01*
X144995443Y-102024227D01*
X145017387Y-102032079D01*
X145038457Y-102042044D01*
X145058448Y-102054026D01*
X145077168Y-102067910D01*
X145094438Y-102083562D01*
X145110090Y-102100832D01*
X145123974Y-102119552D01*
X145135956Y-102139543D01*
X145145921Y-102160613D01*
X145153773Y-102182557D01*
X145159437Y-102205166D01*
X145162856Y-102228221D01*
X145164000Y-102251500D01*
X145164000Y-102726500D01*
X145162856Y-102749779D01*
X145159437Y-102772834D01*
X145153773Y-102795443D01*
X145145921Y-102817387D01*
X145135956Y-102838457D01*
X145123974Y-102858448D01*
X145110090Y-102877168D01*
X145094438Y-102894438D01*
X145077168Y-102910090D01*
X145058448Y-102923974D01*
X145038457Y-102935956D01*
X145017387Y-102945921D01*
X144995443Y-102953773D01*
X144972834Y-102959437D01*
X144949779Y-102962856D01*
X144926500Y-102964000D01*
X144351500Y-102964000D01*
X144328221Y-102962856D01*
X144305166Y-102959437D01*
X144282557Y-102953773D01*
X144260613Y-102945921D01*
X144239543Y-102935956D01*
X144219552Y-102923974D01*
X144200832Y-102910090D01*
X144183562Y-102894438D01*
X144167910Y-102877168D01*
X144154026Y-102858448D01*
X144142044Y-102838457D01*
X144132079Y-102817387D01*
X144124227Y-102795443D01*
X144118563Y-102772834D01*
X144115144Y-102749779D01*
X144114000Y-102726500D01*
X144114000Y-102251500D01*
X144115144Y-102228221D01*
X144118563Y-102205166D01*
X144124227Y-102182557D01*
X144132079Y-102160613D01*
X144142044Y-102139543D01*
X144154026Y-102119552D01*
X144167910Y-102100832D01*
X144183562Y-102083562D01*
X144200832Y-102067910D01*
X144219552Y-102054026D01*
X144239543Y-102042044D01*
X144260613Y-102032079D01*
X144282557Y-102024227D01*
X144305166Y-102018563D01*
X144328221Y-102015144D01*
X144351500Y-102014000D01*
X144926500Y-102014000D01*
X144949779Y-102015144D01*
X144949779Y-102015144D01*
G37*
D25*
G04 #@! TD*
G04 #@! TO.P,R5,2*
G04 #@! TO.N,Net-(Q2-Pad2)*
X144639000Y-102489000D03*
D12*
G04 #@! TO.N,Net-(Q3-Pad3)*
G04 #@! TO.C,R6*
G36*
X144963779Y-98205144D02*
X144986834Y-98208563D01*
X145009443Y-98214227D01*
X145031387Y-98222079D01*
X145052457Y-98232044D01*
X145072448Y-98244026D01*
X145091168Y-98257910D01*
X145108438Y-98273562D01*
X145124090Y-98290832D01*
X145137974Y-98309552D01*
X145149956Y-98329543D01*
X145159921Y-98350613D01*
X145167773Y-98372557D01*
X145173437Y-98395166D01*
X145176856Y-98418221D01*
X145178000Y-98441500D01*
X145178000Y-98916500D01*
X145176856Y-98939779D01*
X145173437Y-98962834D01*
X145167773Y-98985443D01*
X145159921Y-99007387D01*
X145149956Y-99028457D01*
X145137974Y-99048448D01*
X145124090Y-99067168D01*
X145108438Y-99084438D01*
X145091168Y-99100090D01*
X145072448Y-99113974D01*
X145052457Y-99125956D01*
X145031387Y-99135921D01*
X145009443Y-99143773D01*
X144986834Y-99149437D01*
X144963779Y-99152856D01*
X144940500Y-99154000D01*
X144365500Y-99154000D01*
X144342221Y-99152856D01*
X144319166Y-99149437D01*
X144296557Y-99143773D01*
X144274613Y-99135921D01*
X144253543Y-99125956D01*
X144233552Y-99113974D01*
X144214832Y-99100090D01*
X144197562Y-99084438D01*
X144181910Y-99067168D01*
X144168026Y-99048448D01*
X144156044Y-99028457D01*
X144146079Y-99007387D01*
X144138227Y-98985443D01*
X144132563Y-98962834D01*
X144129144Y-98939779D01*
X144128000Y-98916500D01*
X144128000Y-98441500D01*
X144129144Y-98418221D01*
X144132563Y-98395166D01*
X144138227Y-98372557D01*
X144146079Y-98350613D01*
X144156044Y-98329543D01*
X144168026Y-98309552D01*
X144181910Y-98290832D01*
X144197562Y-98273562D01*
X144214832Y-98257910D01*
X144233552Y-98244026D01*
X144253543Y-98232044D01*
X144274613Y-98222079D01*
X144296557Y-98214227D01*
X144319166Y-98208563D01*
X144342221Y-98205144D01*
X144365500Y-98204000D01*
X144940500Y-98204000D01*
X144963779Y-98205144D01*
X144963779Y-98205144D01*
G37*
D25*
G04 #@! TD*
G04 #@! TO.P,R6,1*
G04 #@! TO.N,Net-(Q3-Pad3)*
X144653000Y-98679000D03*
D12*
G04 #@! TO.N,/H m\016Fstky/INH_B*
G04 #@! TO.C,R6*
G36*
X143213779Y-98205144D02*
X143236834Y-98208563D01*
X143259443Y-98214227D01*
X143281387Y-98222079D01*
X143302457Y-98232044D01*
X143322448Y-98244026D01*
X143341168Y-98257910D01*
X143358438Y-98273562D01*
X143374090Y-98290832D01*
X143387974Y-98309552D01*
X143399956Y-98329543D01*
X143409921Y-98350613D01*
X143417773Y-98372557D01*
X143423437Y-98395166D01*
X143426856Y-98418221D01*
X143428000Y-98441500D01*
X143428000Y-98916500D01*
X143426856Y-98939779D01*
X143423437Y-98962834D01*
X143417773Y-98985443D01*
X143409921Y-99007387D01*
X143399956Y-99028457D01*
X143387974Y-99048448D01*
X143374090Y-99067168D01*
X143358438Y-99084438D01*
X143341168Y-99100090D01*
X143322448Y-99113974D01*
X143302457Y-99125956D01*
X143281387Y-99135921D01*
X143259443Y-99143773D01*
X143236834Y-99149437D01*
X143213779Y-99152856D01*
X143190500Y-99154000D01*
X142615500Y-99154000D01*
X142592221Y-99152856D01*
X142569166Y-99149437D01*
X142546557Y-99143773D01*
X142524613Y-99135921D01*
X142503543Y-99125956D01*
X142483552Y-99113974D01*
X142464832Y-99100090D01*
X142447562Y-99084438D01*
X142431910Y-99067168D01*
X142418026Y-99048448D01*
X142406044Y-99028457D01*
X142396079Y-99007387D01*
X142388227Y-98985443D01*
X142382563Y-98962834D01*
X142379144Y-98939779D01*
X142378000Y-98916500D01*
X142378000Y-98441500D01*
X142379144Y-98418221D01*
X142382563Y-98395166D01*
X142388227Y-98372557D01*
X142396079Y-98350613D01*
X142406044Y-98329543D01*
X142418026Y-98309552D01*
X142431910Y-98290832D01*
X142447562Y-98273562D01*
X142464832Y-98257910D01*
X142483552Y-98244026D01*
X142503543Y-98232044D01*
X142524613Y-98222079D01*
X142546557Y-98214227D01*
X142569166Y-98208563D01*
X142592221Y-98205144D01*
X142615500Y-98204000D01*
X143190500Y-98204000D01*
X143213779Y-98205144D01*
X143213779Y-98205144D01*
G37*
D25*
G04 #@! TD*
G04 #@! TO.P,R6,2*
G04 #@! TO.N,/H m\016Fstky/INH_B*
X142903000Y-98679000D03*
D12*
G04 #@! TO.N,Net-(Q3-Pad2)*
G04 #@! TO.C,R7*
G36*
X140490779Y-100110144D02*
X140513834Y-100113563D01*
X140536443Y-100119227D01*
X140558387Y-100127079D01*
X140579457Y-100137044D01*
X140599448Y-100149026D01*
X140618168Y-100162910D01*
X140635438Y-100178562D01*
X140651090Y-100195832D01*
X140664974Y-100214552D01*
X140676956Y-100234543D01*
X140686921Y-100255613D01*
X140694773Y-100277557D01*
X140700437Y-100300166D01*
X140703856Y-100323221D01*
X140705000Y-100346500D01*
X140705000Y-100821500D01*
X140703856Y-100844779D01*
X140700437Y-100867834D01*
X140694773Y-100890443D01*
X140686921Y-100912387D01*
X140676956Y-100933457D01*
X140664974Y-100953448D01*
X140651090Y-100972168D01*
X140635438Y-100989438D01*
X140618168Y-101005090D01*
X140599448Y-101018974D01*
X140579457Y-101030956D01*
X140558387Y-101040921D01*
X140536443Y-101048773D01*
X140513834Y-101054437D01*
X140490779Y-101057856D01*
X140467500Y-101059000D01*
X139892500Y-101059000D01*
X139869221Y-101057856D01*
X139846166Y-101054437D01*
X139823557Y-101048773D01*
X139801613Y-101040921D01*
X139780543Y-101030956D01*
X139760552Y-101018974D01*
X139741832Y-101005090D01*
X139724562Y-100989438D01*
X139708910Y-100972168D01*
X139695026Y-100953448D01*
X139683044Y-100933457D01*
X139673079Y-100912387D01*
X139665227Y-100890443D01*
X139659563Y-100867834D01*
X139656144Y-100844779D01*
X139655000Y-100821500D01*
X139655000Y-100346500D01*
X139656144Y-100323221D01*
X139659563Y-100300166D01*
X139665227Y-100277557D01*
X139673079Y-100255613D01*
X139683044Y-100234543D01*
X139695026Y-100214552D01*
X139708910Y-100195832D01*
X139724562Y-100178562D01*
X139741832Y-100162910D01*
X139760552Y-100149026D01*
X139780543Y-100137044D01*
X139801613Y-100127079D01*
X139823557Y-100119227D01*
X139846166Y-100113563D01*
X139869221Y-100110144D01*
X139892500Y-100109000D01*
X140467500Y-100109000D01*
X140490779Y-100110144D01*
X140490779Y-100110144D01*
G37*
D25*
G04 #@! TD*
G04 #@! TO.P,R7,2*
G04 #@! TO.N,Net-(Q3-Pad2)*
X140180000Y-100584000D03*
D12*
G04 #@! TO.N,/H m\016Fstky/IN_B*
G04 #@! TO.C,R7*
G36*
X138740779Y-100110144D02*
X138763834Y-100113563D01*
X138786443Y-100119227D01*
X138808387Y-100127079D01*
X138829457Y-100137044D01*
X138849448Y-100149026D01*
X138868168Y-100162910D01*
X138885438Y-100178562D01*
X138901090Y-100195832D01*
X138914974Y-100214552D01*
X138926956Y-100234543D01*
X138936921Y-100255613D01*
X138944773Y-100277557D01*
X138950437Y-100300166D01*
X138953856Y-100323221D01*
X138955000Y-100346500D01*
X138955000Y-100821500D01*
X138953856Y-100844779D01*
X138950437Y-100867834D01*
X138944773Y-100890443D01*
X138936921Y-100912387D01*
X138926956Y-100933457D01*
X138914974Y-100953448D01*
X138901090Y-100972168D01*
X138885438Y-100989438D01*
X138868168Y-101005090D01*
X138849448Y-101018974D01*
X138829457Y-101030956D01*
X138808387Y-101040921D01*
X138786443Y-101048773D01*
X138763834Y-101054437D01*
X138740779Y-101057856D01*
X138717500Y-101059000D01*
X138142500Y-101059000D01*
X138119221Y-101057856D01*
X138096166Y-101054437D01*
X138073557Y-101048773D01*
X138051613Y-101040921D01*
X138030543Y-101030956D01*
X138010552Y-101018974D01*
X137991832Y-101005090D01*
X137974562Y-100989438D01*
X137958910Y-100972168D01*
X137945026Y-100953448D01*
X137933044Y-100933457D01*
X137923079Y-100912387D01*
X137915227Y-100890443D01*
X137909563Y-100867834D01*
X137906144Y-100844779D01*
X137905000Y-100821500D01*
X137905000Y-100346500D01*
X137906144Y-100323221D01*
X137909563Y-100300166D01*
X137915227Y-100277557D01*
X137923079Y-100255613D01*
X137933044Y-100234543D01*
X137945026Y-100214552D01*
X137958910Y-100195832D01*
X137974562Y-100178562D01*
X137991832Y-100162910D01*
X138010552Y-100149026D01*
X138030543Y-100137044D01*
X138051613Y-100127079D01*
X138073557Y-100119227D01*
X138096166Y-100113563D01*
X138119221Y-100110144D01*
X138142500Y-100109000D01*
X138717500Y-100109000D01*
X138740779Y-100110144D01*
X138740779Y-100110144D01*
G37*
D25*
G04 #@! TD*
G04 #@! TO.P,R7,1*
G04 #@! TO.N,/H m\016Fstky/IN_B*
X138430000Y-100584000D03*
D12*
G04 #@! TO.N,/H m\016Fstky/INH_C*
G04 #@! TO.C,R8*
G36*
X143185779Y-100110144D02*
X143208834Y-100113563D01*
X143231443Y-100119227D01*
X143253387Y-100127079D01*
X143274457Y-100137044D01*
X143294448Y-100149026D01*
X143313168Y-100162910D01*
X143330438Y-100178562D01*
X143346090Y-100195832D01*
X143359974Y-100214552D01*
X143371956Y-100234543D01*
X143381921Y-100255613D01*
X143389773Y-100277557D01*
X143395437Y-100300166D01*
X143398856Y-100323221D01*
X143400000Y-100346500D01*
X143400000Y-100821500D01*
X143398856Y-100844779D01*
X143395437Y-100867834D01*
X143389773Y-100890443D01*
X143381921Y-100912387D01*
X143371956Y-100933457D01*
X143359974Y-100953448D01*
X143346090Y-100972168D01*
X143330438Y-100989438D01*
X143313168Y-101005090D01*
X143294448Y-101018974D01*
X143274457Y-101030956D01*
X143253387Y-101040921D01*
X143231443Y-101048773D01*
X143208834Y-101054437D01*
X143185779Y-101057856D01*
X143162500Y-101059000D01*
X142587500Y-101059000D01*
X142564221Y-101057856D01*
X142541166Y-101054437D01*
X142518557Y-101048773D01*
X142496613Y-101040921D01*
X142475543Y-101030956D01*
X142455552Y-101018974D01*
X142436832Y-101005090D01*
X142419562Y-100989438D01*
X142403910Y-100972168D01*
X142390026Y-100953448D01*
X142378044Y-100933457D01*
X142368079Y-100912387D01*
X142360227Y-100890443D01*
X142354563Y-100867834D01*
X142351144Y-100844779D01*
X142350000Y-100821500D01*
X142350000Y-100346500D01*
X142351144Y-100323221D01*
X142354563Y-100300166D01*
X142360227Y-100277557D01*
X142368079Y-100255613D01*
X142378044Y-100234543D01*
X142390026Y-100214552D01*
X142403910Y-100195832D01*
X142419562Y-100178562D01*
X142436832Y-100162910D01*
X142455552Y-100149026D01*
X142475543Y-100137044D01*
X142496613Y-100127079D01*
X142518557Y-100119227D01*
X142541166Y-100113563D01*
X142564221Y-100110144D01*
X142587500Y-100109000D01*
X143162500Y-100109000D01*
X143185779Y-100110144D01*
X143185779Y-100110144D01*
G37*
D25*
G04 #@! TD*
G04 #@! TO.P,R8,2*
G04 #@! TO.N,/H m\016Fstky/INH_C*
X142875000Y-100584000D03*
D12*
G04 #@! TO.N,Net-(Q4-Pad3)*
G04 #@! TO.C,R8*
G36*
X144935779Y-100110144D02*
X144958834Y-100113563D01*
X144981443Y-100119227D01*
X145003387Y-100127079D01*
X145024457Y-100137044D01*
X145044448Y-100149026D01*
X145063168Y-100162910D01*
X145080438Y-100178562D01*
X145096090Y-100195832D01*
X145109974Y-100214552D01*
X145121956Y-100234543D01*
X145131921Y-100255613D01*
X145139773Y-100277557D01*
X145145437Y-100300166D01*
X145148856Y-100323221D01*
X145150000Y-100346500D01*
X145150000Y-100821500D01*
X145148856Y-100844779D01*
X145145437Y-100867834D01*
X145139773Y-100890443D01*
X145131921Y-100912387D01*
X145121956Y-100933457D01*
X145109974Y-100953448D01*
X145096090Y-100972168D01*
X145080438Y-100989438D01*
X145063168Y-101005090D01*
X145044448Y-101018974D01*
X145024457Y-101030956D01*
X145003387Y-101040921D01*
X144981443Y-101048773D01*
X144958834Y-101054437D01*
X144935779Y-101057856D01*
X144912500Y-101059000D01*
X144337500Y-101059000D01*
X144314221Y-101057856D01*
X144291166Y-101054437D01*
X144268557Y-101048773D01*
X144246613Y-101040921D01*
X144225543Y-101030956D01*
X144205552Y-101018974D01*
X144186832Y-101005090D01*
X144169562Y-100989438D01*
X144153910Y-100972168D01*
X144140026Y-100953448D01*
X144128044Y-100933457D01*
X144118079Y-100912387D01*
X144110227Y-100890443D01*
X144104563Y-100867834D01*
X144101144Y-100844779D01*
X144100000Y-100821500D01*
X144100000Y-100346500D01*
X144101144Y-100323221D01*
X144104563Y-100300166D01*
X144110227Y-100277557D01*
X144118079Y-100255613D01*
X144128044Y-100234543D01*
X144140026Y-100214552D01*
X144153910Y-100195832D01*
X144169562Y-100178562D01*
X144186832Y-100162910D01*
X144205552Y-100149026D01*
X144225543Y-100137044D01*
X144246613Y-100127079D01*
X144268557Y-100119227D01*
X144291166Y-100113563D01*
X144314221Y-100110144D01*
X144337500Y-100109000D01*
X144912500Y-100109000D01*
X144935779Y-100110144D01*
X144935779Y-100110144D01*
G37*
D25*
G04 #@! TD*
G04 #@! TO.P,R8,1*
G04 #@! TO.N,Net-(Q4-Pad3)*
X144625000Y-100584000D03*
D12*
G04 #@! TO.N,/procesorov\00E1 jednotka/INH_C*
G04 #@! TO.C,R9*
G36*
X138768779Y-98205144D02*
X138791834Y-98208563D01*
X138814443Y-98214227D01*
X138836387Y-98222079D01*
X138857457Y-98232044D01*
X138877448Y-98244026D01*
X138896168Y-98257910D01*
X138913438Y-98273562D01*
X138929090Y-98290832D01*
X138942974Y-98309552D01*
X138954956Y-98329543D01*
X138964921Y-98350613D01*
X138972773Y-98372557D01*
X138978437Y-98395166D01*
X138981856Y-98418221D01*
X138983000Y-98441500D01*
X138983000Y-98916500D01*
X138981856Y-98939779D01*
X138978437Y-98962834D01*
X138972773Y-98985443D01*
X138964921Y-99007387D01*
X138954956Y-99028457D01*
X138942974Y-99048448D01*
X138929090Y-99067168D01*
X138913438Y-99084438D01*
X138896168Y-99100090D01*
X138877448Y-99113974D01*
X138857457Y-99125956D01*
X138836387Y-99135921D01*
X138814443Y-99143773D01*
X138791834Y-99149437D01*
X138768779Y-99152856D01*
X138745500Y-99154000D01*
X138170500Y-99154000D01*
X138147221Y-99152856D01*
X138124166Y-99149437D01*
X138101557Y-99143773D01*
X138079613Y-99135921D01*
X138058543Y-99125956D01*
X138038552Y-99113974D01*
X138019832Y-99100090D01*
X138002562Y-99084438D01*
X137986910Y-99067168D01*
X137973026Y-99048448D01*
X137961044Y-99028457D01*
X137951079Y-99007387D01*
X137943227Y-98985443D01*
X137937563Y-98962834D01*
X137934144Y-98939779D01*
X137933000Y-98916500D01*
X137933000Y-98441500D01*
X137934144Y-98418221D01*
X137937563Y-98395166D01*
X137943227Y-98372557D01*
X137951079Y-98350613D01*
X137961044Y-98329543D01*
X137973026Y-98309552D01*
X137986910Y-98290832D01*
X138002562Y-98273562D01*
X138019832Y-98257910D01*
X138038552Y-98244026D01*
X138058543Y-98232044D01*
X138079613Y-98222079D01*
X138101557Y-98214227D01*
X138124166Y-98208563D01*
X138147221Y-98205144D01*
X138170500Y-98204000D01*
X138745500Y-98204000D01*
X138768779Y-98205144D01*
X138768779Y-98205144D01*
G37*
D25*
G04 #@! TD*
G04 #@! TO.P,R9,1*
G04 #@! TO.N,/procesorov\00E1 jednotka/INH_C*
X138458000Y-98679000D03*
D12*
G04 #@! TO.N,Net-(Q4-Pad2)*
G04 #@! TO.C,R9*
G36*
X140518779Y-98205144D02*
X140541834Y-98208563D01*
X140564443Y-98214227D01*
X140586387Y-98222079D01*
X140607457Y-98232044D01*
X140627448Y-98244026D01*
X140646168Y-98257910D01*
X140663438Y-98273562D01*
X140679090Y-98290832D01*
X140692974Y-98309552D01*
X140704956Y-98329543D01*
X140714921Y-98350613D01*
X140722773Y-98372557D01*
X140728437Y-98395166D01*
X140731856Y-98418221D01*
X140733000Y-98441500D01*
X140733000Y-98916500D01*
X140731856Y-98939779D01*
X140728437Y-98962834D01*
X140722773Y-98985443D01*
X140714921Y-99007387D01*
X140704956Y-99028457D01*
X140692974Y-99048448D01*
X140679090Y-99067168D01*
X140663438Y-99084438D01*
X140646168Y-99100090D01*
X140627448Y-99113974D01*
X140607457Y-99125956D01*
X140586387Y-99135921D01*
X140564443Y-99143773D01*
X140541834Y-99149437D01*
X140518779Y-99152856D01*
X140495500Y-99154000D01*
X139920500Y-99154000D01*
X139897221Y-99152856D01*
X139874166Y-99149437D01*
X139851557Y-99143773D01*
X139829613Y-99135921D01*
X139808543Y-99125956D01*
X139788552Y-99113974D01*
X139769832Y-99100090D01*
X139752562Y-99084438D01*
X139736910Y-99067168D01*
X139723026Y-99048448D01*
X139711044Y-99028457D01*
X139701079Y-99007387D01*
X139693227Y-98985443D01*
X139687563Y-98962834D01*
X139684144Y-98939779D01*
X139683000Y-98916500D01*
X139683000Y-98441500D01*
X139684144Y-98418221D01*
X139687563Y-98395166D01*
X139693227Y-98372557D01*
X139701079Y-98350613D01*
X139711044Y-98329543D01*
X139723026Y-98309552D01*
X139736910Y-98290832D01*
X139752562Y-98273562D01*
X139769832Y-98257910D01*
X139788552Y-98244026D01*
X139808543Y-98232044D01*
X139829613Y-98222079D01*
X139851557Y-98214227D01*
X139874166Y-98208563D01*
X139897221Y-98205144D01*
X139920500Y-98204000D01*
X140495500Y-98204000D01*
X140518779Y-98205144D01*
X140518779Y-98205144D01*
G37*
D25*
G04 #@! TD*
G04 #@! TO.P,R9,2*
G04 #@! TO.N,Net-(Q4-Pad2)*
X140208000Y-98679000D03*
D12*
G04 #@! TO.N,GNDS*
G04 #@! TO.C,R13*
G36*
X108210779Y-92807144D02*
X108233834Y-92810563D01*
X108256443Y-92816227D01*
X108278387Y-92824079D01*
X108299457Y-92834044D01*
X108319448Y-92846026D01*
X108338168Y-92859910D01*
X108355438Y-92875562D01*
X108371090Y-92892832D01*
X108384974Y-92911552D01*
X108396956Y-92931543D01*
X108406921Y-92952613D01*
X108414773Y-92974557D01*
X108420437Y-92997166D01*
X108423856Y-93020221D01*
X108425000Y-93043500D01*
X108425000Y-93618500D01*
X108423856Y-93641779D01*
X108420437Y-93664834D01*
X108414773Y-93687443D01*
X108406921Y-93709387D01*
X108396956Y-93730457D01*
X108384974Y-93750448D01*
X108371090Y-93769168D01*
X108355438Y-93786438D01*
X108338168Y-93802090D01*
X108319448Y-93815974D01*
X108299457Y-93827956D01*
X108278387Y-93837921D01*
X108256443Y-93845773D01*
X108233834Y-93851437D01*
X108210779Y-93854856D01*
X108187500Y-93856000D01*
X107712500Y-93856000D01*
X107689221Y-93854856D01*
X107666166Y-93851437D01*
X107643557Y-93845773D01*
X107621613Y-93837921D01*
X107600543Y-93827956D01*
X107580552Y-93815974D01*
X107561832Y-93802090D01*
X107544562Y-93786438D01*
X107528910Y-93769168D01*
X107515026Y-93750448D01*
X107503044Y-93730457D01*
X107493079Y-93709387D01*
X107485227Y-93687443D01*
X107479563Y-93664834D01*
X107476144Y-93641779D01*
X107475000Y-93618500D01*
X107475000Y-93043500D01*
X107476144Y-93020221D01*
X107479563Y-92997166D01*
X107485227Y-92974557D01*
X107493079Y-92952613D01*
X107503044Y-92931543D01*
X107515026Y-92911552D01*
X107528910Y-92892832D01*
X107544562Y-92875562D01*
X107561832Y-92859910D01*
X107580552Y-92846026D01*
X107600543Y-92834044D01*
X107621613Y-92824079D01*
X107643557Y-92816227D01*
X107666166Y-92810563D01*
X107689221Y-92807144D01*
X107712500Y-92806000D01*
X108187500Y-92806000D01*
X108210779Y-92807144D01*
X108210779Y-92807144D01*
G37*
D25*
G04 #@! TD*
G04 #@! TO.P,R13,2*
G04 #@! TO.N,GNDS*
X107950000Y-93331000D03*
D12*
G04 #@! TO.N,Net-(R13-Pad1)*
G04 #@! TO.C,R13*
G36*
X108210779Y-91057144D02*
X108233834Y-91060563D01*
X108256443Y-91066227D01*
X108278387Y-91074079D01*
X108299457Y-91084044D01*
X108319448Y-91096026D01*
X108338168Y-91109910D01*
X108355438Y-91125562D01*
X108371090Y-91142832D01*
X108384974Y-91161552D01*
X108396956Y-91181543D01*
X108406921Y-91202613D01*
X108414773Y-91224557D01*
X108420437Y-91247166D01*
X108423856Y-91270221D01*
X108425000Y-91293500D01*
X108425000Y-91868500D01*
X108423856Y-91891779D01*
X108420437Y-91914834D01*
X108414773Y-91937443D01*
X108406921Y-91959387D01*
X108396956Y-91980457D01*
X108384974Y-92000448D01*
X108371090Y-92019168D01*
X108355438Y-92036438D01*
X108338168Y-92052090D01*
X108319448Y-92065974D01*
X108299457Y-92077956D01*
X108278387Y-92087921D01*
X108256443Y-92095773D01*
X108233834Y-92101437D01*
X108210779Y-92104856D01*
X108187500Y-92106000D01*
X107712500Y-92106000D01*
X107689221Y-92104856D01*
X107666166Y-92101437D01*
X107643557Y-92095773D01*
X107621613Y-92087921D01*
X107600543Y-92077956D01*
X107580552Y-92065974D01*
X107561832Y-92052090D01*
X107544562Y-92036438D01*
X107528910Y-92019168D01*
X107515026Y-92000448D01*
X107503044Y-91980457D01*
X107493079Y-91959387D01*
X107485227Y-91937443D01*
X107479563Y-91914834D01*
X107476144Y-91891779D01*
X107475000Y-91868500D01*
X107475000Y-91293500D01*
X107476144Y-91270221D01*
X107479563Y-91247166D01*
X107485227Y-91224557D01*
X107493079Y-91202613D01*
X107503044Y-91181543D01*
X107515026Y-91161552D01*
X107528910Y-91142832D01*
X107544562Y-91125562D01*
X107561832Y-91109910D01*
X107580552Y-91096026D01*
X107600543Y-91084044D01*
X107621613Y-91074079D01*
X107643557Y-91066227D01*
X107666166Y-91060563D01*
X107689221Y-91057144D01*
X107712500Y-91056000D01*
X108187500Y-91056000D01*
X108210779Y-91057144D01*
X108210779Y-91057144D01*
G37*
D25*
G04 #@! TD*
G04 #@! TO.P,R13,1*
G04 #@! TO.N,Net-(R13-Pad1)*
X107950000Y-91581000D03*
D12*
G04 #@! TO.N,/power/pwrs_in*
G04 #@! TO.C,C1*
G36*
X109032504Y-103095204D02*
X109056773Y-103098804D01*
X109080571Y-103104765D01*
X109103671Y-103113030D01*
X109125849Y-103123520D01*
X109146893Y-103136133D01*
X109166598Y-103150747D01*
X109184777Y-103167223D01*
X109201253Y-103185402D01*
X109215867Y-103205107D01*
X109228480Y-103226151D01*
X109238970Y-103248329D01*
X109247235Y-103271429D01*
X109253196Y-103295227D01*
X109256796Y-103319496D01*
X109258000Y-103344000D01*
X109258000Y-105444000D01*
X109256796Y-105468504D01*
X109253196Y-105492773D01*
X109247235Y-105516571D01*
X109238970Y-105539671D01*
X109228480Y-105561849D01*
X109215867Y-105582893D01*
X109201253Y-105602598D01*
X109184777Y-105620777D01*
X109166598Y-105637253D01*
X109146893Y-105651867D01*
X109125849Y-105664480D01*
X109103671Y-105674970D01*
X109080571Y-105683235D01*
X109056773Y-105689196D01*
X109032504Y-105692796D01*
X109008000Y-105694000D01*
X107908000Y-105694000D01*
X107883496Y-105692796D01*
X107859227Y-105689196D01*
X107835429Y-105683235D01*
X107812329Y-105674970D01*
X107790151Y-105664480D01*
X107769107Y-105651867D01*
X107749402Y-105637253D01*
X107731223Y-105620777D01*
X107714747Y-105602598D01*
X107700133Y-105582893D01*
X107687520Y-105561849D01*
X107677030Y-105539671D01*
X107668765Y-105516571D01*
X107662804Y-105492773D01*
X107659204Y-105468504D01*
X107658000Y-105444000D01*
X107658000Y-103344000D01*
X107659204Y-103319496D01*
X107662804Y-103295227D01*
X107668765Y-103271429D01*
X107677030Y-103248329D01*
X107687520Y-103226151D01*
X107700133Y-103205107D01*
X107714747Y-103185402D01*
X107731223Y-103167223D01*
X107749402Y-103150747D01*
X107769107Y-103136133D01*
X107790151Y-103123520D01*
X107812329Y-103113030D01*
X107835429Y-103104765D01*
X107859227Y-103098804D01*
X107883496Y-103095204D01*
X107908000Y-103094000D01*
X109008000Y-103094000D01*
X109032504Y-103095204D01*
X109032504Y-103095204D01*
G37*
D26*
G04 #@! TD*
G04 #@! TO.P,C1,1*
G04 #@! TO.N,/power/pwrs_in*
X108458000Y-104394000D03*
D12*
G04 #@! TO.N,GNDS*
G04 #@! TO.C,C1*
G36*
X109032504Y-99495204D02*
X109056773Y-99498804D01*
X109080571Y-99504765D01*
X109103671Y-99513030D01*
X109125849Y-99523520D01*
X109146893Y-99536133D01*
X109166598Y-99550747D01*
X109184777Y-99567223D01*
X109201253Y-99585402D01*
X109215867Y-99605107D01*
X109228480Y-99626151D01*
X109238970Y-99648329D01*
X109247235Y-99671429D01*
X109253196Y-99695227D01*
X109256796Y-99719496D01*
X109258000Y-99744000D01*
X109258000Y-101844000D01*
X109256796Y-101868504D01*
X109253196Y-101892773D01*
X109247235Y-101916571D01*
X109238970Y-101939671D01*
X109228480Y-101961849D01*
X109215867Y-101982893D01*
X109201253Y-102002598D01*
X109184777Y-102020777D01*
X109166598Y-102037253D01*
X109146893Y-102051867D01*
X109125849Y-102064480D01*
X109103671Y-102074970D01*
X109080571Y-102083235D01*
X109056773Y-102089196D01*
X109032504Y-102092796D01*
X109008000Y-102094000D01*
X107908000Y-102094000D01*
X107883496Y-102092796D01*
X107859227Y-102089196D01*
X107835429Y-102083235D01*
X107812329Y-102074970D01*
X107790151Y-102064480D01*
X107769107Y-102051867D01*
X107749402Y-102037253D01*
X107731223Y-102020777D01*
X107714747Y-102002598D01*
X107700133Y-101982893D01*
X107687520Y-101961849D01*
X107677030Y-101939671D01*
X107668765Y-101916571D01*
X107662804Y-101892773D01*
X107659204Y-101868504D01*
X107658000Y-101844000D01*
X107658000Y-99744000D01*
X107659204Y-99719496D01*
X107662804Y-99695227D01*
X107668765Y-99671429D01*
X107677030Y-99648329D01*
X107687520Y-99626151D01*
X107700133Y-99605107D01*
X107714747Y-99585402D01*
X107731223Y-99567223D01*
X107749402Y-99550747D01*
X107769107Y-99536133D01*
X107790151Y-99523520D01*
X107812329Y-99513030D01*
X107835429Y-99504765D01*
X107859227Y-99498804D01*
X107883496Y-99495204D01*
X107908000Y-99494000D01*
X109008000Y-99494000D01*
X109032504Y-99495204D01*
X109032504Y-99495204D01*
G37*
D26*
G04 #@! TD*
G04 #@! TO.P,C1,2*
G04 #@! TO.N,GNDS*
X108458000Y-100794000D03*
D12*
G04 #@! TO.N,+5V*
G04 #@! TO.C,C2*
G36*
X114112504Y-102990204D02*
X114136773Y-102993804D01*
X114160571Y-102999765D01*
X114183671Y-103008030D01*
X114205849Y-103018520D01*
X114226893Y-103031133D01*
X114246598Y-103045747D01*
X114264777Y-103062223D01*
X114281253Y-103080402D01*
X114295867Y-103100107D01*
X114308480Y-103121151D01*
X114318970Y-103143329D01*
X114327235Y-103166429D01*
X114333196Y-103190227D01*
X114336796Y-103214496D01*
X114338000Y-103239000D01*
X114338000Y-105339000D01*
X114336796Y-105363504D01*
X114333196Y-105387773D01*
X114327235Y-105411571D01*
X114318970Y-105434671D01*
X114308480Y-105456849D01*
X114295867Y-105477893D01*
X114281253Y-105497598D01*
X114264777Y-105515777D01*
X114246598Y-105532253D01*
X114226893Y-105546867D01*
X114205849Y-105559480D01*
X114183671Y-105569970D01*
X114160571Y-105578235D01*
X114136773Y-105584196D01*
X114112504Y-105587796D01*
X114088000Y-105589000D01*
X112988000Y-105589000D01*
X112963496Y-105587796D01*
X112939227Y-105584196D01*
X112915429Y-105578235D01*
X112892329Y-105569970D01*
X112870151Y-105559480D01*
X112849107Y-105546867D01*
X112829402Y-105532253D01*
X112811223Y-105515777D01*
X112794747Y-105497598D01*
X112780133Y-105477893D01*
X112767520Y-105456849D01*
X112757030Y-105434671D01*
X112748765Y-105411571D01*
X112742804Y-105387773D01*
X112739204Y-105363504D01*
X112738000Y-105339000D01*
X112738000Y-103239000D01*
X112739204Y-103214496D01*
X112742804Y-103190227D01*
X112748765Y-103166429D01*
X112757030Y-103143329D01*
X112767520Y-103121151D01*
X112780133Y-103100107D01*
X112794747Y-103080402D01*
X112811223Y-103062223D01*
X112829402Y-103045747D01*
X112849107Y-103031133D01*
X112870151Y-103018520D01*
X112892329Y-103008030D01*
X112915429Y-102999765D01*
X112939227Y-102993804D01*
X112963496Y-102990204D01*
X112988000Y-102989000D01*
X114088000Y-102989000D01*
X114112504Y-102990204D01*
X114112504Y-102990204D01*
G37*
D26*
G04 #@! TD*
G04 #@! TO.P,C2,1*
G04 #@! TO.N,+5V*
X113538000Y-104289000D03*
D12*
G04 #@! TO.N,GNDS*
G04 #@! TO.C,C2*
G36*
X114112504Y-99390204D02*
X114136773Y-99393804D01*
X114160571Y-99399765D01*
X114183671Y-99408030D01*
X114205849Y-99418520D01*
X114226893Y-99431133D01*
X114246598Y-99445747D01*
X114264777Y-99462223D01*
X114281253Y-99480402D01*
X114295867Y-99500107D01*
X114308480Y-99521151D01*
X114318970Y-99543329D01*
X114327235Y-99566429D01*
X114333196Y-99590227D01*
X114336796Y-99614496D01*
X114338000Y-99639000D01*
X114338000Y-101739000D01*
X114336796Y-101763504D01*
X114333196Y-101787773D01*
X114327235Y-101811571D01*
X114318970Y-101834671D01*
X114308480Y-101856849D01*
X114295867Y-101877893D01*
X114281253Y-101897598D01*
X114264777Y-101915777D01*
X114246598Y-101932253D01*
X114226893Y-101946867D01*
X114205849Y-101959480D01*
X114183671Y-101969970D01*
X114160571Y-101978235D01*
X114136773Y-101984196D01*
X114112504Y-101987796D01*
X114088000Y-101989000D01*
X112988000Y-101989000D01*
X112963496Y-101987796D01*
X112939227Y-101984196D01*
X112915429Y-101978235D01*
X112892329Y-101969970D01*
X112870151Y-101959480D01*
X112849107Y-101946867D01*
X112829402Y-101932253D01*
X112811223Y-101915777D01*
X112794747Y-101897598D01*
X112780133Y-101877893D01*
X112767520Y-101856849D01*
X112757030Y-101834671D01*
X112748765Y-101811571D01*
X112742804Y-101787773D01*
X112739204Y-101763504D01*
X112738000Y-101739000D01*
X112738000Y-99639000D01*
X112739204Y-99614496D01*
X112742804Y-99590227D01*
X112748765Y-99566429D01*
X112757030Y-99543329D01*
X112767520Y-99521151D01*
X112780133Y-99500107D01*
X112794747Y-99480402D01*
X112811223Y-99462223D01*
X112829402Y-99445747D01*
X112849107Y-99431133D01*
X112870151Y-99418520D01*
X112892329Y-99408030D01*
X112915429Y-99399765D01*
X112939227Y-99393804D01*
X112963496Y-99390204D01*
X112988000Y-99389000D01*
X114088000Y-99389000D01*
X114112504Y-99390204D01*
X114112504Y-99390204D01*
G37*
D26*
G04 #@! TD*
G04 #@! TO.P,C2,2*
G04 #@! TO.N,GNDS*
X113538000Y-100689000D03*
D12*
G04 #@! TO.N,GNDS*
G04 #@! TO.C,C4*
G36*
X119192504Y-99495204D02*
X119216773Y-99498804D01*
X119240571Y-99504765D01*
X119263671Y-99513030D01*
X119285849Y-99523520D01*
X119306893Y-99536133D01*
X119326598Y-99550747D01*
X119344777Y-99567223D01*
X119361253Y-99585402D01*
X119375867Y-99605107D01*
X119388480Y-99626151D01*
X119398970Y-99648329D01*
X119407235Y-99671429D01*
X119413196Y-99695227D01*
X119416796Y-99719496D01*
X119418000Y-99744000D01*
X119418000Y-101844000D01*
X119416796Y-101868504D01*
X119413196Y-101892773D01*
X119407235Y-101916571D01*
X119398970Y-101939671D01*
X119388480Y-101961849D01*
X119375867Y-101982893D01*
X119361253Y-102002598D01*
X119344777Y-102020777D01*
X119326598Y-102037253D01*
X119306893Y-102051867D01*
X119285849Y-102064480D01*
X119263671Y-102074970D01*
X119240571Y-102083235D01*
X119216773Y-102089196D01*
X119192504Y-102092796D01*
X119168000Y-102094000D01*
X118068000Y-102094000D01*
X118043496Y-102092796D01*
X118019227Y-102089196D01*
X117995429Y-102083235D01*
X117972329Y-102074970D01*
X117950151Y-102064480D01*
X117929107Y-102051867D01*
X117909402Y-102037253D01*
X117891223Y-102020777D01*
X117874747Y-102002598D01*
X117860133Y-101982893D01*
X117847520Y-101961849D01*
X117837030Y-101939671D01*
X117828765Y-101916571D01*
X117822804Y-101892773D01*
X117819204Y-101868504D01*
X117818000Y-101844000D01*
X117818000Y-99744000D01*
X117819204Y-99719496D01*
X117822804Y-99695227D01*
X117828765Y-99671429D01*
X117837030Y-99648329D01*
X117847520Y-99626151D01*
X117860133Y-99605107D01*
X117874747Y-99585402D01*
X117891223Y-99567223D01*
X117909402Y-99550747D01*
X117929107Y-99536133D01*
X117950151Y-99523520D01*
X117972329Y-99513030D01*
X117995429Y-99504765D01*
X118019227Y-99498804D01*
X118043496Y-99495204D01*
X118068000Y-99494000D01*
X119168000Y-99494000D01*
X119192504Y-99495204D01*
X119192504Y-99495204D01*
G37*
D26*
G04 #@! TD*
G04 #@! TO.P,C4,2*
G04 #@! TO.N,GNDS*
X118618000Y-100794000D03*
D12*
G04 #@! TO.N,+3V3*
G04 #@! TO.C,C4*
G36*
X119192504Y-103095204D02*
X119216773Y-103098804D01*
X119240571Y-103104765D01*
X119263671Y-103113030D01*
X119285849Y-103123520D01*
X119306893Y-103136133D01*
X119326598Y-103150747D01*
X119344777Y-103167223D01*
X119361253Y-103185402D01*
X119375867Y-103205107D01*
X119388480Y-103226151D01*
X119398970Y-103248329D01*
X119407235Y-103271429D01*
X119413196Y-103295227D01*
X119416796Y-103319496D01*
X119418000Y-103344000D01*
X119418000Y-105444000D01*
X119416796Y-105468504D01*
X119413196Y-105492773D01*
X119407235Y-105516571D01*
X119398970Y-105539671D01*
X119388480Y-105561849D01*
X119375867Y-105582893D01*
X119361253Y-105602598D01*
X119344777Y-105620777D01*
X119326598Y-105637253D01*
X119306893Y-105651867D01*
X119285849Y-105664480D01*
X119263671Y-105674970D01*
X119240571Y-105683235D01*
X119216773Y-105689196D01*
X119192504Y-105692796D01*
X119168000Y-105694000D01*
X118068000Y-105694000D01*
X118043496Y-105692796D01*
X118019227Y-105689196D01*
X117995429Y-105683235D01*
X117972329Y-105674970D01*
X117950151Y-105664480D01*
X117929107Y-105651867D01*
X117909402Y-105637253D01*
X117891223Y-105620777D01*
X117874747Y-105602598D01*
X117860133Y-105582893D01*
X117847520Y-105561849D01*
X117837030Y-105539671D01*
X117828765Y-105516571D01*
X117822804Y-105492773D01*
X117819204Y-105468504D01*
X117818000Y-105444000D01*
X117818000Y-103344000D01*
X117819204Y-103319496D01*
X117822804Y-103295227D01*
X117828765Y-103271429D01*
X117837030Y-103248329D01*
X117847520Y-103226151D01*
X117860133Y-103205107D01*
X117874747Y-103185402D01*
X117891223Y-103167223D01*
X117909402Y-103150747D01*
X117929107Y-103136133D01*
X117950151Y-103123520D01*
X117972329Y-103113030D01*
X117995429Y-103104765D01*
X118019227Y-103098804D01*
X118043496Y-103095204D01*
X118068000Y-103094000D01*
X119168000Y-103094000D01*
X119192504Y-103095204D01*
X119192504Y-103095204D01*
G37*
D26*
G04 #@! TD*
G04 #@! TO.P,C4,1*
G04 #@! TO.N,+3V3*
X118618000Y-104394000D03*
D27*
G04 #@! TO.P,J6,1*
G04 #@! TO.N,GNDS*
X126238000Y-77089000D03*
D28*
G04 #@! TO.P,J6,2*
G04 #@! TO.N,/procesorov\00E1 jednotka/SYS_SWC*
X123698000Y-77089000D03*
G04 #@! TO.P,J6,3*
G04 #@! TO.N,/procesorov\00E1 jednotka/SYS_SWDIO*
X121158000Y-77089000D03*
G04 #@! TO.P,J6,4*
G04 #@! TO.N,+3V3*
X118618000Y-77089000D03*
G04 #@! TO.P,J6,5*
G04 #@! TO.N,N/C*
X116078000Y-77089000D03*
G04 #@! TO.P,J6,6*
G04 #@! TO.N,/procesorov\00E1 jednotka/SYS_TRA*
X113538000Y-77089000D03*
G04 #@! TO.P,J6,7*
G04 #@! TO.N,/procesorov\00E1 jednotka/SYS_NRST*
X110998000Y-77089000D03*
G04 #@! TD*
D27*
G04 #@! TO.P,J5,1*
G04 #@! TO.N,GNDS*
X137033000Y-94615000D03*
D28*
G04 #@! TO.P,J5,2*
G04 #@! TO.N,/procesorov\00E1 jednotka/CONF_1*
X137033000Y-92075000D03*
G04 #@! TO.P,J5,3*
G04 #@! TO.N,GNDS*
X139573000Y-94615000D03*
G04 #@! TO.P,J5,4*
G04 #@! TO.N,/procesorov\00E1 jednotka/CONF_2*
X139573000Y-92075000D03*
G04 #@! TD*
D29*
G04 #@! TO.P,C18,1*
G04 #@! TO.N,+36V*
X159893000Y-111379000D03*
D30*
G04 #@! TO.P,C18,2*
G04 #@! TO.N,GNDPWR*
X159893000Y-103879000D03*
G04 #@! TD*
G04 #@! TO.P,C3,2*
G04 #@! TO.N,GNDPWR*
X159893000Y-91694000D03*
D29*
G04 #@! TO.P,C3,1*
G04 #@! TO.N,+36V*
X159893000Y-96694000D03*
G04 #@! TD*
G04 #@! TO.P,C9,1*
G04 #@! TO.N,+36V*
X159893000Y-83439000D03*
D30*
G04 #@! TO.P,C9,2*
G04 #@! TO.N,GNDPWR*
X159893000Y-78439000D03*
G04 #@! TD*
D12*
G04 #@! TO.N,Net-(C6-Pad1)*
G04 #@! TO.C,C6*
G36*
X171506779Y-80171144D02*
X171529834Y-80174563D01*
X171552443Y-80180227D01*
X171574387Y-80188079D01*
X171595457Y-80198044D01*
X171615448Y-80210026D01*
X171634168Y-80223910D01*
X171651438Y-80239562D01*
X171667090Y-80256832D01*
X171680974Y-80275552D01*
X171692956Y-80295543D01*
X171702921Y-80316613D01*
X171710773Y-80338557D01*
X171716437Y-80361166D01*
X171719856Y-80384221D01*
X171721000Y-80407500D01*
X171721000Y-80882500D01*
X171719856Y-80905779D01*
X171716437Y-80928834D01*
X171710773Y-80951443D01*
X171702921Y-80973387D01*
X171692956Y-80994457D01*
X171680974Y-81014448D01*
X171667090Y-81033168D01*
X171651438Y-81050438D01*
X171634168Y-81066090D01*
X171615448Y-81079974D01*
X171595457Y-81091956D01*
X171574387Y-81101921D01*
X171552443Y-81109773D01*
X171529834Y-81115437D01*
X171506779Y-81118856D01*
X171483500Y-81120000D01*
X170908500Y-81120000D01*
X170885221Y-81118856D01*
X170862166Y-81115437D01*
X170839557Y-81109773D01*
X170817613Y-81101921D01*
X170796543Y-81091956D01*
X170776552Y-81079974D01*
X170757832Y-81066090D01*
X170740562Y-81050438D01*
X170724910Y-81033168D01*
X170711026Y-81014448D01*
X170699044Y-80994457D01*
X170689079Y-80973387D01*
X170681227Y-80951443D01*
X170675563Y-80928834D01*
X170672144Y-80905779D01*
X170671000Y-80882500D01*
X170671000Y-80407500D01*
X170672144Y-80384221D01*
X170675563Y-80361166D01*
X170681227Y-80338557D01*
X170689079Y-80316613D01*
X170699044Y-80295543D01*
X170711026Y-80275552D01*
X170724910Y-80256832D01*
X170740562Y-80239562D01*
X170757832Y-80223910D01*
X170776552Y-80210026D01*
X170796543Y-80198044D01*
X170817613Y-80188079D01*
X170839557Y-80180227D01*
X170862166Y-80174563D01*
X170885221Y-80171144D01*
X170908500Y-80170000D01*
X171483500Y-80170000D01*
X171506779Y-80171144D01*
X171506779Y-80171144D01*
G37*
D25*
G04 #@! TD*
G04 #@! TO.P,C6,1*
G04 #@! TO.N,Net-(C6-Pad1)*
X171196000Y-80645000D03*
D12*
G04 #@! TO.N,GNDPWR*
G04 #@! TO.C,C6*
G36*
X169756779Y-80171144D02*
X169779834Y-80174563D01*
X169802443Y-80180227D01*
X169824387Y-80188079D01*
X169845457Y-80198044D01*
X169865448Y-80210026D01*
X169884168Y-80223910D01*
X169901438Y-80239562D01*
X169917090Y-80256832D01*
X169930974Y-80275552D01*
X169942956Y-80295543D01*
X169952921Y-80316613D01*
X169960773Y-80338557D01*
X169966437Y-80361166D01*
X169969856Y-80384221D01*
X169971000Y-80407500D01*
X169971000Y-80882500D01*
X169969856Y-80905779D01*
X169966437Y-80928834D01*
X169960773Y-80951443D01*
X169952921Y-80973387D01*
X169942956Y-80994457D01*
X169930974Y-81014448D01*
X169917090Y-81033168D01*
X169901438Y-81050438D01*
X169884168Y-81066090D01*
X169865448Y-81079974D01*
X169845457Y-81091956D01*
X169824387Y-81101921D01*
X169802443Y-81109773D01*
X169779834Y-81115437D01*
X169756779Y-81118856D01*
X169733500Y-81120000D01*
X169158500Y-81120000D01*
X169135221Y-81118856D01*
X169112166Y-81115437D01*
X169089557Y-81109773D01*
X169067613Y-81101921D01*
X169046543Y-81091956D01*
X169026552Y-81079974D01*
X169007832Y-81066090D01*
X168990562Y-81050438D01*
X168974910Y-81033168D01*
X168961026Y-81014448D01*
X168949044Y-80994457D01*
X168939079Y-80973387D01*
X168931227Y-80951443D01*
X168925563Y-80928834D01*
X168922144Y-80905779D01*
X168921000Y-80882500D01*
X168921000Y-80407500D01*
X168922144Y-80384221D01*
X168925563Y-80361166D01*
X168931227Y-80338557D01*
X168939079Y-80316613D01*
X168949044Y-80295543D01*
X168961026Y-80275552D01*
X168974910Y-80256832D01*
X168990562Y-80239562D01*
X169007832Y-80223910D01*
X169026552Y-80210026D01*
X169046543Y-80198044D01*
X169067613Y-80188079D01*
X169089557Y-80180227D01*
X169112166Y-80174563D01*
X169135221Y-80171144D01*
X169158500Y-80170000D01*
X169733500Y-80170000D01*
X169756779Y-80171144D01*
X169756779Y-80171144D01*
G37*
D25*
G04 #@! TD*
G04 #@! TO.P,C6,2*
G04 #@! TO.N,GNDPWR*
X169446000Y-80645000D03*
D12*
G04 #@! TO.N,GNDPWR*
G04 #@! TO.C,C7*
G36*
X169756779Y-93633144D02*
X169779834Y-93636563D01*
X169802443Y-93642227D01*
X169824387Y-93650079D01*
X169845457Y-93660044D01*
X169865448Y-93672026D01*
X169884168Y-93685910D01*
X169901438Y-93701562D01*
X169917090Y-93718832D01*
X169930974Y-93737552D01*
X169942956Y-93757543D01*
X169952921Y-93778613D01*
X169960773Y-93800557D01*
X169966437Y-93823166D01*
X169969856Y-93846221D01*
X169971000Y-93869500D01*
X169971000Y-94344500D01*
X169969856Y-94367779D01*
X169966437Y-94390834D01*
X169960773Y-94413443D01*
X169952921Y-94435387D01*
X169942956Y-94456457D01*
X169930974Y-94476448D01*
X169917090Y-94495168D01*
X169901438Y-94512438D01*
X169884168Y-94528090D01*
X169865448Y-94541974D01*
X169845457Y-94553956D01*
X169824387Y-94563921D01*
X169802443Y-94571773D01*
X169779834Y-94577437D01*
X169756779Y-94580856D01*
X169733500Y-94582000D01*
X169158500Y-94582000D01*
X169135221Y-94580856D01*
X169112166Y-94577437D01*
X169089557Y-94571773D01*
X169067613Y-94563921D01*
X169046543Y-94553956D01*
X169026552Y-94541974D01*
X169007832Y-94528090D01*
X168990562Y-94512438D01*
X168974910Y-94495168D01*
X168961026Y-94476448D01*
X168949044Y-94456457D01*
X168939079Y-94435387D01*
X168931227Y-94413443D01*
X168925563Y-94390834D01*
X168922144Y-94367779D01*
X168921000Y-94344500D01*
X168921000Y-93869500D01*
X168922144Y-93846221D01*
X168925563Y-93823166D01*
X168931227Y-93800557D01*
X168939079Y-93778613D01*
X168949044Y-93757543D01*
X168961026Y-93737552D01*
X168974910Y-93718832D01*
X168990562Y-93701562D01*
X169007832Y-93685910D01*
X169026552Y-93672026D01*
X169046543Y-93660044D01*
X169067613Y-93650079D01*
X169089557Y-93642227D01*
X169112166Y-93636563D01*
X169135221Y-93633144D01*
X169158500Y-93632000D01*
X169733500Y-93632000D01*
X169756779Y-93633144D01*
X169756779Y-93633144D01*
G37*
D25*
G04 #@! TD*
G04 #@! TO.P,C7,2*
G04 #@! TO.N,GNDPWR*
X169446000Y-94107000D03*
D12*
G04 #@! TO.N,Net-(C7-Pad1)*
G04 #@! TO.C,C7*
G36*
X171506779Y-93633144D02*
X171529834Y-93636563D01*
X171552443Y-93642227D01*
X171574387Y-93650079D01*
X171595457Y-93660044D01*
X171615448Y-93672026D01*
X171634168Y-93685910D01*
X171651438Y-93701562D01*
X171667090Y-93718832D01*
X171680974Y-93737552D01*
X171692956Y-93757543D01*
X171702921Y-93778613D01*
X171710773Y-93800557D01*
X171716437Y-93823166D01*
X171719856Y-93846221D01*
X171721000Y-93869500D01*
X171721000Y-94344500D01*
X171719856Y-94367779D01*
X171716437Y-94390834D01*
X171710773Y-94413443D01*
X171702921Y-94435387D01*
X171692956Y-94456457D01*
X171680974Y-94476448D01*
X171667090Y-94495168D01*
X171651438Y-94512438D01*
X171634168Y-94528090D01*
X171615448Y-94541974D01*
X171595457Y-94553956D01*
X171574387Y-94563921D01*
X171552443Y-94571773D01*
X171529834Y-94577437D01*
X171506779Y-94580856D01*
X171483500Y-94582000D01*
X170908500Y-94582000D01*
X170885221Y-94580856D01*
X170862166Y-94577437D01*
X170839557Y-94571773D01*
X170817613Y-94563921D01*
X170796543Y-94553956D01*
X170776552Y-94541974D01*
X170757832Y-94528090D01*
X170740562Y-94512438D01*
X170724910Y-94495168D01*
X170711026Y-94476448D01*
X170699044Y-94456457D01*
X170689079Y-94435387D01*
X170681227Y-94413443D01*
X170675563Y-94390834D01*
X170672144Y-94367779D01*
X170671000Y-94344500D01*
X170671000Y-93869500D01*
X170672144Y-93846221D01*
X170675563Y-93823166D01*
X170681227Y-93800557D01*
X170689079Y-93778613D01*
X170699044Y-93757543D01*
X170711026Y-93737552D01*
X170724910Y-93718832D01*
X170740562Y-93701562D01*
X170757832Y-93685910D01*
X170776552Y-93672026D01*
X170796543Y-93660044D01*
X170817613Y-93650079D01*
X170839557Y-93642227D01*
X170862166Y-93636563D01*
X170885221Y-93633144D01*
X170908500Y-93632000D01*
X171483500Y-93632000D01*
X171506779Y-93633144D01*
X171506779Y-93633144D01*
G37*
D25*
G04 #@! TD*
G04 #@! TO.P,C7,1*
G04 #@! TO.N,Net-(C7-Pad1)*
X171196000Y-94107000D03*
D12*
G04 #@! TO.N,Net-(C8-Pad1)*
G04 #@! TO.C,C8*
G36*
X171506779Y-106968144D02*
X171529834Y-106971563D01*
X171552443Y-106977227D01*
X171574387Y-106985079D01*
X171595457Y-106995044D01*
X171615448Y-107007026D01*
X171634168Y-107020910D01*
X171651438Y-107036562D01*
X171667090Y-107053832D01*
X171680974Y-107072552D01*
X171692956Y-107092543D01*
X171702921Y-107113613D01*
X171710773Y-107135557D01*
X171716437Y-107158166D01*
X171719856Y-107181221D01*
X171721000Y-107204500D01*
X171721000Y-107679500D01*
X171719856Y-107702779D01*
X171716437Y-107725834D01*
X171710773Y-107748443D01*
X171702921Y-107770387D01*
X171692956Y-107791457D01*
X171680974Y-107811448D01*
X171667090Y-107830168D01*
X171651438Y-107847438D01*
X171634168Y-107863090D01*
X171615448Y-107876974D01*
X171595457Y-107888956D01*
X171574387Y-107898921D01*
X171552443Y-107906773D01*
X171529834Y-107912437D01*
X171506779Y-107915856D01*
X171483500Y-107917000D01*
X170908500Y-107917000D01*
X170885221Y-107915856D01*
X170862166Y-107912437D01*
X170839557Y-107906773D01*
X170817613Y-107898921D01*
X170796543Y-107888956D01*
X170776552Y-107876974D01*
X170757832Y-107863090D01*
X170740562Y-107847438D01*
X170724910Y-107830168D01*
X170711026Y-107811448D01*
X170699044Y-107791457D01*
X170689079Y-107770387D01*
X170681227Y-107748443D01*
X170675563Y-107725834D01*
X170672144Y-107702779D01*
X170671000Y-107679500D01*
X170671000Y-107204500D01*
X170672144Y-107181221D01*
X170675563Y-107158166D01*
X170681227Y-107135557D01*
X170689079Y-107113613D01*
X170699044Y-107092543D01*
X170711026Y-107072552D01*
X170724910Y-107053832D01*
X170740562Y-107036562D01*
X170757832Y-107020910D01*
X170776552Y-107007026D01*
X170796543Y-106995044D01*
X170817613Y-106985079D01*
X170839557Y-106977227D01*
X170862166Y-106971563D01*
X170885221Y-106968144D01*
X170908500Y-106967000D01*
X171483500Y-106967000D01*
X171506779Y-106968144D01*
X171506779Y-106968144D01*
G37*
D25*
G04 #@! TD*
G04 #@! TO.P,C8,1*
G04 #@! TO.N,Net-(C8-Pad1)*
X171196000Y-107442000D03*
D12*
G04 #@! TO.N,GNDPWR*
G04 #@! TO.C,C8*
G36*
X169756779Y-106968144D02*
X169779834Y-106971563D01*
X169802443Y-106977227D01*
X169824387Y-106985079D01*
X169845457Y-106995044D01*
X169865448Y-107007026D01*
X169884168Y-107020910D01*
X169901438Y-107036562D01*
X169917090Y-107053832D01*
X169930974Y-107072552D01*
X169942956Y-107092543D01*
X169952921Y-107113613D01*
X169960773Y-107135557D01*
X169966437Y-107158166D01*
X169969856Y-107181221D01*
X169971000Y-107204500D01*
X169971000Y-107679500D01*
X169969856Y-107702779D01*
X169966437Y-107725834D01*
X169960773Y-107748443D01*
X169952921Y-107770387D01*
X169942956Y-107791457D01*
X169930974Y-107811448D01*
X169917090Y-107830168D01*
X169901438Y-107847438D01*
X169884168Y-107863090D01*
X169865448Y-107876974D01*
X169845457Y-107888956D01*
X169824387Y-107898921D01*
X169802443Y-107906773D01*
X169779834Y-107912437D01*
X169756779Y-107915856D01*
X169733500Y-107917000D01*
X169158500Y-107917000D01*
X169135221Y-107915856D01*
X169112166Y-107912437D01*
X169089557Y-107906773D01*
X169067613Y-107898921D01*
X169046543Y-107888956D01*
X169026552Y-107876974D01*
X169007832Y-107863090D01*
X168990562Y-107847438D01*
X168974910Y-107830168D01*
X168961026Y-107811448D01*
X168949044Y-107791457D01*
X168939079Y-107770387D01*
X168931227Y-107748443D01*
X168925563Y-107725834D01*
X168922144Y-107702779D01*
X168921000Y-107679500D01*
X168921000Y-107204500D01*
X168922144Y-107181221D01*
X168925563Y-107158166D01*
X168931227Y-107135557D01*
X168939079Y-107113613D01*
X168949044Y-107092543D01*
X168961026Y-107072552D01*
X168974910Y-107053832D01*
X168990562Y-107036562D01*
X169007832Y-107020910D01*
X169026552Y-107007026D01*
X169046543Y-106995044D01*
X169067613Y-106985079D01*
X169089557Y-106977227D01*
X169112166Y-106971563D01*
X169135221Y-106968144D01*
X169158500Y-106967000D01*
X169733500Y-106967000D01*
X169756779Y-106968144D01*
X169756779Y-106968144D01*
G37*
D25*
G04 #@! TD*
G04 #@! TO.P,C8,2*
G04 #@! TO.N,GNDPWR*
X169446000Y-107442000D03*
D12*
G04 #@! TO.N,Net-(C6-Pad1)*
G04 #@! TO.C,R10*
G36*
X171506779Y-81695144D02*
X171529834Y-81698563D01*
X171552443Y-81704227D01*
X171574387Y-81712079D01*
X171595457Y-81722044D01*
X171615448Y-81734026D01*
X171634168Y-81747910D01*
X171651438Y-81763562D01*
X171667090Y-81780832D01*
X171680974Y-81799552D01*
X171692956Y-81819543D01*
X171702921Y-81840613D01*
X171710773Y-81862557D01*
X171716437Y-81885166D01*
X171719856Y-81908221D01*
X171721000Y-81931500D01*
X171721000Y-82406500D01*
X171719856Y-82429779D01*
X171716437Y-82452834D01*
X171710773Y-82475443D01*
X171702921Y-82497387D01*
X171692956Y-82518457D01*
X171680974Y-82538448D01*
X171667090Y-82557168D01*
X171651438Y-82574438D01*
X171634168Y-82590090D01*
X171615448Y-82603974D01*
X171595457Y-82615956D01*
X171574387Y-82625921D01*
X171552443Y-82633773D01*
X171529834Y-82639437D01*
X171506779Y-82642856D01*
X171483500Y-82644000D01*
X170908500Y-82644000D01*
X170885221Y-82642856D01*
X170862166Y-82639437D01*
X170839557Y-82633773D01*
X170817613Y-82625921D01*
X170796543Y-82615956D01*
X170776552Y-82603974D01*
X170757832Y-82590090D01*
X170740562Y-82574438D01*
X170724910Y-82557168D01*
X170711026Y-82538448D01*
X170699044Y-82518457D01*
X170689079Y-82497387D01*
X170681227Y-82475443D01*
X170675563Y-82452834D01*
X170672144Y-82429779D01*
X170671000Y-82406500D01*
X170671000Y-81931500D01*
X170672144Y-81908221D01*
X170675563Y-81885166D01*
X170681227Y-81862557D01*
X170689079Y-81840613D01*
X170699044Y-81819543D01*
X170711026Y-81799552D01*
X170724910Y-81780832D01*
X170740562Y-81763562D01*
X170757832Y-81747910D01*
X170776552Y-81734026D01*
X170796543Y-81722044D01*
X170817613Y-81712079D01*
X170839557Y-81704227D01*
X170862166Y-81698563D01*
X170885221Y-81695144D01*
X170908500Y-81694000D01*
X171483500Y-81694000D01*
X171506779Y-81695144D01*
X171506779Y-81695144D01*
G37*
D25*
G04 #@! TD*
G04 #@! TO.P,R10,1*
G04 #@! TO.N,Net-(C6-Pad1)*
X171196000Y-82169000D03*
D12*
G04 #@! TO.N,GNDPWR*
G04 #@! TO.C,R10*
G36*
X169756779Y-81695144D02*
X169779834Y-81698563D01*
X169802443Y-81704227D01*
X169824387Y-81712079D01*
X169845457Y-81722044D01*
X169865448Y-81734026D01*
X169884168Y-81747910D01*
X169901438Y-81763562D01*
X169917090Y-81780832D01*
X169930974Y-81799552D01*
X169942956Y-81819543D01*
X169952921Y-81840613D01*
X169960773Y-81862557D01*
X169966437Y-81885166D01*
X169969856Y-81908221D01*
X169971000Y-81931500D01*
X169971000Y-82406500D01*
X169969856Y-82429779D01*
X169966437Y-82452834D01*
X169960773Y-82475443D01*
X169952921Y-82497387D01*
X169942956Y-82518457D01*
X169930974Y-82538448D01*
X169917090Y-82557168D01*
X169901438Y-82574438D01*
X169884168Y-82590090D01*
X169865448Y-82603974D01*
X169845457Y-82615956D01*
X169824387Y-82625921D01*
X169802443Y-82633773D01*
X169779834Y-82639437D01*
X169756779Y-82642856D01*
X169733500Y-82644000D01*
X169158500Y-82644000D01*
X169135221Y-82642856D01*
X169112166Y-82639437D01*
X169089557Y-82633773D01*
X169067613Y-82625921D01*
X169046543Y-82615956D01*
X169026552Y-82603974D01*
X169007832Y-82590090D01*
X168990562Y-82574438D01*
X168974910Y-82557168D01*
X168961026Y-82538448D01*
X168949044Y-82518457D01*
X168939079Y-82497387D01*
X168931227Y-82475443D01*
X168925563Y-82452834D01*
X168922144Y-82429779D01*
X168921000Y-82406500D01*
X168921000Y-81931500D01*
X168922144Y-81908221D01*
X168925563Y-81885166D01*
X168931227Y-81862557D01*
X168939079Y-81840613D01*
X168949044Y-81819543D01*
X168961026Y-81799552D01*
X168974910Y-81780832D01*
X168990562Y-81763562D01*
X169007832Y-81747910D01*
X169026552Y-81734026D01*
X169046543Y-81722044D01*
X169067613Y-81712079D01*
X169089557Y-81704227D01*
X169112166Y-81698563D01*
X169135221Y-81695144D01*
X169158500Y-81694000D01*
X169733500Y-81694000D01*
X169756779Y-81695144D01*
X169756779Y-81695144D01*
G37*
D25*
G04 #@! TD*
G04 #@! TO.P,R10,2*
G04 #@! TO.N,GNDPWR*
X169446000Y-82169000D03*
D12*
G04 #@! TO.N,GNDPWR*
G04 #@! TO.C,R11*
G36*
X169756779Y-95157144D02*
X169779834Y-95160563D01*
X169802443Y-95166227D01*
X169824387Y-95174079D01*
X169845457Y-95184044D01*
X169865448Y-95196026D01*
X169884168Y-95209910D01*
X169901438Y-95225562D01*
X169917090Y-95242832D01*
X169930974Y-95261552D01*
X169942956Y-95281543D01*
X169952921Y-95302613D01*
X169960773Y-95324557D01*
X169966437Y-95347166D01*
X169969856Y-95370221D01*
X169971000Y-95393500D01*
X169971000Y-95868500D01*
X169969856Y-95891779D01*
X169966437Y-95914834D01*
X169960773Y-95937443D01*
X169952921Y-95959387D01*
X169942956Y-95980457D01*
X169930974Y-96000448D01*
X169917090Y-96019168D01*
X169901438Y-96036438D01*
X169884168Y-96052090D01*
X169865448Y-96065974D01*
X169845457Y-96077956D01*
X169824387Y-96087921D01*
X169802443Y-96095773D01*
X169779834Y-96101437D01*
X169756779Y-96104856D01*
X169733500Y-96106000D01*
X169158500Y-96106000D01*
X169135221Y-96104856D01*
X169112166Y-96101437D01*
X169089557Y-96095773D01*
X169067613Y-96087921D01*
X169046543Y-96077956D01*
X169026552Y-96065974D01*
X169007832Y-96052090D01*
X168990562Y-96036438D01*
X168974910Y-96019168D01*
X168961026Y-96000448D01*
X168949044Y-95980457D01*
X168939079Y-95959387D01*
X168931227Y-95937443D01*
X168925563Y-95914834D01*
X168922144Y-95891779D01*
X168921000Y-95868500D01*
X168921000Y-95393500D01*
X168922144Y-95370221D01*
X168925563Y-95347166D01*
X168931227Y-95324557D01*
X168939079Y-95302613D01*
X168949044Y-95281543D01*
X168961026Y-95261552D01*
X168974910Y-95242832D01*
X168990562Y-95225562D01*
X169007832Y-95209910D01*
X169026552Y-95196026D01*
X169046543Y-95184044D01*
X169067613Y-95174079D01*
X169089557Y-95166227D01*
X169112166Y-95160563D01*
X169135221Y-95157144D01*
X169158500Y-95156000D01*
X169733500Y-95156000D01*
X169756779Y-95157144D01*
X169756779Y-95157144D01*
G37*
D25*
G04 #@! TD*
G04 #@! TO.P,R11,2*
G04 #@! TO.N,GNDPWR*
X169446000Y-95631000D03*
D12*
G04 #@! TO.N,Net-(C7-Pad1)*
G04 #@! TO.C,R11*
G36*
X171506779Y-95157144D02*
X171529834Y-95160563D01*
X171552443Y-95166227D01*
X171574387Y-95174079D01*
X171595457Y-95184044D01*
X171615448Y-95196026D01*
X171634168Y-95209910D01*
X171651438Y-95225562D01*
X171667090Y-95242832D01*
X171680974Y-95261552D01*
X171692956Y-95281543D01*
X171702921Y-95302613D01*
X171710773Y-95324557D01*
X171716437Y-95347166D01*
X171719856Y-95370221D01*
X171721000Y-95393500D01*
X171721000Y-95868500D01*
X171719856Y-95891779D01*
X171716437Y-95914834D01*
X171710773Y-95937443D01*
X171702921Y-95959387D01*
X171692956Y-95980457D01*
X171680974Y-96000448D01*
X171667090Y-96019168D01*
X171651438Y-96036438D01*
X171634168Y-96052090D01*
X171615448Y-96065974D01*
X171595457Y-96077956D01*
X171574387Y-96087921D01*
X171552443Y-96095773D01*
X171529834Y-96101437D01*
X171506779Y-96104856D01*
X171483500Y-96106000D01*
X170908500Y-96106000D01*
X170885221Y-96104856D01*
X170862166Y-96101437D01*
X170839557Y-96095773D01*
X170817613Y-96087921D01*
X170796543Y-96077956D01*
X170776552Y-96065974D01*
X170757832Y-96052090D01*
X170740562Y-96036438D01*
X170724910Y-96019168D01*
X170711026Y-96000448D01*
X170699044Y-95980457D01*
X170689079Y-95959387D01*
X170681227Y-95937443D01*
X170675563Y-95914834D01*
X170672144Y-95891779D01*
X170671000Y-95868500D01*
X170671000Y-95393500D01*
X170672144Y-95370221D01*
X170675563Y-95347166D01*
X170681227Y-95324557D01*
X170689079Y-95302613D01*
X170699044Y-95281543D01*
X170711026Y-95261552D01*
X170724910Y-95242832D01*
X170740562Y-95225562D01*
X170757832Y-95209910D01*
X170776552Y-95196026D01*
X170796543Y-95184044D01*
X170817613Y-95174079D01*
X170839557Y-95166227D01*
X170862166Y-95160563D01*
X170885221Y-95157144D01*
X170908500Y-95156000D01*
X171483500Y-95156000D01*
X171506779Y-95157144D01*
X171506779Y-95157144D01*
G37*
D25*
G04 #@! TD*
G04 #@! TO.P,R11,1*
G04 #@! TO.N,Net-(C7-Pad1)*
X171196000Y-95631000D03*
D12*
G04 #@! TO.N,Net-(C8-Pad1)*
G04 #@! TO.C,R12*
G36*
X171506779Y-108492144D02*
X171529834Y-108495563D01*
X171552443Y-108501227D01*
X171574387Y-108509079D01*
X171595457Y-108519044D01*
X171615448Y-108531026D01*
X171634168Y-108544910D01*
X171651438Y-108560562D01*
X171667090Y-108577832D01*
X171680974Y-108596552D01*
X171692956Y-108616543D01*
X171702921Y-108637613D01*
X171710773Y-108659557D01*
X171716437Y-108682166D01*
X171719856Y-108705221D01*
X171721000Y-108728500D01*
X171721000Y-109203500D01*
X171719856Y-109226779D01*
X171716437Y-109249834D01*
X171710773Y-109272443D01*
X171702921Y-109294387D01*
X171692956Y-109315457D01*
X171680974Y-109335448D01*
X171667090Y-109354168D01*
X171651438Y-109371438D01*
X171634168Y-109387090D01*
X171615448Y-109400974D01*
X171595457Y-109412956D01*
X171574387Y-109422921D01*
X171552443Y-109430773D01*
X171529834Y-109436437D01*
X171506779Y-109439856D01*
X171483500Y-109441000D01*
X170908500Y-109441000D01*
X170885221Y-109439856D01*
X170862166Y-109436437D01*
X170839557Y-109430773D01*
X170817613Y-109422921D01*
X170796543Y-109412956D01*
X170776552Y-109400974D01*
X170757832Y-109387090D01*
X170740562Y-109371438D01*
X170724910Y-109354168D01*
X170711026Y-109335448D01*
X170699044Y-109315457D01*
X170689079Y-109294387D01*
X170681227Y-109272443D01*
X170675563Y-109249834D01*
X170672144Y-109226779D01*
X170671000Y-109203500D01*
X170671000Y-108728500D01*
X170672144Y-108705221D01*
X170675563Y-108682166D01*
X170681227Y-108659557D01*
X170689079Y-108637613D01*
X170699044Y-108616543D01*
X170711026Y-108596552D01*
X170724910Y-108577832D01*
X170740562Y-108560562D01*
X170757832Y-108544910D01*
X170776552Y-108531026D01*
X170796543Y-108519044D01*
X170817613Y-108509079D01*
X170839557Y-108501227D01*
X170862166Y-108495563D01*
X170885221Y-108492144D01*
X170908500Y-108491000D01*
X171483500Y-108491000D01*
X171506779Y-108492144D01*
X171506779Y-108492144D01*
G37*
D25*
G04 #@! TD*
G04 #@! TO.P,R12,1*
G04 #@! TO.N,Net-(C8-Pad1)*
X171196000Y-108966000D03*
D12*
G04 #@! TO.N,GNDPWR*
G04 #@! TO.C,R12*
G36*
X169756779Y-108492144D02*
X169779834Y-108495563D01*
X169802443Y-108501227D01*
X169824387Y-108509079D01*
X169845457Y-108519044D01*
X169865448Y-108531026D01*
X169884168Y-108544910D01*
X169901438Y-108560562D01*
X169917090Y-108577832D01*
X169930974Y-108596552D01*
X169942956Y-108616543D01*
X169952921Y-108637613D01*
X169960773Y-108659557D01*
X169966437Y-108682166D01*
X169969856Y-108705221D01*
X169971000Y-108728500D01*
X169971000Y-109203500D01*
X169969856Y-109226779D01*
X169966437Y-109249834D01*
X169960773Y-109272443D01*
X169952921Y-109294387D01*
X169942956Y-109315457D01*
X169930974Y-109335448D01*
X169917090Y-109354168D01*
X169901438Y-109371438D01*
X169884168Y-109387090D01*
X169865448Y-109400974D01*
X169845457Y-109412956D01*
X169824387Y-109422921D01*
X169802443Y-109430773D01*
X169779834Y-109436437D01*
X169756779Y-109439856D01*
X169733500Y-109441000D01*
X169158500Y-109441000D01*
X169135221Y-109439856D01*
X169112166Y-109436437D01*
X169089557Y-109430773D01*
X169067613Y-109422921D01*
X169046543Y-109412956D01*
X169026552Y-109400974D01*
X169007832Y-109387090D01*
X168990562Y-109371438D01*
X168974910Y-109354168D01*
X168961026Y-109335448D01*
X168949044Y-109315457D01*
X168939079Y-109294387D01*
X168931227Y-109272443D01*
X168925563Y-109249834D01*
X168922144Y-109226779D01*
X168921000Y-109203500D01*
X168921000Y-108728500D01*
X168922144Y-108705221D01*
X168925563Y-108682166D01*
X168931227Y-108659557D01*
X168939079Y-108637613D01*
X168949044Y-108616543D01*
X168961026Y-108596552D01*
X168974910Y-108577832D01*
X168990562Y-108560562D01*
X169007832Y-108544910D01*
X169026552Y-108531026D01*
X169046543Y-108519044D01*
X169067613Y-108509079D01*
X169089557Y-108501227D01*
X169112166Y-108495563D01*
X169135221Y-108492144D01*
X169158500Y-108491000D01*
X169733500Y-108491000D01*
X169756779Y-108492144D01*
X169756779Y-108492144D01*
G37*
D25*
G04 #@! TD*
G04 #@! TO.P,R12,2*
G04 #@! TO.N,GNDPWR*
X169446000Y-108966000D03*
D12*
G04 #@! TO.N,Net-(D2-Pad1)*
G04 #@! TO.C,J4*
G36*
X102474505Y-83840204D02*
X102498773Y-83843804D01*
X102522572Y-83849765D01*
X102545671Y-83858030D01*
X102567850Y-83868520D01*
X102588893Y-83881132D01*
X102608599Y-83895747D01*
X102626777Y-83912223D01*
X102643253Y-83930401D01*
X102657868Y-83950107D01*
X102670480Y-83971150D01*
X102680970Y-83993329D01*
X102689235Y-84016428D01*
X102695196Y-84040227D01*
X102698796Y-84064495D01*
X102700000Y-84088999D01*
X102700000Y-85329001D01*
X102698796Y-85353505D01*
X102695196Y-85377773D01*
X102689235Y-85401572D01*
X102680970Y-85424671D01*
X102670480Y-85446850D01*
X102657868Y-85467893D01*
X102643253Y-85487599D01*
X102626777Y-85505777D01*
X102608599Y-85522253D01*
X102588893Y-85536868D01*
X102567850Y-85549480D01*
X102545671Y-85559970D01*
X102522572Y-85568235D01*
X102498773Y-85574196D01*
X102474505Y-85577796D01*
X102450001Y-85579000D01*
X100749999Y-85579000D01*
X100725495Y-85577796D01*
X100701227Y-85574196D01*
X100677428Y-85568235D01*
X100654329Y-85559970D01*
X100632150Y-85549480D01*
X100611107Y-85536868D01*
X100591401Y-85522253D01*
X100573223Y-85505777D01*
X100556747Y-85487599D01*
X100542132Y-85467893D01*
X100529520Y-85446850D01*
X100519030Y-85424671D01*
X100510765Y-85401572D01*
X100504804Y-85377773D01*
X100501204Y-85353505D01*
X100500000Y-85329001D01*
X100500000Y-84088999D01*
X100501204Y-84064495D01*
X100504804Y-84040227D01*
X100510765Y-84016428D01*
X100519030Y-83993329D01*
X100529520Y-83971150D01*
X100542132Y-83950107D01*
X100556747Y-83930401D01*
X100573223Y-83912223D01*
X100591401Y-83895747D01*
X100611107Y-83881132D01*
X100632150Y-83868520D01*
X100654329Y-83858030D01*
X100677428Y-83849765D01*
X100701227Y-83843804D01*
X100725495Y-83840204D01*
X100749999Y-83839000D01*
X102450001Y-83839000D01*
X102474505Y-83840204D01*
X102474505Y-83840204D01*
G37*
D13*
G04 #@! TD*
G04 #@! TO.P,J4,1*
G04 #@! TO.N,Net-(D2-Pad1)*
X101600000Y-84709000D03*
D31*
G04 #@! TO.P,J4,2*
G04 #@! TO.N,Net-(D2-Pad2)*
X101600000Y-87249000D03*
G04 #@! TO.P,J4,3*
X101600000Y-89789000D03*
G04 #@! TO.P,J4,4*
G04 #@! TO.N,Net-(D2-Pad1)*
X101600000Y-92329000D03*
G04 #@! TD*
D12*
G04 #@! TO.N,GNDS*
G04 #@! TO.C,J10*
G36*
X102347505Y-96413204D02*
X102371773Y-96416804D01*
X102395572Y-96422765D01*
X102418671Y-96431030D01*
X102440850Y-96441520D01*
X102461893Y-96454132D01*
X102481599Y-96468747D01*
X102499777Y-96485223D01*
X102516253Y-96503401D01*
X102530868Y-96523107D01*
X102543480Y-96544150D01*
X102553970Y-96566329D01*
X102562235Y-96589428D01*
X102568196Y-96613227D01*
X102571796Y-96637495D01*
X102573000Y-96661999D01*
X102573000Y-97902001D01*
X102571796Y-97926505D01*
X102568196Y-97950773D01*
X102562235Y-97974572D01*
X102553970Y-97997671D01*
X102543480Y-98019850D01*
X102530868Y-98040893D01*
X102516253Y-98060599D01*
X102499777Y-98078777D01*
X102481599Y-98095253D01*
X102461893Y-98109868D01*
X102440850Y-98122480D01*
X102418671Y-98132970D01*
X102395572Y-98141235D01*
X102371773Y-98147196D01*
X102347505Y-98150796D01*
X102323001Y-98152000D01*
X100622999Y-98152000D01*
X100598495Y-98150796D01*
X100574227Y-98147196D01*
X100550428Y-98141235D01*
X100527329Y-98132970D01*
X100505150Y-98122480D01*
X100484107Y-98109868D01*
X100464401Y-98095253D01*
X100446223Y-98078777D01*
X100429747Y-98060599D01*
X100415132Y-98040893D01*
X100402520Y-98019850D01*
X100392030Y-97997671D01*
X100383765Y-97974572D01*
X100377804Y-97950773D01*
X100374204Y-97926505D01*
X100373000Y-97902001D01*
X100373000Y-96661999D01*
X100374204Y-96637495D01*
X100377804Y-96613227D01*
X100383765Y-96589428D01*
X100392030Y-96566329D01*
X100402520Y-96544150D01*
X100415132Y-96523107D01*
X100429747Y-96503401D01*
X100446223Y-96485223D01*
X100464401Y-96468747D01*
X100484107Y-96454132D01*
X100505150Y-96441520D01*
X100527329Y-96431030D01*
X100550428Y-96422765D01*
X100574227Y-96416804D01*
X100598495Y-96413204D01*
X100622999Y-96412000D01*
X102323001Y-96412000D01*
X102347505Y-96413204D01*
X102347505Y-96413204D01*
G37*
D13*
G04 #@! TD*
G04 #@! TO.P,J10,1*
G04 #@! TO.N,GNDS*
X101473000Y-97282000D03*
D31*
G04 #@! TO.P,J10,2*
G04 #@! TO.N,+9V*
X101473000Y-99822000D03*
G04 #@! TO.P,J10,3*
G04 #@! TO.N,N/C*
X101473000Y-102362000D03*
G04 #@! TD*
D12*
G04 #@! TO.N,+3V3*
G04 #@! TO.C,R14*
G36*
X121926779Y-106664144D02*
X121949834Y-106667563D01*
X121972443Y-106673227D01*
X121994387Y-106681079D01*
X122015457Y-106691044D01*
X122035448Y-106703026D01*
X122054168Y-106716910D01*
X122071438Y-106732562D01*
X122087090Y-106749832D01*
X122100974Y-106768552D01*
X122112956Y-106788543D01*
X122122921Y-106809613D01*
X122130773Y-106831557D01*
X122136437Y-106854166D01*
X122139856Y-106877221D01*
X122141000Y-106900500D01*
X122141000Y-107475500D01*
X122139856Y-107498779D01*
X122136437Y-107521834D01*
X122130773Y-107544443D01*
X122122921Y-107566387D01*
X122112956Y-107587457D01*
X122100974Y-107607448D01*
X122087090Y-107626168D01*
X122071438Y-107643438D01*
X122054168Y-107659090D01*
X122035448Y-107672974D01*
X122015457Y-107684956D01*
X121994387Y-107694921D01*
X121972443Y-107702773D01*
X121949834Y-107708437D01*
X121926779Y-107711856D01*
X121903500Y-107713000D01*
X121428500Y-107713000D01*
X121405221Y-107711856D01*
X121382166Y-107708437D01*
X121359557Y-107702773D01*
X121337613Y-107694921D01*
X121316543Y-107684956D01*
X121296552Y-107672974D01*
X121277832Y-107659090D01*
X121260562Y-107643438D01*
X121244910Y-107626168D01*
X121231026Y-107607448D01*
X121219044Y-107587457D01*
X121209079Y-107566387D01*
X121201227Y-107544443D01*
X121195563Y-107521834D01*
X121192144Y-107498779D01*
X121191000Y-107475500D01*
X121191000Y-106900500D01*
X121192144Y-106877221D01*
X121195563Y-106854166D01*
X121201227Y-106831557D01*
X121209079Y-106809613D01*
X121219044Y-106788543D01*
X121231026Y-106768552D01*
X121244910Y-106749832D01*
X121260562Y-106732562D01*
X121277832Y-106716910D01*
X121296552Y-106703026D01*
X121316543Y-106691044D01*
X121337613Y-106681079D01*
X121359557Y-106673227D01*
X121382166Y-106667563D01*
X121405221Y-106664144D01*
X121428500Y-106663000D01*
X121903500Y-106663000D01*
X121926779Y-106664144D01*
X121926779Y-106664144D01*
G37*
D25*
G04 #@! TD*
G04 #@! TO.P,R14,2*
G04 #@! TO.N,+3V3*
X121666000Y-107188000D03*
D12*
G04 #@! TO.N,Net-(D3-Pad2)*
G04 #@! TO.C,R14*
G36*
X121926779Y-108414144D02*
X121949834Y-108417563D01*
X121972443Y-108423227D01*
X121994387Y-108431079D01*
X122015457Y-108441044D01*
X122035448Y-108453026D01*
X122054168Y-108466910D01*
X122071438Y-108482562D01*
X122087090Y-108499832D01*
X122100974Y-108518552D01*
X122112956Y-108538543D01*
X122122921Y-108559613D01*
X122130773Y-108581557D01*
X122136437Y-108604166D01*
X122139856Y-108627221D01*
X122141000Y-108650500D01*
X122141000Y-109225500D01*
X122139856Y-109248779D01*
X122136437Y-109271834D01*
X122130773Y-109294443D01*
X122122921Y-109316387D01*
X122112956Y-109337457D01*
X122100974Y-109357448D01*
X122087090Y-109376168D01*
X122071438Y-109393438D01*
X122054168Y-109409090D01*
X122035448Y-109422974D01*
X122015457Y-109434956D01*
X121994387Y-109444921D01*
X121972443Y-109452773D01*
X121949834Y-109458437D01*
X121926779Y-109461856D01*
X121903500Y-109463000D01*
X121428500Y-109463000D01*
X121405221Y-109461856D01*
X121382166Y-109458437D01*
X121359557Y-109452773D01*
X121337613Y-109444921D01*
X121316543Y-109434956D01*
X121296552Y-109422974D01*
X121277832Y-109409090D01*
X121260562Y-109393438D01*
X121244910Y-109376168D01*
X121231026Y-109357448D01*
X121219044Y-109337457D01*
X121209079Y-109316387D01*
X121201227Y-109294443D01*
X121195563Y-109271834D01*
X121192144Y-109248779D01*
X121191000Y-109225500D01*
X121191000Y-108650500D01*
X121192144Y-108627221D01*
X121195563Y-108604166D01*
X121201227Y-108581557D01*
X121209079Y-108559613D01*
X121219044Y-108538543D01*
X121231026Y-108518552D01*
X121244910Y-108499832D01*
X121260562Y-108482562D01*
X121277832Y-108466910D01*
X121296552Y-108453026D01*
X121316543Y-108441044D01*
X121337613Y-108431079D01*
X121359557Y-108423227D01*
X121382166Y-108417563D01*
X121405221Y-108414144D01*
X121428500Y-108413000D01*
X121903500Y-108413000D01*
X121926779Y-108414144D01*
X121926779Y-108414144D01*
G37*
D25*
G04 #@! TD*
G04 #@! TO.P,R14,1*
G04 #@! TO.N,Net-(D3-Pad2)*
X121666000Y-108938000D03*
D12*
G04 #@! TO.N,+36V*
G04 #@! TO.C,R15*
G36*
X152504979Y-108873144D02*
X152528034Y-108876563D01*
X152550643Y-108882227D01*
X152572587Y-108890079D01*
X152593657Y-108900044D01*
X152613648Y-108912026D01*
X152632368Y-108925910D01*
X152649638Y-108941562D01*
X152665290Y-108958832D01*
X152679174Y-108977552D01*
X152691156Y-108997543D01*
X152701121Y-109018613D01*
X152708973Y-109040557D01*
X152714637Y-109063166D01*
X152718056Y-109086221D01*
X152719200Y-109109500D01*
X152719200Y-109584500D01*
X152718056Y-109607779D01*
X152714637Y-109630834D01*
X152708973Y-109653443D01*
X152701121Y-109675387D01*
X152691156Y-109696457D01*
X152679174Y-109716448D01*
X152665290Y-109735168D01*
X152649638Y-109752438D01*
X152632368Y-109768090D01*
X152613648Y-109781974D01*
X152593657Y-109793956D01*
X152572587Y-109803921D01*
X152550643Y-109811773D01*
X152528034Y-109817437D01*
X152504979Y-109820856D01*
X152481700Y-109822000D01*
X151906700Y-109822000D01*
X151883421Y-109820856D01*
X151860366Y-109817437D01*
X151837757Y-109811773D01*
X151815813Y-109803921D01*
X151794743Y-109793956D01*
X151774752Y-109781974D01*
X151756032Y-109768090D01*
X151738762Y-109752438D01*
X151723110Y-109735168D01*
X151709226Y-109716448D01*
X151697244Y-109696457D01*
X151687279Y-109675387D01*
X151679427Y-109653443D01*
X151673763Y-109630834D01*
X151670344Y-109607779D01*
X151669200Y-109584500D01*
X151669200Y-109109500D01*
X151670344Y-109086221D01*
X151673763Y-109063166D01*
X151679427Y-109040557D01*
X151687279Y-109018613D01*
X151697244Y-108997543D01*
X151709226Y-108977552D01*
X151723110Y-108958832D01*
X151738762Y-108941562D01*
X151756032Y-108925910D01*
X151774752Y-108912026D01*
X151794743Y-108900044D01*
X151815813Y-108890079D01*
X151837757Y-108882227D01*
X151860366Y-108876563D01*
X151883421Y-108873144D01*
X151906700Y-108872000D01*
X152481700Y-108872000D01*
X152504979Y-108873144D01*
X152504979Y-108873144D01*
G37*
D25*
G04 #@! TD*
G04 #@! TO.P,R15,1*
G04 #@! TO.N,+36V*
X152194200Y-109347000D03*
D12*
G04 #@! TO.N,/power/PWR_SENSE*
G04 #@! TO.C,R15*
G36*
X150754979Y-108873144D02*
X150778034Y-108876563D01*
X150800643Y-108882227D01*
X150822587Y-108890079D01*
X150843657Y-108900044D01*
X150863648Y-108912026D01*
X150882368Y-108925910D01*
X150899638Y-108941562D01*
X150915290Y-108958832D01*
X150929174Y-108977552D01*
X150941156Y-108997543D01*
X150951121Y-109018613D01*
X150958973Y-109040557D01*
X150964637Y-109063166D01*
X150968056Y-109086221D01*
X150969200Y-109109500D01*
X150969200Y-109584500D01*
X150968056Y-109607779D01*
X150964637Y-109630834D01*
X150958973Y-109653443D01*
X150951121Y-109675387D01*
X150941156Y-109696457D01*
X150929174Y-109716448D01*
X150915290Y-109735168D01*
X150899638Y-109752438D01*
X150882368Y-109768090D01*
X150863648Y-109781974D01*
X150843657Y-109793956D01*
X150822587Y-109803921D01*
X150800643Y-109811773D01*
X150778034Y-109817437D01*
X150754979Y-109820856D01*
X150731700Y-109822000D01*
X150156700Y-109822000D01*
X150133421Y-109820856D01*
X150110366Y-109817437D01*
X150087757Y-109811773D01*
X150065813Y-109803921D01*
X150044743Y-109793956D01*
X150024752Y-109781974D01*
X150006032Y-109768090D01*
X149988762Y-109752438D01*
X149973110Y-109735168D01*
X149959226Y-109716448D01*
X149947244Y-109696457D01*
X149937279Y-109675387D01*
X149929427Y-109653443D01*
X149923763Y-109630834D01*
X149920344Y-109607779D01*
X149919200Y-109584500D01*
X149919200Y-109109500D01*
X149920344Y-109086221D01*
X149923763Y-109063166D01*
X149929427Y-109040557D01*
X149937279Y-109018613D01*
X149947244Y-108997543D01*
X149959226Y-108977552D01*
X149973110Y-108958832D01*
X149988762Y-108941562D01*
X150006032Y-108925910D01*
X150024752Y-108912026D01*
X150044743Y-108900044D01*
X150065813Y-108890079D01*
X150087757Y-108882227D01*
X150110366Y-108876563D01*
X150133421Y-108873144D01*
X150156700Y-108872000D01*
X150731700Y-108872000D01*
X150754979Y-108873144D01*
X150754979Y-108873144D01*
G37*
D25*
G04 #@! TD*
G04 #@! TO.P,R15,2*
G04 #@! TO.N,/power/PWR_SENSE*
X150444200Y-109347000D03*
D12*
G04 #@! TO.N,GNDPWR*
G04 #@! TO.C,R16*
G36*
X153585779Y-102853344D02*
X153608834Y-102856763D01*
X153631443Y-102862427D01*
X153653387Y-102870279D01*
X153674457Y-102880244D01*
X153694448Y-102892226D01*
X153713168Y-102906110D01*
X153730438Y-102921762D01*
X153746090Y-102939032D01*
X153759974Y-102957752D01*
X153771956Y-102977743D01*
X153781921Y-102998813D01*
X153789773Y-103020757D01*
X153795437Y-103043366D01*
X153798856Y-103066421D01*
X153800000Y-103089700D01*
X153800000Y-103564700D01*
X153798856Y-103587979D01*
X153795437Y-103611034D01*
X153789773Y-103633643D01*
X153781921Y-103655587D01*
X153771956Y-103676657D01*
X153759974Y-103696648D01*
X153746090Y-103715368D01*
X153730438Y-103732638D01*
X153713168Y-103748290D01*
X153694448Y-103762174D01*
X153674457Y-103774156D01*
X153653387Y-103784121D01*
X153631443Y-103791973D01*
X153608834Y-103797637D01*
X153585779Y-103801056D01*
X153562500Y-103802200D01*
X152987500Y-103802200D01*
X152964221Y-103801056D01*
X152941166Y-103797637D01*
X152918557Y-103791973D01*
X152896613Y-103784121D01*
X152875543Y-103774156D01*
X152855552Y-103762174D01*
X152836832Y-103748290D01*
X152819562Y-103732638D01*
X152803910Y-103715368D01*
X152790026Y-103696648D01*
X152778044Y-103676657D01*
X152768079Y-103655587D01*
X152760227Y-103633643D01*
X152754563Y-103611034D01*
X152751144Y-103587979D01*
X152750000Y-103564700D01*
X152750000Y-103089700D01*
X152751144Y-103066421D01*
X152754563Y-103043366D01*
X152760227Y-103020757D01*
X152768079Y-102998813D01*
X152778044Y-102977743D01*
X152790026Y-102957752D01*
X152803910Y-102939032D01*
X152819562Y-102921762D01*
X152836832Y-102906110D01*
X152855552Y-102892226D01*
X152875543Y-102880244D01*
X152896613Y-102870279D01*
X152918557Y-102862427D01*
X152941166Y-102856763D01*
X152964221Y-102853344D01*
X152987500Y-102852200D01*
X153562500Y-102852200D01*
X153585779Y-102853344D01*
X153585779Y-102853344D01*
G37*
D25*
G04 #@! TD*
G04 #@! TO.P,R16,2*
G04 #@! TO.N,GNDPWR*
X153275000Y-103327200D03*
D12*
G04 #@! TO.N,/power/PWR_SENSE*
G04 #@! TO.C,R16*
G36*
X151835779Y-102853344D02*
X151858834Y-102856763D01*
X151881443Y-102862427D01*
X151903387Y-102870279D01*
X151924457Y-102880244D01*
X151944448Y-102892226D01*
X151963168Y-102906110D01*
X151980438Y-102921762D01*
X151996090Y-102939032D01*
X152009974Y-102957752D01*
X152021956Y-102977743D01*
X152031921Y-102998813D01*
X152039773Y-103020757D01*
X152045437Y-103043366D01*
X152048856Y-103066421D01*
X152050000Y-103089700D01*
X152050000Y-103564700D01*
X152048856Y-103587979D01*
X152045437Y-103611034D01*
X152039773Y-103633643D01*
X152031921Y-103655587D01*
X152021956Y-103676657D01*
X152009974Y-103696648D01*
X151996090Y-103715368D01*
X151980438Y-103732638D01*
X151963168Y-103748290D01*
X151944448Y-103762174D01*
X151924457Y-103774156D01*
X151903387Y-103784121D01*
X151881443Y-103791973D01*
X151858834Y-103797637D01*
X151835779Y-103801056D01*
X151812500Y-103802200D01*
X151237500Y-103802200D01*
X151214221Y-103801056D01*
X151191166Y-103797637D01*
X151168557Y-103791973D01*
X151146613Y-103784121D01*
X151125543Y-103774156D01*
X151105552Y-103762174D01*
X151086832Y-103748290D01*
X151069562Y-103732638D01*
X151053910Y-103715368D01*
X151040026Y-103696648D01*
X151028044Y-103676657D01*
X151018079Y-103655587D01*
X151010227Y-103633643D01*
X151004563Y-103611034D01*
X151001144Y-103587979D01*
X151000000Y-103564700D01*
X151000000Y-103089700D01*
X151001144Y-103066421D01*
X151004563Y-103043366D01*
X151010227Y-103020757D01*
X151018079Y-102998813D01*
X151028044Y-102977743D01*
X151040026Y-102957752D01*
X151053910Y-102939032D01*
X151069562Y-102921762D01*
X151086832Y-102906110D01*
X151105552Y-102892226D01*
X151125543Y-102880244D01*
X151146613Y-102870279D01*
X151168557Y-102862427D01*
X151191166Y-102856763D01*
X151214221Y-102853344D01*
X151237500Y-102852200D01*
X151812500Y-102852200D01*
X151835779Y-102853344D01*
X151835779Y-102853344D01*
G37*
D25*
G04 #@! TD*
G04 #@! TO.P,R16,1*
G04 #@! TO.N,/power/PWR_SENSE*
X151525000Y-103327200D03*
D12*
G04 #@! TO.N,Net-(D4-Pad1)*
G04 #@! TO.C,R17*
G36*
X128058779Y-84870144D02*
X128081834Y-84873563D01*
X128104443Y-84879227D01*
X128126387Y-84887079D01*
X128147457Y-84897044D01*
X128167448Y-84909026D01*
X128186168Y-84922910D01*
X128203438Y-84938562D01*
X128219090Y-84955832D01*
X128232974Y-84974552D01*
X128244956Y-84994543D01*
X128254921Y-85015613D01*
X128262773Y-85037557D01*
X128268437Y-85060166D01*
X128271856Y-85083221D01*
X128273000Y-85106500D01*
X128273000Y-85581500D01*
X128271856Y-85604779D01*
X128268437Y-85627834D01*
X128262773Y-85650443D01*
X128254921Y-85672387D01*
X128244956Y-85693457D01*
X128232974Y-85713448D01*
X128219090Y-85732168D01*
X128203438Y-85749438D01*
X128186168Y-85765090D01*
X128167448Y-85778974D01*
X128147457Y-85790956D01*
X128126387Y-85800921D01*
X128104443Y-85808773D01*
X128081834Y-85814437D01*
X128058779Y-85817856D01*
X128035500Y-85819000D01*
X127460500Y-85819000D01*
X127437221Y-85817856D01*
X127414166Y-85814437D01*
X127391557Y-85808773D01*
X127369613Y-85800921D01*
X127348543Y-85790956D01*
X127328552Y-85778974D01*
X127309832Y-85765090D01*
X127292562Y-85749438D01*
X127276910Y-85732168D01*
X127263026Y-85713448D01*
X127251044Y-85693457D01*
X127241079Y-85672387D01*
X127233227Y-85650443D01*
X127227563Y-85627834D01*
X127224144Y-85604779D01*
X127223000Y-85581500D01*
X127223000Y-85106500D01*
X127224144Y-85083221D01*
X127227563Y-85060166D01*
X127233227Y-85037557D01*
X127241079Y-85015613D01*
X127251044Y-84994543D01*
X127263026Y-84974552D01*
X127276910Y-84955832D01*
X127292562Y-84938562D01*
X127309832Y-84922910D01*
X127328552Y-84909026D01*
X127348543Y-84897044D01*
X127369613Y-84887079D01*
X127391557Y-84879227D01*
X127414166Y-84873563D01*
X127437221Y-84870144D01*
X127460500Y-84869000D01*
X128035500Y-84869000D01*
X128058779Y-84870144D01*
X128058779Y-84870144D01*
G37*
D25*
G04 #@! TD*
G04 #@! TO.P,R17,1*
G04 #@! TO.N,Net-(D4-Pad1)*
X127748000Y-85344000D03*
D12*
G04 #@! TO.N,LED_1*
G04 #@! TO.C,R17*
G36*
X126308779Y-84870144D02*
X126331834Y-84873563D01*
X126354443Y-84879227D01*
X126376387Y-84887079D01*
X126397457Y-84897044D01*
X126417448Y-84909026D01*
X126436168Y-84922910D01*
X126453438Y-84938562D01*
X126469090Y-84955832D01*
X126482974Y-84974552D01*
X126494956Y-84994543D01*
X126504921Y-85015613D01*
X126512773Y-85037557D01*
X126518437Y-85060166D01*
X126521856Y-85083221D01*
X126523000Y-85106500D01*
X126523000Y-85581500D01*
X126521856Y-85604779D01*
X126518437Y-85627834D01*
X126512773Y-85650443D01*
X126504921Y-85672387D01*
X126494956Y-85693457D01*
X126482974Y-85713448D01*
X126469090Y-85732168D01*
X126453438Y-85749438D01*
X126436168Y-85765090D01*
X126417448Y-85778974D01*
X126397457Y-85790956D01*
X126376387Y-85800921D01*
X126354443Y-85808773D01*
X126331834Y-85814437D01*
X126308779Y-85817856D01*
X126285500Y-85819000D01*
X125710500Y-85819000D01*
X125687221Y-85817856D01*
X125664166Y-85814437D01*
X125641557Y-85808773D01*
X125619613Y-85800921D01*
X125598543Y-85790956D01*
X125578552Y-85778974D01*
X125559832Y-85765090D01*
X125542562Y-85749438D01*
X125526910Y-85732168D01*
X125513026Y-85713448D01*
X125501044Y-85693457D01*
X125491079Y-85672387D01*
X125483227Y-85650443D01*
X125477563Y-85627834D01*
X125474144Y-85604779D01*
X125473000Y-85581500D01*
X125473000Y-85106500D01*
X125474144Y-85083221D01*
X125477563Y-85060166D01*
X125483227Y-85037557D01*
X125491079Y-85015613D01*
X125501044Y-84994543D01*
X125513026Y-84974552D01*
X125526910Y-84955832D01*
X125542562Y-84938562D01*
X125559832Y-84922910D01*
X125578552Y-84909026D01*
X125598543Y-84897044D01*
X125619613Y-84887079D01*
X125641557Y-84879227D01*
X125664166Y-84873563D01*
X125687221Y-84870144D01*
X125710500Y-84869000D01*
X126285500Y-84869000D01*
X126308779Y-84870144D01*
X126308779Y-84870144D01*
G37*
D25*
G04 #@! TD*
G04 #@! TO.P,R17,2*
G04 #@! TO.N,LED_1*
X125998000Y-85344000D03*
D32*
G04 #@! TO.P,D3,2*
G04 #@! TO.N,Net-(D3-Pad2)*
X123634500Y-107378500D03*
D33*
G04 #@! TO.P,D3,1*
G04 #@! TO.N,GNDS*
X126174500Y-107378500D03*
G04 #@! TD*
G04 #@! TO.P,D4,1*
G04 #@! TO.N,Net-(D4-Pad1)*
X127762000Y-82169000D03*
D32*
G04 #@! TO.P,D4,2*
G04 #@! TO.N,LED_2*
X125222000Y-82169000D03*
G04 #@! TD*
D12*
G04 #@! TO.N,/power/PWR_SENSE*
G04 #@! TO.C,C10*
G36*
X128403779Y-107122644D02*
X128426834Y-107126063D01*
X128449443Y-107131727D01*
X128471387Y-107139579D01*
X128492457Y-107149544D01*
X128512448Y-107161526D01*
X128531168Y-107175410D01*
X128548438Y-107191062D01*
X128564090Y-107208332D01*
X128577974Y-107227052D01*
X128589956Y-107247043D01*
X128599921Y-107268113D01*
X128607773Y-107290057D01*
X128613437Y-107312666D01*
X128616856Y-107335721D01*
X128618000Y-107359000D01*
X128618000Y-107934000D01*
X128616856Y-107957279D01*
X128613437Y-107980334D01*
X128607773Y-108002943D01*
X128599921Y-108024887D01*
X128589956Y-108045957D01*
X128577974Y-108065948D01*
X128564090Y-108084668D01*
X128548438Y-108101938D01*
X128531168Y-108117590D01*
X128512448Y-108131474D01*
X128492457Y-108143456D01*
X128471387Y-108153421D01*
X128449443Y-108161273D01*
X128426834Y-108166937D01*
X128403779Y-108170356D01*
X128380500Y-108171500D01*
X127905500Y-108171500D01*
X127882221Y-108170356D01*
X127859166Y-108166937D01*
X127836557Y-108161273D01*
X127814613Y-108153421D01*
X127793543Y-108143456D01*
X127773552Y-108131474D01*
X127754832Y-108117590D01*
X127737562Y-108101938D01*
X127721910Y-108084668D01*
X127708026Y-108065948D01*
X127696044Y-108045957D01*
X127686079Y-108024887D01*
X127678227Y-108002943D01*
X127672563Y-107980334D01*
X127669144Y-107957279D01*
X127668000Y-107934000D01*
X127668000Y-107359000D01*
X127669144Y-107335721D01*
X127672563Y-107312666D01*
X127678227Y-107290057D01*
X127686079Y-107268113D01*
X127696044Y-107247043D01*
X127708026Y-107227052D01*
X127721910Y-107208332D01*
X127737562Y-107191062D01*
X127754832Y-107175410D01*
X127773552Y-107161526D01*
X127793543Y-107149544D01*
X127814613Y-107139579D01*
X127836557Y-107131727D01*
X127859166Y-107126063D01*
X127882221Y-107122644D01*
X127905500Y-107121500D01*
X128380500Y-107121500D01*
X128403779Y-107122644D01*
X128403779Y-107122644D01*
G37*
D25*
G04 #@! TD*
G04 #@! TO.P,C10,1*
G04 #@! TO.N,/power/PWR_SENSE*
X128143000Y-107646500D03*
D12*
G04 #@! TO.N,GNDS*
G04 #@! TO.C,C10*
G36*
X128403779Y-108872644D02*
X128426834Y-108876063D01*
X128449443Y-108881727D01*
X128471387Y-108889579D01*
X128492457Y-108899544D01*
X128512448Y-108911526D01*
X128531168Y-108925410D01*
X128548438Y-108941062D01*
X128564090Y-108958332D01*
X128577974Y-108977052D01*
X128589956Y-108997043D01*
X128599921Y-109018113D01*
X128607773Y-109040057D01*
X128613437Y-109062666D01*
X128616856Y-109085721D01*
X128618000Y-109109000D01*
X128618000Y-109684000D01*
X128616856Y-109707279D01*
X128613437Y-109730334D01*
X128607773Y-109752943D01*
X128599921Y-109774887D01*
X128589956Y-109795957D01*
X128577974Y-109815948D01*
X128564090Y-109834668D01*
X128548438Y-109851938D01*
X128531168Y-109867590D01*
X128512448Y-109881474D01*
X128492457Y-109893456D01*
X128471387Y-109903421D01*
X128449443Y-109911273D01*
X128426834Y-109916937D01*
X128403779Y-109920356D01*
X128380500Y-109921500D01*
X127905500Y-109921500D01*
X127882221Y-109920356D01*
X127859166Y-109916937D01*
X127836557Y-109911273D01*
X127814613Y-109903421D01*
X127793543Y-109893456D01*
X127773552Y-109881474D01*
X127754832Y-109867590D01*
X127737562Y-109851938D01*
X127721910Y-109834668D01*
X127708026Y-109815948D01*
X127696044Y-109795957D01*
X127686079Y-109774887D01*
X127678227Y-109752943D01*
X127672563Y-109730334D01*
X127669144Y-109707279D01*
X127668000Y-109684000D01*
X127668000Y-109109000D01*
X127669144Y-109085721D01*
X127672563Y-109062666D01*
X127678227Y-109040057D01*
X127686079Y-109018113D01*
X127696044Y-108997043D01*
X127708026Y-108977052D01*
X127721910Y-108958332D01*
X127737562Y-108941062D01*
X127754832Y-108925410D01*
X127773552Y-108911526D01*
X127793543Y-108899544D01*
X127814613Y-108889579D01*
X127836557Y-108881727D01*
X127859166Y-108876063D01*
X127882221Y-108872644D01*
X127905500Y-108871500D01*
X128380500Y-108871500D01*
X128403779Y-108872644D01*
X128403779Y-108872644D01*
G37*
D25*
G04 #@! TD*
G04 #@! TO.P,C10,2*
G04 #@! TO.N,GNDS*
X128143000Y-109396500D03*
D27*
G04 #@! TO.P,J11,1*
G04 #@! TO.N,GNDS*
X131318000Y-77089000D03*
D28*
G04 #@! TO.P,J11,2*
G04 #@! TO.N,Net-(J11-Pad2)*
X131318000Y-79629000D03*
G04 #@! TO.P,J11,3*
G04 #@! TO.N,Net-(J11-Pad3)*
X131318000Y-82169000D03*
G04 #@! TD*
D12*
G04 #@! TO.N,/procesorov\00E1 jednotka/SYS_NRST*
G04 #@! TO.C,C19*
G36*
X122434779Y-100913644D02*
X122457834Y-100917063D01*
X122480443Y-100922727D01*
X122502387Y-100930579D01*
X122523457Y-100940544D01*
X122543448Y-100952526D01*
X122562168Y-100966410D01*
X122579438Y-100982062D01*
X122595090Y-100999332D01*
X122608974Y-101018052D01*
X122620956Y-101038043D01*
X122630921Y-101059113D01*
X122638773Y-101081057D01*
X122644437Y-101103666D01*
X122647856Y-101126721D01*
X122649000Y-101150000D01*
X122649000Y-101725000D01*
X122647856Y-101748279D01*
X122644437Y-101771334D01*
X122638773Y-101793943D01*
X122630921Y-101815887D01*
X122620956Y-101836957D01*
X122608974Y-101856948D01*
X122595090Y-101875668D01*
X122579438Y-101892938D01*
X122562168Y-101908590D01*
X122543448Y-101922474D01*
X122523457Y-101934456D01*
X122502387Y-101944421D01*
X122480443Y-101952273D01*
X122457834Y-101957937D01*
X122434779Y-101961356D01*
X122411500Y-101962500D01*
X121936500Y-101962500D01*
X121913221Y-101961356D01*
X121890166Y-101957937D01*
X121867557Y-101952273D01*
X121845613Y-101944421D01*
X121824543Y-101934456D01*
X121804552Y-101922474D01*
X121785832Y-101908590D01*
X121768562Y-101892938D01*
X121752910Y-101875668D01*
X121739026Y-101856948D01*
X121727044Y-101836957D01*
X121717079Y-101815887D01*
X121709227Y-101793943D01*
X121703563Y-101771334D01*
X121700144Y-101748279D01*
X121699000Y-101725000D01*
X121699000Y-101150000D01*
X121700144Y-101126721D01*
X121703563Y-101103666D01*
X121709227Y-101081057D01*
X121717079Y-101059113D01*
X121727044Y-101038043D01*
X121739026Y-101018052D01*
X121752910Y-100999332D01*
X121768562Y-100982062D01*
X121785832Y-100966410D01*
X121804552Y-100952526D01*
X121824543Y-100940544D01*
X121845613Y-100930579D01*
X121867557Y-100922727D01*
X121890166Y-100917063D01*
X121913221Y-100913644D01*
X121936500Y-100912500D01*
X122411500Y-100912500D01*
X122434779Y-100913644D01*
X122434779Y-100913644D01*
G37*
D25*
G04 #@! TD*
G04 #@! TO.P,C19,1*
G04 #@! TO.N,/procesorov\00E1 jednotka/SYS_NRST*
X122174000Y-101437500D03*
D12*
G04 #@! TO.N,GNDS*
G04 #@! TO.C,C19*
G36*
X122434779Y-102663644D02*
X122457834Y-102667063D01*
X122480443Y-102672727D01*
X122502387Y-102680579D01*
X122523457Y-102690544D01*
X122543448Y-102702526D01*
X122562168Y-102716410D01*
X122579438Y-102732062D01*
X122595090Y-102749332D01*
X122608974Y-102768052D01*
X122620956Y-102788043D01*
X122630921Y-102809113D01*
X122638773Y-102831057D01*
X122644437Y-102853666D01*
X122647856Y-102876721D01*
X122649000Y-102900000D01*
X122649000Y-103475000D01*
X122647856Y-103498279D01*
X122644437Y-103521334D01*
X122638773Y-103543943D01*
X122630921Y-103565887D01*
X122620956Y-103586957D01*
X122608974Y-103606948D01*
X122595090Y-103625668D01*
X122579438Y-103642938D01*
X122562168Y-103658590D01*
X122543448Y-103672474D01*
X122523457Y-103684456D01*
X122502387Y-103694421D01*
X122480443Y-103702273D01*
X122457834Y-103707937D01*
X122434779Y-103711356D01*
X122411500Y-103712500D01*
X121936500Y-103712500D01*
X121913221Y-103711356D01*
X121890166Y-103707937D01*
X121867557Y-103702273D01*
X121845613Y-103694421D01*
X121824543Y-103684456D01*
X121804552Y-103672474D01*
X121785832Y-103658590D01*
X121768562Y-103642938D01*
X121752910Y-103625668D01*
X121739026Y-103606948D01*
X121727044Y-103586957D01*
X121717079Y-103565887D01*
X121709227Y-103543943D01*
X121703563Y-103521334D01*
X121700144Y-103498279D01*
X121699000Y-103475000D01*
X121699000Y-102900000D01*
X121700144Y-102876721D01*
X121703563Y-102853666D01*
X121709227Y-102831057D01*
X121717079Y-102809113D01*
X121727044Y-102788043D01*
X121739026Y-102768052D01*
X121752910Y-102749332D01*
X121768562Y-102732062D01*
X121785832Y-102716410D01*
X121804552Y-102702526D01*
X121824543Y-102690544D01*
X121845613Y-102680579D01*
X121867557Y-102672727D01*
X121890166Y-102667063D01*
X121913221Y-102663644D01*
X121936500Y-102662500D01*
X122411500Y-102662500D01*
X122434779Y-102663644D01*
X122434779Y-102663644D01*
G37*
D25*
G04 #@! TD*
G04 #@! TO.P,C19,2*
G04 #@! TO.N,GNDS*
X122174000Y-103187500D03*
D12*
G04 #@! TO.N,Net-(R18-Pad1)*
G04 #@! TO.C,R18*
G36*
X117263779Y-97252644D02*
X117286834Y-97256063D01*
X117309443Y-97261727D01*
X117331387Y-97269579D01*
X117352457Y-97279544D01*
X117372448Y-97291526D01*
X117391168Y-97305410D01*
X117408438Y-97321062D01*
X117424090Y-97338332D01*
X117437974Y-97357052D01*
X117449956Y-97377043D01*
X117459921Y-97398113D01*
X117467773Y-97420057D01*
X117473437Y-97442666D01*
X117476856Y-97465721D01*
X117478000Y-97489000D01*
X117478000Y-97964000D01*
X117476856Y-97987279D01*
X117473437Y-98010334D01*
X117467773Y-98032943D01*
X117459921Y-98054887D01*
X117449956Y-98075957D01*
X117437974Y-98095948D01*
X117424090Y-98114668D01*
X117408438Y-98131938D01*
X117391168Y-98147590D01*
X117372448Y-98161474D01*
X117352457Y-98173456D01*
X117331387Y-98183421D01*
X117309443Y-98191273D01*
X117286834Y-98196937D01*
X117263779Y-98200356D01*
X117240500Y-98201500D01*
X116665500Y-98201500D01*
X116642221Y-98200356D01*
X116619166Y-98196937D01*
X116596557Y-98191273D01*
X116574613Y-98183421D01*
X116553543Y-98173456D01*
X116533552Y-98161474D01*
X116514832Y-98147590D01*
X116497562Y-98131938D01*
X116481910Y-98114668D01*
X116468026Y-98095948D01*
X116456044Y-98075957D01*
X116446079Y-98054887D01*
X116438227Y-98032943D01*
X116432563Y-98010334D01*
X116429144Y-97987279D01*
X116428000Y-97964000D01*
X116428000Y-97489000D01*
X116429144Y-97465721D01*
X116432563Y-97442666D01*
X116438227Y-97420057D01*
X116446079Y-97398113D01*
X116456044Y-97377043D01*
X116468026Y-97357052D01*
X116481910Y-97338332D01*
X116497562Y-97321062D01*
X116514832Y-97305410D01*
X116533552Y-97291526D01*
X116553543Y-97279544D01*
X116574613Y-97269579D01*
X116596557Y-97261727D01*
X116619166Y-97256063D01*
X116642221Y-97252644D01*
X116665500Y-97251500D01*
X117240500Y-97251500D01*
X117263779Y-97252644D01*
X117263779Y-97252644D01*
G37*
D25*
G04 #@! TD*
G04 #@! TO.P,R18,1*
G04 #@! TO.N,Net-(R18-Pad1)*
X116953000Y-97726500D03*
D12*
G04 #@! TO.N,Net-(C17-Pad1)*
G04 #@! TO.C,R18*
G36*
X115513779Y-97252644D02*
X115536834Y-97256063D01*
X115559443Y-97261727D01*
X115581387Y-97269579D01*
X115602457Y-97279544D01*
X115622448Y-97291526D01*
X115641168Y-97305410D01*
X115658438Y-97321062D01*
X115674090Y-97338332D01*
X115687974Y-97357052D01*
X115699956Y-97377043D01*
X115709921Y-97398113D01*
X115717773Y-97420057D01*
X115723437Y-97442666D01*
X115726856Y-97465721D01*
X115728000Y-97489000D01*
X115728000Y-97964000D01*
X115726856Y-97987279D01*
X115723437Y-98010334D01*
X115717773Y-98032943D01*
X115709921Y-98054887D01*
X115699956Y-98075957D01*
X115687974Y-98095948D01*
X115674090Y-98114668D01*
X115658438Y-98131938D01*
X115641168Y-98147590D01*
X115622448Y-98161474D01*
X115602457Y-98173456D01*
X115581387Y-98183421D01*
X115559443Y-98191273D01*
X115536834Y-98196937D01*
X115513779Y-98200356D01*
X115490500Y-98201500D01*
X114915500Y-98201500D01*
X114892221Y-98200356D01*
X114869166Y-98196937D01*
X114846557Y-98191273D01*
X114824613Y-98183421D01*
X114803543Y-98173456D01*
X114783552Y-98161474D01*
X114764832Y-98147590D01*
X114747562Y-98131938D01*
X114731910Y-98114668D01*
X114718026Y-98095948D01*
X114706044Y-98075957D01*
X114696079Y-98054887D01*
X114688227Y-98032943D01*
X114682563Y-98010334D01*
X114679144Y-97987279D01*
X114678000Y-97964000D01*
X114678000Y-97489000D01*
X114679144Y-97465721D01*
X114682563Y-97442666D01*
X114688227Y-97420057D01*
X114696079Y-97398113D01*
X114706044Y-97377043D01*
X114718026Y-97357052D01*
X114731910Y-97338332D01*
X114747562Y-97321062D01*
X114764832Y-97305410D01*
X114783552Y-97291526D01*
X114803543Y-97279544D01*
X114824613Y-97269579D01*
X114846557Y-97261727D01*
X114869166Y-97256063D01*
X114892221Y-97252644D01*
X114915500Y-97251500D01*
X115490500Y-97251500D01*
X115513779Y-97252644D01*
X115513779Y-97252644D01*
G37*
D25*
G04 #@! TD*
G04 #@! TO.P,R18,2*
G04 #@! TO.N,Net-(C17-Pad1)*
X115203000Y-97726500D03*
D12*
G04 #@! TO.N,GNDS*
G04 #@! TO.C,C23*
G36*
X133356779Y-108886644D02*
X133379834Y-108890063D01*
X133402443Y-108895727D01*
X133424387Y-108903579D01*
X133445457Y-108913544D01*
X133465448Y-108925526D01*
X133484168Y-108939410D01*
X133501438Y-108955062D01*
X133517090Y-108972332D01*
X133530974Y-108991052D01*
X133542956Y-109011043D01*
X133552921Y-109032113D01*
X133560773Y-109054057D01*
X133566437Y-109076666D01*
X133569856Y-109099721D01*
X133571000Y-109123000D01*
X133571000Y-109698000D01*
X133569856Y-109721279D01*
X133566437Y-109744334D01*
X133560773Y-109766943D01*
X133552921Y-109788887D01*
X133542956Y-109809957D01*
X133530974Y-109829948D01*
X133517090Y-109848668D01*
X133501438Y-109865938D01*
X133484168Y-109881590D01*
X133465448Y-109895474D01*
X133445457Y-109907456D01*
X133424387Y-109917421D01*
X133402443Y-109925273D01*
X133379834Y-109930937D01*
X133356779Y-109934356D01*
X133333500Y-109935500D01*
X132858500Y-109935500D01*
X132835221Y-109934356D01*
X132812166Y-109930937D01*
X132789557Y-109925273D01*
X132767613Y-109917421D01*
X132746543Y-109907456D01*
X132726552Y-109895474D01*
X132707832Y-109881590D01*
X132690562Y-109865938D01*
X132674910Y-109848668D01*
X132661026Y-109829948D01*
X132649044Y-109809957D01*
X132639079Y-109788887D01*
X132631227Y-109766943D01*
X132625563Y-109744334D01*
X132622144Y-109721279D01*
X132621000Y-109698000D01*
X132621000Y-109123000D01*
X132622144Y-109099721D01*
X132625563Y-109076666D01*
X132631227Y-109054057D01*
X132639079Y-109032113D01*
X132649044Y-109011043D01*
X132661026Y-108991052D01*
X132674910Y-108972332D01*
X132690562Y-108955062D01*
X132707832Y-108939410D01*
X132726552Y-108925526D01*
X132746543Y-108913544D01*
X132767613Y-108903579D01*
X132789557Y-108895727D01*
X132812166Y-108890063D01*
X132835221Y-108886644D01*
X132858500Y-108885500D01*
X133333500Y-108885500D01*
X133356779Y-108886644D01*
X133356779Y-108886644D01*
G37*
D25*
G04 #@! TD*
G04 #@! TO.P,C23,2*
G04 #@! TO.N,GNDS*
X133096000Y-109410500D03*
D12*
G04 #@! TO.N,Net-(C23-Pad1)*
G04 #@! TO.C,C23*
G36*
X133356779Y-110636644D02*
X133379834Y-110640063D01*
X133402443Y-110645727D01*
X133424387Y-110653579D01*
X133445457Y-110663544D01*
X133465448Y-110675526D01*
X133484168Y-110689410D01*
X133501438Y-110705062D01*
X133517090Y-110722332D01*
X133530974Y-110741052D01*
X133542956Y-110761043D01*
X133552921Y-110782113D01*
X133560773Y-110804057D01*
X133566437Y-110826666D01*
X133569856Y-110849721D01*
X133571000Y-110873000D01*
X133571000Y-111448000D01*
X133569856Y-111471279D01*
X133566437Y-111494334D01*
X133560773Y-111516943D01*
X133552921Y-111538887D01*
X133542956Y-111559957D01*
X133530974Y-111579948D01*
X133517090Y-111598668D01*
X133501438Y-111615938D01*
X133484168Y-111631590D01*
X133465448Y-111645474D01*
X133445457Y-111657456D01*
X133424387Y-111667421D01*
X133402443Y-111675273D01*
X133379834Y-111680937D01*
X133356779Y-111684356D01*
X133333500Y-111685500D01*
X132858500Y-111685500D01*
X132835221Y-111684356D01*
X132812166Y-111680937D01*
X132789557Y-111675273D01*
X132767613Y-111667421D01*
X132746543Y-111657456D01*
X132726552Y-111645474D01*
X132707832Y-111631590D01*
X132690562Y-111615938D01*
X132674910Y-111598668D01*
X132661026Y-111579948D01*
X132649044Y-111559957D01*
X132639079Y-111538887D01*
X132631227Y-111516943D01*
X132625563Y-111494334D01*
X132622144Y-111471279D01*
X132621000Y-111448000D01*
X132621000Y-110873000D01*
X132622144Y-110849721D01*
X132625563Y-110826666D01*
X132631227Y-110804057D01*
X132639079Y-110782113D01*
X132649044Y-110761043D01*
X132661026Y-110741052D01*
X132674910Y-110722332D01*
X132690562Y-110705062D01*
X132707832Y-110689410D01*
X132726552Y-110675526D01*
X132746543Y-110663544D01*
X132767613Y-110653579D01*
X132789557Y-110645727D01*
X132812166Y-110640063D01*
X132835221Y-110636644D01*
X132858500Y-110635500D01*
X133333500Y-110635500D01*
X133356779Y-110636644D01*
X133356779Y-110636644D01*
G37*
D25*
G04 #@! TD*
G04 #@! TO.P,C23,1*
G04 #@! TO.N,Net-(C23-Pad1)*
X133096000Y-111160500D03*
D12*
G04 #@! TO.N,/procesorov\00E1 jednotka/USART_TX*
G04 #@! TO.C,R19*
G36*
X131339279Y-88553144D02*
X131362334Y-88556563D01*
X131384943Y-88562227D01*
X131406887Y-88570079D01*
X131427957Y-88580044D01*
X131447948Y-88592026D01*
X131466668Y-88605910D01*
X131483938Y-88621562D01*
X131499590Y-88638832D01*
X131513474Y-88657552D01*
X131525456Y-88677543D01*
X131535421Y-88698613D01*
X131543273Y-88720557D01*
X131548937Y-88743166D01*
X131552356Y-88766221D01*
X131553500Y-88789500D01*
X131553500Y-89264500D01*
X131552356Y-89287779D01*
X131548937Y-89310834D01*
X131543273Y-89333443D01*
X131535421Y-89355387D01*
X131525456Y-89376457D01*
X131513474Y-89396448D01*
X131499590Y-89415168D01*
X131483938Y-89432438D01*
X131466668Y-89448090D01*
X131447948Y-89461974D01*
X131427957Y-89473956D01*
X131406887Y-89483921D01*
X131384943Y-89491773D01*
X131362334Y-89497437D01*
X131339279Y-89500856D01*
X131316000Y-89502000D01*
X130741000Y-89502000D01*
X130717721Y-89500856D01*
X130694666Y-89497437D01*
X130672057Y-89491773D01*
X130650113Y-89483921D01*
X130629043Y-89473956D01*
X130609052Y-89461974D01*
X130590332Y-89448090D01*
X130573062Y-89432438D01*
X130557410Y-89415168D01*
X130543526Y-89396448D01*
X130531544Y-89376457D01*
X130521579Y-89355387D01*
X130513727Y-89333443D01*
X130508063Y-89310834D01*
X130504644Y-89287779D01*
X130503500Y-89264500D01*
X130503500Y-88789500D01*
X130504644Y-88766221D01*
X130508063Y-88743166D01*
X130513727Y-88720557D01*
X130521579Y-88698613D01*
X130531544Y-88677543D01*
X130543526Y-88657552D01*
X130557410Y-88638832D01*
X130573062Y-88621562D01*
X130590332Y-88605910D01*
X130609052Y-88592026D01*
X130629043Y-88580044D01*
X130650113Y-88570079D01*
X130672057Y-88562227D01*
X130694666Y-88556563D01*
X130717721Y-88553144D01*
X130741000Y-88552000D01*
X131316000Y-88552000D01*
X131339279Y-88553144D01*
X131339279Y-88553144D01*
G37*
D25*
G04 #@! TD*
G04 #@! TO.P,R19,1*
G04 #@! TO.N,/procesorov\00E1 jednotka/USART_TX*
X131028500Y-89027000D03*
D12*
G04 #@! TO.N,Net-(J11-Pad2)*
G04 #@! TO.C,R19*
G36*
X133089279Y-88553144D02*
X133112334Y-88556563D01*
X133134943Y-88562227D01*
X133156887Y-88570079D01*
X133177957Y-88580044D01*
X133197948Y-88592026D01*
X133216668Y-88605910D01*
X133233938Y-88621562D01*
X133249590Y-88638832D01*
X133263474Y-88657552D01*
X133275456Y-88677543D01*
X133285421Y-88698613D01*
X133293273Y-88720557D01*
X133298937Y-88743166D01*
X133302356Y-88766221D01*
X133303500Y-88789500D01*
X133303500Y-89264500D01*
X133302356Y-89287779D01*
X133298937Y-89310834D01*
X133293273Y-89333443D01*
X133285421Y-89355387D01*
X133275456Y-89376457D01*
X133263474Y-89396448D01*
X133249590Y-89415168D01*
X133233938Y-89432438D01*
X133216668Y-89448090D01*
X133197948Y-89461974D01*
X133177957Y-89473956D01*
X133156887Y-89483921D01*
X133134943Y-89491773D01*
X133112334Y-89497437D01*
X133089279Y-89500856D01*
X133066000Y-89502000D01*
X132491000Y-89502000D01*
X132467721Y-89500856D01*
X132444666Y-89497437D01*
X132422057Y-89491773D01*
X132400113Y-89483921D01*
X132379043Y-89473956D01*
X132359052Y-89461974D01*
X132340332Y-89448090D01*
X132323062Y-89432438D01*
X132307410Y-89415168D01*
X132293526Y-89396448D01*
X132281544Y-89376457D01*
X132271579Y-89355387D01*
X132263727Y-89333443D01*
X132258063Y-89310834D01*
X132254644Y-89287779D01*
X132253500Y-89264500D01*
X132253500Y-88789500D01*
X132254644Y-88766221D01*
X132258063Y-88743166D01*
X132263727Y-88720557D01*
X132271579Y-88698613D01*
X132281544Y-88677543D01*
X132293526Y-88657552D01*
X132307410Y-88638832D01*
X132323062Y-88621562D01*
X132340332Y-88605910D01*
X132359052Y-88592026D01*
X132379043Y-88580044D01*
X132400113Y-88570079D01*
X132422057Y-88562227D01*
X132444666Y-88556563D01*
X132467721Y-88553144D01*
X132491000Y-88552000D01*
X133066000Y-88552000D01*
X133089279Y-88553144D01*
X133089279Y-88553144D01*
G37*
D25*
G04 #@! TD*
G04 #@! TO.P,R19,2*
G04 #@! TO.N,Net-(J11-Pad2)*
X132778500Y-89027000D03*
D12*
G04 #@! TO.N,Net-(J11-Pad3)*
G04 #@! TO.C,R20*
G36*
X133124779Y-86711644D02*
X133147834Y-86715063D01*
X133170443Y-86720727D01*
X133192387Y-86728579D01*
X133213457Y-86738544D01*
X133233448Y-86750526D01*
X133252168Y-86764410D01*
X133269438Y-86780062D01*
X133285090Y-86797332D01*
X133298974Y-86816052D01*
X133310956Y-86836043D01*
X133320921Y-86857113D01*
X133328773Y-86879057D01*
X133334437Y-86901666D01*
X133337856Y-86924721D01*
X133339000Y-86948000D01*
X133339000Y-87423000D01*
X133337856Y-87446279D01*
X133334437Y-87469334D01*
X133328773Y-87491943D01*
X133320921Y-87513887D01*
X133310956Y-87534957D01*
X133298974Y-87554948D01*
X133285090Y-87573668D01*
X133269438Y-87590938D01*
X133252168Y-87606590D01*
X133233448Y-87620474D01*
X133213457Y-87632456D01*
X133192387Y-87642421D01*
X133170443Y-87650273D01*
X133147834Y-87655937D01*
X133124779Y-87659356D01*
X133101500Y-87660500D01*
X132526500Y-87660500D01*
X132503221Y-87659356D01*
X132480166Y-87655937D01*
X132457557Y-87650273D01*
X132435613Y-87642421D01*
X132414543Y-87632456D01*
X132394552Y-87620474D01*
X132375832Y-87606590D01*
X132358562Y-87590938D01*
X132342910Y-87573668D01*
X132329026Y-87554948D01*
X132317044Y-87534957D01*
X132307079Y-87513887D01*
X132299227Y-87491943D01*
X132293563Y-87469334D01*
X132290144Y-87446279D01*
X132289000Y-87423000D01*
X132289000Y-86948000D01*
X132290144Y-86924721D01*
X132293563Y-86901666D01*
X132299227Y-86879057D01*
X132307079Y-86857113D01*
X132317044Y-86836043D01*
X132329026Y-86816052D01*
X132342910Y-86797332D01*
X132358562Y-86780062D01*
X132375832Y-86764410D01*
X132394552Y-86750526D01*
X132414543Y-86738544D01*
X132435613Y-86728579D01*
X132457557Y-86720727D01*
X132480166Y-86715063D01*
X132503221Y-86711644D01*
X132526500Y-86710500D01*
X133101500Y-86710500D01*
X133124779Y-86711644D01*
X133124779Y-86711644D01*
G37*
D25*
G04 #@! TD*
G04 #@! TO.P,R20,2*
G04 #@! TO.N,Net-(J11-Pad3)*
X132814000Y-87185500D03*
D12*
G04 #@! TO.N,/procesorov\00E1 jednotka/USART_RX*
G04 #@! TO.C,R20*
G36*
X131374779Y-86711644D02*
X131397834Y-86715063D01*
X131420443Y-86720727D01*
X131442387Y-86728579D01*
X131463457Y-86738544D01*
X131483448Y-86750526D01*
X131502168Y-86764410D01*
X131519438Y-86780062D01*
X131535090Y-86797332D01*
X131548974Y-86816052D01*
X131560956Y-86836043D01*
X131570921Y-86857113D01*
X131578773Y-86879057D01*
X131584437Y-86901666D01*
X131587856Y-86924721D01*
X131589000Y-86948000D01*
X131589000Y-87423000D01*
X131587856Y-87446279D01*
X131584437Y-87469334D01*
X131578773Y-87491943D01*
X131570921Y-87513887D01*
X131560956Y-87534957D01*
X131548974Y-87554948D01*
X131535090Y-87573668D01*
X131519438Y-87590938D01*
X131502168Y-87606590D01*
X131483448Y-87620474D01*
X131463457Y-87632456D01*
X131442387Y-87642421D01*
X131420443Y-87650273D01*
X131397834Y-87655937D01*
X131374779Y-87659356D01*
X131351500Y-87660500D01*
X130776500Y-87660500D01*
X130753221Y-87659356D01*
X130730166Y-87655937D01*
X130707557Y-87650273D01*
X130685613Y-87642421D01*
X130664543Y-87632456D01*
X130644552Y-87620474D01*
X130625832Y-87606590D01*
X130608562Y-87590938D01*
X130592910Y-87573668D01*
X130579026Y-87554948D01*
X130567044Y-87534957D01*
X130557079Y-87513887D01*
X130549227Y-87491943D01*
X130543563Y-87469334D01*
X130540144Y-87446279D01*
X130539000Y-87423000D01*
X130539000Y-86948000D01*
X130540144Y-86924721D01*
X130543563Y-86901666D01*
X130549227Y-86879057D01*
X130557079Y-86857113D01*
X130567044Y-86836043D01*
X130579026Y-86816052D01*
X130592910Y-86797332D01*
X130608562Y-86780062D01*
X130625832Y-86764410D01*
X130644552Y-86750526D01*
X130664543Y-86738544D01*
X130685613Y-86728579D01*
X130707557Y-86720727D01*
X130730166Y-86715063D01*
X130753221Y-86711644D01*
X130776500Y-86710500D01*
X131351500Y-86710500D01*
X131374779Y-86711644D01*
X131374779Y-86711644D01*
G37*
D25*
G04 #@! TD*
G04 #@! TO.P,R20,1*
G04 #@! TO.N,/procesorov\00E1 jednotka/USART_RX*
X131064000Y-87185500D03*
D12*
G04 #@! TO.N,Net-(J7-Pad4)*
G04 #@! TO.C,R21*
G36*
X138436779Y-107172144D02*
X138459834Y-107175563D01*
X138482443Y-107181227D01*
X138504387Y-107189079D01*
X138525457Y-107199044D01*
X138545448Y-107211026D01*
X138564168Y-107224910D01*
X138581438Y-107240562D01*
X138597090Y-107257832D01*
X138610974Y-107276552D01*
X138622956Y-107296543D01*
X138632921Y-107317613D01*
X138640773Y-107339557D01*
X138646437Y-107362166D01*
X138649856Y-107385221D01*
X138651000Y-107408500D01*
X138651000Y-107983500D01*
X138649856Y-108006779D01*
X138646437Y-108029834D01*
X138640773Y-108052443D01*
X138632921Y-108074387D01*
X138622956Y-108095457D01*
X138610974Y-108115448D01*
X138597090Y-108134168D01*
X138581438Y-108151438D01*
X138564168Y-108167090D01*
X138545448Y-108180974D01*
X138525457Y-108192956D01*
X138504387Y-108202921D01*
X138482443Y-108210773D01*
X138459834Y-108216437D01*
X138436779Y-108219856D01*
X138413500Y-108221000D01*
X137938500Y-108221000D01*
X137915221Y-108219856D01*
X137892166Y-108216437D01*
X137869557Y-108210773D01*
X137847613Y-108202921D01*
X137826543Y-108192956D01*
X137806552Y-108180974D01*
X137787832Y-108167090D01*
X137770562Y-108151438D01*
X137754910Y-108134168D01*
X137741026Y-108115448D01*
X137729044Y-108095457D01*
X137719079Y-108074387D01*
X137711227Y-108052443D01*
X137705563Y-108029834D01*
X137702144Y-108006779D01*
X137701000Y-107983500D01*
X137701000Y-107408500D01*
X137702144Y-107385221D01*
X137705563Y-107362166D01*
X137711227Y-107339557D01*
X137719079Y-107317613D01*
X137729044Y-107296543D01*
X137741026Y-107276552D01*
X137754910Y-107257832D01*
X137770562Y-107240562D01*
X137787832Y-107224910D01*
X137806552Y-107211026D01*
X137826543Y-107199044D01*
X137847613Y-107189079D01*
X137869557Y-107181227D01*
X137892166Y-107175563D01*
X137915221Y-107172144D01*
X137938500Y-107171000D01*
X138413500Y-107171000D01*
X138436779Y-107172144D01*
X138436779Y-107172144D01*
G37*
D25*
G04 #@! TD*
G04 #@! TO.P,R21,2*
G04 #@! TO.N,Net-(J7-Pad4)*
X138176000Y-107696000D03*
D12*
G04 #@! TO.N,/procesorov\00E1 jednotka/HAL_A*
G04 #@! TO.C,R21*
G36*
X138436779Y-105422144D02*
X138459834Y-105425563D01*
X138482443Y-105431227D01*
X138504387Y-105439079D01*
X138525457Y-105449044D01*
X138545448Y-105461026D01*
X138564168Y-105474910D01*
X138581438Y-105490562D01*
X138597090Y-105507832D01*
X138610974Y-105526552D01*
X138622956Y-105546543D01*
X138632921Y-105567613D01*
X138640773Y-105589557D01*
X138646437Y-105612166D01*
X138649856Y-105635221D01*
X138651000Y-105658500D01*
X138651000Y-106233500D01*
X138649856Y-106256779D01*
X138646437Y-106279834D01*
X138640773Y-106302443D01*
X138632921Y-106324387D01*
X138622956Y-106345457D01*
X138610974Y-106365448D01*
X138597090Y-106384168D01*
X138581438Y-106401438D01*
X138564168Y-106417090D01*
X138545448Y-106430974D01*
X138525457Y-106442956D01*
X138504387Y-106452921D01*
X138482443Y-106460773D01*
X138459834Y-106466437D01*
X138436779Y-106469856D01*
X138413500Y-106471000D01*
X137938500Y-106471000D01*
X137915221Y-106469856D01*
X137892166Y-106466437D01*
X137869557Y-106460773D01*
X137847613Y-106452921D01*
X137826543Y-106442956D01*
X137806552Y-106430974D01*
X137787832Y-106417090D01*
X137770562Y-106401438D01*
X137754910Y-106384168D01*
X137741026Y-106365448D01*
X137729044Y-106345457D01*
X137719079Y-106324387D01*
X137711227Y-106302443D01*
X137705563Y-106279834D01*
X137702144Y-106256779D01*
X137701000Y-106233500D01*
X137701000Y-105658500D01*
X137702144Y-105635221D01*
X137705563Y-105612166D01*
X137711227Y-105589557D01*
X137719079Y-105567613D01*
X137729044Y-105546543D01*
X137741026Y-105526552D01*
X137754910Y-105507832D01*
X137770562Y-105490562D01*
X137787832Y-105474910D01*
X137806552Y-105461026D01*
X137826543Y-105449044D01*
X137847613Y-105439079D01*
X137869557Y-105431227D01*
X137892166Y-105425563D01*
X137915221Y-105422144D01*
X137938500Y-105421000D01*
X138413500Y-105421000D01*
X138436779Y-105422144D01*
X138436779Y-105422144D01*
G37*
D25*
G04 #@! TD*
G04 #@! TO.P,R21,1*
G04 #@! TO.N,/procesorov\00E1 jednotka/HAL_A*
X138176000Y-105946000D03*
D12*
G04 #@! TO.N,Net-(J7-Pad3)*
G04 #@! TO.C,R22*
G36*
X140976779Y-107172144D02*
X140999834Y-107175563D01*
X141022443Y-107181227D01*
X141044387Y-107189079D01*
X141065457Y-107199044D01*
X141085448Y-107211026D01*
X141104168Y-107224910D01*
X141121438Y-107240562D01*
X141137090Y-107257832D01*
X141150974Y-107276552D01*
X141162956Y-107296543D01*
X141172921Y-107317613D01*
X141180773Y-107339557D01*
X141186437Y-107362166D01*
X141189856Y-107385221D01*
X141191000Y-107408500D01*
X141191000Y-107983500D01*
X141189856Y-108006779D01*
X141186437Y-108029834D01*
X141180773Y-108052443D01*
X141172921Y-108074387D01*
X141162956Y-108095457D01*
X141150974Y-108115448D01*
X141137090Y-108134168D01*
X141121438Y-108151438D01*
X141104168Y-108167090D01*
X141085448Y-108180974D01*
X141065457Y-108192956D01*
X141044387Y-108202921D01*
X141022443Y-108210773D01*
X140999834Y-108216437D01*
X140976779Y-108219856D01*
X140953500Y-108221000D01*
X140478500Y-108221000D01*
X140455221Y-108219856D01*
X140432166Y-108216437D01*
X140409557Y-108210773D01*
X140387613Y-108202921D01*
X140366543Y-108192956D01*
X140346552Y-108180974D01*
X140327832Y-108167090D01*
X140310562Y-108151438D01*
X140294910Y-108134168D01*
X140281026Y-108115448D01*
X140269044Y-108095457D01*
X140259079Y-108074387D01*
X140251227Y-108052443D01*
X140245563Y-108029834D01*
X140242144Y-108006779D01*
X140241000Y-107983500D01*
X140241000Y-107408500D01*
X140242144Y-107385221D01*
X140245563Y-107362166D01*
X140251227Y-107339557D01*
X140259079Y-107317613D01*
X140269044Y-107296543D01*
X140281026Y-107276552D01*
X140294910Y-107257832D01*
X140310562Y-107240562D01*
X140327832Y-107224910D01*
X140346552Y-107211026D01*
X140366543Y-107199044D01*
X140387613Y-107189079D01*
X140409557Y-107181227D01*
X140432166Y-107175563D01*
X140455221Y-107172144D01*
X140478500Y-107171000D01*
X140953500Y-107171000D01*
X140976779Y-107172144D01*
X140976779Y-107172144D01*
G37*
D25*
G04 #@! TD*
G04 #@! TO.P,R22,2*
G04 #@! TO.N,Net-(J7-Pad3)*
X140716000Y-107696000D03*
D12*
G04 #@! TO.N,/procesorov\00E1 jednotka/HAL_B*
G04 #@! TO.C,R22*
G36*
X140976779Y-105422144D02*
X140999834Y-105425563D01*
X141022443Y-105431227D01*
X141044387Y-105439079D01*
X141065457Y-105449044D01*
X141085448Y-105461026D01*
X141104168Y-105474910D01*
X141121438Y-105490562D01*
X141137090Y-105507832D01*
X141150974Y-105526552D01*
X141162956Y-105546543D01*
X141172921Y-105567613D01*
X141180773Y-105589557D01*
X141186437Y-105612166D01*
X141189856Y-105635221D01*
X141191000Y-105658500D01*
X141191000Y-106233500D01*
X141189856Y-106256779D01*
X141186437Y-106279834D01*
X141180773Y-106302443D01*
X141172921Y-106324387D01*
X141162956Y-106345457D01*
X141150974Y-106365448D01*
X141137090Y-106384168D01*
X141121438Y-106401438D01*
X141104168Y-106417090D01*
X141085448Y-106430974D01*
X141065457Y-106442956D01*
X141044387Y-106452921D01*
X141022443Y-106460773D01*
X140999834Y-106466437D01*
X140976779Y-106469856D01*
X140953500Y-106471000D01*
X140478500Y-106471000D01*
X140455221Y-106469856D01*
X140432166Y-106466437D01*
X140409557Y-106460773D01*
X140387613Y-106452921D01*
X140366543Y-106442956D01*
X140346552Y-106430974D01*
X140327832Y-106417090D01*
X140310562Y-106401438D01*
X140294910Y-106384168D01*
X140281026Y-106365448D01*
X140269044Y-106345457D01*
X140259079Y-106324387D01*
X140251227Y-106302443D01*
X140245563Y-106279834D01*
X140242144Y-106256779D01*
X140241000Y-106233500D01*
X140241000Y-105658500D01*
X140242144Y-105635221D01*
X140245563Y-105612166D01*
X140251227Y-105589557D01*
X140259079Y-105567613D01*
X140269044Y-105546543D01*
X140281026Y-105526552D01*
X140294910Y-105507832D01*
X140310562Y-105490562D01*
X140327832Y-105474910D01*
X140346552Y-105461026D01*
X140366543Y-105449044D01*
X140387613Y-105439079D01*
X140409557Y-105431227D01*
X140432166Y-105425563D01*
X140455221Y-105422144D01*
X140478500Y-105421000D01*
X140953500Y-105421000D01*
X140976779Y-105422144D01*
X140976779Y-105422144D01*
G37*
D25*
G04 #@! TD*
G04 #@! TO.P,R22,1*
G04 #@! TO.N,/procesorov\00E1 jednotka/HAL_B*
X140716000Y-105946000D03*
D12*
G04 #@! TO.N,/procesorov\00E1 jednotka/HAL_C*
G04 #@! TO.C,R23*
G36*
X143516779Y-105422144D02*
X143539834Y-105425563D01*
X143562443Y-105431227D01*
X143584387Y-105439079D01*
X143605457Y-105449044D01*
X143625448Y-105461026D01*
X143644168Y-105474910D01*
X143661438Y-105490562D01*
X143677090Y-105507832D01*
X143690974Y-105526552D01*
X143702956Y-105546543D01*
X143712921Y-105567613D01*
X143720773Y-105589557D01*
X143726437Y-105612166D01*
X143729856Y-105635221D01*
X143731000Y-105658500D01*
X143731000Y-106233500D01*
X143729856Y-106256779D01*
X143726437Y-106279834D01*
X143720773Y-106302443D01*
X143712921Y-106324387D01*
X143702956Y-106345457D01*
X143690974Y-106365448D01*
X143677090Y-106384168D01*
X143661438Y-106401438D01*
X143644168Y-106417090D01*
X143625448Y-106430974D01*
X143605457Y-106442956D01*
X143584387Y-106452921D01*
X143562443Y-106460773D01*
X143539834Y-106466437D01*
X143516779Y-106469856D01*
X143493500Y-106471000D01*
X143018500Y-106471000D01*
X142995221Y-106469856D01*
X142972166Y-106466437D01*
X142949557Y-106460773D01*
X142927613Y-106452921D01*
X142906543Y-106442956D01*
X142886552Y-106430974D01*
X142867832Y-106417090D01*
X142850562Y-106401438D01*
X142834910Y-106384168D01*
X142821026Y-106365448D01*
X142809044Y-106345457D01*
X142799079Y-106324387D01*
X142791227Y-106302443D01*
X142785563Y-106279834D01*
X142782144Y-106256779D01*
X142781000Y-106233500D01*
X142781000Y-105658500D01*
X142782144Y-105635221D01*
X142785563Y-105612166D01*
X142791227Y-105589557D01*
X142799079Y-105567613D01*
X142809044Y-105546543D01*
X142821026Y-105526552D01*
X142834910Y-105507832D01*
X142850562Y-105490562D01*
X142867832Y-105474910D01*
X142886552Y-105461026D01*
X142906543Y-105449044D01*
X142927613Y-105439079D01*
X142949557Y-105431227D01*
X142972166Y-105425563D01*
X142995221Y-105422144D01*
X143018500Y-105421000D01*
X143493500Y-105421000D01*
X143516779Y-105422144D01*
X143516779Y-105422144D01*
G37*
D25*
G04 #@! TD*
G04 #@! TO.P,R23,1*
G04 #@! TO.N,/procesorov\00E1 jednotka/HAL_C*
X143256000Y-105946000D03*
D12*
G04 #@! TO.N,Net-(J7-Pad2)*
G04 #@! TO.C,R23*
G36*
X143516779Y-107172144D02*
X143539834Y-107175563D01*
X143562443Y-107181227D01*
X143584387Y-107189079D01*
X143605457Y-107199044D01*
X143625448Y-107211026D01*
X143644168Y-107224910D01*
X143661438Y-107240562D01*
X143677090Y-107257832D01*
X143690974Y-107276552D01*
X143702956Y-107296543D01*
X143712921Y-107317613D01*
X143720773Y-107339557D01*
X143726437Y-107362166D01*
X143729856Y-107385221D01*
X143731000Y-107408500D01*
X143731000Y-107983500D01*
X143729856Y-108006779D01*
X143726437Y-108029834D01*
X143720773Y-108052443D01*
X143712921Y-108074387D01*
X143702956Y-108095457D01*
X143690974Y-108115448D01*
X143677090Y-108134168D01*
X143661438Y-108151438D01*
X143644168Y-108167090D01*
X143625448Y-108180974D01*
X143605457Y-108192956D01*
X143584387Y-108202921D01*
X143562443Y-108210773D01*
X143539834Y-108216437D01*
X143516779Y-108219856D01*
X143493500Y-108221000D01*
X143018500Y-108221000D01*
X142995221Y-108219856D01*
X142972166Y-108216437D01*
X142949557Y-108210773D01*
X142927613Y-108202921D01*
X142906543Y-108192956D01*
X142886552Y-108180974D01*
X142867832Y-108167090D01*
X142850562Y-108151438D01*
X142834910Y-108134168D01*
X142821026Y-108115448D01*
X142809044Y-108095457D01*
X142799079Y-108074387D01*
X142791227Y-108052443D01*
X142785563Y-108029834D01*
X142782144Y-108006779D01*
X142781000Y-107983500D01*
X142781000Y-107408500D01*
X142782144Y-107385221D01*
X142785563Y-107362166D01*
X142791227Y-107339557D01*
X142799079Y-107317613D01*
X142809044Y-107296543D01*
X142821026Y-107276552D01*
X142834910Y-107257832D01*
X142850562Y-107240562D01*
X142867832Y-107224910D01*
X142886552Y-107211026D01*
X142906543Y-107199044D01*
X142927613Y-107189079D01*
X142949557Y-107181227D01*
X142972166Y-107175563D01*
X142995221Y-107172144D01*
X143018500Y-107171000D01*
X143493500Y-107171000D01*
X143516779Y-107172144D01*
X143516779Y-107172144D01*
G37*
D25*
G04 #@! TD*
G04 #@! TO.P,R23,2*
G04 #@! TO.N,Net-(J7-Pad2)*
X143256000Y-107696000D03*
D34*
G04 #@! TO.P,J8,1*
G04 #@! TO.N,+BATT*
X138557000Y-77089000D03*
D35*
X140207000Y-77089000D03*
X139723726Y-78255726D03*
X138557000Y-78739000D03*
X137390274Y-78255726D03*
X136907000Y-77089000D03*
X137390274Y-75922274D03*
X138557000Y-75439000D03*
X139723726Y-75922274D03*
G04 #@! TD*
G04 #@! TO.P,J9,1*
G04 #@! TO.N,GNDPWR*
X149629726Y-75922274D03*
X148463000Y-75439000D03*
X147296274Y-75922274D03*
X146813000Y-77089000D03*
X147296274Y-78255726D03*
X148463000Y-78739000D03*
X149629726Y-78255726D03*
X150113000Y-77089000D03*
D34*
X148463000Y-77089000D03*
G04 #@! TD*
G04 #@! TO.P,J1,1*
G04 #@! TO.N,/H m\016Fstky/OUT_A*
X196088000Y-103759000D03*
D35*
X196088000Y-102109000D03*
X197254726Y-102592274D03*
X197738000Y-103759000D03*
X197254726Y-104925726D03*
X196088000Y-105409000D03*
X194921274Y-104925726D03*
X194438000Y-103759000D03*
X194921274Y-102592274D03*
G04 #@! TD*
G04 #@! TO.P,J2,1*
G04 #@! TO.N,/H m\016Fstky/OUT_B*
X194921274Y-93067274D03*
X194438000Y-94234000D03*
X194921274Y-95400726D03*
X196088000Y-95884000D03*
X197254726Y-95400726D03*
X197738000Y-94234000D03*
X197254726Y-93067274D03*
X196088000Y-92584000D03*
D34*
X196088000Y-94234000D03*
G04 #@! TD*
G04 #@! TO.P,J3,1*
G04 #@! TO.N,/H m\016Fstky/OUT_C*
X196088000Y-84709000D03*
D35*
X196088000Y-83059000D03*
X197254726Y-83542274D03*
X197738000Y-84709000D03*
X197254726Y-85875726D03*
X196088000Y-86359000D03*
X194921274Y-85875726D03*
X194438000Y-84709000D03*
X194921274Y-83542274D03*
G04 #@! TD*
D36*
G04 #@! TO.P,H1,1*
G04 #@! TO.N,Net-(H1-Pad1)*
X202438000Y-109474000D03*
G04 #@! TD*
G04 #@! TO.P,H2,1*
G04 #@! TO.N,Net-(H2-Pad1)*
X202438000Y-78994000D03*
G04 #@! TD*
G04 #@! TO.P,H3,1*
G04 #@! TO.N,GNDS*
X102108000Y-109474000D03*
G04 #@! TD*
G04 #@! TO.P,H4,1*
G04 #@! TO.N,GNDS*
X102108000Y-78994000D03*
G04 #@! TD*
D37*
G04 #@! TO.N,+5V*
X121031000Y-111633000D03*
D38*
G04 #@! TO.N,+36V*
X157988000Y-85852000D03*
X159258000Y-85852000D03*
X160528000Y-85852000D03*
X161798000Y-85852000D03*
X157988000Y-99060000D03*
X159258000Y-99060000D03*
X160528000Y-99060000D03*
X161798000Y-99060000D03*
X156718000Y-113030000D03*
X156718000Y-111760000D03*
X156718000Y-110490000D03*
X156718000Y-109220000D03*
D37*
G04 #@! TO.N,+3V3*
X126633000Y-94629000D03*
X127000000Y-99187000D03*
X132715000Y-101582000D03*
X120980200Y-102489000D03*
X133763000Y-92462600D03*
X131750757Y-106413864D03*
X117170198Y-82727800D03*
X126663000Y-91719400D03*
G04 #@! TO.N,/H m\016Fstky/I_SENSE*
X150368000Y-91694000D03*
X150368000Y-91694000D03*
X130302000Y-100152200D03*
X150368000Y-95326200D03*
X129746420Y-105654494D03*
X150368000Y-106781619D03*
G04 #@! TO.N,Net-(Q4-Pad3)*
X149098000Y-91694000D03*
X149098000Y-100584000D03*
G04 #@! TO.N,/H m\016Fstky/INH_A*
X132207000Y-98171000D03*
X137718799Y-102489000D03*
G04 #@! TO.N,/H m\016Fstky/INH_B*
X142011400Y-98679000D03*
X135335019Y-97633379D03*
G04 #@! TO.N,/H m\016Fstky/INH_C*
X136728200Y-98983800D03*
X141935200Y-100457000D03*
G04 #@! TO.N,GNDS*
X117602000Y-110731300D03*
X118872000Y-110731300D03*
X118872000Y-109461300D03*
X117602000Y-109461300D03*
X112395000Y-110731300D03*
X113665000Y-110731300D03*
X113665000Y-109461300D03*
X112395000Y-109461300D03*
X118618000Y-98933000D03*
X113538000Y-98933000D03*
X108458000Y-98933000D03*
X123571000Y-98475800D03*
X112395000Y-88519000D03*
X118999000Y-87884000D03*
X106807000Y-93345000D03*
X122174000Y-104203500D03*
X133223000Y-108331000D03*
X131419600Y-100177600D03*
X128676400Y-94310200D03*
G04 #@! TO.N,GNDPWR*
X168275000Y-81534000D03*
X168148000Y-94869000D03*
X168275000Y-108204000D03*
D38*
X173863000Y-75438000D03*
X175133000Y-75438000D03*
X176403000Y-75438000D03*
X177673000Y-75438000D03*
X178943000Y-75438000D03*
X173863000Y-88773000D03*
X175133000Y-88773000D03*
X176403000Y-88773000D03*
X177673000Y-88773000D03*
X178943000Y-88773000D03*
X173863000Y-102108000D03*
X175133000Y-102108000D03*
X176403000Y-102108000D03*
X177673000Y-102108000D03*
X178943000Y-102108000D03*
D37*
G04 #@! TO.N,Net-(D2-Pad1)*
X106986000Y-88900000D03*
G04 #@! TO.N,Net-(D2-Pad2)*
X106997500Y-87249000D03*
G04 #@! TO.N,/interface/CANtx*
X121513601Y-89789001D03*
X124866400Y-89763596D03*
G04 #@! TO.N,/interface/CANrx*
X128092200Y-88468200D03*
X121488200Y-86868002D03*
G04 #@! TO.N,/procesorov\00E1 jednotka/SYS_SWC*
X132537200Y-91541600D03*
X123716775Y-85177790D03*
G04 #@! TO.N,/procesorov\00E1 jednotka/SYS_SWDIO*
X122402600Y-84277200D03*
X135382000Y-95580200D03*
G04 #@! TO.N,/procesorov\00E1 jednotka/SYS_TRA*
X131470400Y-91592400D03*
X122961400Y-85928200D03*
G04 #@! TO.N,/procesorov\00E1 jednotka/SYS_NRST*
X122758200Y-95783400D03*
X122174000Y-98247198D03*
G04 #@! TO.N,/procesorov\00E1 jednotka/HAL_C*
X132778500Y-103187500D03*
G04 #@! TO.N,/procesorov\00E1 jednotka/HAL_B*
X132842000Y-104521000D03*
G04 #@! TO.N,/procesorov\00E1 jednotka/HAL_A*
X132638800Y-105664002D03*
G04 #@! TO.N,/power/PWR_SENSE*
X129159000Y-100203000D03*
X149225000Y-103327200D03*
X149225000Y-109347000D03*
X128701800Y-105816400D03*
D38*
G04 #@! TO.N,/H m\016Fstky/OUT_A*
X189230000Y-102870000D03*
X187325000Y-102870000D03*
X185420000Y-102870000D03*
X183515000Y-102870000D03*
X181610000Y-102870000D03*
X189230000Y-111760000D03*
X187325000Y-111760000D03*
X185420000Y-111760000D03*
X183515000Y-111760000D03*
X181610000Y-111760000D03*
X181610000Y-109855000D03*
X183515000Y-109855000D03*
X185420000Y-109855000D03*
X187325000Y-109855000D03*
X189230000Y-109855000D03*
X189230000Y-104775000D03*
X187325000Y-104775000D03*
X185420000Y-104775000D03*
X183515000Y-104775000D03*
X181610000Y-104775000D03*
X189230000Y-107315000D03*
X187325000Y-107315000D03*
X181610000Y-107315000D03*
X183515000Y-107315000D03*
X185420000Y-107315000D03*
G04 #@! TO.N,/H m\016Fstky/OUT_B*
X189230000Y-98425000D03*
X187325000Y-98425000D03*
X185420000Y-98425000D03*
X183515000Y-98425000D03*
X181610000Y-98425000D03*
X181610000Y-90170000D03*
X183515000Y-90170000D03*
X185420000Y-90170000D03*
X187325000Y-90170000D03*
X189230000Y-90170000D03*
X189230000Y-92075000D03*
X187325000Y-92075000D03*
X183515000Y-92075000D03*
X181610000Y-92075000D03*
X181610000Y-96520000D03*
X183515000Y-96520000D03*
X189230000Y-96520000D03*
X187325000Y-96520000D03*
X185420000Y-96520000D03*
X185420000Y-92075000D03*
X189230000Y-94234000D03*
X187325000Y-94234000D03*
X181610000Y-94234000D03*
X183515000Y-94234000D03*
X185420000Y-94234000D03*
G04 #@! TO.N,/H m\016Fstky/OUT_C*
X189230000Y-76200000D03*
X187325000Y-76200000D03*
X185420000Y-76200000D03*
X183515000Y-76200000D03*
X181610000Y-76200000D03*
X189230000Y-78105000D03*
X187325000Y-78105000D03*
X185420000Y-78105000D03*
X183515000Y-78105000D03*
X181610000Y-78105000D03*
X181610000Y-85090000D03*
X183515000Y-85090000D03*
X185420000Y-85090000D03*
X187325000Y-85090000D03*
X189230000Y-85090000D03*
X189230000Y-83185000D03*
X187325000Y-83185000D03*
X185420000Y-83185000D03*
X183515000Y-83185000D03*
X181610000Y-83185000D03*
X189230000Y-80645000D03*
X187325000Y-80645000D03*
X183515000Y-80645000D03*
X185420000Y-80645000D03*
X181610000Y-80772000D03*
D37*
G04 #@! TO.N,/power/pwrs_in*
X108458000Y-107601000D03*
G04 #@! TO.N,Net-(C23-Pad1)*
X130556000Y-111506000D03*
G04 #@! TD*
D39*
G04 #@! TO.N,+5V*
X121031000Y-111633000D02*
X121031000Y-111633000D01*
D40*
X114403000Y-105154000D02*
X114403000Y-107422500D01*
X113538000Y-104289000D02*
X114403000Y-105154000D01*
X121031000Y-111633000D02*
X119557800Y-113106200D01*
X119557800Y-113106200D02*
X116332000Y-113106200D01*
X115443000Y-112217200D02*
X115443000Y-107422500D01*
X116332000Y-113106200D02*
X115443000Y-112217200D01*
X114403000Y-107422500D02*
X115443000Y-107422500D01*
X115443000Y-107422500D02*
X116737000Y-107422500D01*
X113538000Y-104289000D02*
X111125000Y-101876000D01*
X111125000Y-101876000D02*
X111125000Y-88530998D01*
X112406998Y-87249000D02*
X113698000Y-87249000D01*
X111125000Y-88530998D02*
X112406998Y-87249000D01*
X115471000Y-87249000D02*
X113698000Y-87249000D01*
X116106000Y-87884000D02*
X115471000Y-87249000D01*
G04 #@! TO.N,+36V*
X159893000Y-109679000D02*
X159893000Y-111379000D01*
X159561000Y-109347000D02*
X159893000Y-109679000D01*
X152194200Y-109347000D02*
X159561000Y-109347000D01*
D41*
G04 #@! TO.N,+3V3*
X126603000Y-94659000D02*
X126633000Y-94629000D01*
X125063000Y-94659000D02*
X126603000Y-94659000D01*
D39*
X116078000Y-95885000D02*
X116078000Y-95319315D01*
X116078000Y-95885000D02*
X116078000Y-96710500D01*
X117348000Y-104394000D02*
X118618000Y-104394000D01*
X116078000Y-99060000D02*
X116078000Y-103124000D01*
X116078000Y-103124000D02*
X117348000Y-104394000D01*
X119971500Y-107188000D02*
X119737000Y-107422500D01*
X121666000Y-107188000D02*
X119971500Y-107188000D01*
D41*
X132538000Y-101759000D02*
X132715000Y-101582000D01*
X132163000Y-101759000D02*
X132538000Y-101759000D01*
X132715000Y-101582000D02*
X132715000Y-101582000D01*
X126663000Y-94599000D02*
X126633000Y-94629000D01*
X126663000Y-93059000D02*
X126663000Y-94599000D01*
X116078000Y-99060000D02*
X116078000Y-96710500D01*
X126613000Y-98659000D02*
X126633000Y-98679000D01*
X125063000Y-98659000D02*
X126613000Y-98659000D01*
X133763000Y-94659000D02*
X133763000Y-92462600D01*
D40*
X120523000Y-102489000D02*
X118618000Y-104394000D01*
X120980200Y-102489000D02*
X120523000Y-102489000D01*
X119737000Y-105513000D02*
X118618000Y-104394000D01*
X119737000Y-107422500D02*
X119737000Y-105513000D01*
D41*
X132863000Y-94659000D02*
X132856200Y-94665800D01*
X133763000Y-94659000D02*
X132863000Y-94659000D01*
D40*
X131528000Y-94659000D02*
X127000000Y-99187000D01*
X132863000Y-94659000D02*
X131528000Y-94659000D01*
X126633000Y-98820000D02*
X127000000Y-99187000D01*
X126633000Y-94629000D02*
X126633000Y-98820000D01*
D41*
X116078000Y-95319315D02*
X116967000Y-94430315D01*
X116967000Y-82930998D02*
X117170198Y-82727800D01*
X116967000Y-94430315D02*
X116967000Y-82930998D01*
X126663000Y-93059000D02*
X126663000Y-91719400D01*
X120053493Y-104929493D02*
X130266386Y-104929493D01*
X118618000Y-104394000D02*
X119518000Y-104394000D01*
X119518000Y-104394000D02*
X120053493Y-104929493D01*
X130266386Y-104929493D02*
X131350758Y-106013865D01*
X131350758Y-106013865D02*
X131750757Y-106413864D01*
D40*
X132269601Y-99769599D02*
X132269601Y-99847998D01*
X131687002Y-99187000D02*
X132269601Y-99769599D01*
X127000000Y-99187000D02*
X131687002Y-99187000D01*
D41*
X132269601Y-99847998D02*
X132163000Y-99847998D01*
X132163000Y-101759000D02*
X132340000Y-101582000D01*
X132340000Y-101582000D02*
X132715000Y-101582000D01*
D40*
X132269601Y-101136601D02*
X132715000Y-101582000D01*
X132269601Y-99769599D02*
X132269601Y-101136601D01*
D41*
G04 #@! TO.N,/H m\016Fstky/I_SENSE*
X131635500Y-107660500D02*
X130048000Y-107660500D01*
X129641600Y-106019600D02*
X129641600Y-106019600D01*
X129663000Y-100791200D02*
X130302000Y-100152200D01*
X129663000Y-101759000D02*
X129663000Y-100791200D01*
X130048000Y-107660500D02*
X130048000Y-105956074D01*
X130048000Y-105956074D02*
X129746420Y-105654494D01*
X164566600Y-96774000D02*
X173720000Y-96774000D01*
X162164622Y-94372022D02*
X164566600Y-96774000D01*
X150342600Y-95250000D02*
X151220578Y-94372022D01*
X173720000Y-96774000D02*
X176270000Y-96774000D01*
X151220578Y-94372022D02*
X162164622Y-94372022D01*
X149802315Y-106781619D02*
X150368000Y-106781619D01*
X165455619Y-106781619D02*
X150933685Y-106781619D01*
X132482601Y-106813399D02*
X149770535Y-106813399D01*
X149770535Y-106813399D02*
X149802315Y-106781619D01*
X131635500Y-107660500D02*
X132482601Y-106813399D01*
X150933685Y-106781619D02*
X150368000Y-106781619D01*
X168783000Y-110109000D02*
X165455619Y-106781619D01*
X176258000Y-110109000D02*
X168783000Y-110109000D01*
X156083000Y-85902800D02*
X150368000Y-91617800D01*
X156083000Y-81534000D02*
X156083000Y-85902800D01*
X150368000Y-91617800D02*
X150368000Y-91694000D01*
X176270000Y-83312000D02*
X173720000Y-83312000D01*
X173720000Y-83312000D02*
X173516800Y-83515200D01*
X173516800Y-83515200D02*
X167919400Y-83515200D01*
X167919400Y-83515200D02*
X165354000Y-80949800D01*
X165354000Y-80949800D02*
X156667200Y-80949800D01*
X156667200Y-80949800D02*
X156083000Y-81534000D01*
D39*
G04 #@! TO.N,Net-(C6-Pad1)*
X176143000Y-82169000D02*
X176270000Y-82042000D01*
X171196000Y-82169000D02*
X176143000Y-82169000D01*
X171196000Y-80645000D02*
X171196000Y-82169000D01*
G04 #@! TO.N,Net-(C7-Pad1)*
X171323000Y-95504000D02*
X171196000Y-95631000D01*
X176270000Y-95504000D02*
X171323000Y-95504000D01*
X171196000Y-95631000D02*
X171196000Y-94107000D01*
G04 #@! TO.N,Net-(C8-Pad1)*
X171323000Y-108839000D02*
X171196000Y-108966000D01*
X176258000Y-108839000D02*
X171323000Y-108839000D01*
X171196000Y-108966000D02*
X171196000Y-107442000D01*
D40*
G04 #@! TO.N,+9V*
X101473000Y-99822000D02*
X101703000Y-99822000D01*
D41*
G04 #@! TO.N,Net-(Q2-Pad3)*
X141478000Y-103759000D02*
X140208000Y-102489000D01*
X147193000Y-103759000D02*
X146964400Y-103759000D01*
X146964400Y-103759000D02*
X141478000Y-103759000D01*
X176258000Y-106299000D02*
X150958403Y-106299000D01*
X148418403Y-103759000D02*
X146964400Y-103759000D01*
X150958403Y-106299000D02*
X148418403Y-103759000D01*
G04 #@! TO.N,Net-(Q2-Pad2)*
X176258000Y-105029000D02*
X172770800Y-105029000D01*
X172770800Y-105029000D02*
X172593000Y-105029000D01*
X163830000Y-105029000D02*
X172770800Y-105029000D01*
X161086800Y-102285800D02*
X163830000Y-105029000D01*
X144639000Y-102489000D02*
X147193000Y-102489000D01*
X147396200Y-102285800D02*
X161086800Y-102285800D01*
X147193000Y-102489000D02*
X147396200Y-102285800D01*
G04 #@! TO.N,Net-(Q3-Pad2)*
X173720000Y-91694000D02*
X176270000Y-91694000D01*
X172831000Y-92583000D02*
X173720000Y-91694000D01*
X161645600Y-92583000D02*
X172831000Y-92583000D01*
X160756600Y-93472000D02*
X161645600Y-92583000D01*
X141108598Y-99655402D02*
X141108598Y-97778402D01*
X140180000Y-100584000D02*
X141108598Y-99655402D01*
X141478000Y-97409000D02*
X143383000Y-97409000D01*
X143383000Y-97409000D02*
X147320000Y-93472000D01*
X141108598Y-97778402D02*
X141478000Y-97409000D01*
X147320000Y-93472000D02*
X160756600Y-93472000D01*
G04 #@! TO.N,Net-(Q3-Pad3)*
X149409989Y-93922011D02*
X161113201Y-93922011D01*
X161113201Y-93922011D02*
X161893412Y-93141800D01*
X173720000Y-92964000D02*
X176270000Y-92964000D01*
X173542200Y-93141800D02*
X173720000Y-92964000D01*
X144653000Y-98679000D02*
X149409989Y-93922011D01*
X161893412Y-93141800D02*
X173542200Y-93141800D01*
G04 #@! TO.N,Net-(Q4-Pad2)*
X140208000Y-97409000D02*
X140208000Y-98679000D01*
X140843000Y-96774000D02*
X140208000Y-97409000D01*
X166116000Y-78232000D02*
X164383999Y-79964001D01*
X176270000Y-78232000D02*
X166116000Y-78232000D01*
X142748000Y-96774000D02*
X140843000Y-96774000D01*
X164383999Y-79964001D02*
X155595599Y-79964001D01*
X155595599Y-79964001D02*
X154813000Y-80746600D01*
X154813000Y-84709000D02*
X142748000Y-96774000D01*
X154813000Y-80746600D02*
X154813000Y-84709000D01*
G04 #@! TO.N,Net-(Q4-Pad3)*
X149098000Y-100584000D02*
X144625000Y-100584000D01*
X176270000Y-79502000D02*
X166269811Y-79502000D01*
X165304611Y-80467200D02*
X155879800Y-80467200D01*
X149497999Y-91294001D02*
X149098000Y-91694000D01*
X155879800Y-80467200D02*
X155448000Y-80899000D01*
X155448000Y-85344000D02*
X149497999Y-91294001D01*
X155448000Y-80899000D02*
X155448000Y-85344000D01*
X166269811Y-79502000D02*
X165304611Y-80467200D01*
G04 #@! TO.N,/H m\016Fstky/INH_A*
X132219000Y-98159000D02*
X132207000Y-98171000D01*
X133763000Y-98159000D02*
X132219000Y-98159000D01*
X138458000Y-102489000D02*
X137718799Y-102489000D01*
G04 #@! TO.N,/H m\016Fstky/IN_A*
X133763000Y-99659000D02*
X135596000Y-99659000D01*
X141960798Y-101560798D02*
X142389928Y-101989928D01*
X137497798Y-101560798D02*
X141960798Y-101560798D01*
X142389928Y-101989928D02*
X142889000Y-102489000D01*
X135596000Y-99659000D02*
X137497798Y-101560798D01*
G04 #@! TO.N,/H m\016Fstky/INH_B*
X142011400Y-98679000D02*
X142903000Y-98679000D01*
X135309398Y-97659000D02*
X135335019Y-97633379D01*
X133763000Y-97659000D02*
X135309398Y-97659000D01*
G04 #@! TO.N,/H m\016Fstky/IN_B*
X137805000Y-100584000D02*
X138430000Y-100584000D01*
X137271556Y-100584000D02*
X137805000Y-100584000D01*
X135846556Y-99159000D02*
X137271556Y-100584000D01*
X133763000Y-99159000D02*
X135846556Y-99159000D01*
G04 #@! TO.N,/H m\016Fstky/INH_C*
X136403400Y-98659000D02*
X136728200Y-98983800D01*
X133763000Y-98659000D02*
X136403400Y-98659000D01*
X142875000Y-100584000D02*
X142062200Y-100584000D01*
X142062200Y-100584000D02*
X141935200Y-100457000D01*
D39*
G04 #@! TO.N,GNDS*
X108458000Y-100794000D02*
X108458000Y-98933000D01*
X108458000Y-99394000D02*
X108458000Y-98933000D01*
X113538000Y-100689000D02*
X113538000Y-98933000D01*
X113538000Y-99289000D02*
X113538000Y-98933000D01*
X118618000Y-100794000D02*
X118618000Y-98933000D01*
X113538000Y-98933000D02*
X113538000Y-99289000D01*
X108458000Y-98933000D02*
X108458000Y-99394000D01*
X136596120Y-94615000D02*
X137033000Y-94615000D01*
X112903000Y-110236000D02*
X112903000Y-107569000D01*
X112903000Y-111239300D02*
X112395000Y-110731300D01*
X112903000Y-111569500D02*
X112903000Y-111239300D01*
X118237000Y-111366300D02*
X117602000Y-110731300D01*
X118237000Y-111569500D02*
X118237000Y-111366300D01*
X118237000Y-108826300D02*
X118872000Y-109461300D01*
X118237000Y-107569000D02*
X118237000Y-108826300D01*
X107936000Y-93345000D02*
X107950000Y-93331000D01*
X106807000Y-93345000D02*
X107936000Y-93345000D01*
X122174000Y-103187500D02*
X122174000Y-104203500D01*
D41*
X126428500Y-107632500D02*
X126174500Y-107378500D01*
X126174500Y-108528500D02*
X126174500Y-107378500D01*
X127042500Y-109396500D02*
X126174500Y-108528500D01*
X128143000Y-109396500D02*
X127042500Y-109396500D01*
X130048000Y-109410500D02*
X131635500Y-109410500D01*
X131635500Y-109410500D02*
X133096000Y-109410500D01*
X133096000Y-108785500D02*
X133223000Y-108331000D01*
X133096000Y-109410500D02*
X133096000Y-108785500D01*
X133223000Y-108658500D02*
X133223000Y-108331000D01*
X133223000Y-108331000D02*
X133223000Y-108658500D01*
X131663000Y-101030600D02*
X131673600Y-101020000D01*
X131663000Y-101759000D02*
X131663000Y-101030600D01*
X131419600Y-100743285D02*
X131419600Y-100177600D01*
X131663000Y-100986685D02*
X131419600Y-100743285D01*
X131663000Y-101030600D02*
X131663000Y-100986685D01*
X123887800Y-98159000D02*
X125063000Y-98159000D01*
X123571000Y-98475800D02*
X123887800Y-98159000D01*
D40*
X117856000Y-87884000D02*
X118999000Y-87884000D01*
X113698000Y-88519000D02*
X112395000Y-88519000D01*
D41*
X128663000Y-93059000D02*
X128663000Y-94296800D01*
X128663000Y-94296800D02*
X128676400Y-94310200D01*
X135207000Y-94615000D02*
X137033000Y-94615000D01*
X133763000Y-95159000D02*
X134663000Y-95159000D01*
X134663000Y-95159000D02*
X135207000Y-94615000D01*
X127514200Y-94310200D02*
X128676400Y-94310200D01*
X127163000Y-93059000D02*
X127163000Y-93959000D01*
X127163000Y-93959000D02*
X127514200Y-94310200D01*
D40*
G04 #@! TO.N,GNDPWR*
X169446000Y-81562000D02*
X169446000Y-82169000D01*
X169418000Y-81534000D02*
X169446000Y-81562000D01*
X168148000Y-81534000D02*
X168275000Y-81534000D01*
X169446000Y-81506000D02*
X169418000Y-81534000D01*
X169446000Y-80645000D02*
X169446000Y-81506000D01*
X168148000Y-94869000D02*
X168148000Y-94869000D01*
X169446000Y-94841000D02*
X169446000Y-94107000D01*
X169418000Y-94869000D02*
X169446000Y-94841000D01*
X169446000Y-94897000D02*
X169418000Y-94869000D01*
X169446000Y-95631000D02*
X169446000Y-94897000D01*
X168148000Y-108204000D02*
X168275000Y-108204000D01*
X169446000Y-108176000D02*
X169446000Y-107442000D01*
X169418000Y-108204000D02*
X169446000Y-108176000D01*
X169446000Y-108232000D02*
X169418000Y-108204000D01*
X169446000Y-108966000D02*
X169446000Y-108232000D01*
D39*
X159341200Y-103327200D02*
X159893000Y-103879000D01*
X156482400Y-103879000D02*
X159893000Y-103879000D01*
X153275000Y-103327200D02*
X155930600Y-103327200D01*
X155930600Y-103327200D02*
X156482400Y-103879000D01*
D40*
X168275000Y-81534000D02*
X169418000Y-81534000D01*
X168148000Y-94869000D02*
X169418000Y-94869000D01*
X168275000Y-108204000D02*
X169418000Y-108204000D01*
D41*
X176270000Y-75698000D02*
X176530000Y-75698000D01*
X176270000Y-75698000D02*
X175260000Y-75698000D01*
X176270000Y-75698000D02*
X176270000Y-75698000D01*
X177546000Y-75698000D02*
X177800000Y-75698000D01*
X178816000Y-75698000D02*
X179070000Y-75698000D01*
X175006000Y-75698000D02*
X173996000Y-75698000D01*
X173996000Y-75698000D02*
X173996000Y-75698000D01*
X175260000Y-75698000D02*
X175006000Y-75698000D01*
X176530000Y-75698000D02*
X177546000Y-75698000D01*
X177800000Y-75698000D02*
X178816000Y-75698000D01*
X179070000Y-75698000D02*
X179318000Y-75698000D01*
X176276000Y-88900000D02*
X176530000Y-88900000D01*
X173736000Y-88900000D02*
X173482000Y-88900000D01*
X177546000Y-88900000D02*
X177800000Y-88900000D01*
X178816000Y-88900000D02*
X179070000Y-88900000D01*
X173990000Y-88900000D02*
X173736000Y-88900000D01*
X175260000Y-88900000D02*
X175006000Y-88900000D01*
X179070000Y-88900000D02*
X179324000Y-88900000D01*
X176276000Y-102108000D02*
X176530000Y-102108000D01*
X173990000Y-102108000D02*
X173482000Y-102108000D01*
X175260000Y-102108000D02*
X173990000Y-102108000D01*
X175260000Y-102108000D02*
X176276000Y-102108000D01*
X176530000Y-102108000D02*
X177800000Y-102108000D01*
X177800000Y-102108000D02*
X179070000Y-102108000D01*
X179070000Y-102108000D02*
X179324000Y-102108000D01*
D42*
X176530000Y-103487000D02*
X176258000Y-103759000D01*
X176530000Y-102108000D02*
X176530000Y-103487000D01*
X176530000Y-90164000D02*
X176270000Y-90424000D01*
X176530000Y-88900000D02*
X176530000Y-90164000D01*
D41*
G04 #@! TO.N,Net-(C12-Pad1)*
X124151000Y-96647000D02*
X121275500Y-96647000D01*
X121275500Y-96647000D02*
X118672000Y-94043500D01*
X125063000Y-96659000D02*
X124163000Y-96659000D01*
X124163000Y-96659000D02*
X124151000Y-96647000D01*
G04 #@! TO.N,Net-(C17-Pad1)*
X113792000Y-96315500D02*
X113792000Y-94043500D01*
X115203000Y-97726500D02*
X113792000Y-96315500D01*
G04 #@! TO.N,Net-(D2-Pad1)*
X107367000Y-88519000D02*
X106986000Y-88900000D01*
X108298000Y-88519000D02*
X107367000Y-88519000D01*
G04 #@! TO.N,Net-(D2-Pad2)*
X108298000Y-87249000D02*
X106997500Y-87249000D01*
G04 #@! TO.N,/interface/CANtx*
X127663000Y-91341000D02*
X127663000Y-90424000D01*
X127663000Y-91341000D02*
X127663000Y-93059000D01*
X117842000Y-89789000D02*
X118467001Y-89789001D01*
X120947916Y-89789001D02*
X121513601Y-89789001D01*
X118467001Y-89789001D02*
X120947916Y-89789001D01*
X127663000Y-90424000D02*
X127002596Y-89763596D01*
X125432085Y-89763596D02*
X124866400Y-89763596D01*
X127002596Y-89763596D02*
X125432085Y-89763596D01*
G04 #@! TO.N,Net-(R1-Pad1)*
X113698000Y-89789000D02*
X116092000Y-89789000D01*
G04 #@! TO.N,Net-(R2-Pad1)*
X113698000Y-85979000D02*
X116078000Y-85979000D01*
G04 #@! TO.N,/interface/CANrx*
X128163000Y-93045600D02*
X128163000Y-93059000D01*
X128163000Y-88539000D02*
X128163000Y-93045600D01*
X120599198Y-85979000D02*
X121088201Y-86468003D01*
X121088201Y-86468003D02*
X121488200Y-86868002D01*
X117828000Y-85979000D02*
X120599198Y-85979000D01*
G04 #@! TO.N,/procesorov\00E1 jednotka/INH_C*
X133763000Y-97159000D02*
X134641400Y-97159000D01*
X134641400Y-97159000D02*
X134924800Y-96875600D01*
X134924800Y-96875600D02*
X138226800Y-96875600D01*
X138226800Y-96875600D02*
X138458000Y-97106800D01*
X138458000Y-97106800D02*
X138458000Y-98679000D01*
D39*
G04 #@! TO.N,Net-(R13-Pad1)*
X108331000Y-89822000D02*
X108298000Y-89789000D01*
D41*
X107950000Y-91581000D02*
X107950000Y-89725500D01*
X108013500Y-89789000D02*
X108298000Y-89789000D01*
X107950000Y-89725500D02*
X108013500Y-89789000D01*
G04 #@! TO.N,/procesorov\00E1 jednotka/SYS_SWC*
X132163000Y-91915800D02*
X132537200Y-91541600D01*
X132163000Y-93059000D02*
X132163000Y-91915800D01*
X123698000Y-77089000D02*
X123698000Y-85159015D01*
X123698000Y-85159015D02*
X123716775Y-85177790D01*
G04 #@! TO.N,/procesorov\00E1 jednotka/SYS_SWDIO*
X121158000Y-83032600D02*
X122402600Y-84277200D01*
X121158000Y-77089000D02*
X121158000Y-83032600D01*
X135303200Y-95659000D02*
X135382000Y-95580200D01*
X133763000Y-95659000D02*
X135303200Y-95659000D01*
G04 #@! TO.N,/procesorov\00E1 jednotka/SYS_TRA*
X131163000Y-91899800D02*
X131163000Y-93059000D01*
X131470400Y-91592400D02*
X131163000Y-91899800D01*
X116052600Y-79019400D02*
X122961400Y-85928200D01*
X113969800Y-79019400D02*
X116052600Y-79019400D01*
X113538000Y-77089000D02*
X113538000Y-78587600D01*
X113538000Y-78587600D02*
X113969800Y-79019400D01*
G04 #@! TO.N,/procesorov\00E1 jednotka/SYS_NRST*
X122174000Y-98704400D02*
X122174000Y-98704400D01*
X122573999Y-97847199D02*
X122174000Y-98247198D01*
X122174000Y-101437500D02*
X122174000Y-98247198D01*
X122762198Y-97659000D02*
X122573999Y-97847199D01*
X125063000Y-97659000D02*
X122762198Y-97659000D01*
X110998000Y-77938999D02*
X110998000Y-77089000D01*
X110998000Y-78587600D02*
X110998000Y-77938999D01*
X111963200Y-79552800D02*
X110998000Y-78587600D01*
X122758200Y-95783400D02*
X122758200Y-86887198D01*
X115423802Y-79552800D02*
X111963200Y-79552800D01*
X122758200Y-86887198D02*
X115423802Y-79552800D01*
G04 #@! TO.N,/procesorov\00E1 jednotka/HAL_C*
X125063000Y-101885500D02*
X125063000Y-100159000D01*
X126301500Y-103124000D02*
X125063000Y-101885500D01*
X132778500Y-103187500D02*
X132212815Y-103187500D01*
X132149315Y-103124000D02*
X126301500Y-103124000D01*
X132212815Y-103187500D02*
X132149315Y-103124000D01*
X133178499Y-103587499D02*
X132778500Y-103187500D01*
X140322499Y-103587499D02*
X133178499Y-103587499D01*
X142681000Y-105946000D02*
X140322499Y-103587499D01*
X143256000Y-105946000D02*
X142681000Y-105946000D01*
G04 #@! TO.N,/procesorov\00E1 jednotka/HAL_B*
X124163000Y-99659000D02*
X125063000Y-99659000D01*
X124087999Y-99734001D02*
X124163000Y-99659000D01*
X124087999Y-101546909D02*
X124087999Y-99734001D01*
X124087999Y-101546909D02*
X126115100Y-103574010D01*
X131895010Y-103574010D02*
X132842000Y-104521000D01*
X126115100Y-103574010D02*
X131895010Y-103574010D01*
X133407685Y-104521000D02*
X132842000Y-104521000D01*
X140716000Y-105321000D02*
X139916000Y-104521000D01*
X139916000Y-104521000D02*
X133407685Y-104521000D01*
X140716000Y-105946000D02*
X140716000Y-105321000D01*
G04 #@! TO.N,/procesorov\00E1 jednotka/HAL_A*
X125868019Y-104024019D02*
X130998817Y-104024019D01*
X130998817Y-104024019D02*
X132238801Y-105264003D01*
X132920798Y-105946000D02*
X132638800Y-105664002D01*
X138176000Y-105946000D02*
X132920798Y-105946000D01*
X123637989Y-101793989D02*
X125868019Y-104024019D01*
X123960802Y-99159000D02*
X123637989Y-99481813D01*
X125063000Y-99159000D02*
X123960802Y-99159000D01*
X123637989Y-99481813D02*
X123637989Y-101793989D01*
X132238801Y-105264003D02*
X132638800Y-105664002D01*
G04 #@! TO.N,/procesorov\00E1 jednotka/CONF_1*
X135578010Y-90620010D02*
X137033000Y-92075000D01*
X130742400Y-90620010D02*
X135578010Y-90620010D01*
X130663000Y-93059000D02*
X130663000Y-90699410D01*
X130663000Y-90699410D02*
X130742400Y-90620010D01*
G04 #@! TO.N,/procesorov\00E1 jednotka/CONF_2*
X130163000Y-93059000D02*
X130163000Y-90563000D01*
X130163000Y-90563000D02*
X130556000Y-90170000D01*
X130556000Y-90170000D02*
X138303000Y-90170000D01*
X138870081Y-90170000D02*
X138557000Y-90170000D01*
X139573000Y-92075000D02*
X139573000Y-90872919D01*
X138303000Y-90170000D02*
X138557000Y-90170000D01*
X139573000Y-90872919D02*
X138870081Y-90170000D01*
X138557000Y-90170000D02*
X138684000Y-90170000D01*
G04 #@! TO.N,Net-(D3-Pad2)*
X122075000Y-108938000D02*
X121666000Y-108938000D01*
X123634500Y-107378500D02*
X122075000Y-108938000D01*
G04 #@! TO.N,Net-(D4-Pad1)*
X127762000Y-85330000D02*
X127748000Y-85344000D01*
X127762000Y-82169000D02*
X127762000Y-85330000D01*
G04 #@! TO.N,LED_2*
X123903800Y-95659000D02*
X125063000Y-95659000D01*
X125222000Y-83441792D02*
X124739400Y-83924392D01*
X123418600Y-87680800D02*
X123418600Y-95173800D01*
X125222000Y-82169000D02*
X125222000Y-83441792D01*
X124739400Y-83924392D02*
X124739400Y-86360000D01*
X124739400Y-86360000D02*
X123418600Y-87680800D01*
X123418600Y-95173800D02*
X123903800Y-95659000D01*
G04 #@! TO.N,/power/PWR_SENSE*
X149225000Y-103327200D02*
X151525000Y-103327200D01*
X150444200Y-109347000D02*
X149819200Y-109347000D01*
X149819200Y-109347000D02*
X149225000Y-109347000D01*
X149225000Y-109347000D02*
X149225000Y-109912685D01*
X129163000Y-100207000D02*
X129159000Y-100203000D01*
X129163000Y-101759000D02*
X129163000Y-100207000D01*
X128642072Y-108145572D02*
X128143000Y-107646500D01*
X149225000Y-111442500D02*
X147955000Y-112712500D01*
X149225000Y-109347000D02*
X149225000Y-111442500D01*
X147955000Y-112712500D02*
X129794000Y-112712500D01*
X129794000Y-112712500D02*
X129032000Y-111950500D01*
X129032000Y-111950500D02*
X129032000Y-108535500D01*
X129032000Y-108535500D02*
X128642072Y-108145572D01*
X128301801Y-106216399D02*
X128701800Y-105816400D01*
X128143000Y-107646500D02*
X128143000Y-106375200D01*
X128143000Y-106375200D02*
X128301801Y-106216399D01*
G04 #@! TO.N,LED_1*
X123963599Y-89313999D02*
X123963599Y-94959599D01*
X125998000Y-85344000D02*
X125998000Y-87279598D01*
X124163000Y-95159000D02*
X125063000Y-95159000D01*
X123963599Y-94959599D02*
X124163000Y-95159000D01*
X125998000Y-87279598D02*
X123963599Y-89313999D01*
G04 #@! TO.N,/procesorov\00E1 jednotka/USART_TX*
X129663000Y-89970800D02*
X129663000Y-93059000D01*
X129663000Y-89666000D02*
X129663000Y-89970800D01*
X131028500Y-89027000D02*
X130302000Y-89027000D01*
X130302000Y-89027000D02*
X129663000Y-89666000D01*
G04 #@! TO.N,/procesorov\00E1 jednotka/USART_RX*
X129163000Y-88515000D02*
X129163000Y-88007000D01*
X129984500Y-87185500D02*
X131064000Y-87185500D01*
X129163000Y-88007000D02*
X129984500Y-87185500D01*
X129163000Y-88515000D02*
X129163000Y-93059000D01*
D42*
G04 #@! TO.N,/H m\016Fstky/OUT_A*
X176258000Y-107569000D02*
X185408000Y-107569000D01*
D39*
G04 #@! TO.N,/H m\016Fstky/OUT_B*
X181610000Y-94234000D02*
X183515000Y-94234000D01*
X183515000Y-94234000D02*
X185420000Y-94234000D01*
X185420000Y-94234000D02*
X185420000Y-94234000D01*
X185420000Y-94234000D02*
X185420000Y-94234000D01*
X181610000Y-94234000D02*
X181610000Y-94234000D01*
X183515000Y-94234000D02*
X183515000Y-94234000D01*
X185420000Y-94234000D02*
X185420000Y-94234000D01*
D42*
X176270000Y-94234000D02*
X185420000Y-94234000D01*
D39*
G04 #@! TO.N,/H m\016Fstky/OUT_C*
X181610000Y-80772000D02*
X181610000Y-80772000D01*
X181610000Y-80772000D02*
X182626000Y-80772000D01*
D42*
X176270000Y-80772000D02*
X185420000Y-80772000D01*
D40*
G04 #@! TO.N,/power/pwrs_in*
X108458000Y-107601000D02*
X108458000Y-107601000D01*
X108458000Y-104394000D02*
X108458000Y-107601000D01*
X111224500Y-107601000D02*
X111403000Y-107422500D01*
X108458000Y-107601000D02*
X111224500Y-107601000D01*
D41*
G04 #@! TO.N,Net-(R18-Pad1)*
X117520500Y-97159000D02*
X116953000Y-97726500D01*
X125063000Y-97159000D02*
X117520500Y-97159000D01*
D40*
G04 #@! TO.N,Net-(C23-Pad1)*
X132750500Y-111506000D02*
X133096000Y-111160500D01*
X130556000Y-111506000D02*
X132750500Y-111506000D01*
X134711500Y-111160500D02*
X135636000Y-110236000D01*
X133096000Y-111160500D02*
X134711500Y-111160500D01*
D41*
G04 #@! TO.N,Net-(J7-Pad2)*
X143256000Y-108886000D02*
X143256000Y-107696000D01*
X143256000Y-110236000D02*
X143256000Y-108886000D01*
G04 #@! TO.N,Net-(J7-Pad3)*
X140716000Y-108886000D02*
X140716000Y-107696000D01*
X140716000Y-110236000D02*
X140716000Y-108886000D01*
G04 #@! TO.N,Net-(J7-Pad4)*
X138176000Y-108321000D02*
X138176000Y-110236000D01*
X138176000Y-107696000D02*
X138176000Y-108321000D01*
G04 #@! TO.N,Net-(J11-Pad2)*
X133403500Y-89027000D02*
X134048500Y-88382000D01*
X132778500Y-89027000D02*
X133403500Y-89027000D01*
X134048500Y-88382000D02*
X134048500Y-81089500D01*
X132588000Y-79629000D02*
X131318000Y-79629000D01*
X134048500Y-81089500D02*
X132588000Y-79629000D01*
G04 #@! TO.N,Net-(J11-Pad3)*
X132814000Y-83665000D02*
X131318000Y-82169000D01*
X132814000Y-87185500D02*
X132814000Y-83665000D01*
G04 #@! TD*
D43*
G04 #@! TO.N,GNDPWR*
G36*
X179451000Y-76962000D02*
X173355000Y-76962000D01*
X173355000Y-74676000D01*
X179451000Y-74676000D01*
X179451000Y-76962000D01*
X179451000Y-76962000D01*
G37*
X179451000Y-76962000D02*
X173355000Y-76962000D01*
X173355000Y-74676000D01*
X179451000Y-74676000D01*
X179451000Y-76962000D01*
G36*
X179451000Y-103632000D02*
X173355000Y-103632000D01*
X173355000Y-101346000D01*
X179451000Y-101346000D01*
X179451000Y-103632000D01*
X179451000Y-103632000D01*
G37*
X179451000Y-103632000D02*
X173355000Y-103632000D01*
X173355000Y-101346000D01*
X179451000Y-101346000D01*
X179451000Y-103632000D01*
G36*
X179451000Y-90297000D02*
X173355000Y-90297000D01*
X173355000Y-88011000D01*
X179451000Y-88011000D01*
X179451000Y-90297000D01*
X179451000Y-90297000D01*
G37*
X179451000Y-90297000D02*
X173355000Y-90297000D01*
X173355000Y-88011000D01*
X179451000Y-88011000D01*
X179451000Y-90297000D01*
G04 #@! TO.N,+36V*
G36*
X162306000Y-82221606D02*
X162306000Y-84201000D01*
X162315667Y-84249601D01*
X162343197Y-84290803D01*
X162384399Y-84318333D01*
X162433000Y-84328000D01*
X173811939Y-84328000D01*
X173970000Y-84359440D01*
X178562000Y-84359440D01*
X178562000Y-87122000D01*
X157480000Y-87122000D01*
X157480000Y-82221606D01*
X157991806Y-81709800D01*
X161794194Y-81709800D01*
X162306000Y-82221606D01*
X162306000Y-82221606D01*
G37*
X162306000Y-82221606D02*
X162306000Y-84201000D01*
X162315667Y-84249601D01*
X162343197Y-84290803D01*
X162384399Y-84318333D01*
X162433000Y-84328000D01*
X173811939Y-84328000D01*
X173970000Y-84359440D01*
X178562000Y-84359440D01*
X178562000Y-87122000D01*
X157480000Y-87122000D01*
X157480000Y-82221606D01*
X157991806Y-81709800D01*
X161794194Y-81709800D01*
X162306000Y-82221606D01*
G36*
X162306000Y-95588201D02*
X162306000Y-97663000D01*
X162315667Y-97711601D01*
X162343197Y-97752803D01*
X162384399Y-97780333D01*
X162433000Y-97790000D01*
X173811939Y-97790000D01*
X173970000Y-97821440D01*
X178562000Y-97821440D01*
X178562000Y-100457000D01*
X157480000Y-100457000D01*
X157480000Y-95556606D01*
X157904584Y-95132022D01*
X161849821Y-95132022D01*
X162306000Y-95588201D01*
X162306000Y-95588201D01*
G37*
X162306000Y-95588201D02*
X162306000Y-97663000D01*
X162315667Y-97711601D01*
X162343197Y-97752803D01*
X162384399Y-97780333D01*
X162433000Y-97790000D01*
X173811939Y-97790000D01*
X173970000Y-97821440D01*
X178562000Y-97821440D01*
X178562000Y-100457000D01*
X157480000Y-100457000D01*
X157480000Y-95556606D01*
X157904584Y-95132022D01*
X161849821Y-95132022D01*
X162306000Y-95588201D01*
G36*
X162306000Y-110161606D02*
X162306000Y-110998000D01*
X162315667Y-111046601D01*
X162343197Y-111087803D01*
X162384399Y-111115333D01*
X162433000Y-111125000D01*
X173799939Y-111125000D01*
X173958000Y-111156440D01*
X178558000Y-111156440D01*
X178562000Y-111155644D01*
X178562000Y-113792000D01*
X155575000Y-113792000D01*
X155575000Y-109601000D01*
X161745394Y-109601000D01*
X162306000Y-110161606D01*
X162306000Y-110161606D01*
G37*
X162306000Y-110161606D02*
X162306000Y-110998000D01*
X162315667Y-111046601D01*
X162343197Y-111087803D01*
X162384399Y-111115333D01*
X162433000Y-111125000D01*
X173799939Y-111125000D01*
X173958000Y-111156440D01*
X178558000Y-111156440D01*
X178562000Y-111155644D01*
X178562000Y-113792000D01*
X155575000Y-113792000D01*
X155575000Y-109601000D01*
X161745394Y-109601000D01*
X162306000Y-110161606D01*
G04 #@! TO.N,/H m\016Fstky/OUT_C*
G36*
X198501000Y-87122000D02*
X180340000Y-87122000D01*
X180340000Y-74676000D01*
X198501000Y-74676000D01*
X198501000Y-87122000D01*
X198501000Y-87122000D01*
G37*
X198501000Y-87122000D02*
X180340000Y-87122000D01*
X180340000Y-74676000D01*
X198501000Y-74676000D01*
X198501000Y-87122000D01*
G04 #@! TO.N,/H m\016Fstky/OUT_A*
G36*
X198501000Y-113792000D02*
X180340000Y-113792000D01*
X180340000Y-101346000D01*
X198501000Y-101346000D01*
X198501000Y-113792000D01*
X198501000Y-113792000D01*
G37*
X198501000Y-113792000D02*
X180340000Y-113792000D01*
X180340000Y-101346000D01*
X198501000Y-101346000D01*
X198501000Y-113792000D01*
G04 #@! TO.N,/H m\016Fstky/OUT_B*
G36*
X198501000Y-100457000D02*
X180340000Y-100457000D01*
X180340000Y-88011000D01*
X198501000Y-88011000D01*
X198501000Y-100457000D01*
X198501000Y-100457000D01*
G37*
X198501000Y-100457000D02*
X180340000Y-100457000D01*
X180340000Y-88011000D01*
X198501000Y-88011000D01*
X198501000Y-100457000D01*
G04 #@! TO.N,+36V*
G36*
X165865809Y-108340479D02*
X167173023Y-109562511D01*
X168198887Y-110588376D01*
X168240839Y-110651161D01*
X168303623Y-110693112D01*
X168303625Y-110693114D01*
X168394213Y-110753643D01*
X168489584Y-110817368D01*
X168708937Y-110861000D01*
X168708940Y-110861000D01*
X168782999Y-110875731D01*
X168857058Y-110861000D01*
X173311582Y-110861000D01*
X173323000Y-110875357D01*
X173323000Y-111093250D01*
X173469330Y-111239580D01*
X161573472Y-111247778D01*
X161728000Y-111093250D01*
X161728000Y-110052691D01*
X161631327Y-109819302D01*
X161452699Y-109640673D01*
X161219310Y-109544000D01*
X160178750Y-109544000D01*
X160020000Y-109702750D01*
X160020000Y-111248849D01*
X159766000Y-111249024D01*
X159766000Y-109702750D01*
X159607250Y-109544000D01*
X158566690Y-109544000D01*
X158333301Y-109640673D01*
X158154673Y-109819302D01*
X158058000Y-110052691D01*
X158058000Y-111093250D01*
X158214843Y-111250093D01*
X155575000Y-111251912D01*
X155575000Y-108331116D01*
X165865809Y-108340479D01*
X165865809Y-108340479D01*
G37*
X165865809Y-108340479D02*
X167173023Y-109562511D01*
X168198887Y-110588376D01*
X168240839Y-110651161D01*
X168303623Y-110693112D01*
X168303625Y-110693114D01*
X168394213Y-110753643D01*
X168489584Y-110817368D01*
X168708937Y-110861000D01*
X168708940Y-110861000D01*
X168782999Y-110875731D01*
X168857058Y-110861000D01*
X173311582Y-110861000D01*
X173323000Y-110875357D01*
X173323000Y-111093250D01*
X173469330Y-111239580D01*
X161573472Y-111247778D01*
X161728000Y-111093250D01*
X161728000Y-110052691D01*
X161631327Y-109819302D01*
X161452699Y-109640673D01*
X161219310Y-109544000D01*
X160178750Y-109544000D01*
X160020000Y-109702750D01*
X160020000Y-111248849D01*
X159766000Y-111249024D01*
X159766000Y-109702750D01*
X159607250Y-109544000D01*
X158566690Y-109544000D01*
X158333301Y-109640673D01*
X158154673Y-109819302D01*
X158058000Y-110052691D01*
X158058000Y-111093250D01*
X158214843Y-111250093D01*
X155575000Y-111251912D01*
X155575000Y-108331116D01*
X165865809Y-108340479D01*
G36*
X172466000Y-104267000D02*
X165025606Y-104267000D01*
X161887803Y-101129197D01*
X161846601Y-101101667D01*
X161798000Y-101092000D01*
X157480000Y-101092000D01*
X157480000Y-100076000D01*
X172466000Y-100076000D01*
X172466000Y-104267000D01*
X172466000Y-104267000D01*
G37*
X172466000Y-104267000D02*
X165025606Y-104267000D01*
X161887803Y-101129197D01*
X161846601Y-101101667D01*
X161798000Y-101092000D01*
X157480000Y-101092000D01*
X157480000Y-100076000D01*
X172466000Y-100076000D01*
X172466000Y-104267000D01*
G36*
X172466000Y-90932000D02*
X166295606Y-90932000D01*
X163792803Y-88429197D01*
X163751601Y-88401667D01*
X163703000Y-88392000D01*
X157480000Y-88392000D01*
X157480000Y-86741000D01*
X172466000Y-86741000D01*
X172466000Y-90932000D01*
X172466000Y-90932000D01*
G37*
X172466000Y-90932000D02*
X166295606Y-90932000D01*
X163792803Y-88429197D01*
X163751601Y-88401667D01*
X163703000Y-88392000D01*
X157480000Y-88392000D01*
X157480000Y-86741000D01*
X172466000Y-86741000D01*
X172466000Y-90932000D01*
G04 #@! TD*
M02*
